<?xml version="1.0" encoding="utf-8"?>
<!-- Generator: Adobe Illustrator 21.0.0, SVG Export Plug-In . SVG Version: 6.00 Build 0)  -->
<svg version="1.1" id="Layer_1" xmlns="http://www.w3.org/2000/svg" xmlns:xlink="http://www.w3.org/1999/xlink" x="0px" y="0px"
	 viewBox="0 0 16 16" style="enable-background:new 0 0 16 16;" xml:space="preserve">
<path d="M4.3,4.3c-0.9,0.8-1.5,2-1.6,3.2C2.5,8.7,2.8,10,3.5,11c0.7,1.1,1.7,1.9,2.9,2.3c1.2,0.4,2.6,0.4,3.8-0.1
	c1.2-0.5,2.2-1.4,2.9-2.5c0.6-1.1,0.9-2.5,0.7-3.8c-0.2-1.3-0.9-2.5-2-3.4C10.7,2.6,9.4,2,8,2c1.4,0,2.8,0.4,3.9,1.3
	c1.1,0.9,1.9,2.1,2.2,3.5c0.3,1.4,0.1,2.9-0.5,4.2c-0.7,1.3-1.8,2.3-3.1,2.9c-1.3,0.6-2.9,0.7-4.3,0.3c-1.4-0.4-2.7-1.3-3.6-2.5
	c-0.9-1.2-1.3-2.8-1.2-4.3c0.1-1.5,0.8-3,1.9-4.1l0,0c0.3-0.3,0.8-0.3,1.1,0C4.6,3.5,4.6,4,4.3,4.3C4.3,4.3,4.3,4.3,4.3,4.3z"/>
</svg>
