<?xml version="1.0" encoding="utf-8"?>
<!-- Generator: Adobe Illustrator 22.1.0, SVG Export Plug-In . SVG Version: 6.00 Build 0)  -->
<svg version="1.1" id="Layer_1" xmlns="http://www.w3.org/2000/svg" xmlns:xlink="http://www.w3.org/1999/xlink" x="0px" y="0px"
	 viewBox="0 0 16 16" style="enable-background:new 0 0 16 16;" xml:space="preserve">
<g>
	<g>
		<path d="M7.5,2.1C4.2,2.1,1.6,4.8,1.6,8s2.7,5.9,5.9,5.9s5.9-2.6,5.9-5.9S10.8,2.1,7.5,2.1z M7.5,12.7c-2.6,0-4.7-2.1-4.7-4.7
			s2.1-4.7,4.7-4.7s4.7,2.1,4.7,4.7S10.1,12.7,7.5,12.7z"/>
	</g>
	<g>
		<path d="M10,9.6c0.2,0.2,0.2,0.6,0,0.9c-0.1,0.1-0.3,0.2-0.4,0.2c-0.2,0-0.3-0.1-0.4-0.2L7.5,8.9l-1.7,1.6
			c-0.1,0.1-0.3,0.2-0.4,0.2c-0.2,0-0.3-0.1-0.4-0.2c-0.2-0.2-0.2-0.6,0-0.9L6.7,8L5,6.3C4.8,6.1,4.8,5.7,5,5.5
			c0.2-0.2,0.6-0.2,0.8,0l1.7,1.7l1.6-1.7c0.2-0.2,0.6-0.2,0.9,0c0.2,0.2,0.2,0.6,0,0.8L8.4,8L10,9.6z"/>
	</g>
</g>
</svg>
