<?xml version="1.0" encoding="utf-8"?>
<!-- Generator: Adobe Illustrator 21.0.0, SVG Export Plug-In . SVG Version: 6.00 Build 0)  -->
<svg version="1.1" id="Layer_1" xmlns="http://www.w3.org/2000/svg" xmlns:xlink="http://www.w3.org/1999/xlink" x="0px" y="0px"
	 viewBox="0 0 16 16" style="enable-background:new 0 0 16 16;" xml:space="preserve">
<path d="M1,7.6h5v1H1V7.6z M2,6.1h5v1H2V6.1z M6.1,10.7c-0.8,0-1.4,0.6-1.4,1.4c0,0.8,0.6,1.4,1.4,1.4s1.4-0.6,1.4-1.4
	C7.5,11.4,6.9,10.7,6.1,10.7z M6.1,12.6c-0.3,0-0.4-0.2-0.4-0.4s0.2-0.4,0.4-0.4s0.4,0.2,0.4,0.4S6.3,12.6,6.1,12.6z M9.6,10.7
	c-0.8,0-1.4,0.6-1.4,1.4c0,0.8,0.6,1.4,1.4,1.4s1.4-0.6,1.4-1.4C11,11.4,10.4,10.7,9.6,10.7z M9.6,12.6c-0.3,0-0.4-0.2-0.4-0.4
	s0.2-0.4,0.4-0.4s0.4,0.2,0.4,0.4S9.8,12.6,9.6,12.6z M14.9,4.6c-0.1-0.2-0.3-0.3-0.4-0.3H5.7l0.6-1.1c0.1-0.2,0.1-0.3,0-0.5
	C6.2,2.5,6,2.5,5.9,2.5H4.2v1H5L4.4,4.6l0,0c0,0.1-0.1,0.2-0.1,0.2c0,0.3,0.2,0.5,0.5,0.5h8.7l-2.9,4H4.8c-0.3,0-0.5,0.2-0.5,0.5
	c0,0.3,0.2,0.5,0.5,0.5h6c0.2,0,0.3-0.1,0.4-0.2l3.7-5C15,4.9,15,4.7,14.9,4.6z"/>
</svg>
