<?xml version="1.0" encoding="utf-8"?>
<!-- Generator: Adobe Illustrator 22.1.0, SVG Export Plug-In . SVG Version: 6.00 Build 0)  -->
<svg version="1.1" id="Layer_1" xmlns="http://www.w3.org/2000/svg" xmlns:xlink="http://www.w3.org/1999/xlink" x="0px" y="0px"
	 viewBox="0 0 16 16" style="enable-background:new 0 0 16 16;" xml:space="preserve">
<path d="M13,2.2H3c-1,0-1.8,0.8-1.8,1.8v7.9c0,1,0.8,1.8,1.8,1.8H13c1,0,1.8-0.8,1.8-1.8V4.1C14.8,3.1,14,2.2,13,2.2z M13.5,11.9
	c0,0.3-0.2,0.5-0.5,0.5H3c-0.3,0-0.5-0.2-0.5-0.5V5.9h10.9L13.5,11.9L13.5,11.9z M13.5,4.5H2.5V4.1c0-0.3,0.2-0.5,0.5-0.5H13
	c0.3,0,0.5,0.2,0.5,0.5V4.5z M12.6,10.3c0,0.4-0.3,0.7-0.7,0.7H8.3c-0.4,0-0.7-0.3-0.7-0.7c0-0.4,0.3-0.7,0.7-0.7h3.6
	C12.3,9.7,12.6,10,12.6,10.3z M6.9,9.3c0,0.2-0.1,0.3-0.2,0.5L5,11.5c-0.1,0.1-0.3,0.2-0.5,0.2c-0.2,0-0.3-0.1-0.5-0.2
	c-0.3-0.3-0.3-0.7,0-0.9l1.3-1.3L4,8C3.7,7.7,3.7,7.3,4,7.1c0.3-0.3,0.7-0.3,0.9,0l1.8,1.8C6.8,9,6.9,9.2,6.9,9.3z"/>
</svg>
