<?xml version="1.0" encoding="utf-8"?>
<!-- Generator: Adobe Illustrator 22.1.0, SVG Export Plug-In . SVG Version: 6.00 Build 0)  -->
<svg version="1.1" id="Layer_1" xmlns="http://www.w3.org/2000/svg" xmlns:xlink="http://www.w3.org/1999/xlink" x="0px" y="0px"
	 viewBox="0 0 16 16" style="enable-background:new 0 0 16 16;" xml:space="preserve">
<g>
	<path d="M13,10.5H3c-1.3,0-2.3,1-2.3,2.3s1,2.3,2.3,2.3h10c1.3,0,2.3-1,2.3-2.3S14.3,10.5,13,10.5z M13,14.4H3
		c-0.9,0-1.6-0.7-1.6-1.6c0-0.9,0.7-1.6,1.6-1.6h10c0.9,0,1.6,0.7,1.6,1.6C14.7,13.7,13.9,14.4,13,14.4z"/>
	<path d="M3,11.9c-0.6,0-1,0.4-1,1c0,0.6,0.4,1,1,1s1-0.4,1-1C4,12.3,3.6,11.9,3,11.9z M3,13.3c-0.2,0-0.4-0.2-0.4-0.4
		c0-0.2,0.2-0.4,0.4-0.4s0.4,0.2,0.4,0.4C3.5,13.1,3.3,13.3,3,13.3z"/>
	<path d="M6.3,11.9c-0.6,0-1,0.4-1,1c0,0.6,0.4,1,1,1c0.6,0,1-0.4,1-1C7.3,12.3,6.9,11.9,6.3,11.9z M6.3,13.3
		c-0.2,0-0.4-0.2-0.4-0.4c0-0.2,0.2-0.4,0.4-0.4s0.4,0.2,0.4,0.4C6.7,13.1,6.6,13.3,6.3,13.3z"/>
	<path d="M9.6,11.9c-0.6,0-1,0.4-1,1c0,0.6,0.4,1,1,1c0.6,0,1-0.4,1-1C10.6,12.3,10.1,11.9,9.6,11.9z M9.6,13.3
		c-0.2,0-0.4-0.2-0.4-0.4c0-0.2,0.2-0.4,0.4-0.4c0.2,0,0.4,0.2,0.4,0.4C10,13.1,9.8,13.3,9.6,13.3z"/>
	<path d="M12.8,11.9c-0.6,0-1,0.4-1,1c0,0.6,0.4,1,1,1c0.6,0,1-0.4,1-1C13.8,12.3,13.4,11.9,12.8,11.9z M12.8,13.3
		c-0.2,0-0.4-0.2-0.4-0.4c0-0.2,0.2-0.4,0.4-0.4s0.4,0.2,0.4,0.4C13.3,13.1,13.1,13.3,12.8,13.3z"/>
	<path d="M12.4,9.2V0.9H3.6v8.7h8.8V9.2z M11.5,8.8h-7v-7h2.9v3.6h1.2V1.8h2.9V8.8z"/>
</g>
</svg>
