<?xml version="1.0" encoding="utf-8"?>
<!-- Generated by IcoMoon.io -->
<!DOCTYPE svg PUBLIC "-//W3C//DTD SVG 1.1//EN" "http://www.w3.org/Graphics/SVG/1.1/DTD/svg11.dtd">
<svg version="1.1" xmlns="http://www.w3.org/2000/svg" xmlns:xlink="http://www.w3.org/1999/xlink" width="16" height="16" viewBox="0 0 16 16">
<path d="M9 7.5c-0.1 0-0.3 0-0.4-0.1-0.2-0.2-0.2-0.5 0-0.7l3.5-3.5c0.2-0.2 0.5-0.2 0.7 0s0.2 0.5 0 0.7l-3.4 3.5c-0.1 0.1-0.3 0.1-0.4 0.1z"></path>
<path d="M12.5 7c-0.3 0-0.5-0.2-0.5-0.5v-2.5h-2.5c-0.3 0-0.5-0.2-0.5-0.5s0.2-0.5 0.5-0.5h3c0.3 0 0.5 0.2 0.5 0.5v3c0 0.3-0.2 0.5-0.5 0.5z"></path>
<path d="M3.5 13c-0.1 0-0.3 0-0.4-0.1-0.2-0.2-0.2-0.5 0-0.7l3.5-3.5c0.2-0.2 0.5-0.2 0.7 0s0.2 0.5 0 0.7l-3.5 3.5c0 0.1-0.2 0.1-0.3 0.1z"></path>
<path d="M6.5 13h-3c-0.3 0-0.5-0.2-0.5-0.5v-3c0-0.3 0.2-0.5 0.5-0.5s0.5 0.2 0.5 0.5v2.5h2.5c0.3 0 0.5 0.2 0.5 0.5s-0.2 0.5-0.5 0.5z"></path>
</svg>
