<?xml version="1.0" encoding="utf-8"?>
<!-- Generator: Adobe Illustrator 22.1.0, SVG Export Plug-In . SVG Version: 6.00 Build 0)  -->
<svg version="1.1" id="Layer_1" xmlns="http://www.w3.org/2000/svg" xmlns:xlink="http://www.w3.org/1999/xlink" x="0px" y="0px"
	 viewBox="0 0 16 16" style="enable-background:new 0 0 16 16;" xml:space="preserve">
<g>
	<g>
		<path d="M7.5,2.1C4.25,2.1,1.6,4.75,1.6,8s2.65,5.9,5.9,5.9s5.9-2.65,5.9-5.9S10.75,2.1,7.5,2.1z M7.5,12.7
			c-2.59,0-4.7-2.11-4.7-4.7s2.11-4.7,4.7-4.7s4.7,2.11,4.7,4.7S10.09,12.7,7.5,12.7z"/>
	</g>
	<g>
		<path d="M10,9.65c0.23,0.23,0.23,0.62,0,0.85c-0.12,0.12-0.27,0.17-0.42,0.17c-0.16,0-0.31-0.05-0.43-0.17L7.5,8.85L5.85,10.5
			c-0.12,0.12-0.27,0.17-0.42,0.17c-0.16,0-0.31-0.05-0.43-0.17c-0.23-0.23-0.23-0.62,0-0.85L6.65,8L5,6.35
			C4.77,6.12,4.77,5.74,5,5.5c0.24-0.23,0.62-0.23,0.85,0L7.5,7.15L9.15,5.5c0.24-0.23,0.61-0.23,0.85,0c0.23,0.24,0.23,0.62,0,0.85
			L8.35,8L10,9.65z"/>
	</g>
</g>
</svg>
