<?xml version="1.0" encoding="utf-8"?>
<!-- Generator: Adobe Illustrator 22.1.0, SVG Export Plug-In . SVG Version: 6.00 Build 0)  -->
<svg version="1.1" id="Layer_1" xmlns="http://www.w3.org/2000/svg" xmlns:xlink="http://www.w3.org/1999/xlink" x="0px" y="0px"
	 viewBox="0 0 16 16" style="enable-background:new 0 0 16 16;" xml:space="preserve">
<style type="text/css">
	.st0{fill:#231F20;}
</style>
<circle class="st0" cx="4.1" cy="9.1" r="0.9"/>
<g>
	<g>
		<circle class="st0" cx="12.1" cy="3.8" r="0.9"/>
	</g>
</g>
<path class="st0" d="M12,0.9c-1.7,0-3.1,1.4-3.1,3.1c0,0.4,0.1,0.8,0.3,1.2l2.1,3.7c-0.6,0.2-1.3,0.4-2,0.6c-0.7,0.3-1.2,0.6-1.3,1
	c-0.1,0.3,0,0.8,0.1,1.1c0.2,0.6-1.8,1.2-2.8,1.7c0,0,1.8-3.4,1.8-4.1c0-1.7-1.4-3.1-3.1-3.1S0.9,7.5,0.9,9.2c0,0.4,0.1,0.8,0.3,1.2
	l2.3,4.3l0,0l0,0c0,0,0.3,0.3,0.5,0.3c0.3,0,3.8-1.7,4.3-1.9c0.4-0.2,0.7-0.5,0.8-0.9c0.2-0.6-0.6-1.3,0.5-1.6s2.5-0.8,2.5-0.8l0,0
	c0.1,0,0.2-0.1,0.3-0.2c0,0,2.6-4.7,2.6-5.5C15.1,2.3,13.7,0.9,12,0.9z M4,13.5l-1.7-3c-0.1-0.1-0.4-0.7-0.4-1.3
	c0-1.2,1-2.1,2.1-2.1s2.1,1,2.1,2.1c0,0.3-0.1,0.6-0.2,0.9l0,0l-0.1,0.2c0,0,0,0.1-0.1,0.2L4,13.5z M13.9,4.9L12,8.3l-1.7-3
	c-0.1-0.1-0.2-0.4-0.2-0.4C10,4.6,9.9,4.3,9.9,4c0-1.2,1-2.1,2.1-2.1s2.1,1,2.1,2.1C14.1,4.5,13.9,4.9,13.9,4.9z"/>
<g>
	<circle class="st0" cx="4.1" cy="9.1" r="0.9"/>
</g>
</svg>
