<?xml version="1.0" encoding="utf-8"?>
<!-- Generated by IcoMoon.io -->
<!DOCTYPE svg PUBLIC "-//W3C//DTD SVG 1.1//EN" "http://www.w3.org/Graphics/SVG/1.1/DTD/svg11.dtd">
<svg version="1.1" xmlns="http://www.w3.org/2000/svg" xmlns:xlink="http://www.w3.org/1999/xlink" width="16" height="16" viewBox="0 0 16 16">
<path d="M13.5 14v-8h-2v-2h-2v-2h-1v-1h-1v1h-1v2h-2v2h-2v8h-1v1h13v-1h-1zM10.5 5v1h-1v-1h1zM7.5 5h1v1h-1v-1zM7.5 3h1v1h-1v-1zM5.5 5h1v1h-1v-1zM5.5 14v-2h1v2h-1zM9.5 14v-2h1v2h-1zM11.5 14v-3h-3v3h-1v-3h-3v3h-1v-7h9v7h-1zM8.5 8h1v2h-1v-2zM10.5 8h1v2h-1v-2zM6.5 8h1v2h-1v-2zM4.5 8h1v2h-1v-2z"></path>
</svg>
