<?xml version="1.0" encoding="utf-8"?>
<!-- Generator: Adobe Illustrator 21.0.0, SVG Export Plug-In . SVG Version: 6.00 Build 0)  -->
<svg version="1.1" id="Layer_1" xmlns="http://www.w3.org/2000/svg" xmlns:xlink="http://www.w3.org/1999/xlink" x="0px" y="0px"
	 viewBox="0 0 16 16" style="enable-background:new 0 0 16 16;" xml:space="preserve">
<g transform="translate(0,-952.36218)">
	<path d="M13.3,955c0.9,0,1.7,0.7,1.7,1.7v4.9c0,0.9-0.7,1.7-1.7,1.7h-1.8l0.3,3.1c0,0.2-0.1,0.5-0.3,0.6s-0.5,0.1-0.6-0.1l-3.5-3.5
		H2.7c-0.9,0-1.7-0.7-1.7-1.7v-5c0-0.9,0.7-1.7,1.7-1.7H13.3L13.3,955z M13.3,956H2.7c-0.3,0-0.6,0.2-0.6,0.6v5
		c0,0.3,0.2,0.6,0.6,0.6h5c0.1,0,0.3,0.1,0.4,0.2l2.6,2.6l-0.2-2.1c0-0.3,0.2-0.6,0.5-0.6h2.4c0.3,0,0.6-0.2,0.6-0.6v-5
		C13.9,956.2,13.7,956,13.3,956L13.3,956z"/>
</g>
</svg>
