<?xml version="1.0" encoding="utf-8"?>
<!-- Generator: Adobe Illustrator 22.1.0, SVG Export Plug-In . SVG Version: 6.00 Build 0)  -->
<svg version="1.1" id="Layer_1" xmlns="http://www.w3.org/2000/svg" xmlns:xlink="http://www.w3.org/1999/xlink" x="0px" y="0px"
	 viewBox="0 0 16 16" style="enable-background:new 0 0 16 16;" xml:space="preserve">
<path d="M13.3,12.2l-2.6-2.6C11.2,8.9,11.5,8,11.5,7c0-2.5-2-4.5-4.5-4.5S2.5,4.5,2.5,7s2,4.5,4.5,4.5c1,0,1.9-0.3,2.6-0.8l2.6,2.6
	c0.1,0.1,0.3,0.2,0.5,0.2c0.4,0,0.8-0.3,0.8-0.8C13.5,12.5,13.4,12.3,13.3,12.2z M7,10c-1.7,0-3-1.3-3-3s1.3-3,3-3s3,1.3,3,3
	S8.7,10,7,10z"/>
</svg>
