<?xml version="1.0" encoding="utf-8"?>
<!-- Generator: Adobe Illustrator 22.1.0, SVG Export Plug-In . SVG Version: 6.00 Build 0)  -->
<svg version="1.1" id="Layer_1" xmlns="http://www.w3.org/2000/svg" xmlns:xlink="http://www.w3.org/1999/xlink" x="0px" y="0px"
	 viewBox="0 0 16 16" style="enable-background:new 0 0 16 16;" xml:space="preserve">
<path d="M11.2,5.4H2.9l1.3-1.3c0.2-0.2,0.2-0.5,0-0.7C4,3.2,3.7,3.2,3.5,3.4L1.2,5.7C1.1,5.8,1.1,6,1.2,6.1l2.2,2.3l0,0
	c0.2,0.2,0.5,0.2,0.7,0s0.2-0.5,0-0.7l0,0l0,0L2.9,6.4H11c1.7,0,3,1.3,3,3s-1.3,3-3,3s-3-1.3-3-3c0-0.3-0.2-0.5-0.5-0.5S7,9.2,7,9.4
	c0,2.2,1.8,4,4,4s4-1.8,4-4C15,7.3,13.3,5.6,11.2,5.4z"/>
</svg>
