<?xml version="1.0" encoding="utf-8"?>
<!-- Generator: Adobe Illustrator 22.1.0, SVG Export Plug-In . SVG Version: 6.00 Build 0)  -->
<svg version="1.1" id="Layer_1" xmlns="http://www.w3.org/2000/svg" xmlns:xlink="http://www.w3.org/1999/xlink" x="0px" y="0px"
	 viewBox="0 0 16 16" style="enable-background:new 0 0 16 16;" xml:space="preserve">
<path d="M13.5,11.7c-0.1-1.1-0.3-2-0.8-2.9C12.4,8,12,7.3,11.4,6.6l0,0c0,0,0,0,0,0c0,0,0,0,0,0l0,0c-0.6-0.8-1.2-1.2-1.6-1.5
	l1.2-2.2l0,0l0.1-0.2c0-0.2-0.1-0.3-0.2-0.4c-0.3-0.3-0.8-0.5-1.2-0.5c-0.4,0-0.7,0.1-1,0.3l0,0C8.4,2,8.2,2.1,8.1,2.1
	C8,2.1,8,2.1,8,2.1C7.4,1.8,7,1.7,6.5,1.7C5.8,1.7,5.3,2,4.8,2.5C4.7,2.6,4.6,2.7,4.6,2.8c0,0.1,0,0.2,0.1,0.3l0,0L6,5.1
	C5.7,5.4,5.1,5.8,4.5,6.6l0,0c0,0,0,0,0,0c0,0,0,0,0,0l0,0C3.9,7.3,3.5,8,3.1,8.8l0,0l0,0c-0.4,1-0.6,2-0.6,3c0,0.7,0.3,1.4,0.8,1.9
	c0.5,0.5,1.1,0.8,1.9,0.8h5.7c0.7,0,1.4-0.3,1.9-0.8C13.2,13.1,13.5,12.5,13.5,11.7L13.5,11.7L13.5,11.7z M5.2,7.3
	c0.4-0.4,0.7-0.8,1.1-1C6.5,6,6.7,5.9,6.8,5.8H9C9.1,5.9,9.3,6,9.5,6.2c0.3,0.3,0.7,0.6,1,1.1c1.1,1.4,1.7,2.9,1.7,4.4
	c0,0.8-0.7,1.5-1.5,1.5H5c-0.8,0-1.5-0.7-1.5-1.5C3.6,10.2,4.1,8.7,5.2,7.3z M7.7,3.1C7.8,3.2,8,3.2,8.1,3.2C8.4,3.2,8.7,3.1,9,3
	c0.3-0.1,0.5-0.2,0.7-0.2c0.1,0,0.1,0,0.2,0L8.8,4.7H7L5.8,3C6,2.8,6.2,2.8,6.5,2.8C6.8,2.8,7.2,2.9,7.7,3.1z"/>
</svg>
