<?xml version="1.0" encoding="utf-8"?>
<!-- Generator: Adobe Illustrator 22.1.0, SVG Export Plug-In . SVG Version: 6.00 Build 0)  -->
<svg version="1.1" id="Layer_1" xmlns="http://www.w3.org/2000/svg" xmlns:xlink="http://www.w3.org/1999/xlink" x="0px" y="0px"
	 viewBox="0 0 30 16" style="enable-background:new 0 0 30 16;" xml:space="preserve">
<path d="M26.7,3H8.9C8.7,3,8.5,3.3,8.5,3.5v1.3H6.2C6,4.8,5.9,4.9,5.8,5L3.5,8.5l0,0l0,0.1l0,0v2.8c0,0.3,0.2,0.5,0.5,0.5H5
	c0.2,0.7,0.9,1.2,1.6,1.2c0.8,0,1.4-0.5,1.6-1.2h0.6h2.7c0.2,0.7,0.9,1.2,1.6,1.2c0.6,0,1.1-0.3,1.4-0.7c0.3,0.4,0.8,0.7,1.4,0.7
	c0.8,0,1.4-0.5,1.6-1.3h1.3c0.2,0.7,0.9,1.3,1.6,1.3c0.6,0,1.1-0.3,1.4-0.7c0.3,0.4,0.8,0.7,1.4,0.7c0.8,0,1.4-0.5,1.6-1.2h1.8
	c0.3,0,0.5-0.2,0.5-0.5v-8C27.2,3.3,27,3,26.7,3z M23.3,12.3c-0.4,0-0.8-0.4-0.8-0.8c0-0.4,0.4-0.8,0.8-0.8c0.4,0,0.8,0.4,0.8,0.8
	C24.1,11.9,23.7,12.3,23.3,12.3z M20.6,12.3c-0.4,0-0.8-0.4-0.8-0.8c0-0.4,0.4-0.8,0.8-0.8c0.4,0,0.8,0.4,0.8,0.8
	C21.4,11.9,21,12.3,20.6,12.3z M8.5,8.4H4.7l1.7-2.7h2V8.4z M6.7,12.3c-0.4,0-0.8-0.4-0.8-0.8c0-0.4,0.4-0.8,0.8-0.8
	c0.4,0,0.8,0.4,0.8,0.8C7.5,11.9,7.1,12.3,6.7,12.3z M6.7,9.8C5.9,9.8,5.2,10.3,5,11H4.4V8.9l0,0h4.1V11H8.3
	C8.1,10.3,7.5,9.8,6.7,9.8z M13.3,12.3c-0.3,0-0.6-0.2-0.7-0.5v-0.6v-0.1c0.1-0.3,0.4-0.5,0.7-0.5c0.4,0,0.8,0.4,0.8,0.8
	C14,11.9,13.7,12.3,13.3,12.3z M16,12.3c-0.4,0-0.8-0.4-0.8-0.8c0-0.4,0.4-0.8,0.8-0.8c0.4,0,0.8,0.4,0.8,0.8
	C16.8,11.9,16.4,12.3,16,12.3z M16,9.8c-0.6,0-1.1,0.3-1.4,0.7c-0.3-0.4-0.8-0.7-1.4-0.7c-0.8,0-1.4,0.5-1.6,1.2H9.4V5.2
	c0,0,0,0,0,0V4h16.9V11l-1.3,0c-0.2-0.7-0.9-1.2-1.6-1.2c-0.6,0-1.1,0.3-1.4,0.7c-0.3-0.4-0.8-0.7-1.4-0.7c-0.8,0-1.4,0.5-1.6,1.3
	h-1.3C17.4,10.3,16.8,9.8,16,9.8z"/>
</svg>
