<?xml version="1.0" encoding="utf-8"?>
<!-- Generated by IcoMoon.io -->
<!DOCTYPE svg PUBLIC "-//W3C//DTD SVG 1.1//EN" "http://www.w3.org/Graphics/SVG/1.1/DTD/svg11.dtd">
<svg version="1.1" xmlns="http://www.w3.org/2000/svg" xmlns:xlink="http://www.w3.org/1999/xlink" width="16" height="16" viewBox="0 0 16 16">
<path d="M8 0c-4.4 0-8 3.6-8 8s3.6 8 8 8 8-3.6 8-8-3.6-8-8-8zM8 1c3.9 0 7 3.1 7 7 0 1.4-0.4 2.8-1.2 3.9-0.5-2-2-3.6-3.9-4.3 0.7-0.6 1.1-1.4 1.1-2.4 0-1.7-1.3-3-3-3s-3 1.3-3 3c0 1 0.4 1.8 1.1 2.4-2 0.7-3.5 2.3-3.9 4.3-0.8-1.1-1.2-2.5-1.2-3.9 0-3.9 3.1-7 7-7zM8 7.2c-1.1 0-2-0.8-2-2 0-1.1 0.9-2 2-2s2 0.9 2 2c0 1.1-0.9 2-2 2zM8 15c-1.9 0-3.7-0.8-5-2.1 0.1-2.7 2.3-4.7 5-4.7s4.8 2.1 5 4.7c-1.3 1.3-3.1 2.1-5 2.1z"></path>
</svg>
