<?xml version="1.0" encoding="utf-8"?>
<!-- Generator: Adobe Illustrator 21.0.0, SVG Export Plug-In . SVG Version: 6.00 Build 0)  -->
<svg version="1.1" id="Layer_1" xmlns="http://www.w3.org/2000/svg" xmlns:xlink="http://www.w3.org/1999/xlink" x="0px" y="0px"
	 viewBox="0 0 16 16" style="enable-background:new 0 0 16 16;" xml:space="preserve">
<path d="M14.1,6.5C13,3.9,10,1.9,7.3,1.9c-1.4,0-2.7,0.5-3.8,1.4c-0.1,0.1-1.9,1.5-2.2,4c-0.2,1.9,0.4,3.8,2,5.8
	c0.1,0.1,0.2,0.1,0.3,0.1c0,0,8,0.8,8.2,0.8c2.9,0,3.1-3.1,3.1-4C14.8,7.9,14.1,6.5,14.1,6.5z M11.5,13.1c-0.2,0-7.6-0.8-7.6-0.8
	c-1.1-1.4-1.6-2.7-1.7-4H3c0.2,0,0.4-0.2,0.4-0.4c0-0.2-0.2-0.4-0.4-0.4H2.2c0,0,0-0.2,0.1-0.7h1.5c0.2,0,0.4-0.2,0.4-0.4
	S4.1,6.1,3.9,6.1H2.6c0.5-1.3,1.5-2,1.5-2c0.9-0.8,2-1.2,3.2-1.2c2.4,0,4.6,1.7,5.6,3.5L7.3,6.3c0,0,0,0,0,0C6.4,6.3,5.6,7,5.6,7.9
	c0,0.7,0.4,1.3,1,1.5l6.6,2.8C12.7,13,12,13.1,11.5,13.1z M13.6,11.5L7.1,8.8C6.8,8.6,6.6,8.3,6.6,8C6.6,7.5,7,7,7.5,7l0,0l5.8,0.1
	C14,9.1,13.7,11.1,13.6,11.5z M7.6,7.5C7.8,7.5,8,7.7,8,7.9S7.8,8.4,7.6,8.4c-0.2,0-0.4-0.2-0.4-0.4S7.3,7.5,7.6,7.5z"/>
</svg>
