<?xml version="1.0" encoding="utf-8"?>
<!-- Generator: Adobe Illustrator 21.0.0, SVG Export Plug-In . SVG Version: 6.00 Build 0)  -->
<svg version="1.1" id="Layer_1" xmlns="http://www.w3.org/2000/svg" xmlns:xlink="http://www.w3.org/1999/xlink" x="0px" y="0px"
	 viewBox="0 0 16 16" style="enable-background:new 0 0 16 16;" xml:space="preserve">
<path d="M2.7,7.5H5c0.3,0,0.5,0.2,0.5,0.5S5.3,8.5,5,8.5H2.7C2.4,8.5,2.2,8.3,2.2,8S2.4,7.5,2.7,7.5z M3.4,10c0,0.3,0.2,0.5,0.5,0.5
	h0.8c0.3,0,0.5-0.2,0.5-0.5S5,9.5,4.7,9.5H3.9C3.6,9.5,3.4,9.7,3.4,10z M1.5,6c0,0.3,0.2,0.5,0.5,0.5h3.3c0.3,0,0.5-0.2,0.5-0.5
	S5.6,5.5,5.3,5.5H2C1.7,5.5,1.5,5.7,1.5,6z M12.2,12H6.8c-0.4,0-0.7-0.2-0.9-0.4c-0.2-0.3-0.3-0.6-0.3-1l0.9-5.4
	C6.6,4.6,7.2,4,7.9,4h5.4c0.4,0,0.7,0.2,0.9,0.4c0.2,0.3,0.3,0.6,0.3,1l-0.9,5.4C13.5,11.5,12.9,12,12.2,12z M7.9,5
	C7.7,5,7.5,5.2,7.5,5.4l-0.9,5.4c0,0.1,0,0.1,0,0.2c0.1,0,0.2,0,0.2,0h5.4c0.2,0,0.4-0.2,0.5-0.4l0.9-5.4c0-0.1,0-0.1,0-0.2
	c-0.2,0-0.3,0-0.3,0H7.9z M10.109,10.068c-1.117,0-1.929-0.69-1.929-1.783c0-1.304,1.111-2.449,2.49-2.449
	c0.608,0,1.023,0.199,1.35,0.503c0.094,0.088,0.187,0.21,0.187,0.38c0,0.257-0.198,0.468-0.462,0.468
	c-0.129,0-0.234-0.035-0.316-0.129c-0.217-0.234-0.438-0.392-0.871-0.392c-0.748,0-1.444,0.713-1.444,1.584
	c0,0.59,0.415,0.988,1,0.988c0.339,0,0.497-0.088,0.772-0.263c0.081-0.053,0.193-0.105,0.304-0.105c0.234,0,0.409,0.193,0.409,0.427
	c0,0.146-0.07,0.258-0.158,0.333C11.132,9.892,10.629,10.068,10.109,10.068z"/>
</svg>
