<?xml version="1.0" encoding="utf-8"?>
<!-- Generator: Adobe Illustrator 22.1.0, SVG Export Plug-In . SVG Version: 6.00 Build 0)  -->
<svg version="1.1" id="Layer_1" xmlns="http://www.w3.org/2000/svg" xmlns:xlink="http://www.w3.org/1999/xlink" x="0px" y="0px"
	 viewBox="0 0 16 16" style="enable-background:new 0 0 16 16;" xml:space="preserve">
<path d="M8,14c-3.3,0-6-2.7-6-6c0-3.3,2.7-6,6-6s6,2.7,6,6C14,11.3,11.3,14,8,14z M8,3.3C5.4,3.3,3.3,5.4,3.3,8
	c0,2.6,2.1,4.7,4.7,4.7s4.7-2.1,4.7-4.7C12.7,5.4,10.6,3.3,8,3.3z M8.9,11.2c0.2,0,0.3-0.1,0.5-0.2c0.3-0.3,0.3-0.7,0-0.9L7.2,8
	l2.1-2.1c0.3-0.3,0.3-0.7,0-0.9C9.1,4.7,8.7,4.7,8.4,5L5.8,7.5c-0.3,0.3-0.3,0.7,0,0.9L8.4,11C8.5,11.2,8.7,11.2,8.9,11.2z"/>
</svg>
