<?xml version="1.0" encoding="utf-8"?>
<!-- Generated by IcoMoon.io -->
<!DOCTYPE svg PUBLIC "-//W3C//DTD SVG 1.1//EN" "http://www.w3.org/Graphics/SVG/1.1/DTD/svg11.dtd">
<svg version="1.1" xmlns="http://www.w3.org/2000/svg" xmlns:xlink="http://www.w3.org/1999/xlink" width="16" height="16" viewBox="0 0 16 16">
<path d="M11.9 5.9l0.5-0.5c0.2-0.2 0.2-0.5 0-0.7s-0.5-0.2-0.7 0l-0.5 0.5c-0.7-0.6-1.6-1-2.7-1.1v0-1.1h1c0.3 0 0.5-0.2 0.5-0.5s-0.2-0.5-0.5-0.5h-3c-0.3 0-0.5 0.2-0.5 0.5s0.2 0.5 0.5 0.5h1v1c-2.5 0.3-4.5 2.4-4.5 5 0 2.7 2.2 5 5 5s5-2.3 5-5c0-1.2-0.4-2.3-1.1-3.1zM8 13c-2.2 0-4-1.8-4-4s1.8-4 4-4 4 1.8 4 4-1.8 4-4 4zM8.5 7v2c0 0.3-0.2 0.5-0.5 0.5s-0.5-0.2-0.5-0.5v-2c0-0.3 0.2-0.5 0.5-0.5s0.5 0.2 0.5 0.5z"></path>
</svg>
