<?xml version="1.0" encoding="utf-8"?>
<!-- Generator: Adobe Illustrator 22.1.0, SVG Export Plug-In . SVG Version: 6.00 Build 0)  -->
<svg version="1.1" id="Layer_1" xmlns="http://www.w3.org/2000/svg" xmlns:xlink="http://www.w3.org/1999/xlink" x="0px" y="0px"
	 viewBox="0 0 16 16" style="enable-background:new 0 0 16 16;" xml:space="preserve">
<g>
	<g>
		<path d="M14.64001,6.72998l-1.33002-4.56C13.23999,1.96002,13.04999,1.81,12.83002,1.81H3.16998
			C2.95001,1.81,2.75,1.96002,2.69,2.16998l-1.33002,4.56C1.34998,6.78003,1.34003,6.83002,1.34003,6.87
			c0,0.88,0.54999,1.62,1.32996,1.91003V13.69c0,0.27997,0.23004,0.5,0.5,0.5h9.66003c0.26996,0,0.5-0.22003,0.5-0.5V8.78003
			C14.10999,8.48999,14.65997,7.75,14.65997,6.87C14.65997,6.83002,14.65002,6.78003,14.64001,6.72998z M12.33002,13.19H3.66998
			V8.89001c0.48999-0.07001,0.92999-0.32001,1.25-0.67999c0.37,0.42999,0.92004,0.69995,1.54004,0.69995
			C7.07001,8.90997,7.62,8.64001,8,8.21002c0.37,0.42999,0.91998,0.69995,1.53998,0.69995
			c0.61005,0,1.16003-0.26996,1.54004-0.69995c0.31,0.35999,0.75,0.60999,1.25,0.67999V13.19z M12.62,7.90997
			c-0.57001,0-1.03998-0.45996-1.03998-1.03998c0-0.27002-0.22003-0.5-0.5-0.5c-0.28003,0-0.5,0.22998-0.5,0.5
			c0,0.58002-0.47003,1.03998-1.04004,1.03998S8.5,7.45001,8.5,6.87c0-0.27002-0.22998-0.5-0.5-0.5c-0.28003,0-0.5,0.22998-0.5,0.5
			c0,0.58002-0.46997,1.03998-1.03998,1.03998S5.41998,7.45001,5.41998,6.87c0-0.27002-0.21997-0.5-0.5-0.5
			c-0.27997,0-0.5,0.22998-0.5,0.5c0,0.58002-0.46997,1.03998-1.03998,1.03998c-0.54999,0-1-0.42999-1.03998-0.96997l1.20996-4.13
			h8.90002l1.20996,4.13C13.62,7.47998,13.16998,7.90997,12.62,7.90997z"/>
	</g>
</g>
</svg>
