<?xml version="1.0" encoding="utf-8"?>
<!-- Generator: Adobe Illustrator 22.1.0, SVG Export Plug-In . SVG Version: 6.00 Build 0)  -->
<svg version="1.1" id="Layer_1" xmlns="http://www.w3.org/2000/svg" xmlns:xlink="http://www.w3.org/1999/xlink" x="0px" y="0px"
	 viewBox="0 0 16 16" style="enable-background:new 0 0 16 16;" xml:space="preserve">
<path d="M2,6.3h6.4C8.8,6.3,9,6.5,9,6.9l0,0c0,0.4-0.2,0.6-0.6,0.6H2c-0.4,0-0.6-0.2-0.6-0.6l0,0C1.4,6.6,1.8,6.3,2,6.3z M2,3.4h6.4
	C8.8,3.4,9,3.6,9,4l0,0c0,0.4-0.2,0.6-0.6,0.6H2C1.7,4.6,1.4,4.4,1.4,4l0,0C1.4,3.6,1.8,3.4,2,3.4z M2,9.2h3.9
	c0.4,0,0.6,0.2,0.6,0.6l0,0c0,0.4-0.2,0.6-0.6,0.6H2c-0.4,0-0.6-0.2-0.6-0.6l0,0C1.4,9.5,1.8,9.2,2,9.2z M14.5,7.8L14.5,7.8
	c0.2,0.2,0.2,0.7,0,1l0,0l-3.6,3.6c-0.2,0.2-0.6,0.2-0.8,0l-1.9-2.1c-0.2-0.2-0.2-0.7,0-1l0,0l0,0c0.2-0.2,0.7-0.2,1,0l0,0l1.5,1.5
	l3-3.1C13.9,7.5,14.3,7.5,14.5,7.8C14.5,7.7,14.5,7.7,14.5,7.8z"/>
</svg>
