<?xml version="1.0" encoding="utf-8"?>
<!-- Generator: Adobe Illustrator 23.0.1, SVG Export Plug-In . SVG Version: 6.00 Build 0)  -->
<svg version="1.1" id="Layer_1" xmlns="http://www.w3.org/2000/svg" xmlns:xlink="http://www.w3.org/1999/xlink" x="0px" y="0px"
	 viewBox="0 0 16 16" style="enable-background:new 0 0 16 16;" xml:space="preserve">
<path d="M7.621,5.414c0.195,0.195,0.195,0.512,0,0.707s-0.512,0.195-0.707,0L6,5.207V10c0,0.276-0.224,0.5-0.5,0.5S5,10.276,5,10
	V5.207L4.086,6.121c-0.195,0.195-0.512,0.195-0.707,0s-0.195-0.512,0-0.707l1.768-1.768C5.148,3.645,5.149,3.645,5.15,3.644
	c0.045-0.044,0.099-0.081,0.158-0.105c0.122-0.051,0.26-0.051,0.382,0C5.752,3.564,5.807,3.6,5.854,3.646L7.621,5.414z
	 M12.621,9.879c-0.195-0.195-0.512-0.195-0.707,0L11,10.793V6c0-0.276-0.224-0.5-0.5-0.5S10,5.724,10,6v4.793L9.086,9.879
	c-0.195-0.195-0.512-0.195-0.707,0s-0.195,0.512,0,0.707l1.768,1.768c0.003,0.003,0.007,0.004,0.01,0.006
	c0.044,0.042,0.095,0.078,0.153,0.102c0.122,0.051,0.26,0.051,0.382,0c0.059-0.024,0.112-0.06,0.157-0.104
	c0.002-0.002,0.004-0.002,0.006-0.004l1.768-1.768C12.817,10.391,12.817,10.074,12.621,9.879z"/>
</svg>
