<?xml version="1.0" encoding="utf-8"?>
<!-- Generator: Adobe Illustrator 21.0.0, SVG Export Plug-In . SVG Version: 6.00 Build 0)  -->
<svg version="1.1" id="Layer_1" xmlns="http://www.w3.org/2000/svg" xmlns:xlink="http://www.w3.org/1999/xlink" x="0px" y="0px"
	 viewBox="0 0 16 16" style="enable-background:new 0 0 16 16;" xml:space="preserve">
<path d="M7.5,13.875c-3.239,0-5.875-2.636-5.875-5.875c0-3.239,2.636-5.875,5.875-5.875c1.066,0,2.125,0.305,3.063,0.88
	c0.294,0.181,0.386,0.566,0.205,0.86s-0.566,0.385-0.859,0.206C9.168,3.616,8.335,3.375,7.5,3.375C4.95,3.375,2.875,5.45,2.875,8
	S4.95,12.625,7.5,12.625S12.125,10.551,12.125,8c0-0.333-0.046-0.685-0.14-1.075c-0.081-0.336,0.126-0.673,0.461-0.754
	c0.337-0.082,0.674,0.125,0.754,0.461C13.318,7.121,13.375,7.568,13.375,8C13.375,11.239,10.739,13.875,7.5,13.875z M7.942,9.441
	l5.998-5.998c0.243-0.244,0.243-0.64,0-0.884c-0.244-0.244-0.641-0.244-0.885,0L7.5,8.115L6.057,6.671
	c-0.244-0.244-0.64-0.244-0.884,0s-0.244,0.64,0,0.884l1.886,1.886C7.181,9.563,7.34,9.624,7.5,9.624S7.82,9.563,7.942,9.441z"/>
</svg>
