<?xml version="1.0" encoding="utf-8"?>
<!-- Generator: Adobe Illustrator 22.1.0, SVG Export Plug-In . SVG Version: 6.00 Build 0)  -->
<svg version="1.1" id="Layer_1" xmlns="http://www.w3.org/2000/svg" xmlns:xlink="http://www.w3.org/1999/xlink" x="0px" y="0px"
	 viewBox="0 0 16 16" style="enable-background:new 0 0 16 16;" xml:space="preserve">
<style type="text/css">
	.st0{fill:#020202;}
</style>
<path class="st0" d="M15,9.5c0-0.2,0-0.4,0-0.6c-0.1-1.2-0.3-2.4-0.8-3.5h0c-0.5-1.2-1.2-2.2-2.2-3c-0.6-0.5-1.5-0.9-2.6-1
	C8.9,1.3,8.5,1.3,8,1.3c-0.7,0-1.5,0.1-2.1,0.3C4.6,1.9,3.6,2.4,2.8,3.2C1.8,4.2,1.3,5.4,1.1,6.8C1,7.1,1,7.4,1,7.6
	c0,2.3,1.4,4.1,1.6,4.4l0,0l0.2,0.1l0,0l10.3,2.6h0.2h0l0.2-0.1l0,0l0,0c0.8-0.8,1.3-2.4,1.5-4.2h0l0,0l0,0v0C15,10.1,15,9.8,15,9.5
	z M14.1,9.5c0,0.1,0,0.3,0,0.4c-0.7,0-2-0.1-3.5-0.3C9.5,9.5,8.6,9.4,7.9,9.2C7.3,9.1,6.9,9,6.7,9c-0.1,0-0.2-0.1-0.2-0.1l0,0l0,0
	C6.3,8.7,6.1,8.3,6,8c0.1,0,0.2,0,0.3,0c0.1,0,0.3,0,0.4,0c0.7-0.2,1.2-0.8,1.2-1.6c0-0.1,0-0.3,0-0.4c0-0.1-0.1-0.2-0.1-0.2
	c0.5,0,0.9,0,1.4,0c1.8,0,3.5-0.2,4.2-0.2l0.1,0.1c0.4,0.9,0.6,2,0.7,3.2h0C14.1,9.1,14.1,9.3,14.1,9.5z M13,13.8l-9.9-2.5
	C3,11.1,2.7,10.6,2.3,9.9C2,9.1,1.9,8.3,1.9,7.6c0-0.2,0-0.4,0-0.6c0.2-1.3,0.7-2.3,1.5-3.1C4.1,3.1,5,2.7,6.1,2.4
	C6.7,2.2,7.3,2.2,8,2.2c0.4,0,0.9,0,1.3,0.1c1,0.2,1.8,0.5,2.2,0.8c0.6,0.5,1,1,1.4,1.7c-0.5,0-1.1,0.1-1.9,0.1C10.4,5,9.7,5,9.1,5
	c-1,0-1.9-0.1-2.6-0.2l0,0l0,0l0,0c-0.1,0-0.2,0-0.3,0c-0.1,0-0.3,0-0.4,0C5.2,5,4.7,5.7,4.7,6.4c0,0.1,0,0.2,0,0.4v0l0,0
	C4.8,7,5.2,8.6,5.8,9.4c0.3,0.3,1,0.6,4.7,1c1.4,0.1,2.8,0.3,3.5,0.3C13.9,12,13.5,13.1,13,13.8z M7,6.2l0,0.2
	c0,0.3-0.2,0.7-0.6,0.7l-0.2,0C5.9,7.2,5.6,7,5.5,6.6l0-0.2c0-0.3,0.2-0.7,0.6-0.7l0.2,0C6.6,5.7,6.9,5.9,7,6.2L7,6.2z"/>
</svg>
