<?xml version="1.0" encoding="utf-8"?>
<!-- Generated by IcoMoon.io -->
<!DOCTYPE svg PUBLIC "-//W3C//DTD SVG 1.1//EN" "http://www.w3.org/Graphics/SVG/1.1/DTD/svg11.dtd">
<svg version="1.1" xmlns="http://www.w3.org/2000/svg" xmlns:xlink="http://www.w3.org/1999/xlink" width="16" height="16" viewBox="0 0 16 16">
<path d="M8 12c-2.8 0-5.3-1.4-6.8-3.7-0.1-0.2-0.1-0.4 0-0.5 1.5-2.4 4-3.8 6.8-3.8s5.3 1.4 6.8 3.7c0.1 0.2 0.1 0.4 0 0.5-1.5 2.4-4 3.8-6.8 3.8zM2.3 8c1.3 1.9 3.4 3 5.7 3s4.4-1.1 5.7-3c-1.3-1.9-3.4-3-5.7-3s-4.4 1.1-5.7 3zM8 10.5c-1.4 0-2.5-1.1-2.5-2.5s1.1-2.5 2.5-2.5c1.4 0 2.5 1.1 2.5 2.5s-1.1 2.5-2.5 2.5zM8 6.5c-0.8 0-1.5 0.7-1.5 1.5s0.7 1.5 1.5 1.5 1.5-0.7 1.5-1.5-0.7-1.5-1.5-1.5z"></path>
</svg>
