<?xml version="1.0" encoding="utf-8"?>
<!-- Generator: Adobe Illustrator 21.0.0, SVG Export Plug-In . SVG Version: 6.00 Build 0)  -->
<svg version="1.1" id="Layer_1" xmlns="http://www.w3.org/2000/svg" xmlns:xlink="http://www.w3.org/1999/xlink" x="0px" y="0px"
	 viewBox="0 0 16 16" style="enable-background:new 0 0 16 16;" xml:space="preserve">
<path d="M8,15c-3.86,0-7-3.141-7-7c0-3.86,3.14-7,7-7s7,3.14,7,7C15.001,11.859,11.86,15,8,15z M8,2.5C4.968,2.5,2.5,4.967,2.5,8
	c0,3.032,2.467,5.5,5.5,5.5s5.5-2.468,5.5-5.5C13.501,4.967,11.033,2.5,8,2.5z M7.531,11.53l3-3c0.293-0.293,0.293-0.768,0-1.061
	l-3-3c-0.293-0.293-0.768-0.293-1.061,0s-0.293,0.768,0,1.061L8.94,8l-2.47,2.47c-0.293,0.293-0.293,0.768,0,1.061
	c0.146,0.146,0.338,0.22,0.53,0.22S7.385,11.677,7.531,11.53z"/>
</svg>
