<?xml version="1.0" encoding="utf-8"?>
<!-- Generator: Adobe Illustrator 22.1.0, SVG Export Plug-In . SVG Version: 6.00 Build 0)  -->
<svg version="1.1" id="Layer_1" xmlns="http://www.w3.org/2000/svg" xmlns:xlink="http://www.w3.org/1999/xlink" x="0px" y="0px"
	 viewBox="0 0 20.8 16" style="enable-background:new 0 0 20.8 16;" xml:space="preserve">
<path d="M20.4,1.9c0-0.4-0.4-0.8-0.8-0.8l0,0l0,0h-4.8C14.3,1.2,14,1.5,14,2l0,0l0,0v4.7c-0.1,0-2.2,0-3,0c-0.2,0-0.3,0.2-0.3,0.3
	c0,0.9,0.1,3.3-1,3.4H7V7.1c0-0.4-0.3-0.8-0.6-1l0,0L7,4.6c0-0.1,0.1-0.1,0.2-0.1h0.6c0.2,0,0.4-0.2,0.4-0.4l0,0l0,0l0,0
	c0-0.2-0.2-0.4-0.4-0.4l0,0l0,0H7.2c-0.4,0-0.8,0.3-1,0.6L6,4.7C5.8,4.4,5.5,4.3,5.1,4.3l0,0H4.4C4.2,4.3,4,4.5,4,4.7l0,0l0,0v1.4
	c0,0.2,0.2,0.4,0.4,0.4l0,0l0,0h0.7l-1,2.1C3.6,8.5,3.2,8.4,2.8,8.4l0,0c-0.5,0-1.1,0.1-1.6,0.3C1,8.9,0.9,9,0.9,9.2v0.2
	C1,9.5,1.2,9.6,1.3,9.6h0.2c0.4-0.2,0.8-0.3,1.2-0.3l0,0c0.3,0,0.6,0.1,0.9,0.1L3.4,9.9C3.2,9.9,3,9.8,2.8,9.8l0,0
	c-1.4,0-2.5,1.1-2.5,2.5l0,0l0,0c0,1.4,1.1,2.5,2.5,2.5l0,0c1.4,0,2.5-1.1,2.5-2.5l0,0l0,0c0-0.8-0.4-1.5-1-2l0.2-0.4
	c0.6,0.4,1.1,1.1,1.2,1.8c0,0.2,0.1,0.4,0.1,0.6c0,0.2,0.2,0.4,0.4,0.4l0,0l0,0l6.2-0.1c0.2,1.2,1.2,2.1,2.5,2.1l0,0
	c1.4,0,2.5-1.1,2.5-2.5l0,0l0,0c0-0.2,0-0.4-0.1-0.6l0,0l0,0c0.3,0,0.6-0.1,0.8-0.4c0.1-0.2,0.2-0.4,0.2-0.6v-0.3
	c-0.1-0.5-0.5-1.3-1.3-2c-0.1-0.1-0.2-0.1-0.3-0.2h1.4c1,0,1-1,1-1s0-0.1,0-0.1c0,0,0.8,0,1.2,0c0.2,0,0.2-0.1,0.2-0.2l0,0l0,0l0,0
	l0,0l0,0L20.4,1.9z M4.4,12.3L4.4,12.3c0,0.9-0.7,1.6-1.6,1.6l0,0c-0.9,0-1.6-0.7-1.6-1.6l0,0c0-0.9,0.7-1.6,1.6-1.6l0,0
	C3.6,10.7,4.4,11.4,4.4,12.3z M5,5.9H4.5V5H5l0,0c0.2,0,0.5,0.2,0.5,0.5l0,0C5.4,5.7,5.2,5.9,5,5.9z M4.9,9.1l1-2.1l0,0
	C6,7,6.1,7.1,6.1,7.2v3.1C5.8,9.8,5.4,9.4,4.9,9.1z M19.5,2v0.5h-4.6V2H19.5z M10.8,10.9L10.8,10.9L10.8,10.9L10.8,10.9z M16.5,12.2
	c0,0.9-0.7,1.6-1.6,1.6l0,0c-0.9,0-1.6-0.7-1.6-1.6h-0.1h0.1l0,0c0-0.2,0-0.4,0.1-0.6h3C16.5,11.8,16.5,12,16.5,12.2L16.5,12.2z
	 M17.4,10.5v0.1h-0.1l0,0h-4.8l0,0l-0.2-0.1c0-0.1-0.1-0.2-0.1-0.3l0,0c0-0.4,0.1-1,0.4-1.4C12.9,8.4,13.4,8,14.1,8l0,0
	C16,8.2,17.2,9.6,17.4,10.5z M14.9,6.7V3.4h4.6v3.3H14.9z"/>
</svg>
