<?xml version="1.0" encoding="utf-8"?>
<!-- Generator: Adobe Illustrator 22.1.0, SVG Export Plug-In . SVG Version: 6.00 Build 0)  -->
<svg version="1.1" id="Layer_1" xmlns="http://www.w3.org/2000/svg" xmlns:xlink="http://www.w3.org/1999/xlink" x="0px" y="0px"
	 viewBox="0 0 16 16" style="enable-background:new 0 0 16 16;" xml:space="preserve">
<style type="text/css">
	.st0{fill:#FFFFFF;}
</style>
<circle class="st0" cx="8.1" cy="8" r="0.8"/>
<g>
	<circle cx="8" cy="8" r="1.7"/>
	<path d="M13.6,7.6h-1.4C12,5.5,10.4,4,8.4,3.8V2.4C8.4,2.2,8.3,2,8,2C7.7,2,7.6,2.2,7.6,2.4v1.4C5.5,4,4,5.5,3.8,7.6H2.4
		C2.2,7.6,2,7.7,2,8s0.2,0.4,0.4,0.4h1.4C4,10.5,5.6,12,7.6,12.2v1.4C7.6,13.8,7.7,14,8,14c0.3,0,0.4-0.2,0.4-0.4v-1.4
		c2.1-0.2,3.6-1.8,3.8-3.8h1.4C13.8,8.4,14,8.3,14,8S13.8,7.6,13.6,7.6z M8,11.4c-1.9,0-3.4-1.5-3.4-3.4S6.1,4.6,8,4.6
		c1.9,0,3.4,1.5,3.4,3.4S9.9,11.4,8,11.4z"/>
</g>
<circle cx="8" cy="8" r="0.6"/>
</svg>
