<?xml version="1.0" encoding="utf-8"?>
<!-- Generator: Adobe Illustrator 22.1.0, SVG Export Plug-In . SVG Version: 6.00 Build 0)  -->
<svg version="1.1" id="Layer_1" xmlns="http://www.w3.org/2000/svg" xmlns:xlink="http://www.w3.org/1999/xlink" x="0px" y="0px"
	 viewBox="0 0 16 16" style="enable-background:new 0 0 16 16;" xml:space="preserve">
<path d="M13.8,2.7c0-0.2-0.1-0.3-0.2-0.3l-0.2-0.1c0,0-0.1,0-0.2,0l-0.1,0L2,7.8l0,0l-0.1,0C1.8,8,1.8,8.1,1.8,8.1l0,0.1
	c0,0.1,0.1,0.3,0.1,0.3C2,8.7,2.1,8.7,2.2,8.7v0l5.1,0.1v5c0,0.1,0.1,0.3,0.1,0.3c0.1,0.1,0.2,0.1,0.3,0.1c0,0,0.1,0,0.2,0l0.2-0.1
	l0-0.1l0,0l5.4-11c0,0,0,0,0,0C13.7,2.9,13.8,2.8,13.8,2.7z M8.1,8C8,7.9,7.9,7.9,7.8,7.9v0L4.3,7.8l7.9-4l-3.9,7.9l0-3.4
	C8.3,8.2,8.2,8.1,8.1,8z M13.2,2.5L13.2,2.5L13.2,2.5L13.2,2.5z"/>
</svg>
