<?xml version="1.0" encoding="utf-8"?>
<!-- Generator: Adobe Illustrator 23.0.3, SVG Export Plug-In . SVG Version: 6.00 Build 0)  -->
<svg version="1.1" id="Layer_1" xmlns="http://www.w3.org/2000/svg" xmlns:xlink="http://www.w3.org/1999/xlink" x="0px" y="0px"
	 viewBox="0 0 16 16" style="enable-background:new 0 0 16 16;" xml:space="preserve">
<g>
	<path d="M15.2,8c0,3.4-2.8,6.1-6.1,6.1c-0.3,0-0.5-0.2-0.5-0.5c0-0.3,0.2-0.5,0.5-0.5c2.8,0,5.1-2.3,5.1-5.1s-2.3-5.1-5.1-5.1
		c-2.8,0-5,2.2-5.1,4.9l1.4-1.4c0.2-0.2,0.5-0.2,0.7,0c0.2,0.2,0.2,0.5,0,0.7L3.9,9.3c-0.2,0.2-0.5,0.2-0.7,0L0.9,7
		c-0.2-0.2-0.2-0.5,0-0.7c0.2-0.2,0.5-0.2,0.7,0L3,7.7c0.1-3.2,2.8-5.8,6.1-5.8C12.5,1.9,15.2,4.6,15.2,8z"/>
</g>
</svg>
