<?xml version="1.0" encoding="utf-8"?>
<!-- Generator: Adobe Illustrator 21.0.0, SVG Export Plug-In . SVG Version: 6.00 Build 0)  -->
<svg version="1.1" id="Layer_1" xmlns="http://www.w3.org/2000/svg" xmlns:xlink="http://www.w3.org/1999/xlink" x="0px" y="0px"
	 viewBox="0 0 16 16" style="enable-background:new 0 0 16 16;" xml:space="preserve">
<path d="M1.5,15.25c-0.258,0-0.502-0.137-0.638-0.357c-0.136-0.219-0.149-0.498-0.032-0.729l2-3.998
	C2.958,9.908,3.215,9.75,3.5,9.75h1.557C3.857,7.936,3.25,6.503,3.25,5.487c0-2.619,2.131-4.75,4.75-4.75s4.75,2.131,4.75,4.75
	c0,1.016-0.607,2.449-1.808,4.263H12.5c0.285,0,0.542,0.158,0.671,0.414l2,4.001c0.116,0.234,0.104,0.507-0.032,0.729
	C15,15.117,14.761,15.25,14.5,15.25H1.5z M13.288,13.75l-1.25-2.5H9.88c-0.411,0.545-0.754,0.964-0.919,1.163
	C8.722,12.698,8.372,12.862,8,12.862c-0.373,0-0.723-0.164-0.96-0.449c-0.165-0.199-0.508-0.618-0.919-1.163H3.963l-1.25,2.5H13.288
	z M8,2.237c-1.792,0-3.25,1.458-3.25,3.25c0,0.843,0.786,2.394,2.212,4.367c0.279,0.386,0.536,0.726,0.744,0.992
	c0.115,0.147,0.215,0.272,0.293,0.37c0.079-0.098,0.178-0.223,0.293-0.37C8.5,10.58,8.758,10.239,9.038,9.854
	c1.426-1.974,2.212-3.525,2.212-4.367C11.25,3.695,9.792,2.237,8,2.237z M8,6.674c0.656,0,1.188-0.532,1.188-1.188
	S8.656,4.299,8,4.299S6.812,4.831,6.812,5.487S7.344,6.674,8,6.674z"/>
</svg>
