<?xml version="1.0" encoding="utf-8"?>
<!-- Generator: Adobe Illustrator 23.0.1, SVG Export Plug-In . SVG Version: 6.00 Build 0)  -->
<svg version="1.1" id="Layer_1" xmlns="http://www.w3.org/2000/svg" xmlns:xlink="http://www.w3.org/1999/xlink" x="0px" y="0px"
	 viewBox="0 0 16 16" style="enable-background:new 0 0 16 16;" xml:space="preserve">
<path d="M12.127,4.58c0.003-0.002,0.006-0.003,0.009-0.005c0.005-0.004,0.01-0.009,0.012-0.01c0.002-0.002,0.004-0.004,0.006-0.006
	C12.146,4.566,12.136,4.573,12.127,4.58z M12.108,7.144c0.003-0.002,0.008-0.004,0.011-0.006c0.005-0.003,0.009-0.008,0.011-0.009
	c0.003-0.003,0.006-0.005,0.009-0.008C12.131,7.126,12.118,7.135,12.108,7.144z M12.13,9.677c0.003-0.002,0.006-0.005,0.009-0.008
	c-0.008,0.005-0.021,0.014-0.031,0.023c0.003-0.002,0.007-0.003,0.011-0.006C12.124,9.683,12.128,9.678,12.13,9.677z M13.274,6.778
	c0-0.002,0.001-0.004,0.001-0.006c0.001-0.064,0-0.13,0-0.195c0-0.266,0-0.532,0-0.798c0-0.502,0-1.003,0-1.506
	c0-0.01,0-0.02,0-0.03c0-0.013-0.006-0.024-0.008-0.036c0-0.001,0.001-0.003,0.001-0.004c0.001-0.01,0.006-0.018,0.006-0.028
	c-0.004-0.571-0.445-0.996-0.904-1.27c-0.602-0.36-1.308-0.558-1.991-0.687C9.476,2.045,8.552,1.98,7.636,2.005
	C6.763,2.03,5.879,2.129,5.034,2.353C4.401,2.521,3.753,2.76,3.248,3.188C3.043,3.362,2.883,3.581,2.792,3.833
	c-0.036,0.099-0.048,0.205-0.05,0.31C2.738,4.169,2.727,4.191,2.727,4.219c-0.001,0-0.002,0-0.003,0
	c0.001,0.005,0.002,0.009,0.003,0.013c0,0.427,0,0.855,0,1.282c0,0.293,0,0.585,0,0.878c0,0.117,0,0.233,0.006,0.35
	c0,0.008-0.005,0.014-0.005,0.022H2.727c0,0.003,0.001,0.005,0.001,0.007c0,0.269,0,0.537,0,0.807c0,0.451,0,0.902,0,1.353
	c0,0.12-0.001,0.239,0,0.359c0,0.002,0.001,0.004,0.001,0.006c0,0.006-0.004,0.011-0.004,0.018c0,0.283,0,0.568,0,0.851
	c0,0.445,0,0.892,0,1.338c0,0.131,0.004,0.254,0.017,0.382c0.039,0.609,0.564,1.046,1.071,1.307c0.773,0.398,1.64,0.582,2.495,0.696
	c1.008,0.134,2.035,0.148,3.046,0.041c0.898-0.094,1.792-0.266,2.62-0.635c0.297-0.132,0.582-0.3,0.824-0.519
	c0.204-0.184,0.386-0.433,0.443-0.706c0.017-0.081,0.029-0.165,0.03-0.248c0-0.002-0.001-0.004-0.001-0.007c0-0.283,0-0.567,0-0.85
	c0-0.44,0-0.878,0-1.318c0-0.092,0-0.185,0-0.277c0-0.004,0-0.009,0-0.013c0.001-0.006,0.003-0.011,0.004-0.017
	c-0.001,0-0.002,0-0.003,0c0.003-0.052,0.005-0.104,0.005-0.157c0-0.411,0-0.821,0-1.233c0-0.366,0-0.733,0-1.099
	c0-0.021,0-0.041,0-0.063C13.276,6.785,13.274,6.781,13.274,6.778z M3.951,5.608c0.007,0.003,0.014,0.005,0.021,0.009
	C4.148,5.699,4.327,5.77,4.51,5.832c0.033,0.012,0.066,0.024,0.1,0.036C4.652,5.882,4.693,5.9,4.735,5.913
	C4.819,5.955,4.912,5.98,5.003,5.99L5.002,5.991C4.975,5.987,4.948,5.983,4.92,5.979C4.947,5.985,4.971,5.99,4.998,5.998
	C5.008,6,5.018,5.997,5.028,5.999C5.057,6.006,5.087,6.01,5.117,6.015c0.011,0.003,0.022,0.007,0.033,0.01
	C5.141,6.023,5.132,6.022,5.122,6.02c0.014,0.004,0.029,0.005,0.043,0.008c0.015,0.004,0.03,0.01,0.045,0.014
	c0.024,0.006,0.049,0.007,0.072,0.012c-0.005,0.001-0.01,0.001-0.015,0.002c0.41,0.094,0.826,0.157,1.245,0.205
	C6.581,6.269,6.65,6.277,6.719,6.284c0.434,0.043,0.869,0.065,1.305,0.063c0.008,0,0.017,0.001,0.025,0.001
	c0.019,0,0.039-0.003,0.059-0.003C8.32,6.344,8.533,6.342,8.744,6.331C8.932,6.32,9.119,6.298,9.307,6.28
	C9.389,6.272,9.47,6.268,9.551,6.258c0.339-0.04,0.677-0.09,1.011-0.161c0.076-0.016,0.15-0.041,0.225-0.059
	c0.035-0.008,0.072-0.01,0.107-0.019c0.085-0.021,0.168-0.051,0.253-0.076c0.094-0.027,0.188-0.053,0.281-0.084
	c0.221-0.075,0.439-0.159,0.65-0.26l0,0c0.011-0.005,0.024-0.008,0.035-0.014c0.035-0.017,0.067-0.04,0.102-0.058
	c0.068-0.036,0.135-0.073,0.202-0.113c0,0.356,0,0.711,0,1.067c0,0.086,0.003,0.177-0.001,0.266
	c-0.006,0.028-0.014,0.055-0.023,0.083c-0.012,0.023-0.023,0.047-0.037,0.07c-0.003,0.005-0.022,0.03-0.034,0.048
	c-0.001,0.001-0.002,0.002-0.003,0.004c-0.037,0.041-0.075,0.081-0.117,0.118c-0.02,0.019-0.041,0.036-0.062,0.054
	c0.008-0.005,0.01-0.004-0.016,0.015C12.123,7.14,12.121,7.14,12.12,7.141c-0.007,0.005-0.012,0.009-0.016,0.013
	c-0.001,0.001-0.002,0.001-0.003,0.001c0.001-0.002,0.004-0.005,0.008-0.009c-0.184,0.132-0.387,0.234-0.594,0.324
	c-0.489,0.199-1.004,0.319-1.524,0.408c-0.115,0.02-0.23,0.047-0.345,0.063C8.789,8.051,7.921,8.07,7.061,8.007
	C6.844,7.992,6.626,7.967,6.409,7.94C5.747,7.847,5.083,7.703,4.463,7.447c-0.05-0.024-0.1-0.046-0.152-0.068
	c-0.1-0.051-0.2-0.105-0.294-0.165c-0.046-0.029-0.09-0.058-0.132-0.09C3.878,7.118,3.88,7.119,3.875,7.116
	C3.86,7.103,3.845,7.091,3.83,7.078c-0.034-0.03-0.068-0.063-0.101-0.095C3.713,6.967,3.699,6.95,3.685,6.934
	C3.682,6.931,3.676,6.923,3.67,6.917c-0.002-0.003-0.006-0.008-0.007-0.01C3.652,6.89,3.642,6.873,3.631,6.856
	C3.622,6.841,3.615,6.825,3.608,6.809C3.596,6.775,3.586,6.74,3.579,6.705C3.578,6.644,3.578,6.583,3.578,6.523
	c0-0.203,0-0.407,0-0.611c0-0.172,0-0.344,0-0.515c0.088,0.058,0.183,0.106,0.277,0.154C3.888,5.568,3.918,5.592,3.951,5.608z
	 M3.878,9.678C3.85,9.657,3.864,9.667,3.883,9.68C3.881,9.679,3.88,9.679,3.878,9.678z M11.514,10.016
	c-0.596,0.243-1.231,0.383-1.865,0.471c-0.862,0.111-1.735,0.134-2.602,0.071c-0.223-0.016-0.444-0.04-0.664-0.069
	c-0.642-0.09-1.286-0.231-1.888-0.474C4.28,9.923,4.073,9.816,3.883,9.68c-0.001,0-0.003-0.001-0.003-0.002
	c-0.024-0.02-0.047-0.04-0.07-0.061C3.769,9.58,3.73,9.54,3.693,9.499C3.687,9.492,3.681,9.485,3.675,9.477
	C3.667,9.466,3.658,9.454,3.651,9.442C3.635,9.417,3.622,9.39,3.609,9.363C3.598,9.332,3.589,9.3,3.582,9.267
	C3.58,9.2,3.581,9.132,3.581,9.066c0-0.204,0-0.407,0-0.611c0-0.169,0-0.337,0-0.505c0.05,0.032,0.099,0.063,0.151,0.093
	c0.064,0.035,0.131,0.072,0.201,0.1C4.178,8.259,4.43,8.356,4.688,8.439c0.009,0.003,0.018,0.004,0.026,0.007
	c0.585,0.186,1.194,0.295,1.804,0.363C6.554,8.813,6.59,8.817,6.626,8.821c0.097,0.01,0.194,0.024,0.29,0.032
	c0.223,0.02,0.446,0.027,0.669,0.035c0.014,0,0.027,0.002,0.041,0.003c0.004,0,0.008,0,0.012,0C8.359,8.913,9.084,8.875,9.8,8.774
	c0.019-0.003,0.038-0.003,0.056-0.005c0.063-0.009,0.126-0.025,0.189-0.034c0.148-0.024,0.297-0.043,0.444-0.072
	c0.043-0.009,0.085-0.023,0.128-0.032c0.105-0.023,0.209-0.051,0.313-0.078c0.17-0.046,0.337-0.096,0.503-0.153
	c0.061-0.021,0.125-0.033,0.186-0.056C11.71,8.31,11.805,8.271,11.9,8.231c0.002-0.001,0.004-0.001,0.005-0.002
	c0.002-0.001,0.004-0.002,0.006-0.003c0.171-0.074,0.342-0.158,0.505-0.257c0,0.353,0,0.706,0,1.059
	c0,0.086,0.003,0.177-0.001,0.266c-0.006,0.028-0.014,0.055-0.023,0.083c-0.012,0.023-0.023,0.047-0.037,0.07
	c-0.003,0.005-0.022,0.03-0.034,0.048c-0.001,0.001-0.002,0.002-0.003,0.004c-0.037,0.041-0.075,0.081-0.117,0.118
	c-0.02,0.019-0.041,0.036-0.062,0.054c0.007-0.004,0.005-0.002-0.01,0.01c-0.003,0.001,0.003-0.003-0.008,0.006
	c-0.001,0.001-0.002,0.001-0.003,0.002c-0.003,0.002-0.004,0.004-0.008,0.006c-0.002,0.002-0.005,0.002-0.007,0.004
	c0.001-0.001,0.002-0.003,0.004-0.004C11.924,9.823,11.721,9.926,11.514,10.016z M3.685,3.958c0.003-0.005,0.007-0.01,0.01-0.015
	C3.711,3.921,3.719,3.916,3.685,3.958z M3.676,3.968C3.678,3.966,3.68,3.965,3.681,3.963c-0.01,0.012-0.006,0.009-0.026,0.032
	C3.662,3.987,3.669,3.978,3.676,3.968z M3.683,3.961c0.031-0.037,0.065-0.072,0.1-0.105c0.021-0.02,0.043-0.04,0.065-0.06
	c0.006-0.005,0.016-0.013,0.027-0.022c0.014-0.011,0.029-0.022,0.036-0.027C3.937,3.73,3.962,3.712,3.988,3.696
	c0.054-0.036,0.11-0.068,0.167-0.1c0.109-0.06,0.221-0.112,0.334-0.162C5.087,3.19,5.726,3.05,6.363,2.961
	C7.23,2.849,8.112,2.826,8.983,2.89c0.218,0.017,0.436,0.04,0.655,0.068c0.643,0.089,1.287,0.231,1.89,0.477
	c0.111,0.048,0.221,0.098,0.327,0.157c0.057,0.031,0.112,0.065,0.167,0.1c0.029,0.018,0.056,0.037,0.083,0.055
	c0.004,0.003,0.011,0.008,0.018,0.013c0.015,0.012,0.036,0.029,0.045,0.036c0.021,0.017,0.041,0.036,0.061,0.056
	c0.036,0.035,0.073,0.071,0.105,0.11c0.009,0.013,0.019,0.027,0.028,0.041c0.013,0.021,0.022,0.043,0.033,0.065
	c0.011,0.03,0.019,0.061,0.026,0.092c0,0.005,0.001,0.01,0.001,0.015c0,0.002,0,0.004,0,0.006c-0.007,0.034-0.016,0.068-0.027,0.101
	c-0.012,0.023-0.022,0.046-0.036,0.069c-0.01,0.015-0.02,0.03-0.031,0.045c-0.035,0.041-0.075,0.081-0.114,0.117
	c-0.018,0.017-0.037,0.033-0.056,0.049c0.003-0.002,0.004-0.002,0.006-0.003c-0.004,0.003-0.008,0.007-0.012,0.01L12.151,4.57
	c-0.008,0-0.007,0-0.011,0.003c-0.001,0.001-0.003,0.001-0.005,0.003S12.132,4.578,12.13,4.58c-0.002,0.002-0.005,0.002-0.007,0.004
	c0.001-0.001,0.001-0.002,0.003-0.003c-0.188,0.137-0.396,0.242-0.608,0.335c-0.595,0.243-1.231,0.383-1.866,0.473
	C8.561,5.53,7.446,5.53,6.353,5.387c-0.63-0.09-1.26-0.229-1.851-0.468C4.284,4.825,4.07,4.718,3.876,4.577
	C3.823,4.532,3.772,4.483,3.723,4.432c-0.01-0.01-0.021-0.02-0.03-0.03C3.692,4.4,3.69,4.399,3.689,4.397
	C3.678,4.381,3.665,4.364,3.662,4.359C3.646,4.334,3.634,4.307,3.62,4.281C3.611,4.256,3.604,4.229,3.598,4.203
	c-0.001-0.019-0.001-0.038,0-0.057C3.604,4.12,3.611,4.094,3.62,4.068c0.01-0.02,0.02-0.042,0.032-0.062
	C3.661,3.991,3.672,3.976,3.683,3.961z M3.856,12.21C3.837,12.195,3.831,12.189,3.856,12.21L3.856,12.21z M12.325,12.037
	c-0.003,0.005-0.007,0.01-0.01,0.015C12.299,12.075,12.291,12.08,12.325,12.037z M12.334,12.028
	c-0.002,0.002-0.003,0.003-0.005,0.005c0.01-0.012,0.006-0.009,0.026-0.032C12.348,12.009,12.341,12.018,12.334,12.028z
	 M12.327,12.035c-0.031,0.037-0.064,0.072-0.1,0.105c-0.021,0.02-0.043,0.04-0.065,0.06c-0.005,0.004-0.014,0.011-0.023,0.019
	c-0.015,0.011-0.032,0.024-0.04,0.03c-0.026,0.017-0.051,0.036-0.077,0.051c-0.054,0.036-0.11,0.068-0.167,0.1
	c-0.108,0.06-0.221,0.112-0.334,0.162c-0.596,0.244-1.233,0.385-1.871,0.474c-0.867,0.112-1.748,0.135-2.62,0.071
	c-0.219-0.017-0.437-0.04-0.654-0.068c-0.649-0.091-1.299-0.233-1.907-0.484c-0.111-0.049-0.221-0.099-0.328-0.16
	c-0.057-0.031-0.112-0.065-0.167-0.101c-0.026-0.017-0.051-0.034-0.077-0.051c-0.002-0.002-0.006-0.005-0.009-0.007
	c-0.076-0.064-0.15-0.128-0.214-0.204c-0.01-0.015-0.021-0.029-0.03-0.044c-0.012-0.02-0.022-0.041-0.032-0.062
	c-0.013-0.037-0.025-0.075-0.032-0.115c-0.005-0.048-0.009-0.096-0.015-0.143c0.006,0.038,0.01,0.075,0.016,0.114
	c0-0.279,0-0.558,0-0.837c0-0.147,0-0.294,0-0.441c0.048,0.03,0.099,0.051,0.148,0.078c0.061,0.034,0.124,0.067,0.186,0.098
	c0.049,0.023,0.095,0.055,0.144,0.076c0.03,0.013,0.063,0.019,0.093,0.032c0.065,0.028,0.126,0.062,0.193,0.088
	C4.484,10.929,4.63,10.956,4.772,11c0.108,0.033,0.212,0.082,0.322,0.11c0.051,0.013,0.104,0.017,0.154,0.029
	c0.269,0.063,0.54,0.112,0.814,0.152c0.134,0.021,0.267,0.048,0.402,0.063c0.025,0.003,0.05,0.009,0.075,0.012
	c0.199,0.023,0.4,0.025,0.6,0.038c0.169,0.011,0.338,0.033,0.508,0.037c0.021,0.001,0.041-0.002,0.061-0.001
	c0.317,0.007,0.634-0.006,0.951-0.022c0.13-0.006,0.261-0.004,0.391-0.014c0.026-0.002,0.051-0.001,0.077-0.003
	c0.407-0.034,0.815-0.089,1.219-0.165c0.001,0,0.001,0,0.002,0c0.356-0.067,0.709-0.152,1.053-0.266
	c0.001,0,0.002-0.001,0.002-0.001c0.004-0.001,0.009-0.002,0.013-0.003c0.084-0.028,0.166-0.065,0.249-0.096
	c0.09-0.034,0.181-0.065,0.269-0.104c0.077-0.034,0.147-0.077,0.221-0.115c0.087-0.045,0.178-0.084,0.261-0.135
	c0.001-0.001,0.003-0.002,0.004-0.003c0,0.321,0,0.641,0,0.962c-0.004,0.114-0.004,0.229-0.004,0.344
	c0,0.004-0.001,0.008-0.001,0.012c-0.007,0.033-0.016,0.066-0.028,0.099c-0.01,0.02-0.019,0.04-0.03,0.059
	C12.349,12.005,12.338,12.02,12.327,12.035z M2.745,11.938c-0.002-0.018-0.001-0.035-0.002-0.053
	c-0.001-0.021-0.013-0.039-0.013-0.061C2.735,11.863,2.74,11.9,2.745,11.938z"/>
</svg>
