<?xml version="1.0" encoding="utf-8"?>
<!-- Generator: Adobe Illustrator 23.0.1, SVG Export Plug-In . SVG Version: 6.00 Build 0)  -->
<svg version="1.1" id="Layer_1" xmlns="http://www.w3.org/2000/svg" xmlns:xlink="http://www.w3.org/1999/xlink" x="0px" y="0px"
	 viewBox="0 0 16 16" style="enable-background:new 0 0 16 16;" xml:space="preserve">
<path d="M13,4h-1V3.5C12,2.673,11.327,2,10.5,2h-5C4.673,2,4,2.673,4,3.5V4H3C1.897,4,1,4.897,1,6v5c0,1.103,0.897,2,2,2h10
	c1.103,0,2-0.897,2-2V6C15,4.897,14.103,4,13,4z M5,3.5C5,3.224,5.224,3,5.5,3h5C10.776,3,11,3.224,11,3.5V4H5V3.5z M14,11
	c0,0.552-0.448,1-1,1H3c-0.552,0-1-0.448-1-1V6c0-0.552,0.448-1,1-1h1v1.5C4,6.776,4.224,7,4.5,7S5,6.776,5,6.5V5h6v1.5
	C11,6.776,11.224,7,11.5,7S12,6.776,12,6.5V5h1c0.552,0,1,0.448,1,1V11z"/>
</svg>
