<?xml version="1.0" encoding="utf-8"?>
<!-- Generated by IcoMoon.io -->
<!DOCTYPE svg PUBLIC "-//W3C//DTD SVG 1.1//EN" "http://www.w3.org/Graphics/SVG/1.1/DTD/svg11.dtd">
<svg version="1.1" xmlns="http://www.w3.org/2000/svg" xmlns:xlink="http://www.w3.org/1999/xlink" width="16" height="16" viewBox="0 0 16 16">
<path d="M8.8 2l0.3 1 0.2 0.4 0.4 0.2c0.1 0 0.1 0 0.2 0.1l0.4 0.2 0.4-0.2 0.9-0.4 1.1 1.1-0.4 0.9-0.2 0.4 0.2 0.4c0 0.1 0.1 0.1 0.1 0.2l0.2 0.4 0.4 0.2 1 0.3v1.6l-1 0.3-0.4 0.2-0.2 0.4c0 0.1-0.1 0.1-0.1 0.2l-0.2 0.4 0.2 0.4 0.4 0.9-1.1 1.1-0.9-0.4-0.4-0.2-0.4 0.2c-0.1 0-0.1 0.1-0.2 0.1l-0.4 0.2-0.2 0.4-0.3 1h-1.6l-0.3-1-0.2-0.4-0.4-0.2c-0.1 0-0.1-0.1-0.2-0.1l-0.4-0.2-0.4 0.2-0.9 0.4-1.1-1.1 0.4-0.9 0.2-0.4-0.2-0.4c0-0.1-0.1-0.1-0.1-0.2l-0.2-0.4-0.4-0.2-1-0.3v-1.6l1-0.3 0.4-0.2 0.2-0.4c0-0.1 0-0.1 0.1-0.2l0.2-0.4-0.3-0.4-0.4-1 1.1-1.1 0.9 0.4 0.4 0.2 0.4-0.2c0.1 0 0.1-0.1 0.2-0.1l0.4-0.2 0.3-0.3 0.3-1h1.6zM9.5 1h-3l-0.2 0.6-0.4 1c-0.1 0-0.2 0.1-0.2 0.1l-1-0.5-0.6-0.2-2.1 2.1 0.8 1.6c0 0.1-0.1 0.2-0.1 0.2l-1 0.4-0.7 0.2v3l0.6 0.2 1 0.4c0 0.1 0.1 0.2 0.1 0.2l-0.5 1-0.2 0.6 2.1 2.1 1.6-0.8c0.1 0 0.2 0.1 0.2 0.1l0.4 1 0.2 0.7h3l0.2-0.6 0.4-1c0.1 0 0.2-0.1 0.2-0.1l1.6 0.8 2.1-2.1-0.8-1.6c0-0.1 0.1-0.2 0.1-0.2l1-0.4 0.7-0.3v-3l-0.6-0.2-1-0.4c0-0.1-0.1-0.2-0.1-0.2l0.5-1 0.2-0.6-2.1-2.1-1.6 0.8c-0.1 0-0.2-0.1-0.2-0.1l-0.4-1-0.2-0.7zM8 6.5c0.8 0 1.5 0.7 1.5 1.5s-0.7 1.5-1.5 1.5-1.5-0.7-1.5-1.5 0.7-1.5 1.5-1.5zM8 5.5c-1.4 0-2.5 1.1-2.5 2.5s1.1 2.5 2.5 2.5 2.5-1.1 2.5-2.5-1.1-2.5-2.5-2.5v0z"></path>
</svg>
