<?xml version="1.0" encoding="utf-8"?>
<!-- Generator: Adobe Illustrator 22.1.0, SVG Export Plug-In . SVG Version: 6.00 Build 0)  -->
<svg version="1.1" id="Layer_1" xmlns="http://www.w3.org/2000/svg" xmlns:xlink="http://www.w3.org/1999/xlink" x="0px" y="0px"
	 viewBox="0 0 16 16" style="enable-background:new 0 0 16 16;" xml:space="preserve">
<g>
	<g>
		<g>
			<g>
				<path d="M3,2H1C0.7,2,0.5,2.2,0.5,2.5v2C0.5,4.8,0.7,5,1,5s0.5-0.2,0.5-0.5V3H3c0.3,0,0.5-0.2,0.5-0.5S3.3,2,3,2z"/>
			</g>
		</g>
		<g>
			<g>
				<path d="M15,11c-0.3,0-0.5,0.2-0.5,0.5V13H13c-0.3,0-0.5,0.2-0.5,0.5c0,0.3,0.2,0.5,0.5,0.5h2c0.3,0,0.5-0.2,0.5-0.5v-2
					C15.5,11.2,15.3,11,15,11z"/>
			</g>
		</g>
		<g>
			<g>
				<path d="M15,2h-2c-0.3,0-0.5,0.2-0.5,0.5S12.7,3,13,3h1.4v1.4C14.5,4.8,14.7,5,15,5s0.5-0.2,0.5-0.5v-2C15.5,2.2,15.3,2,15,2z"
					/>
			</g>
		</g>
		<g>
			<g>
				<path d="M3,13H1.5v-1.4C1.5,11.2,1.3,11,1,11s-0.5,0.2-0.5,0.5v2C0.5,13.8,0.7,14,1,14h2c0.3,0,0.5-0.2,0.5-0.5
					C3.5,13.2,3.3,13,3,13z"/>
			</g>
		</g>
	</g>
	<g>
		<g>
			<g>
				<rect x="3.5" y="5" width="0.9" height="6.2"/>
			</g>
		</g>
		<g>
			<g>
				<rect x="5.2" y="5" width="0.9" height="6.2"/>
			</g>
		</g>
		<g>
			<g>
				<rect x="6.8" y="5" width="0.9" height="6.2"/>
			</g>
		</g>
		<g>
			<g>
				<rect x="8.5" y="5" width="0.9" height="6.2"/>
			</g>
		</g>
		<g>
			<g>
				<rect x="10.2" y="5" width="0.9" height="6.2"/>
			</g>
		</g>
		<g>
			<g>
				<rect x="11.8" y="5" width="0.9" height="6.2"/>
			</g>
		</g>
	</g>
</g>
</svg>
