<?xml version="1.0" encoding="utf-8"?>
<!-- Generated by IcoMoon.io -->
<!DOCTYPE svg PUBLIC "-//W3C//DTD SVG 1.1//EN" "http://www.w3.org/Graphics/SVG/1.1/DTD/svg11.dtd">
<svg version="1.1" xmlns="http://www.w3.org/2000/svg" xmlns:xlink="http://www.w3.org/1999/xlink" width="16" height="16" viewBox="0 0 16 16">
<path d="M13.4 12.5c1-1.2 1.6-2.8 1.6-4.5s-0.6-3.2-1.6-4.5v0c0 0 0 0 0 0-0.2-0.2-0.3-0.4-0.5-0.5-0.1-0.1-0.1-0.1-0.2-0.2s-0.2-0.2-0.4-0.3c-0.1-0.1-0.1-0.1-0.2-0.2s-0.2-0.2-0.4-0.3c0 0.1-0.1 0-0.2 0-0.1-0.1-0.2-0.1-0.4-0.2-0.1 0-0.2-0.1-0.3-0.1-0.1-0.1-0.3-0.1-0.4-0.2-0.1 0-0.2-0.1-0.3-0.1s-0.3-0.1-0.4-0.1c-0.1 0-0.2-0.1-0.3-0.1-0.1-0.1-0.2-0.1-0.4-0.1-0.1 0-0.2 0-0.2 0-0.3-0.1-0.5-0.1-0.8-0.1s-0.5 0-0.8 0c-0.1 0-0.2 0-0.2 0-0.2 0-0.3 0-0.5 0.1-0.1 0-0.2 0-0.3 0.1-0.1 0-0.3 0.1-0.4 0.1s-0.2 0.1-0.3 0.1c-0.1 0.1-0.3 0.2-0.4 0.2-0.1 0.1-0.2 0.1-0.3 0.2-0.1 0-0.2 0.1-0.3 0.2-0.1 0-0.2 0.1-0.3 0.1-0.1 0.1-0.2 0.2-0.4 0.3 0 0-0.1 0.1-0.2 0.1-0.1 0.1-0.2 0.3-0.3 0.4-0.1 0-0.2 0.1-0.2 0.1-0.2 0.2-0.3 0.4-0.5 0.5 0 0 0 0 0 0v0c-1 1.3-1.6 2.8-1.6 4.5s0.6 3.2 1.6 4.5v0c0 0 0 0 0 0 0.2 0.2 0.3 0.4 0.5 0.5 0.1 0.1 0.1 0.1 0.2 0.2s0.2 0.2 0.4 0.3c0.1 0.1 0.1 0.1 0.2 0.2s0.2 0.2 0.4 0.3c0-0.1 0.1 0 0.2 0 0.1 0.1 0.2 0.1 0.4 0.2 0.1 0 0.2 0.1 0.3 0.1 0.1 0.1 0.3 0.1 0.4 0.2 0.1 0 0.2 0.1 0.3 0.1s0.3 0.1 0.4 0.1c0.1 0 0.2 0.1 0.3 0.1 0.2 0 0.3 0.1 0.5 0.1 0.1 0 0.2 0 0.2 0 0.3 0 0.5 0 0.8 0s0.5 0 0.8 0c0.1 0 0.2 0 0.2 0 0.2 0 0.3 0 0.5-0.1 0.1 0 0.2 0 0.3-0.1 0.1 0 0.3-0.1 0.4-0.1s0.2-0.1 0.3-0.1c0.1-0.1 0.3-0.1 0.4-0.2 0.1 0 0.2-0.1 0.3-0.1 0.1-0.1 0.3-0.1 0.4-0.2 0.1 0 0.2-0.1 0.3-0.2s0.2-0.2 0.4-0.3c0.1-0.1 0.1-0.1 0.2-0.2s0.2-0.2 0.4-0.3c0.1-0.1 0.1-0.1 0.2-0.2-0.1 0 0-0.2 0.2-0.3 0 0 0 0 0 0v0zM11.6 12.8c-0.2 0.2-0.4 0.3-0.6 0.4 0 0-0.1 0.1-0.1 0.1-0.1 0.1-0.2 0.1-0.3 0.2 0.2-0.3 0.4-0.6 0.6-1 0.2 0.1 0.4 0.1 0.7 0.2-0.2 0-0.2 0-0.3 0.1zM5 13.2c-0.2-0.1-0.4-0.3-0.6-0.4 0 0-0.1 0-0.1-0.1 0.2-0.1 0.4-0.2 0.7-0.2 0.2 0.4 0.4 0.7 0.6 1-0.1-0.1-0.2-0.1-0.3-0.2-0.2-0.1-0.3-0.1-0.3-0.1zM4.4 3.2c0.2-0.1 0.4-0.3 0.6-0.4 0 0 0.1-0.1 0.1-0.1 0.1-0.1 0.2-0.1 0.3-0.2-0.2 0.3-0.4 0.6-0.6 1-0.1 0-0.3-0.1-0.5-0.2 0 0 0 0 0.1-0.1zM11 2.8c0.2 0.1 0.4 0.3 0.6 0.4 0 0 0.1 0.1 0.1 0.1-0.2 0.1-0.4 0.2-0.7 0.2-0.2-0.4-0.4-0.7-0.6-1 0.1 0.1 0.2 0.1 0.3 0.2 0.2 0.1 0.3 0.1 0.3 0.1zM8.5 12c0.5 0 1.1 0.1 1.6 0.2-0.4 0.9-1 1.5-1.6 1.7v-1.9zM8.5 11v-2.5h2.5c0 1-0.2 2-0.5 2.8-0.6-0.2-1.3-0.3-2-0.3zM8.5 7.5v-2.5c0.7 0 1.4-0.1 2-0.2 0.3 0.8 0.5 1.7 0.5 2.8h-2.5zM8.5 4v-1.9c0.6 0.2 1.1 0.8 1.6 1.7-0.5 0.1-1.1 0.2-1.6 0.2zM7.5 2.1v1.9c-0.5 0-1.1-0.1-1.6-0.2 0.5-0.9 1-1.5 1.6-1.7zM7.5 5v2.5h-2.5c0-1 0.2-2 0.5-2.8 0.6 0.2 1.3 0.3 2 0.3zM7.5 8.5v2.5c-0.7 0-1.4 0.1-2 0.2-0.3-0.7-0.4-1.7-0.5-2.7h2.5zM7.5 12v1.9c-0.6-0.2-1.1-0.8-1.6-1.7 0.5-0.1 1.1-0.2 1.6-0.2zM11.5 11.5c0.3-0.9 0.5-1.9 0.5-3h2c-0.1 1.3-0.6 2.5-1.5 3.4-0.3-0.1-0.7-0.3-1-0.4zM14 7.5h-2c0-1.1-0.2-2.1-0.5-3 0.4-0.1 0.7-0.3 1.1-0.4 0.7 0.9 1.3 2.1 1.4 3.4zM4.5 4.5c-0.3 0.9-0.4 1.9-0.5 3h-2c0.1-1.3 0.7-2.5 1.5-3.4 0.3 0.1 0.7 0.3 1 0.4zM2 8.5h2c0 1.1 0.2 2.1 0.5 3-0.4 0.1-0.7 0.3-1.1 0.4-0.7-0.9-1.3-2.1-1.4-3.4z"></path>
</svg>
