<?xml version="1.0" encoding="utf-8"?>
<!-- Generator: Adobe Illustrator 22.1.0, SVG Export Plug-In . SVG Version: 6.00 Build 0)  -->
<svg version="1.1" id="Layer_1" xmlns="http://www.w3.org/2000/svg" xmlns:xlink="http://www.w3.org/1999/xlink" x="0px" y="0px"
	 viewBox="0 0 16 16" style="enable-background:new 0 0 16 16;" xml:space="preserve">
<path d="M8.9,4.2c0,0.7-0.6,1.2-1.2,1.2S6.4,4.9,6.4,4.2S7,3,7.7,3S8.9,3.6,8.9,4.2z M7.7,6.8C7,6.8,6.4,7.3,6.4,8S7,9.2,7.7,9.2
	S8.9,8.7,8.9,8S8.3,6.8,7.7,6.8z M7.7,10.5c-0.7,0-1.2,0.6-1.2,1.2S7,13,7.7,13s1.2-0.6,1.2-1.2S8.3,10.5,7.7,10.5z"/>
</svg>
