<?xml version="1.0" encoding="utf-8"?>
<!-- Generator: Adobe Illustrator 22.1.0, SVG Export Plug-In . SVG Version: 6.00 Build 0)  -->
<svg version="1.1" id="Layer_1" xmlns="http://www.w3.org/2000/svg" xmlns:xlink="http://www.w3.org/1999/xlink" x="0px" y="0px"
	 viewBox="0 0 16 16" style="enable-background:new 0 0 16 16;" xml:space="preserve">
<path d="M12.8,1.6H3.2c-0.28,0-0.5,0.22-0.5,0.5v10.4c0,0.28,0.22,0.5,0.5,0.5h0.7v0.9c0,0.28,0.22,0.5,0.5,0.5h2.3
	c0.28,0,0.5-0.22,0.5-0.5V13H8c0.28,0,0.5-0.22,0.5-0.5S8.28,12,8,12H3.7V6.4h9.1c0.28,0,0.5-0.22,0.5-0.5V2.1
	C13.3,1.82,13.08,1.6,12.8,1.6z M6.2,13v0.4H4.9V13H6.2z M12.3,5.4H3.7V2.6h8.6V5.4z M5.5,10.7c-0.882,0-1.6-0.718-1.6-1.601
	c0-0.882,0.718-1.6,1.6-1.6s1.6,0.718,1.6,1.6C7.1,9.982,6.382,10.7,5.5,10.7z M5.5,8.5c-0.331,0-0.6,0.269-0.6,0.6
	C4.9,9.431,5.169,9.7,5.5,9.7S6.1,9.431,6.1,9.1C6.1,8.769,5.831,8.5,5.5,8.5z M13.3,9.8c0,0.06-0.01,0.13-0.04,0.18
	c-0.02,0.06-0.06,0.12-0.1,0.16l-0.06,0.07c-0.01,0-0.01,0-0.02,0.01l-1.52,1.62C11.47,11.95,11.33,12,11.2,12
	c-0.12,0-0.25-0.04-0.34-0.14c-0.2-0.19-0.21-0.5-0.02-0.7l0.8-0.86H8.4c-0.28,0-0.5-0.22-0.5-0.5c0-0.28,0.22-0.5,0.5-0.5h3.19
	l-0.74-0.75c-0.2-0.19-0.2-0.51,0-0.7c0.19-0.2,0.51-0.2,0.7,0l1.6,1.6c0.05,0.05,0.09,0.11,0.11,0.17
	C13.29,9.68,13.3,9.74,13.3,9.8z M13.16,10.14c0.04-0.04,0.08-0.1,0.1-0.16c-0.03,0.09-0.08,0.17-0.16,0.23L13.16,10.14z
	 M13.15,9.45l-0.07-0.07c0.09,0.06,0.15,0.14,0.18,0.24C13.24,9.56,13.2,9.5,13.15,9.45z"/>
</svg>
