<?xml version="1.0" encoding="utf-8"?>
<!-- Generated by IcoMoon.io -->
<!DOCTYPE svg PUBLIC "-//W3C//DTD SVG 1.1//EN" "http://www.w3.org/Graphics/SVG/1.1/DTD/svg11.dtd">
<svg version="1.1" xmlns="http://www.w3.org/2000/svg" xmlns:xlink="http://www.w3.org/1999/xlink" width="16" height="16" viewBox="0 0 16 16">
<path d="M2.4 12.7c-0.2 0-0.3-0.1-0.3-0.2v0-0.1c-0.1-0.2 0-0.4 0.2-0.4 0.2-0.1 0.5-0.1 1-0.1 0.2 0 0.4 0 0.6 0 0.3 0 0.6 0 0.9 0 0.8 0 2.1 0 3.3-0.4l0.7-0.2 4.2-1c0 0 0.1 0 0.1-0.1 0-0.2-0.4-0.2-0.6-0.2-0.1 0-2.3 0.4-2.3 0.4-0.1 0.2-0.4 0.3-0.7 0.3l-2 0.4c-0.2 0-0.6 0.1-1 0.1-0.7 0-1.2-0.1-1.5-0.3-0.2-0.1-0.2-0.3-0.1-0.5 0.1-0.1 0.2-0.2 0.3-0.2s0.1 0 0.2 0.1 0.4 0.2 1.1 0.2c0.4 0 0.7 0 0.9-0.1 0 0 1.9-0.4 1.9-0.4 0.1 0 0.1 0 0.2-0.1 0.1-0.2 0-0.3-0.2-0.3-0.2-0.1-0.3-0.2-0.5-0.1-0.1 0-0.3 0.1-0.4 0.1-0.3 0.1-0.7 0.2-1 0.2 0 0-0.1 0-0.1 0-0.3-0.1-0.9-0.3-2-0.3s-2 0.3-2.7 0.8c-0.1 0.1-0.2 0.1-0.2 0.1-0.1 0-0.2-0.1-0.3-0.2s-0.1-0.2-0.1-0.2 0.1-0.2 0.2-0.3c0.8-0.7 1.9-1 3.1-1 0.1 0 0.2 0 0.3 0 1 0 1.8 0.3 1.8 0.3s1.4-0.3 1.5-0.3c0.8 0 1.3 0.4 1.4 0.9 0 0 2.1-0.3 2.2-0.3 0.3 0 0.7 0.1 0.9 0.3 0.4 0.3 0.7 0.9 0.4 1.3-0.1 0.2-0.3 0.2-0.6 0.3l-4.2 1-0.7 0.2c-1.3 0.4-2.7 0.4-3.5 0.4-0.3 0-0.6 0-0.9 0-0.2 0-0.4 0-0.6 0-0.4-0.1-0.6-0.1-0.9-0.1v0zM12.2 7.6l-0.2-2.1-0.2-2.2-8 0.7 0.4 4.4 5.8-0.5 2.2-0.3zM11.5 6.3l0.1 0.8-0.8 0.1c0-0.2 0.2-0.3 0.3-0.5 0-0.2 0.2-0.3 0.4-0.4zM11.2 3.9l0.1 0.8c-0.2 0-0.3-0.2-0.5-0.3-0.1-0.1-0.2-0.3-0.4-0.4l0.8-0.1zM5.1 5.1c-0.2 0.2-0.3 0.3-0.5 0.4l-0.2-1 1-0.1c0 0.3-0.1 0.5-0.3 0.7zM4.7 7.7v-0.8c0.2 0 0.3 0.2 0.6 0.3 0.1 0.1 0.2 0.2 0.4 0.4l-1 0.1zM6.3 7.6c-0.2-0.4-0.3-0.6-0.6-0.9-0.3-0.2-0.7-0.4-1.1-0.4v-0.1c0.4-0.2 0.7-0.4 1-0.7s0.4-0.7 0.5-1.1l3.8-0.4c0.1 0.3 0.3 0.6 0.5 0.9 0.3 0.2 0.6 0.3 0.9 0.5v0.3c-0.3 0-0.6 0.3-0.8 0.6-0.3 0.3-0.4 0.7-0.5 0.9l-3.7 0.4zM8.8 4.9c-0.5-0.5-1.3-0.4-1.8 0.1s-0.4 1.3 0.1 1.8c0.5 0.4 1.3 0.4 1.8-0.2 0.5-0.5 0.5-1.3-0.1-1.7zM7.6 6.3c-0.3-0.2-0.3-0.6-0.1-0.9s0.6-0.3 0.9-0.1c0.3 0.2 0.3 0.6 0.1 0.9s-0.6 0.3-0.9 0.1z"></path>
</svg>
