<?xml version="1.0" encoding="utf-8"?>
<!-- Generator: Adobe Illustrator 19.2.0, SVG Export Plug-In . SVG Version: 6.00 Build 0)  -->
<svg version="1.1" id="Layer_1" xmlns="http://www.w3.org/2000/svg" xmlns:xlink="http://www.w3.org/1999/xlink" x="0px" y="0px"
	 viewBox="0 0 16 16" style="enable-background:new 0 0 16 16;" xml:space="preserve">
<path d="M13,13H3c-0.8,0-1.5-0.7-1.5-1.5v-6C1.5,4.7,2.2,4,3,4h1.8l0.6-0.6C5.6,3.2,6,3,6.4,3h3.2c0.4,0,0.8,0.2,1.1,0.4L11.2,4H13
	c0.8,0,1.5,0.7,1.5,1.5v6C14.5,12.3,13.8,13,13,13z M3,5C2.7,5,2.5,5.2,2.5,5.5v6C2.5,11.8,2.7,12,3,12h10c0.3,0,0.5-0.2,0.5-0.5v-6
	C13.5,5.2,13.3,5,13,5h-2.2L9.9,4.1C9.8,4.1,9.7,4,9.6,4H6.4C6.3,4,6.2,4.1,6.1,4.1L5.2,5H3z M8,11c-1.4,0-2.5-1.1-2.5-2.5
	C5.5,7.1,6.6,6,8,6c1.4,0,2.5,1.1,2.5,2.5C10.5,9.9,9.4,11,8,11z M8,7C7.2,7,6.5,7.7,6.5,8.5S7.2,10,8,10s1.5-0.7,1.5-1.5S8.8,7,8,7
	z M12.5,5.5C12.2,5.5,12,5.7,12,6s0.2,0.5,0.5,0.5S13,6.3,13,6S12.8,5.5,12.5,5.5z"/>
</svg>
