<?xml version="1.0" encoding="utf-8"?>
<!-- Generator: Adobe Illustrator 22.1.0, SVG Export Plug-In . SVG Version: 6.00 Build 0)  -->
<svg version="1.1" id="Layer_1" xmlns="http://www.w3.org/2000/svg" xmlns:xlink="http://www.w3.org/1999/xlink" x="0px" y="0px"
	 viewBox="0 0 16 16" style="enable-background:new 0 0 16 16;" xml:space="preserve">
<g>
	<path d="M9.4,5.1c0-0.8-0.6-1.4-1.4-1.4c-0.8,0-1.4,0.6-1.4,1.4S7.2,6.5,8,6.5C8.8,6.5,9.4,5.9,9.4,5.1z M8,5.7
		c-0.3,0-0.5-0.3-0.5-0.5S7.7,4.6,8,4.6c0.3,0,0.5,0.3,0.5,0.5S8.3,5.7,8,5.7z"/>
	<path d="M13.9,13l-1.4-3c-0.2-0.3-0.4-0.5-0.8-0.5h-1.5l1.1-1.9C11.7,6.9,12,6.2,12,5.5c0-2.3-1.9-4.1-4.1-4.1
		c-2.3,0-4.1,1.9-4.1,4.1C3.9,6.2,4,7,4.5,7.6l1.1,1.9H4.4C4,9.5,3.8,9.6,3.6,10l-1.5,3C2,13.1,2,13.3,2,13.3c0,0.3,0.1,0.4,0.3,0.6
		s0.3,0.3,0.6,0.3h10.3c0.3,0,0.4-0.1,0.6-0.3s0.3-0.3,0.3-0.6C14,13.3,14,13.1,13.9,13z M5.3,7.1C5,6.6,4.9,6.1,4.9,5.5
		c0-0.8,0.3-1.6,0.9-2.1c0.5-0.6,1.3-0.9,2.1-0.9S9.5,2.8,10,3.4C10.6,4,11,4.6,11,5.5c-0.1,1-0.7,2.2-0.7,2.2l0,0L8,11.5l0,0
		L5.3,7.1z M3.4,13l1.2-2.4h1.7l1.2,1.9c0.1,0.2,0.3,0.3,0.4,0.3s0.3-0.1,0.4-0.3l1.2-1.9h1.9l1.1,2.4H3.4z"/>
</g>
</svg>
