<?xml version="1.0" encoding="utf-8"?>
<!-- Generator: Adobe Illustrator 21.0.0, SVG Export Plug-In . SVG Version: 6.00 Build 0)  -->
<svg version="1.1" id="Layer_1" xmlns="http://www.w3.org/2000/svg" xmlns:xlink="http://www.w3.org/1999/xlink" x="0px" y="0px"
	 viewBox="0 0 16 16" style="enable-background:new 0 0 16 16;" xml:space="preserve">
<g>
	<circle cx="8" cy="8" r="2"/>
	<path d="M14.5,7.5h-1.6c-0.2-2.4-2.1-4.2-4.4-4.4V1.5C8.5,1.2,8.3,1,8,1S7.5,1.2,7.5,1.5v1.6C5.1,3.3,3.3,5.1,3.1,7.5H1.5
		C1.2,7.5,1,7.7,1,8s0.2,0.5,0.5,0.5h1.6c0.2,2.4,2.1,4.2,4.4,4.4v1.6C7.5,14.8,7.7,15,8,15s0.5-0.2,0.5-0.5v-1.6
		c2.4-0.2,4.2-2.1,4.4-4.4h1.6C14.8,8.5,15,8.3,15,8S14.8,7.5,14.5,7.5z M8,12c-2.2,0-4-1.8-4-4s1.8-4,4-4s4,1.8,4,4S10.2,12,8,12z"
		/>
</g>
</svg>
