<?xml version="1.0" encoding="utf-8"?>
<!-- Generator: Adobe Illustrator 22.1.0, SVG Export Plug-In . SVG Version: 6.00 Build 0)  -->
<svg version="1.1" id="Layer_1" xmlns="http://www.w3.org/2000/svg" xmlns:xlink="http://www.w3.org/1999/xlink" x="0px" y="0px"
	 viewBox="0 0 16 16" style="enable-background:new 0 0 16 16;" xml:space="preserve">
<style type="text/css">
	.st0{fill:#231F20;}
</style>
<circle class="st0" cx="4.11" cy="9.066" r="0.937"/>
<g>
	<g>
		<circle class="st0" cx="12.14" cy="3.83" r="0.937"/>
	</g>
</g>
<g>
	<g>
		<path class="st0" d="M12.14,0.88c-1.72,0-3.13,1.4-3.13,3.13c0,0.42,0.09,0.83,0.26,1.23c0.01,0.04,0.03,0.07,0.04,0.1l0.05,0.07
			c0.07,0.14,0.14,0.27,0.2,0.35l1.82,3.16c-0.57,0.15-1.41,0.37-2.06,0.57c-0.76,0.22-1.2,0.52-1.38,0.93
			c-0.14,0.32-0.12,0.68,0.11,1.14c0.06,0.07,0.07,0.15,0.05,0.23C8.07,11.9,7.97,12,7.84,12.07c-0.29,0.13-1.46,0.72-2.46,1.22
			l1.3-2.26c0.04-0.07,0.09-0.15,0.15-0.27l0.11-0.18c0.02-0.04,0.04-0.08,0.05-0.12c0.16-0.39,0.25-0.8,0.25-1.22
			c0-1.72-1.41-3.13-3.13-3.13c-1.72,0-3.13,1.41-3.13,3.13c0,0.43,0.09,0.84,0.26,1.24c0.01,0.03,0.03,0.06,0.04,0.09l0.05,0.08
			c0.07,0.13,0.14,0.27,0.2,0.35l2.13,3.7v0.01c0.01,0.01,0.01,0.02,0.02,0.03c0.02,0.04,0.05,0.07,0.08,0.1
			c0.1,0.1,0.22,0.15,0.35,0.15c0.05,0,0.09-0.01,0.13-0.02c0.03-0.01,0.06-0.02,0.09-0.04c0,0,0.02-0.01,0.05-0.02
			c0.43-0.21,3.4-1.72,3.88-1.94c0.41-0.19,0.7-0.52,0.81-0.92c0.1-0.36,0.03-0.74-0.16-1c-0.06-0.12-0.07-0.2-0.05-0.22
			c0-0.02,0.1-0.19,0.74-0.38c1.08-0.32,2.66-0.71,2.66-0.71V9.73c0.13-0.03,0.24-0.11,0.31-0.23l2.14-3.71
			c0.04-0.07,0.09-0.14,0.15-0.27l0.11-0.18c0.02-0.04,0.04-0.08,0.05-0.12c0.16-0.39,0.25-0.8,0.25-1.21
			C15.27,2.28,13.86,0.88,12.14,0.88z M4.11,13.48l-1.74-3.02c-0.06-0.08-0.1-0.17-0.16-0.29l-0.03-0.05
			c-0.13-0.29-0.2-0.58-0.2-0.88c0-1.17,0.96-2.13,2.13-2.13c1.17,0,2.13,0.96,2.13,2.13c0,0.3-0.07,0.59-0.2,0.88
			c0,0.01,0,0.02-0.01,0.03l-0.11,0.18c-0.02,0.04-0.04,0.08-0.09,0.16L4.11,13.48z M14.07,4.88c0,0.01-0.01,0.02-0.01,0.03
			L13.95,5.1c-0.02,0.04-0.04,0.08-0.09,0.15l-1.72,3L10.4,5.23c-0.06-0.09-0.1-0.18-0.16-0.29l-0.03-0.06
			c-0.13-0.28-0.2-0.58-0.2-0.87c0-1.18,0.96-2.13,2.13-2.13c1.17,0,2.13,0.95,2.13,2.13C14.27,4.3,14.2,4.6,14.07,4.88z"/>
	</g>
	<g>
		<circle class="st0" cx="4.11" cy="9.066" r="0.937"/>
	</g>
</g>
</svg>
