<?xml version="1.0" encoding="utf-8"?>
<!-- Generator: Adobe Illustrator 22.1.0, SVG Export Plug-In . SVG Version: 6.00 Build 0)  -->
<svg version="1.1" id="Layer_1" xmlns="http://www.w3.org/2000/svg" xmlns:xlink="http://www.w3.org/1999/xlink" x="0px" y="0px"
	 viewBox="0 0 16 16" style="enable-background:new 0 0 16 16;" xml:space="preserve">
<path d="M14.4,10.5v3c0,0.4-0.3,0.8-0.8,0.8H3.2c-0.5,0-0.8-0.3-0.8-0.8V3.1c0-0.5,0.3-0.8,0.8-0.8h3C6.6,2.3,7,2.6,7,3.1
	S6.6,3.8,6.2,3.8H3.9v9h9v-2.2c0-0.4,0.3-0.8,0.8-0.8S14.4,10.1,14.4,10.5z M14.3,2.8c-0.1-0.2-0.2-0.3-0.4-0.4
	c-0.1-0.1-0.2-0.1-0.3-0.1h-4c-0.4,0-0.7,0.3-0.7,0.8s0.3,0.8,0.8,0.8h2.2L8.3,7.4C8,7.7,8,8.2,8.3,8.5c0.1,0.1,0.3,0.1,0.5,0.1
	s0.4-0.1,0.5-0.2l3.6-3.6V7c0,0.4,0.3,0.8,0.8,0.8s0.7-0.3,0.7-0.7v-4C14.4,3,14.4,2.9,14.3,2.8z"/>
</svg>
