<?xml version="1.0" encoding="utf-8"?>
<!-- Generator: Adobe Illustrator 22.1.0, SVG Export Plug-In . SVG Version: 6.00 Build 0)  -->
<svg version="1.1" id="Layer_1" xmlns="http://www.w3.org/2000/svg" xmlns:xlink="http://www.w3.org/1999/xlink" x="0px" y="0px"
	 viewBox="0 0 20 16" style="enable-background:new 0 0 20 16;" xml:space="preserve">
<style type="text/css">
	.st0{fill:#020202;}
</style>
<path class="st0" d="M19,3.5H6.1C5.8,3.5,5.6,3.8,5.6,4v1.3H3.3C3.1,5.3,3,5.4,2.9,5.5L0.6,9.1l0,0l0,0.1l0,0v2.8
	c0,0.3,0.2,0.5,0.5,0.5h1.1c0.2,0.7,0.9,1.3,1.7,1.3c0.8,0,1.5-0.5,1.7-1.3h0.6h4.6c0.2,0.7,0.9,1.3,1.7,1.3c0.8,0,1.5-0.5,1.7-1.3
	c0.2,0.7,0.9,1.3,1.7,1.3c0.8,0,1.5-0.5,1.7-1.3H19c0.3,0,0.5-0.2,0.5-0.5V4C19.5,3.7,19.2,3.5,19,3.5z M5.6,8.9H1.9l1.7-2.7h2V8.9z
	 M3.8,12.8c-0.4,0-0.8-0.3-0.8-0.8c0-0.4,0.3-0.8,0.8-0.8c0.4,0,0.8,0.3,0.8,0.8C4.6,12.5,4.2,12.8,3.8,12.8z M3.8,10.3
	c-0.8,0-1.5,0.5-1.7,1.3H1.5V9.4l0,0h4.1v2.2H5.5C5.3,10.9,4.6,10.3,3.8,10.3z M12.4,12.8c-0.4,0-0.8-0.3-0.8-0.8
	c0-0.4,0.3-0.8,0.8-0.8c0.4,0,0.8,0.3,0.8,0.8C13.1,12.5,12.8,12.8,12.4,12.8z M15.7,12.8c-0.4,0-0.8-0.3-0.8-0.8
	c0-0.4,0.3-0.8,0.8-0.8c0.4,0,0.6,0.3,0.7,0.6v0.4C16.3,12.6,16.1,12.8,15.7,12.8z M12.4,10.3c-0.8,0-1.5,0.5-1.7,1.3H6.6V5.8V4.5
	h11.9v7.1l-1.1,0c-0.2-0.7-0.9-1.3-1.7-1.3c-0.8,0-1.5,0.5-1.7,1.3C13.8,10.9,13.2,10.3,12.4,10.3z"/>
</svg>
