<?xml version="1.0" encoding="utf-8"?>
<!-- Generator: Adobe Illustrator 22.1.0, SVG Export Plug-In . SVG Version: 6.00 Build 0)  -->
<svg version="1.1" id="Layer_1" xmlns="http://www.w3.org/2000/svg" xmlns:xlink="http://www.w3.org/1999/xlink" x="0px" y="0px"
	 viewBox="0 0 16 16" style="enable-background:new 0 0 16 16;" xml:space="preserve">
<style type="text/css">
	.st0{fill:#020202;}
</style>
<path class="st0" d="M14.5,6.6c0-0.2-0.1-0.4-0.2-0.5C14.1,6,14,5.9,13.8,5.9h-0.4V5.1c0-0.2-0.1-0.4-0.3-0.6
	c-0.1-0.1-0.3-0.3-0.6-0.3H8L7.2,3C7.1,2.9,7,2.9,6.9,2.9H3.4C3.1,2.9,2.9,3,2.8,3.2C2.6,3.3,2.5,3.5,2.5,3.7v8.3c0,0,0,0.1,0,0.2
	c0,0.1,0.1,0.2,0.2,0.3c0.1,0.1,0.2,0.1,0.3,0.2c0.1,0,0.2,0.1,0.3,0.1h8.5c0.4,0,0.7-0.2,0.7-0.6l0,0l1.9-5.4l0,0
	C14.5,6.8,14.5,6.7,14.5,6.6z M11.7,11.9h-8l1.7-4.8h7.7h0.3L11.7,11.9z M6.6,3.9l0.9,1.2c0.1,0.1,0.2,0.1,0.3,0.1h4.8V6H5.3H5.2
	C5,6,4.8,6.1,4.7,6.2C4.6,6.3,4.6,6.4,4.5,6.6l0,0L3.6,9.2V3.9H6.6z"/>
</svg>
