<?xml version="1.0" encoding="utf-8"?>
<!-- Generator: Adobe Illustrator 22.1.0, SVG Export Plug-In . SVG Version: 6.00 Build 0)  -->
<svg version="1.1" id="Layer_1" xmlns="http://www.w3.org/2000/svg" xmlns:xlink="http://www.w3.org/1999/xlink" x="0px" y="0px"
	 viewBox="0 0 16 16" style="enable-background:new 0 0 16 16;" xml:space="preserve">
<path d="M12.5,2.7H3.5c-0.9,0-1.7,0.7-1.7,1.7v7.2c0,0.9,0.7,1.7,1.7,1.7h9.1c0.9,0,1.7-0.7,1.7-1.7V4.4C14.2,3.5,13.5,2.7,12.5,2.7
	z M13,11.6c0,0.3-0.2,0.5-0.5,0.5H3.5c-0.3,0-0.5-0.2-0.5-0.5V6h10L13,11.6L13,11.6z M13,4.8H3V4.4c0-0.3,0.2-0.5,0.5-0.5h9.1
	c0.3,0,0.5,0.2,0.5,0.5V4.8z M12.2,10.2c0,0.3-0.3,0.6-0.6,0.6H8.3c-0.3,0-0.6-0.3-0.6-0.6c0-0.3,0.3-0.6,0.6-0.6h3.3
	C11.9,9.5,12.2,9.8,12.2,10.2z M7,9.2c0,0.2-0.1,0.3-0.2,0.4l-1.6,1.6c-0.1,0.1-0.3,0.2-0.4,0.2c-0.2,0-0.3-0.1-0.4-0.2
	c-0.2-0.2-0.2-0.6,0-0.8l1.2-1.2L4.3,8C4,7.8,4,7.4,4.3,7.1c0.2-0.2,0.6-0.2,0.8,0l1.7,1.7C6.9,8.9,7,9.1,7,9.2z"/>
</svg>
