<svg width="24" height="25" viewBox="0 0 24 25" fill="none" xmlns="http://www.w3.org/2000/svg">
<path fill-rule="evenodd" clip-rule="evenodd" d="M5.5 18.3176H9.29289L7.14645 20.464C6.95118 20.6593 6.95118 20.9759 7.14645 21.1711C7.34171 21.3664 7.65829 21.3664 7.85355 21.1711L10.8536 18.1711C11.0488 17.9759 11.0488 17.6593 10.8536 17.464L7.85355 14.464C7.65829 14.2688 7.34171 14.2688 7.14645 14.464C6.95118 14.6593 6.95118 14.9759 7.14645 15.1711L9.29289 17.3176H5.5C4.67157 17.3176 4 16.646 4 15.8176V9.81757C4 8.98914 4.67157 8.31757 5.5 8.31757H9.5C9.77614 8.31757 10 8.09371 10 7.81757C10 7.54142 9.77614 7.31757 9.5 7.31757H5.5C4.11929 7.31757 3 8.43685 3 9.81757V15.8176C3 17.1983 4.11929 18.3176 5.5 18.3176ZM13 7.81757C13 8.09371 13.2239 8.31757 13.5 8.31757H20.5C20.7761 8.31757 21 8.09371 21 7.81757C21 7.54142 20.7761 7.31757 20.5 7.31757H13.5C13.2239 7.31757 13 7.54142 13 7.81757ZM13.5 13.3176C13.2239 13.3176 13 13.0937 13 12.8176C13 12.5414 13.2239 12.3176 13.5 12.3176H20.5C20.7761 12.3176 21 12.5414 21 12.8176C21 13.0937 20.7761 13.3176 20.5 13.3176H13.5ZM13 17.8176C13 18.0937 13.2239 18.3176 13.5 18.3176H20.5C20.7761 18.3176 21 18.0937 21 17.8176C21 17.5414 20.7761 17.3176 20.5 17.3176H13.5C13.2239 17.3176 13 17.5414 13 17.8176Z" fill="black"/>
<path d="M9.29289 18.3176L9.64645 18.6711L10.5 17.8176H9.29289V18.3176ZM7.14645 20.464L7.5 20.8176L7.14645 20.464ZM7.14645 21.1711L7.5 20.8176L7.14645 21.1711ZM10.8536 18.1711L10.5 17.8176H10.5L10.8536 18.1711ZM10.8536 17.464L10.5 17.8176H10.5L10.8536 17.464ZM7.85355 14.464L7.5 14.8176L7.85355 14.464ZM7.14645 14.464L7.5 14.8176V14.8176L7.14645 14.464ZM7.14645 15.1711L7.5 14.8176V14.8176L7.14645 15.1711ZM9.29289 17.3176V17.8176H10.5L9.64645 16.964L9.29289 17.3176ZM9.29289 17.8176H5.5V18.8176H9.29289V17.8176ZM7.5 20.8176L9.64645 18.6711L8.93934 17.964L6.79289 20.1105L7.5 20.8176ZM7.5 20.8176L6.79289 20.1105C6.40237 20.501 6.40237 21.1341 6.79289 21.5247L7.5 20.8176ZM7.5 20.8176L6.79289 21.5247C7.18342 21.9152 7.81658 21.9152 8.20711 21.5247L7.5 20.8176ZM10.5 17.8176L7.5 20.8176L8.20711 21.5247L11.2071 18.5247L10.5 17.8176ZM10.5 17.8176L11.2071 18.5247C11.5976 18.1341 11.5976 17.501 11.2071 17.1105L10.5 17.8176ZM7.5 14.8176L10.5 17.8176L11.2071 17.1105L8.20711 14.1105L7.5 14.8176ZM7.5 14.8176L8.20711 14.1105C7.81658 13.7199 7.18342 13.7199 6.79289 14.1105L7.5 14.8176ZM7.5 14.8176V14.8176L6.79289 14.1105C6.40237 14.501 6.40237 15.1341 6.79289 15.5247L7.5 14.8176ZM9.64645 16.964L7.5 14.8176L6.79289 15.5247L8.93934 17.6711L9.64645 16.964ZM5.5 17.8176H9.29289V16.8176H5.5V17.8176ZM3.5 15.8176C3.5 16.9221 4.39543 17.8176 5.5 17.8176V16.8176C4.94772 16.8176 4.5 16.3699 4.5 15.8176H3.5ZM3.5 9.81757V15.8176H4.5V9.81757H3.5ZM5.5 7.81757C4.39543 7.81757 3.5 8.713 3.5 9.81757H4.5C4.5 9.26528 4.94772 8.81757 5.5 8.81757V7.81757ZM9.5 7.81757H5.5V8.81757H9.5V7.81757ZM9.5 7.81757V8.81757C10.0523 8.81757 10.5 8.36985 10.5 7.81757H9.5ZM9.5 7.81757H10.5C10.5 7.26528 10.0523 6.81757 9.5 6.81757V7.81757ZM5.5 7.81757H9.5V6.81757H5.5V7.81757ZM3.5 9.81757C3.5 8.713 4.39543 7.81757 5.5 7.81757V6.81757C3.84315 6.81757 2.5 8.16071 2.5 9.81757H3.5ZM3.5 15.8176V9.81757H2.5V15.8176H3.5ZM5.5 17.8176C4.39543 17.8176 3.5 16.9221 3.5 15.8176H2.5C2.5 17.4744 3.84315 18.8176 5.5 18.8176V17.8176ZM13.5 7.81757H12.5C12.5 8.36985 12.9477 8.81757 13.5 8.81757V7.81757ZM20.5 7.81757H13.5V8.81757H20.5V7.81757ZM20.5 7.81757V8.81757C21.0523 8.81757 21.5 8.36985 21.5 7.81757H20.5ZM20.5 7.81757H21.5C21.5 7.26528 21.0523 6.81757 20.5 6.81757V7.81757ZM13.5 7.81757H20.5V6.81757H13.5V7.81757ZM13.5 7.81757V6.81757C12.9477 6.81757 12.5 7.26528 12.5 7.81757H13.5ZM12.5 12.8176C12.5 13.3699 12.9477 13.8176 13.5 13.8176V12.8176H12.5ZM13.5 11.8176C12.9477 11.8176 12.5 12.2653 12.5 12.8176H13.5V11.8176ZM20.5 11.8176H13.5V12.8176H20.5V11.8176ZM21.5 12.8176C21.5 12.2653 21.0523 11.8176 20.5 11.8176V12.8176H21.5ZM20.5 13.8176C21.0523 13.8176 21.5 13.3699 21.5 12.8176H20.5V13.8176ZM13.5 13.8176H20.5V12.8176H13.5V13.8176ZM13.5 17.8176H12.5C12.5 18.3699 12.9477 18.8176 13.5 18.8176V17.8176ZM20.5 17.8176H13.5V18.8176H20.5V17.8176ZM20.5 17.8176V18.8176C21.0523 18.8176 21.5 18.3699 21.5 17.8176H20.5ZM20.5 17.8176H21.5C21.5 17.2653 21.0523 16.8176 20.5 16.8176V17.8176ZM13.5 17.8176H20.5V16.8176H13.5V17.8176ZM13.5 17.8176V16.8176C12.9477 16.8176 12.5 17.2653 12.5 17.8176H13.5Z" fill="black"/>
</svg>
