<?xml version="1.0" encoding="utf-8"?>
<!-- Generator: Adobe Illustrator 22.1.0, SVG Export Plug-In . SVG Version: 6.00 Build 0)  -->
<svg version="1.1" id="Layer_1" xmlns="http://www.w3.org/2000/svg" xmlns:xlink="http://www.w3.org/1999/xlink" x="0px" y="0px"
	 viewBox="0 0 16 16" style="enable-background:new 0 0 16 16;" xml:space="preserve">
<g>
	<path d="M13.2,5.8c0-2.9-2.4-5.2-5.2-5.2c-2.9,0-5.2,2.4-5.3,5.2c0,1,0.3,1.9,0.7,2.8l0,0l4.2,6.6l0,0c0.1,0.1,0.2,0.2,0.4,0.2
		c0.1,0,0.2,0,0.3-0.1c0.1,0,0.1-0.1,0.2-0.2l0,0l4-6.7l0,0C13,7.7,13.2,6.8,13.2,5.8z M11.7,7.9l-3.6,5.9L4.4,8
		C4,7.3,3.8,6.6,3.8,5.8c0-1.1,0.5-2.2,1.2-2.9S6.9,1.6,8,1.6c1.1,0,2.2,0.5,2.9,1.2c0.8,0.8,1.2,1.8,1.2,3
		C12.2,6.6,12,7.3,11.7,7.9z"/>
	<path d="M8.2,3.7c-1,0-1.7,0.8-1.7,1.7c0,1,0.8,1.7,1.7,1.7c1,0,1.7-0.8,1.7-1.7C9.9,4.4,9.2,3.7,8.2,3.7z M8.2,6.2
		c-0.4,0-0.8-0.4-0.8-0.8c0-0.4,0.4-0.8,0.8-0.8C8.6,4.6,9,4.9,9,5.4C9,5.8,8.6,6.2,8.2,6.2z"/>
</g>
</svg>
