<?xml version="1.0" encoding="utf-8"?>
<!-- Generator: Adobe Illustrator 21.0.0, SVG Export Plug-In . SVG Version: 6.00 Build 0)  -->
<svg version="1.1" id="Layer_1" xmlns="http://www.w3.org/2000/svg" xmlns:xlink="http://www.w3.org/1999/xlink" x="0px" y="0px"
	 viewBox="0 0 16 16" style="enable-background:new 0 0 16 16;" xml:space="preserve">
<path d="M10.7,2.676c-1.003,0-1.992,0.442-2.7,1.194C7.292,3.118,6.302,2.676,5.3,2.676c-1.991,0-3.55,1.633-3.55,3.717
	c0,0.992,0.324,1.83,1.049,2.716c0.393,0.479,0.871,0.952,1.763,1.74c0.08,0.071,0.241,0.212,0.508,0.445l0.632,0.553
	c0.468,0.413,0.845,0.752,1.212,1.092c0.063,0.059,0.129,0.107,0.207,0.154c0.06,0.036,0.112,0.062,0.161,0.083
	C7.492,13.274,7.746,13.323,8,13.323c0.256,0,0.512-0.05,0.724-0.149c0.043-0.019,0.09-0.042,0.14-0.071
	c0.083-0.048,0.152-0.099,0.219-0.16c0.368-0.341,0.746-0.681,1.217-1.096l1.138-0.996c0.892-0.789,1.37-1.262,1.764-1.741
	c0.726-0.887,1.049-1.725,1.049-2.716C14.25,4.309,12.69,2.676,10.7,2.676z M12.923,6.394c0,0.682-0.217,1.225-0.749,1.875
	c-0.34,0.415-0.793,0.861-1.616,1.588l-1.136,0.995c-0.463,0.406-0.853,0.757-1.236,1.109c-0.007,0.003-0.023,0.011-0.028,0.014
	c-0.058,0.027-0.255,0.029-0.341-0.01c-0.387-0.358-0.776-0.708-1.238-1.113L5.442,9.856C4.619,9.128,4.166,8.683,3.826,8.268
	C3.294,7.619,3.078,7.076,3.078,6.394c0-1.362,0.956-2.39,2.222-2.39c0.689,0,1.403,0.354,1.861,0.922l0.645,0.8
	c0.095,0.118,0.295,0.118,0.39,0l0.645-0.8c0.458-0.569,1.171-0.922,1.861-0.922C11.968,4.004,12.923,5.031,12.923,6.394z"/>
</svg>
