<?xml version="1.0" encoding="utf-8"?>
<!-- Generator: Adobe Illustrator 22.1.0, SVG Export Plug-In . SVG Version: 6.00 Build 0)  -->
<svg version="1.1" id="Layer_1" xmlns="http://www.w3.org/2000/svg" xmlns:xlink="http://www.w3.org/1999/xlink" x="0px" y="0px"
	 viewBox="0 0 16 16" style="enable-background:new 0 0 16 16;" xml:space="preserve">
<path d="M8.2,5.6c-0.4,0-0.8-0.3-0.8-0.8V2.6c0-0.4,0.3-0.8,0.8-0.8S9,2.1,9,2.6v2.2C9,5.2,8.6,5.6,8.2,5.6z M9.8,2.9v1.6
	c1.6,0.7,2.8,2.3,2.8,4.1c0,2.5-2,4.5-4.5,4.5s-4.5-2-4.5-4.5c0-1.9,1.1-3.5,2.8-4.1V2.9C3.8,3.6,2,5.9,2,8.6c0,3.3,2.7,6,6,6
	s6-2.7,6-6C14,5.9,12.2,3.6,9.8,2.9z"/>
</svg>
