<?xml version="1.0" encoding="utf-8"?>
<!-- Generator: Adobe Illustrator 22.0.1, SVG Export Plug-In . SVG Version: 6.00 Build 0)  -->
<svg version="1.1" id="Layer_1" xmlns="http://www.w3.org/2000/svg" xmlns:xlink="http://www.w3.org/1999/xlink" x="0px" y="0px"
	 viewBox="0 0 16 16" style="enable-background:new 0 0 16 16;" xml:space="preserve">
<path d="M14.532,11.339h-0.893V9.741c-0.002-1.016-0.83-1.844-1.846-1.847H8.47V7.31h2.218c0.253,0.012,0.469-0.208,0.471-0.469
	V1.468c0-0.258-0.21-0.469-0.471-0.469H5.314c-0.259,0-0.469,0.211-0.469,0.469v5.373C4.844,7.099,5.054,7.31,5.314,7.31h2.22v0.584
	H4.207C3.192,7.897,2.364,8.726,2.361,9.741v1.598H1.469c-0.258,0-0.469,0.209-0.469,0.469v2.721c0,0.259,0.211,0.47,0.469,0.47
	h2.719c0.259,0,0.469-0.211,0.469-0.47v-2.72c0.001-0.258-0.209-0.469-0.469-0.471h-0.89V9.74c0-0.499,0.406-0.905,0.905-0.905h3.33
	v2.506H6.639c-0.258,0-0.469,0.21-0.469,0.47v2.721C6.169,14.789,6.379,15,6.639,15.002h2.722c0.258,0,0.469-0.211,0.469-0.469
	v-2.724c0.002-0.258-0.208-0.469-0.469-0.471H8.47V8.833h3.323c0.498,0.002,0.905,0.408,0.906,0.905v1.598h-0.89
	c-0.258,0-0.468,0.209-0.47,0.469v2.722c0,0.258,0.209,0.468,0.47,0.47h2.721c0.259,0,0.47-0.211,0.47-0.47v-2.719
	C15,11.55,14.79,11.339,14.532,11.339z M14.061,12.277l-0.001,1.783h-1.782v-1.783H14.061z M10.219,1.936v4.437H5.783V1.936H10.219z
	 M7.108,14.06v-1.783h1.784L8.891,14.06H7.108z M1.938,14.06v-1.783h1.784L3.721,14.06H1.938z"/>
</svg>
