<?xml version="1.0" encoding="utf-8"?>
<!-- Generator: Adobe Illustrator 23.0.1, SVG Export Plug-In . SVG Version: 6.00 Build 0)  -->
<svg version="1.1" id="Layer_1" xmlns="http://www.w3.org/2000/svg" xmlns:xlink="http://www.w3.org/1999/xlink" x="0px" y="0px"
	 viewBox="0 0 16 16" style="enable-background:new 0 0 16 16;" xml:space="preserve">
<path d="M5.152,4.915C5.491,4.61,5.518,4.088,5.212,3.749c-0.298-0.33-0.803-0.366-1.144-0.08C1.566,5.841,1.298,9.63,3.47,12.133
	s5.961,2.771,8.464,0.599s2.771-5.961,0.599-8.464c-0.196-0.226-0.408-0.436-0.635-0.63c-0.347-0.296-0.868-0.256-1.165,0.091
	c-0.296,0.347-0.256,0.868,0.091,1.165c0.968,0.826,1.525,2.035,1.525,3.307c0,2.397-1.95,4.348-4.348,4.348
	s-4.348-1.951-4.348-4.348C3.653,6.939,4.2,5.741,5.152,4.915z M8.827,8.174V2.826C8.827,2.37,8.457,2,8.001,2
	C7.545,2,7.175,2.37,7.175,2.826v5.348C7.175,8.63,7.545,9,8.001,9C8.457,9,8.827,8.63,8.827,8.174z"/>
</svg>
