<?xml version="1.0" encoding="utf-8"?>
<!-- Generator: Adobe Illustrator 21.0.0, SVG Export Plug-In . SVG Version: 6.00 Build 0)  -->
<svg version="1.1" id="Layer_1" xmlns="http://www.w3.org/2000/svg" xmlns:xlink="http://www.w3.org/1999/xlink" x="0px" y="0px"
	 viewBox="0 0 16 16" style="enable-background:new 0 0 16 16;" xml:space="preserve">
<path d="M8,13c-2.8,0-5-2.2-5-5s2.2-5,5-5s5,2.2,5,5S10.8,13,8,13z M8,4C5.8,4,4,5.8,4,8c0,2.2,1.8,4,4,4c2.2,0,4-1.8,4-4
	C12,5.8,10.2,4,8,4z M9.7,9.9c0.2-0.2,0.2-0.5,0-0.7L8.5,7.8V5.2c0-0.3-0.2-0.5-0.5-0.5S7.5,4.9,7.5,5.2V8c0,0.1,0,0.2,0.1,0.3
	L9,9.8C9.1,9.9,9.3,10,9.4,10C9.5,10,9.6,10,9.7,9.9z"/>
</svg>
