<?xml version="1.0" encoding="utf-8"?>
<!-- Generator: Adobe Illustrator 22.1.0, SVG Export Plug-In . SVG Version: 6.00 Build 0)  -->
<svg version="1.1" id="Layer_1" xmlns="http://www.w3.org/2000/svg" xmlns:xlink="http://www.w3.org/1999/xlink" x="0px" y="0px"
	 viewBox="0 0 16 16" style="enable-background:new 0 0 16 16;" xml:space="preserve">
<path d="M2,3C1.8,9,7.3,14.5,13.3,14.3c0.1,0,0.2-0.1,0.4-0.2l0.4-2.2c0-0.1-0.1-0.4-0.2-0.4l-2.9-0.8c-0.5-0.2-1.1,0.4-1.4,0.6
	c-0.1,0.1-0.2,0.1-0.4,0.1c-1.7-0.6-3.6-2.5-4.2-4.2c0-0.1,0-0.2,0.1-0.4C5.2,6.6,5.7,6,5.6,5.4L4.8,2.5C4.6,2.4,4.5,2.3,4.4,2.3
	L2.2,2.7C2.1,2.7,2,2.9,2,3z"/>
</svg>
