<?xml version="1.0" encoding="utf-8"?>
<!-- Generator: Adobe Illustrator 21.0.0, SVG Export Plug-In . SVG Version: 6.00 Build 0)  -->
<svg version="1.1" id="Layer_1" xmlns="http://www.w3.org/2000/svg" xmlns:xlink="http://www.w3.org/1999/xlink" x="0px" y="0px"
	 viewBox="0 0 16 16" style="enable-background:new 0 0 16 16;" xml:space="preserve">
<path d="M8,15c-0.294,0-0.532-0.263-0.532-0.585c0-0.324,0.239-0.586,0.532-0.586c1.174,0,2.319-0.398,3.141-1.091
	c0.789-0.666,1.224-1.538,1.224-2.455c0-0.98-0.525-2.307-1.305-3.302c-0.885-1.128-2-1.775-3.06-1.775
	c-1.061,0-2.176,0.647-3.06,1.775c-0.78,0.995-1.304,2.321-1.304,3.302c0,1.513,1.188,2.86,2.956,3.353
	c0.268,0.089,0.427,0.378,0.375,0.676c-0.049,0.275-0.269,0.475-0.523,0.475l-0.105-0.012c-2.257-0.63-3.77-2.434-3.77-4.492
	c0-1.297,0.587-2.82,1.571-4.074C4.594,5.627,5.099,5.151,5.64,4.79L4.162,2.471c-0.058-0.09-0.089-0.194-0.089-0.303
	c0.001-0.307,0.252-0.557,0.558-0.557h1.665C6.679,1.226,7.307,1,8,1c0.693,0,1.322,0.227,1.769,0.638l1.598-0.026
	c0.108,0,0.213,0.031,0.303,0.089c0.125,0.08,0.212,0.205,0.244,0.351c0.031,0.146,0.004,0.295-0.077,0.42l-0.88,1.373
	c-0.115,0.174-0.289,0.267-0.476,0.267c-0.11,0-0.217-0.032-0.309-0.094c-0.124-0.083-0.209-0.209-0.238-0.355
	c-0.029-0.146,0.001-0.295,0.084-0.418l0.328-0.516H9.531c-0.168,0-0.325-0.075-0.43-0.204C8.936,2.328,8.522,2.115,8,2.115
	c-0.521,0-0.936,0.212-1.101,0.409C6.794,2.653,6.637,2.727,6.47,2.728H5.649l0.989,1.555C7.09,4.116,7.548,4.032,8,4.032
	c1.389,0,2.761,0.773,3.861,2.176c0.983,1.255,1.57,2.777,1.57,4.074c0,1.27-0.598,2.503-1.642,3.384C10.77,14.526,9.424,15,8,15z"
	/>
</svg>
