<?xml version="1.0" encoding="utf-8"?>
<!-- Generator: Adobe Illustrator 21.0.0, SVG Export Plug-In . SVG Version: 6.00 Build 0)  -->
<svg version="1.1" id="Layer_1" xmlns="http://www.w3.org/2000/svg" xmlns:xlink="http://www.w3.org/1999/xlink" x="0px" y="0px"
	 viewBox="0 0 16 16" style="enable-background:new 0 0 16 16;" xml:space="preserve">
<path d="M14,10.25v3c0,0.414-0.336,0.75-0.75,0.75H2.75C2.336,14,2,13.664,2,13.25V2.75C2,2.336,2.336,2,2.75,2h3
	C6.164,2,6.5,2.336,6.5,2.75S6.164,3.5,5.75,3.5H3.5v9h9v-2.25c0-0.414,0.336-0.75,0.75-0.75S14,9.836,14,10.25z M13.942,2.463
	c-0.076-0.183-0.222-0.329-0.405-0.405C13.445,2.02,13.348,2,13.25,2h-4C8.836,2,8.5,2.336,8.5,2.75S8.836,3.5,9.25,3.5h2.189
	L7.509,7.431c-0.293,0.293-0.293,0.768,0,1.061c0.146,0.146,0.338,0.22,0.53,0.22s0.384-0.073,0.53-0.22L12.5,4.561V6.75
	c0,0.414,0.336,0.75,0.75,0.75S14,7.164,14,6.75v-4C14,2.652,13.98,2.555,13.942,2.463z"/>
</svg>
