<?xml version="1.0" encoding="utf-8"?>
<!-- Generator: Adobe Illustrator 21.0.0, SVG Export Plug-In . SVG Version: 6.00 Build 0)  -->
<svg version="1.1" id="Layer_1" xmlns="http://www.w3.org/2000/svg" xmlns:xlink="http://www.w3.org/1999/xlink" x="0px" y="0px"
	 viewBox="0 0 16 16" style="enable-background:new 0 0 16 16;" xml:space="preserve">
<path d="M12.5,13h-9C3.2,13,3,12.8,3,12.5v-9C3,3.2,3.2,3,3.5,3h5C8.8,3,9,3.2,9,3.5S8.8,4,8.5,4H4v8h8V7.5C12,7.2,12.2,7,12.5,7
	S13,7.2,13,7.5v5C13,12.8,12.8,13,12.5,13z M11.5,4.2l0.3,0.3L7.3,9H7V8.7L11.5,4.2 M11.5,3.2c-0.3,0-0.5,0.1-0.7,0.3L6.3,8
	C6.1,8.2,6,8.4,6,8.7V9c0,0.6,0.4,1,1,1h0.3C7.6,10,7.8,9.9,8,9.7l4.5-4.5c0.4-0.4,0.4-1,0-1.4l-0.3-0.3C12,3.3,11.8,3.2,11.5,3.2
	L11.5,3.2z"/>
</svg>
