<?xml version="1.0" encoding="utf-8"?>
<!-- Generator: Adobe Illustrator 22.1.0, SVG Export Plug-In . SVG Version: 6.00 Build 0)  -->
<svg version="1.1" id="Layer_1" xmlns="http://www.w3.org/2000/svg" xmlns:xlink="http://www.w3.org/1999/xlink" x="0px" y="0px"
	 viewBox="0 0 16 16" style="enable-background:new 0 0 16 16;" xml:space="preserve">
<path d="M14.1,1.8L14.1,1.8L14.1,1.8L14.1,1.8c-0.1-0.1-0.2-0.2-0.4-0.2H7.6L7.4,1.7C7.3,1.8,7.2,1.9,7.2,2v0.6L5.1,3.1l0,0
	C5,3.1,4.9,3.2,4.9,3.3L4.8,3.5l0,0L6.1,8L5,9C4.9,8.9,4.8,8.8,4.5,8.8H2.1C1.7,8.8,1.2,9,1.2,9.6v3.9c0,0.4,0.3,0.9,0.9,0.9h2.4
	c0.4,0,0.7-0.2,0.8-0.5l0.2,0.2l0,0c0.2,0.2,0.6,0.3,1,0.3h7.4l0.3-0.1c0.1-0.1,0.2-0.2,0.1-0.3L14.1,1.8L14.1,1.8z M13.3,13.7H12
	c0-0.1,0-0.2,0-0.3c0-0.1,0-0.2,0-0.3c0.5,0,0.9-0.5,0.9-1c0-0.1,0-0.2-0.1-0.4c0.4-0.1,0.6-0.5,0.6-0.8c0-0.2-0.1-0.4-0.2-0.5V7.9
	V7.5V4.2L13,4c-0.1-0.1-0.2-0.2-0.3-0.2c-0.3,0-0.6-0.3-0.6-0.6c0-0.2-0.2-0.3-0.4-0.3H9.5L9.3,3C9.2,3.1,9.1,3.2,9.1,3.3
	c0,0.3-0.2,0.6-0.6,0.6H8.5L8.3,4v0.2V9H8V2.3h5.3C13.3,2.3,13.3,13.7,13.3,13.7z M8.7,13.3c0,0.1,0,0.2,0.1,0.3
	c0.1,0.1,0.2,0.1,0.3,0.1h1.9H6.3c-0.2,0-0.4-0.1-0.4-0.2l0,0l-0.6-0.5V9.7l0.9-0.9l0.2,0.6l0,0c0,0.2,0.2,0.3,0.4,0.3h4.9l0.2,0.1
	l0.1,0.2l-0.1,0.2l-0.2,0.1H9l-0.2,0.1c-0.1,0.1-0.2,0.2-0.2,0.3c0,0.1,0,0.2,0.1,0.3C8.9,11,8.9,11,9,11h3.2l0.2,0.1l0.1,0.2
	l-0.1,0.2l-0.2,0.1H9l-0.2,0.1c-0.1,0.1-0.2,0.2-0.1,0.3c0,0.1,0,0.2,0.1,0.3c0.1,0.1,0.2,0.1,0.3,0.1h2.8l0.2,0.1l0.1,0.2l-0.1,0.2
	L11.9,13h-0.2H9l-0.2,0.1C8.8,13.1,8.7,13.2,8.7,13.3z M10.7,7.4c0.3,0,0.6,0.3,0.6,0.6l0,0l0,0v0.1c0,0.1-0.1,0.2-0.2,0.3
	c-0.1,0.1-0.3,0.1-0.4,0.1c-0.3,0-0.6-0.3-0.6-0.6C10.1,7.7,10.4,7.4,10.7,7.4z M12,8c0-0.8-0.6-1.2-1.2-1.2C10,6.8,9.5,7.3,9.5,8
	c0,0.4,0.2,0.8,0.5,1h-1V4.5C9.4,4.4,9.7,4,9.8,3.6h1.7c0.2,0.5,0.6,0.7,1,0.9v3v0.4v1.6C12.3,9.2,12,9,11.6,9h-0.1
	C11.7,8.8,12,8.4,12,8z M7.3,4.1v5H7L6.8,8.2V8.1l0,0L5.5,3.8l1.8-0.6V4.1z M1.9,9.5L1.9,9.5l0.2-0.2h1h0.5h1l0.1,0.1l0.1,0.1v4
	l-0.1,0.1l-0.1,0.1H2.1L2,13.6l-0.1-0.1V9.5z"/>
</svg>
