<?xml version="1.0" encoding="utf-8"?>
<!-- Generator: Adobe Illustrator 22.1.0, SVG Export Plug-In . SVG Version: 6.00 Build 0)  -->
<svg version="1.1" id="Layer_1" xmlns="http://www.w3.org/2000/svg" xmlns:xlink="http://www.w3.org/1999/xlink" x="0px" y="0px"
	 viewBox="0 0 16 16" style="enable-background:new 0 0 16 16;" xml:space="preserve">
<g>
	<g>
		<path d="M12.6,9.4c0-0.3-0.1-0.5-0.3-0.7L7,3.4C6.8,3.2,6.6,3,6.3,2.9C5.9,2.8,5.6,2.7,5.4,2.7H2.3C2,2.7,1.8,2.8,1.6,3
			S1.3,3.4,1.3,3.7v3.1c0,0.3,0.1,0.6,0.2,0.9C1.7,7.9,1.8,8.2,2,8.4l5.3,5.3C7.5,13.9,7.7,14,8,14s0.5-0.1,0.7-0.3l3.7-3.7
			C12.5,9.9,12.6,9.6,12.6,9.4z M4.4,5.8C4.2,5.9,4,6,3.7,6S3.2,5.9,3,5.8C2.8,5.6,2.8,5.4,2.8,5.1s0.1-0.5,0.3-0.7s0.4-0.3,0.7-0.3
			s0.5,0.1,0.7,0.3c0.2,0.2,0.3,0.4,0.3,0.7C4.7,5.4,4.6,5.6,4.4,5.8z"/>
		<path d="M15.2,8.7L9.9,3.4C9.7,3.2,9.4,3,9.1,2.9C8.8,2.8,8.5,2.7,8.2,2.7H6.6c0.3,0,0.6,0.1,0.9,0.2C7.8,3,8,3.2,8.2,3.4l5.3,5.3
			c0.2,0.2,0.3,0.4,0.3,0.7s-0.1,0.5-0.3,0.7L10,13.6c0.1,0.2,0.3,0.3,0.4,0.3c0.1,0.1,0.3,0.1,0.4,0.1c0.3,0,0.5-0.1,0.7-0.3
			l3.7-3.7c0.2-0.2,0.3-0.4,0.3-0.7C15.5,9.1,15.4,8.9,15.2,8.7z"/>
	</g>
</g>
</svg>
