<?xml version="1.0" encoding="utf-8"?>
<!-- Generated by IcoMoon.io -->
<!DOCTYPE svg PUBLIC "-//W3C//DTD SVG 1.1//EN" "http://www.w3.org/Graphics/SVG/1.1/DTD/svg11.dtd">
<svg version="1.1" xmlns="http://www.w3.org/2000/svg" xmlns:xlink="http://www.w3.org/1999/xlink" width="16" height="16" viewBox="0 0 16 16">
<path d="M13.7 7.6l-11-5.5c-0.2-0.1-0.4-0.1-0.6 0.1-0.1 0.1-0.1 0.4 0 0.5l2.8 5.3-2.9 5.3c0 0.2 0 0.4 0.1 0.6 0.1 0.1 0.3 0.1 0.4 0.1s0.2 0 0.2-0.1l11-5.5c0.2 0 0.3-0.2 0.3-0.4s-0.1-0.4-0.3-0.4zM3.7 12.4l2.1-3.9h2.6c0.3 0 0.5-0.2 0.5-0.5s-0.2-0.5-0.5-0.5h-2.6l-2.1-3.8 8.7 4.3-8.7 4.4z"></path>
</svg>
