<?xml version="1.0" encoding="utf-8"?>
<!-- Generator: Adobe Illustrator 21.0.0, SVG Export Plug-In . SVG Version: 6.00 Build 0)  -->
<svg version="1.1" id="Layer_1" xmlns="http://www.w3.org/2000/svg" xmlns:xlink="http://www.w3.org/1999/xlink" x="0px" y="0px"
	 viewBox="0 0 16 16" style="enable-background:new 0 0 16 16;" xml:space="preserve">
<path d="M4.5,5.5h-2C2.2,5.5,2,5.3,2,5s0.2-0.5,0.5-0.5h2C4.8,4.5,5,4.7,5,5S4.8,5.5,4.5,5.5z M4,7c0-0.3-0.2-0.5-0.5-0.5h-2
	C1.2,6.5,1,6.7,1,7s0.2,0.5,0.5,0.5h2C3.8,7.5,4,7.3,4,7z M4,9c0-0.3-0.2-0.5-0.5-0.5h-2C1.2,8.5,1,8.7,1,9s0.2,0.5,0.5,0.5h2
	C3.8,9.5,4,9.3,4,9z M5,11c0-0.3-0.2-0.5-0.5-0.5h-2C2.2,10.5,2,10.7,2,11s0.2,0.5,0.5,0.5h2C4.8,11.5,5,11.3,5,11z M15,8
	c0-2.8-2.2-5-5-5C9.7,3,9.5,3.2,9.5,3.5v4C9.5,7.8,9.7,8,10,8s0.5-0.2,0.5-0.5V4c2,0.3,3.5,2,3.5,4c0,2.2-1.8,4-4,4s-4-1.8-4-4
	c0-1.1,0.4-2.1,1.2-2.8c0.2-0.2,0.2-0.5,0-0.7s-0.5-0.2-0.7,0C5.5,5.4,5,6.7,5,8c0,2.8,2.2,5,5,5S15,10.8,15,8z"/>
</svg>
