<?xml version="1.0" encoding="utf-8"?>
<!-- Generator: Adobe Illustrator 21.0.0, SVG Export Plug-In . SVG Version: 6.00 Build 0)  -->
<svg version="1.1" id="Layer_1" xmlns="http://www.w3.org/2000/svg" xmlns:xlink="http://www.w3.org/1999/xlink" x="0px" y="0px"
	 viewBox="0 0 16 16" style="enable-background:new 0 0 16 16;" xml:space="preserve">
<path d="M8,15c-3.86,0-7-3.141-7-7c0-3.86,3.14-7,7-7s7,3.14,7,7C15.001,11.859,11.86,15,8,15z M8,2.5C4.968,2.5,2.5,4.967,2.5,8
	c0,3.032,2.467,5.5,5.5,5.5s5.5-2.468,5.5-5.5C13.501,4.967,11.033,2.5,8,2.5z M9,11.75c0.192,0,0.384-0.073,0.53-0.22
	c0.293-0.293,0.293-0.768,0-1.061L7.061,8l2.47-2.47c0.293-0.293,0.293-0.768,0-1.061s-0.768-0.293-1.061,0l-3,3
	c-0.293,0.293-0.293,0.768,0,1.061l3,3C8.616,11.677,8.808,11.75,9,11.75z"/>
</svg>
