<?xml version="1.0" encoding="utf-8"?>
<!-- Generator: Adobe Illustrator 22.1.0, SVG Export Plug-In . SVG Version: 6.00 Build 0)  -->
<svg version="1.1" id="Layer_1" xmlns="http://www.w3.org/2000/svg" xmlns:xlink="http://www.w3.org/1999/xlink" x="0px" y="0px"
	 viewBox="0 0 16 16" style="enable-background:new 0 0 16 16;" xml:space="preserve">
<g>
	<g>
		<path d="M15.1,3.8H1C0.9,3.8,0.7,4,0.7,4.1v7.7c0,0.2,0.1,0.3,0.3,0.3h14.1c0.2,0,0.3-0.1,0.3-0.3V4.1C15.4,4,15.3,3.8,15.1,3.8z
			 M1.4,4.5H3C2.8,5.3,2.2,5.9,1.4,6.1V4.5z M1.4,11.5V9.9C2.2,10,2.9,10.7,3,11.5H1.4z M14.8,11.5h-1.6c0.1-0.8,0.8-1.5,1.6-1.6
			V11.5z M14.8,9.3c-1.2,0.1-2.1,1.1-2.2,2.2h-9c-0.1-1.2-1.1-2.1-2.2-2.2V6.7c1.2-0.1,2.1-1.1,2.2-2.2h9c0.1,1.2,1.1,2.1,2.2,2.2
			V9.3L14.8,9.3z M14.8,6.1C14,6,13.3,5.3,13.2,4.5h1.6V6.1z"/>
	</g>
</g>
<g>
	<g>
		<path d="M12,6.6c-0.3,0-0.6-0.3-0.6-0.6c0-0.2-0.1-0.3-0.3-0.3h-6C4.9,5.7,4.8,5.8,4.8,6c0,0.4-0.3,0.6-0.6,0.6
			C4,6.6,3.9,6.8,3.9,6.9v2.2c0,0.2,0.1,0.3,0.3,0.3c0.3,0,0.6,0.3,0.6,0.6c0,0.2,0.1,0.3,0.3,0.3h6c0.2,0,0.3-0.1,0.3-0.3
			c0-0.4,0.3-0.6,0.6-0.6c0.2,0,0.3-0.1,0.3-0.3V6.9C12.2,6.8,12.1,6.6,12,6.6z M11.7,8.8c-0.4,0.1-0.7,0.5-0.8,0.9H5.3
			C5.2,9.3,4.9,8.9,4.5,8.8V7.2c0.4-0.1,0.7-0.5,0.8-0.9h5.5c0.1,0.4,0.4,0.8,0.8,0.9L11.7,8.8L11.7,8.8z"/>
	</g>
</g>
</svg>
