<?xml version="1.0" encoding="utf-8"?>
<!-- Generator: Adobe Illustrator 21.0.0, SVG Export Plug-In . SVG Version: 6.00 Build 0)  -->
<svg version="1.1" id="Layer_1" xmlns="http://www.w3.org/2000/svg" xmlns:xlink="http://www.w3.org/1999/xlink" x="0px" y="0px"
	 viewBox="0 0 16 16" style="enable-background:new 0 0 16 16;" xml:space="preserve">
<path d="M12.8,11.7l-2.6-2.6C10.7,8.4,11,7.5,11,6.5C11,4,9,2,6.5,2S2,4,2,6.5S4,11,6.5,11c1,0,1.9-0.3,2.6-0.8l2.6,2.6
	c0.1,0.1,0.3,0.2,0.5,0.2c0.4,0,0.8-0.3,0.8-0.8C13,12,12.9,11.8,12.8,11.7z M6.5,9.5c-1.7,0-3-1.3-3-3s1.3-3,3-3s3,1.3,3,3
	S8.2,9.5,6.5,9.5z"/>
</svg>
