<?xml version="1.0" encoding="utf-8"?>
<!-- Generator: Adobe Illustrator 22.1.0, SVG Export Plug-In . SVG Version: 6.00 Build 0)  -->
<svg version="1.1" id="Layer_1" xmlns="http://www.w3.org/2000/svg" xmlns:xlink="http://www.w3.org/1999/xlink" x="0px" y="0px"
	 viewBox="0 0 16 16" style="enable-background:new 0 0 16 16;" xml:space="preserve">
<g>
	<path d="M9.2,7.4c-0.1,0-0.3,0-0.4-0.1c-0.3-0.2-0.3-0.5,0-0.7l3.4-3.4c0.2-0.2,0.4-0.2,0.7,0c0.2,0.2,0.2,0.4,0,0.7L9.5,7.3
		C9.4,7.4,9.2,7.4,9.2,7.4z"/>
	<path d="M12.5,6.8c-0.3,0-0.4-0.2-0.4-0.4V3.9H9.6c-0.3,0-0.4-0.2-0.4-0.4S9.3,3,9.6,3h2.9C12.8,3,13,3.2,13,3.5v2.9
		C13,6.7,12.9,6.8,12.5,6.8z"/>
	<path d="M3.5,13c-0.1,0-0.3,0-0.4-0.1c-0.2-0.2-0.2-0.4,0-0.7l3.4-3.4c0.2-0.2,0.4-0.2,0.7,0c0.2,0.2,0.2,0.4,0,0.7l-3.4,3.4
		C3.8,13,3.6,13,3.5,13z"/>
	<path d="M6.4,13H3.5C3.2,13,3,12.8,3,12.5V9.6c0-0.3,0.2-0.4,0.4-0.4s0.4,0.2,0.4,0.4V12h2.4c0.3,0,0.4,0.2,0.4,0.4
		C6.8,12.7,6.7,13,6.4,13z"/>
</g>
</svg>
