<?xml version="1.0" encoding="utf-8"?>
<!-- Generator: Adobe Illustrator 21.0.0, SVG Export Plug-In . SVG Version: 6.00 Build 0)  -->
<svg version="1.1" id="Layer_1" xmlns="http://www.w3.org/2000/svg" xmlns:xlink="http://www.w3.org/1999/xlink" x="0px" y="0px"
	 viewBox="0 0 16 16" style="enable-background:new 0 0 16 16;" xml:space="preserve">
<path d="M3,7.4h5.3c0.3,0,0.5,0.2,0.5,0.5l0,0c0,0.3-0.2,0.5-0.5,0.5H3c-0.3,0-0.5-0.2-0.5-0.5l0,0C2.5,7.6,2.8,7.4,3,7.4z M3,5h5.3
	c0.3,0,0.5,0.2,0.5,0.5l0,0C8.8,5.8,8.6,6,8.3,6H3C2.7,6,2.5,5.8,2.5,5.5l0,0C2.5,5.2,2.8,5,3,5z M3,9.8h3.2c0.3,0,0.5,0.2,0.5,0.5
	l0,0c0,0.3-0.2,0.5-0.5,0.5H3c-0.3,0-0.5-0.2-0.5-0.5l0,0C2.5,10,2.8,9.8,3,9.8z M13.3,8.9L13.3,8.9c0.2,0.2,0.2,0.6,0,0.8l0,0l-3,3
	c-0.2,0.2-0.5,0.2-0.7,0L8,11c-0.2-0.2-0.2-0.6,0-0.8l0,0l0,0c0.2-0.2,0.6-0.2,0.8,0l0,0l1.2,1.2l2.5-2.6
	C12.8,8.6,13.1,8.6,13.3,8.9C13.3,8.8,13.3,8.8,13.3,8.9z"/>
</svg>
