<?xml version="1.0" encoding="utf-8"?>
<!-- Generator: Adobe Illustrator 22.1.0, SVG Export Plug-In . SVG Version: 6.00 Build 0)  -->
<svg version="1.1" id="Layer_1" xmlns="http://www.w3.org/2000/svg" xmlns:xlink="http://www.w3.org/1999/xlink" x="0px" y="0px"
	 viewBox="0 0 16 16" style="enable-background:new 0 0 16 16;" xml:space="preserve">
<g>
	<path d="M8,2C4.7,2,2,4.7,2,8s2.7,6,6,6s6-2.7,6-6S11.3,2,8,2z M8,12.8c-2.7,0-4.8-2.1-4.8-4.8c0-2.7,2.1-4.8,4.8-4.8
		c2.7,0,4.8,2.1,4.8,4.8C12.8,10.7,10.7,12.8,8,12.8z"/>
	<path d="M10.2,5.8L6.9,9.2L5.8,8C5.5,7.7,5.1,7.7,4.9,8c-0.2,0.2-0.2,0.6,0,0.8h0l1.6,1.6c0.1,0.1,0.3,0.2,0.4,0.2
		c0.2,0,0.3-0.1,0.4-0.2l3.7-3.8c0.2-0.2,0.2-0.6,0-0.8S10.5,5.5,10.2,5.8z"/>
</g>
</svg>
