<?xml version="1.0" encoding="utf-8"?>
<!-- Generator: Adobe Illustrator 23.0.1, SVG Export Plug-In . SVG Version: 6.00 Build 0)  -->
<svg version="1.1" id="Layer_1" xmlns="http://www.w3.org/2000/svg" xmlns:xlink="http://www.w3.org/1999/xlink" x="0px" y="0px"
	 viewBox="0 0 16 16" style="enable-background:new 0 0 16 16;" xml:space="preserve">
<path d="M14.36,10.95l-1.93-4.49C12.28,6.14,11.91,6,11.59,6.15c-0.31,0.14-0.45,0.51-0.32,0.82l1.55,3.6H3.18l1.55-3.6
	c0.13-0.32-0.02-0.69-0.34-0.83C4.08,6.01,3.71,6.15,3.57,6.46l-1.93,4.49c-0.04,0.07-0.06,0.14-0.06,0.22v2.61
	c-0.02,0.33,0.23,0.62,0.57,0.64h11.63c0.33,0.02,0.62-0.23,0.64-0.57v-2.64C14.43,11.12,14.41,11.03,14.36,10.95z M13.14,13.14
	H2.86v-1.29h10.28V13.14z"/>
<path d="M10.38,7.04L8.45,9.09C8.44,9.1,8.43,9.11,8.43,9.11C8.18,9.35,7.79,9.34,7.55,9.09L5.62,7.04c0-0.01,0-0.01,0-0.01
	c-0.25-0.25-0.25-0.66,0-0.9c0.25-0.25,0.66-0.24,0.9,0.01l0.84,0.9V2.15C7.38,1.81,7.67,1.56,8,1.58h0.07
	C8.41,1.6,8.66,1.89,8.64,2.22v4.82l0.84-0.9c0-0.01,0-0.01,0.01-0.01c0.25-0.25,0.65-0.24,0.89,0.01
	C10.63,6.39,10.63,6.79,10.38,7.04z"/>
</svg>
