<?xml version="1.0" encoding="utf-8"?>
<!-- Generator: Adobe Illustrator 23.0.1, SVG Export Plug-In . SVG Version: 6.00 Build 0)  -->
<svg version="1.1" id="Layer_1" xmlns="http://www.w3.org/2000/svg" xmlns:xlink="http://www.w3.org/1999/xlink" x="0px" y="0px"
	 viewBox="0 0 16 16" style="enable-background:new 0 0 16 16;" xml:space="preserve">
<path d="M13.994,4.474c-0.003-0.066-0.02-0.128-0.047-0.187c-0.01-0.022-0.024-0.04-0.037-0.06
	c-0.029-0.044-0.063-0.081-0.106-0.114c-0.013-0.01-0.018-0.026-0.032-0.034c-0.009-0.006-0.021-0.005-0.03-0.01
	c-0.013-0.007-0.022-0.019-0.036-0.026l-5.542-2.5c-0.132-0.061-0.283-0.061-0.414,0l-5.458,2.5
	C2.279,4.049,2.271,4.061,2.258,4.068C2.25,4.073,2.239,4.072,2.23,4.077C2.216,4.086,2.21,4.102,2.197,4.112
	C2.155,4.146,2.12,4.183,2.091,4.227c-0.013,0.02-0.026,0.038-0.037,0.06C2.027,4.344,2.011,4.405,2.007,4.469
	C2.007,4.479,2,4.488,2,4.498v7c0,0.195,0.114,0.373,0.292,0.455l5.458,2.5c0.002,0.001,0.005,0.001,0.007,0.002
	c0.062,0.027,0.129,0.043,0.201,0.043c0.071,0,0.138-0.016,0.2-0.043c0.002-0.001,0.004,0,0.006-0.001l5.542-2.5
	C13.885,11.873,14,11.694,14,11.498V4.51c0,0,0,0,0-0.001V4.498C14,4.489,13.994,4.482,13.994,4.474z M7.96,2.547L9.517,3.25
	L5.23,5.199L3.7,4.498L7.96,2.547z M7.458,13.219L3,11.177v-5.9l1.729,0.792V8.5c0,0.276,0.224,0.557,0.5,0.627s0.5-0.096,0.5-0.373
	V6.527l1.729,0.792V13.219z M7.96,6.449L6.434,5.75l4.296-1.953l1.554,0.701L7.96,6.449z M13,11.175l-4.542,2.049V7.321L13,5.272
	V11.175z"/>
</svg>
