<?xml version="1.0" encoding="utf-8"?>
<!-- Generator: Adobe Illustrator 22.1.0, SVG Export Plug-In . SVG Version: 6.00 Build 0)  -->
<svg version="1.1" id="Layer_1" xmlns="http://www.w3.org/2000/svg" xmlns:xlink="http://www.w3.org/1999/xlink" x="0px" y="0px"
	 viewBox="0 0 16 16" style="enable-background:new 0 0 16 16;" xml:space="preserve">
<path d="M12.4,3.2H3.6C2.7,3.2,2,3.9,2,4.8v7c0,0.9,0.7,1.6,1.6,1.6h8.8c0.9,0,1.6-0.7,1.6-1.6v-7C14,3.9,13.3,3.2,12.4,3.2z
	 M12.8,11.8c0,0.2-0.2,0.4-0.4,0.4H3.6c-0.2,0-0.4-0.2-0.4-0.4V6.4h9.7L12.8,11.8L12.8,11.8z M12.8,5.2H3.2V4.8
	c0-0.2,0.2-0.4,0.4-0.4h8.8c0.2,0,0.4,0.2,0.4,0.4V5.2z M12,10.4c0,0.3-0.3,0.6-0.6,0.6H8.2c-0.3,0-0.6-0.3-0.6-0.6
	c0-0.3,0.3-0.6,0.6-0.6h3.2C11.8,9.8,12,10.1,12,10.4z M7,9.5C7,9.7,7,9.8,6.8,9.9l-1.5,1.5c-0.1,0.1-0.3,0.2-0.4,0.2
	c-0.2,0-0.3-0.1-0.4-0.2c-0.2-0.2-0.2-0.6,0-0.8l1.1-1.1L4.4,8.3c-0.2-0.2-0.2-0.6,0-0.8c0.2-0.2,0.6-0.2,0.8,0l1.6,1.6
	C7,9.2,7,9.4,7,9.5z"/>
</svg>
