<?xml version="1.0" encoding="utf-8"?>
<!-- Generator: Adobe Illustrator 22.1.0, SVG Export Plug-In . SVG Version: 6.00 Build 0)  -->
<svg version="1.1" id="Layer_1" xmlns="http://www.w3.org/2000/svg" xmlns:xlink="http://www.w3.org/1999/xlink" x="0px" y="0px"
	 viewBox="0 0 16 16" style="enable-background:new 0 0 16 16;" xml:space="preserve">
<style type="text/css">
	.st0{fill:none;stroke:#000000;stroke-linecap:round;stroke-linejoin:round;stroke-miterlimit:10;}
	.st1{fill:none;stroke:#000000;stroke-linecap:square;stroke-linejoin:round;stroke-miterlimit:10;}
</style>
<image style="overflow:visible;" width="96" height="96" xlink:href="../../../Downloads/icons8-traffic-jam-96.png"  transform="matrix(0.07204 0 0 0.07204 -10.86285 4.54202)">
</image>
<g>
	<polygon class="st0" points="12.0107,6.52967 7.35269,6.52967 6.05709,9.45261 6.05709,12.37574 13.31467,12.37574 
		13.31467,9.45261 	"/>
	<path d="M8.67,11.05732H7.93501c-0.06131,0-0.11102-0.0497-0.11102-0.11102v-0.73499c0-0.06131,0.0497-0.11102,0.11102-0.11102
		H8.67c0.06131,0,0.11102,0.0497,0.11102,0.11102v0.73499C8.78101,11.00761,8.73131,11.05732,8.67,11.05732z"/>
	<path d="M11.36011,11.05732h-0.73498c-0.06131,0-0.11102-0.0497-0.11102-0.11102v-0.73499
		c0-0.06131,0.0497-0.11102,0.11102-0.11102h0.73498c0.06131,0,0.11102,0.0497,0.11102,0.11102v0.73499
		C11.47113,11.00761,11.42142,11.05732,11.36011,11.05732z"/>
	<path d="M6.3483,13.74777H5.74913c-0.10568,0-0.19134-0.08567-0.19134-0.19134v-1.16089c0-0.10567,0.08567-0.19134,0.19134-0.19134
		H6.3483c0.10567,0,0.19134,0.08567,0.19134,0.19134v1.16089C6.53965,13.6621,6.45398,13.74777,6.3483,13.74777z"/>
	<path d="M13.61425,13.74777h-0.59917c-0.10567,0-0.19134-0.08567-0.19134-0.19134v-1.16089
		c0-0.10567,0.08567-0.19134,0.19134-0.19134h0.59917c0.10567,0,0.19134,0.08567,0.19134,0.19134v1.16089
		C13.80559,13.6621,13.71993,13.74777,13.61425,13.74777z"/>
	<line class="st0" x1="6.80149" y1="8.62887" x2="12.57027" y2="8.62887"/>
</g>
<g>
	<polyline class="st1" points="8.5066,5.29321 8.21113,4.6392 3.55317,4.66123 2.27141,7.59026 2.28523,10.51335 5.21318,10.49951 	
		"/>
	<path d="M4.89187,9.18259L4.15689,9.18607C4.09558,9.18636,4.04564,9.13689,4.04535,9.07557L4.04188,8.3406
		C4.04159,8.27929,4.09106,8.22935,4.15237,8.22906l0.73498-0.00348C4.94866,8.22529,4.9986,8.27476,4.99889,8.33607
		l0.00348,0.73498C5.00265,9.13236,4.95318,9.1823,4.89187,9.18259z"/>
	<path d="M7.58195,9.16987L6.84698,9.17335C6.78567,9.17364,6.73573,9.12417,6.73544,9.06286L6.73196,8.32788
		C6.73167,8.26657,6.78114,8.21663,6.84245,8.21634l0.73498-0.00348c0.06131-0.00029,0.11125,0.04918,0.11154,0.11049
		l0.00348,0.73498C7.69274,9.11964,7.64327,9.16958,7.58195,9.16987z"/>
	<path d="M2.58292,11.88399l-0.59916,0.00283c-0.10567,0.0005-0.19174-0.08476-0.19224-0.19043l-0.00549-1.16088
		c-0.0005-0.10567,0.08476-0.19174,0.19044-0.19224l0.59916-0.00283c0.10567-0.0005,0.19174,0.08476,0.19224,0.19044
		l0.00549,1.16088C2.77386,11.79742,2.6886,11.88349,2.58292,11.88399z"/>
	<line class="st1" x1="3.0119" y1="6.76301" x2="5.23886" y2="6.75056"/>
</g>
</svg>
