<?xml version="1.0" encoding="utf-8"?>
<!-- Generator: Adobe Illustrator 21.0.0, SVG Export Plug-In . SVG Version: 6.00 Build 0)  -->
<svg version="1.1" id="Layer_1" xmlns="http://www.w3.org/2000/svg" xmlns:xlink="http://www.w3.org/1999/xlink" x="0px" y="0px"
	 viewBox="0 0 16 16" style="enable-background:new 0 0 16 16;" xml:space="preserve">
<path d="M8.303,13.5H4.856l0.198-0.646c0.205-0.669,0.466-1.403,0.776-2.182c0.309-0.778,0.628-1.54,0.959-2.288
	c0.332-0.749,0.659-1.441,0.98-2.078c0.145-0.287,0.279-0.544,0.404-0.774H4.127V2.5h7.746v2.558l-0.069,0.117
	c-0.308,0.521-0.63,1.124-0.959,1.792c-0.314,0.64-0.622,1.316-0.938,2.069c-0.299,0.712-0.58,1.424-0.841,2.136
	c-0.26,0.709-0.48,1.372-0.657,1.971L8.303,13.5z M6.219,12.5h1.338c0.162-0.521,0.353-1.082,0.568-1.673
	c0.266-0.726,0.554-1.453,0.858-2.18c0.324-0.771,0.64-1.465,0.964-2.123c0.315-0.641,0.626-1.226,0.925-1.74V3.5H5.127v1.032h4.817
	l-0.48,0.766c-0.22,0.35-0.482,0.827-0.802,1.459C8.348,7.38,8.028,8.057,7.703,8.79c-0.325,0.735-0.64,1.485-0.944,2.251
	C6.556,11.55,6.375,12.038,6.219,12.5z"/>
</svg>
