<?xml version="1.0" encoding="utf-8"?>
<!-- Generator: Adobe Illustrator 21.0.0, SVG Export Plug-In . SVG Version: 6.00 Build 0)  -->
<svg version="1.1" id="Layer_1" xmlns="http://www.w3.org/2000/svg" xmlns:xlink="http://www.w3.org/1999/xlink" x="0px" y="0px"
	 viewBox="0 0 16 16" style="enable-background:new 0 0 16 16;" xml:space="preserve">
<path d="M1.547,9.22c0.021,0,0.042-0.002,0.062-0.004c0.274-0.035,0.468-0.285,0.434-0.559C2.017,8.438,2.002,8.217,2,8
	c0-3.309,2.691-6,6-6c1.818,0.002,3.632,0.974,4.807,2.525l-1.168-0.023c-0.267,0.009-0.504,0.214-0.51,0.49
	c-0.005,0.276,0.214,0.504,0.49,0.51l2.393,0.047c0.003,0,0.007,0,0.01,0c0.131,0,0.257-0.051,0.351-0.143
	c0.096-0.094,0.149-0.223,0.149-0.357L14.52,2.665c0-0.276-0.224-0.5-0.5-0.5s-0.5,0.224-0.5,0.5l0.001,1.153
	C12.157,2.085,10.085,1.003,8,1C4.14,1,1,4.14,1,8.004c0.002,0.26,0.02,0.52,0.052,0.777C1.083,9.034,1.299,9.22,1.547,9.22z
	 M14.829,6.512c-0.06-0.269-0.32-0.437-0.596-0.38c-0.27,0.06-0.44,0.326-0.381,0.596C13.945,7.147,13.997,7.6,14,8
	c0,3.309-2.691,6-6,6c-2.123-0.003-4.074-1.147-5.144-2.949l1.24,0.024c0.311-0.024,0.504-0.215,0.51-0.49
	c0.005-0.276-0.214-0.504-0.49-0.51l-2.392-0.047c-0.133,0.003-0.264,0.05-0.36,0.144s-0.15,0.223-0.15,0.356l0.001,2.384
	c0,0.276,0.224,0.5,0.5,0.5s0.5-0.224,0.5-0.5l-0.001-1.001C3.501,13.811,5.662,14.997,8,15c3.859,0,7-3.141,7-7.003
	C14.997,7.519,14.938,7.005,14.829,6.512z"/>
</svg>
