<?xml version="1.0" encoding="utf-8"?>
<!-- Generator: Adobe Illustrator 22.1.0, SVG Export Plug-In . SVG Version: 6.00 Build 0)  -->
<svg version="1.1" id="Layer_1" xmlns="http://www.w3.org/2000/svg" xmlns:xlink="http://www.w3.org/1999/xlink" x="0px" y="0px"
	 viewBox="0 0 16 16" style="enable-background:new 0 0 16 16;" xml:space="preserve">
<g>
	<g id="notifications-none">
		<path d="M7.8,14.7c0.7,0,1.3-0.6,1.3-1.3H6.5C6.5,14.1,7.1,14.7,7.8,14.7z M12.2,10.7V7c0-2.1-1.4-3.8-3.4-4.2V2.3
			c0-0.5-0.5-1-1-1s-1,0.5-1,1v0.5C4.8,3.2,3.4,4.9,3.4,7v3.7L2.1,12v0.7h11.4V12L12.2,10.7z M10.8,11.4h-6V7c0-1.7,1.3-3,3-3
			s3,1.3,3,3V11.4z"/>
	</g>
</g>
</svg>
