<?xml version="1.0" encoding="utf-8"?>
<!-- Generator: Adobe Illustrator 22.1.0, SVG Export Plug-In . SVG Version: 6.00 Build 0)  -->
<svg version="1.1" id="Layer_1" xmlns="http://www.w3.org/2000/svg" xmlns:xlink="http://www.w3.org/1999/xlink" x="0px" y="0px"
	 viewBox="0 0 16 16" style="enable-background:new 0 0 16 16;" xml:space="preserve">
<path d="M8,2c3.3,0,6,2.7,6,6c0,3.3-2.7,6-6,6s-6-2.7-6-6C2,4.7,4.7,2,8,2z M8,12.7c2.6,0,4.7-2.1,4.7-4.7c0-2.6-2.1-4.7-4.7-4.7
	S3.3,5.4,3.3,8C3.3,10.6,5.4,12.7,8,12.7z M7.1,4.8C7,4.8,6.8,4.8,6.7,5c-0.3,0.3-0.3,0.7,0,0.9L8.8,8l-2.1,2.1
	c-0.3,0.3-0.3,0.7,0,0.9c0.3,0.3,0.7,0.3,0.9,0l2.6-2.6c0.3-0.3,0.3-0.7,0-0.9L7.6,5C7.5,4.8,7.3,4.8,7.1,4.8z"/>
</svg>
