<?xml version="1.0" encoding="utf-8"?>
<!-- Generator: Adobe Illustrator 21.0.0, SVG Export Plug-In . SVG Version: 6.00 Build 0)  -->
<svg version="1.1" id="Layer_1" xmlns="http://www.w3.org/2000/svg" xmlns:xlink="http://www.w3.org/1999/xlink" x="0px" y="0px"
	 viewBox="0 0 16 16" style="enable-background:new 0 0 16 16;" xml:space="preserve">
<path d="M8.4,7c1.4,0.4,3.1,1,3.1,3.1c0,1.4-1.2,2.4-2.8,2.7V14H7.3v-1.2c-1.1-0.1-1.9-0.4-2.9-0.9l0.8-1.6c0.9,0.4,1.8,0.8,2.7,0.8
	c0.8,0,1.6-0.4,1.6-1c0-0.9-1-1.1-2.1-1.5C6.1,8.2,4.7,7.7,4.7,5.9c0-1.6,1.1-2.6,2.7-2.7V2h1.4v1.3c0.6,0.1,1.5,0.3,2.4,0.8
	l-0.7,1.6C9.7,5.4,8.5,5,8,5C7.2,5,6.6,5.1,6.6,5.8C6.6,6.5,7.4,6.7,8.4,7z"/>
</svg>
