<?xml version="1.0" encoding="utf-8"?>
<!-- Generator: Adobe Illustrator 22.1.0, SVG Export Plug-In . SVG Version: 6.00 Build 0)  -->
<svg version="1.1" id="Layer_1" xmlns="http://www.w3.org/2000/svg" xmlns:xlink="http://www.w3.org/1999/xlink" x="0px" y="0px"
	 viewBox="0 0 16 16" style="enable-background:new 0 0 16 16;" xml:space="preserve">
<path d="M12.7,5.5l0.6-0.6c0.2-0.2,0.2-0.6,0-0.8s-0.6-0.2-0.8,0l-0.6,0.6C11,3.9,9.9,3.4,8.6,3.3l0,0V2h1.2c0.4,0,0.6-0.2,0.6-0.6
	s-0.2-0.6-0.6-0.6H6.2C5.8,0.8,5.6,1,5.6,1.4S5.8,2,6.2,2h1.2v1.2C4.4,3.6,2,6.1,2,9.2c0,3.2,2.6,6,6,6s6-2.8,6-6
	C14,7.8,13.5,6.4,12.7,5.5z M8,14c-2.6,0-4.8-2.2-4.8-4.8S5.4,4.4,8,4.4s4.8,2.2,4.8,4.8S10.6,14,8,14z M8.6,6.8v2.4
	c0,0.4-0.2,0.6-0.6,0.6c-0.4,0-0.6-0.2-0.6-0.6V6.8c0-0.4,0.2-0.6,0.6-0.6C8.4,6.2,8.6,6.4,8.6,6.8z"/>
</svg>
