<?xml version="1.0" encoding="utf-8"?>
<!-- Generator: Adobe Illustrator 22.1.0, SVG Export Plug-In . SVG Version: 6.00 Build 0)  -->
<svg version="1.1" id="Layer_1" xmlns="http://www.w3.org/2000/svg" xmlns:xlink="http://www.w3.org/1999/xlink" x="0px" y="0px"
	 viewBox="0 0 16 16" style="enable-background:new 0 0 16 16;" xml:space="preserve">
<g>
	<g>
		<path d="M11.7,10.9c-0.8,0-1.5,0.7-1.5,1.5s0.7,1.5,1.5,1.5s1.5-0.7,1.5-1.5C13.2,11.6,12.5,10.9,11.7,10.9z M11.7,13
			c-0.3,0-0.6-0.3-0.6-0.6s0.3-0.6,0.6-0.6s0.6,0.3,0.6,0.6C12.3,12.8,12,13,11.7,13z"/>
	</g>
</g>
<g>
	<g>
		<path d="M14.1,4.9c-0.1-0.1-0.2-0.2-0.4-0.2H4.6L4.2,3c0-0.2-0.2-0.4-0.4-0.4H2.2C2,2.6,1.8,2.8,1.8,3.1S2,3.6,2.2,3.6h1.2
			l1.5,6.3c0.1,0.2,0.2,0.4,0.5,0.4h7.3c0.2,0,0.4-0.1,0.5-0.4l1.1-4.6C14.3,5.2,14.2,5,14.1,4.9z M12.3,9.3H5.7L4.9,5.7h8.3
			L12.3,9.3z"/>
	</g>
</g>
<g>
	<g>
		<path d="M6.2,10.9c-0.8,0-1.5,0.7-1.5,1.5s0.7,1.5,1.5,1.5s1.5-0.7,1.5-1.5S7,10.9,6.2,10.9z M6.2,13c-0.3,0-0.6-0.3-0.6-0.6
			s0.3-0.6,0.6-0.6s0.6,0.3,0.6,0.6S6.5,13,6.2,13z"/>
	</g>
</g>
</svg>
