<?xml version="1.0" encoding="utf-8"?>
<!-- Generator: Adobe Illustrator 21.0.0, SVG Export Plug-In . SVG Version: 6.00 Build 0)  -->
<svg version="1.1" id="Layer_1" xmlns="http://www.w3.org/2000/svg" xmlns:xlink="http://www.w3.org/1999/xlink" x="0px" y="0px"
	 viewBox="0 0 16 16" style="enable-background:new 0 0 16 16;" xml:space="preserve">
<path d="M9.204,15c-0.023,0-0.046-0.001-0.07-0.003c-0.334-0.032-0.607-0.277-0.673-0.605L7.312,8.68L1.61,7.547
	C1.282,7.482,1.035,7.209,1.004,6.876c-0.032-0.333,0.159-0.647,0.47-0.773l12.484-5.048c0.281-0.112,0.605-0.048,0.82,0.166
	c0.215,0.215,0.281,0.537,0.167,0.819L9.907,14.526C9.791,14.815,9.511,15,9.204,15z M4.393,6.556l3.71,0.737
	c0.3,0.059,0.535,0.293,0.595,0.593l0.749,3.726l3.423-8.484L4.393,6.556z"/>
</svg>
