<?xml version="1.0" encoding="utf-8"?>
<!-- Generator: Adobe Illustrator 22.1.0, SVG Export Plug-In . SVG Version: 6.00 Build 0)  -->
<svg version="1.1" id="Layer_1" xmlns="http://www.w3.org/2000/svg" xmlns:xlink="http://www.w3.org/1999/xlink" x="0px" y="0px"
	 viewBox="0 0 16 16" style="enable-background:new 0 0 16 16;" xml:space="preserve">
<path d="M7.9,5.7L6.1,3.9c0,0-0.1-0.1-0.2-0.1c-0.1-0.1-0.3-0.1-0.4,0c-0.1,0-0.1,0.1-0.2,0.1L3.4,5.7c-0.2,0.2-0.2,0.5,0,0.7
	s0.5,0.2,0.7,0L5,5.5V10c0,0.3,0.2,0.5,0.5,0.5S6,10.3,6,10V5.5l1,0.9c0.2,0.2,0.5,0.2,0.7,0C8,6.2,8,5.9,7.9,5.7z M8.1,10.3
	l1.8,1.8c0,0,0.1,0.1,0.2,0.1c0.1,0.1,0.3,0.1,0.4,0c0.1,0,0.1-0.1,0.2-0.1l1.8-1.8c0.2-0.2,0.2-0.5,0-0.7s-0.5-0.2-0.7,0l-0.9,0.9
	V6c0-0.3-0.2-0.5-0.5-0.5S9.9,5.7,9.9,6v4.5L9,9.6c-0.2-0.2-0.5-0.2-0.7,0C7.9,9.7,7.9,10.1,8.1,10.3z"/>
</svg>
