<?xml version="1.0" encoding="utf-8"?>
<!-- Generator: Adobe Illustrator 22.1.0, SVG Export Plug-In . SVG Version: 6.00 Build 0)  -->
<svg version="1.1" id="Layer_1" xmlns="http://www.w3.org/2000/svg" xmlns:xlink="http://www.w3.org/1999/xlink" x="0px" y="0px"
	 viewBox="0 0 16 16" style="enable-background:new 0 0 16 16;" xml:space="preserve">
<g id="dashboard" transform="translate(-14 -973.612)">
	<path d="M25.1,981.2l-2.5,3.7c-0.3,0.4-0.9,0.4-1.2,0c-0.4-0.3-0.4-0.9,0-1.2L25.1,981.2z"/>
	<path d="M26.9,986.1l-1-0.9c1.2-1.7,1.2-3.9,0-5.6c-1.6-2.2-4.6-2.8-6.8-1.2c-2.2,1.6-2.8,4.6-1.2,6.8l-1,0.9
		c-0.8-1-1.2-2.4-1.2-3.7c0-3.5,2.8-6.3,6.3-6.3c1.3,0,2.7,0.5,3.6,1.2C28.4,979.4,29,983.3,26.9,986.1z"/>
</g>
</svg>
