<?xml version="1.0" encoding="utf-8"?>
<!-- Generator: Adobe Illustrator 22.1.0, SVG Export Plug-In . SVG Version: 6.00 Build 0)  -->
<svg version="1.1" id="Layer_1" xmlns="http://www.w3.org/2000/svg" xmlns:xlink="http://www.w3.org/1999/xlink" x="0px" y="0px"
	 viewBox="0 0 16 16" style="enable-background:new 0 0 16 16;" xml:space="preserve">
<path d="M12.9,13.6h-10c-0.3,0-0.5-0.3-0.5-0.5V6.7c0-0.2,0.1-0.3,0.2-0.4l5-3.6c0.2-0.1,0.4-0.1,0.6,0l5,3.6
	c0.2,0.1,0.2,0.3,0.2,0.4v6.4C13.4,13.3,13.1,13.6,12.9,13.6z M4.1,12.3h7.5c0.3,0,0.5-0.3,0.5-0.5V7.3c0-0.2-0.1-0.3-0.2-0.4
	L8.1,4.4c-0.2-0.1-0.4-0.1-0.6,0L3.8,7C3.7,7.1,3.6,7.2,3.6,7.3v4.4C3.6,12,3.8,12.3,4.1,12.3z"/>
</svg>
