<?xml version="1.0" encoding="utf-8"?>
<!-- Generator: Adobe Illustrator 23.0.1, SVG Export Plug-In . SVG Version: 6.00 Build 0)  -->
<svg version="1.1" id="Layer_1" xmlns="http://www.w3.org/2000/svg" xmlns:xlink="http://www.w3.org/1999/xlink" x="0px" y="0px"
	 viewBox="0 0 16 16" style="enable-background:new 0 0 16 16;" xml:space="preserve">
<style type="text/css">
	.st0{fill:#010101;}
</style>
<path class="st0" d="M13.646,5.171C12.908,4.461,11.023,3,8,3S3.092,4.461,2.354,5.171C2.123,5.394,2,5.704,2,6.026V13h2.997h6H14
	V6.026C14,5.704,13.877,5.394,13.646,5.171z M5.997,11.997V9.525c0-0.277,0.225-0.502,0.5-0.502h2.999c0.276,0,0.5,0.225,0.5,0.502
	v2.471H5.997z M13,11.997h-2.003V9.525c0-0.831-0.672-1.505-1.5-1.505H6.497c-0.829,0-1.5,0.674-1.5,1.505v2.471H3V6.026
	c0-0.055,0.017-0.103,0.047-0.131C3.638,5.326,5.304,4.003,8,4.003s4.362,1.323,4.953,1.892C12.983,5.924,13,5.971,13,6.026V11.997z
	"/>
</svg>
