<?xml version="1.0" encoding="utf-8"?>
<!-- Generator: Adobe Illustrator 23.0.1, SVG Export Plug-In . SVG Version: 6.00 Build 0)  -->
<svg version="1.1" id="Layer_1" xmlns="http://www.w3.org/2000/svg" xmlns:xlink="http://www.w3.org/1999/xlink" x="0px" y="0px"
	 viewBox="0 0 16 16" style="enable-background:new 0 0 16 16;" xml:space="preserve">
<path d="M13.83,2.168C13.722,2.059,13.578,2,13.425,2c-0.001,0-0.001,0-0.001,0H5.042C4.724,2,4.466,2.259,4.466,2.576v4.71h-1.89
	C2.259,7.287,2.001,7.545,2,7.862v4.328C2.001,13.188,2.812,13.999,3.809,14h8.381c0.997-0.001,1.809-0.812,1.809-1.809V2.576
	C14,2.421,13.939,2.277,13.83,2.168z M3.149,12.19V8.438h1.314v3.752c0,0.363-0.295,0.657-0.657,0.657
	C3.444,12.848,3.149,12.553,3.149,12.19z M12.847,12.19c0,0.362-0.295,0.657-0.657,0.657H5.492c0.081-0.208,0.124-0.43,0.123-0.657
	V3.152h7.231L12.847,12.19z M6.131,4.886c-0.032-0.132-0.018-0.269,0.04-0.393C6.239,4.348,6.359,4.238,6.51,4.184
	C6.816,4.071,7.16,4.23,7.274,4.536c0.115,0.309-0.042,0.655-0.351,0.771c-0.069,0.026-0.14,0.038-0.209,0.038
	c-0.236,0-0.459-0.14-0.554-0.369L6.131,4.886z M12.347,6.356c0,0.306-0.249,0.555-0.555,0.555h-4.97
	c-0.306,0-0.555-0.249-0.555-0.555c0-0.306,0.249-0.555,0.555-0.555h4.97C12.098,5.801,12.347,6.05,12.347,6.356z M12.347,7.965
	c0,0.306-0.249,0.555-0.555,0.555h-4.97c-0.306,0-0.555-0.249-0.555-0.555c0-0.306,0.249-0.555,0.555-0.555h4.97
	C12.098,7.411,12.347,7.659,12.347,7.965z M12.347,9.575c0,0.306-0.249,0.555-0.555,0.555h-4.97c-0.306,0-0.555-0.249-0.555-0.555
	c0-0.306,0.249-0.555,0.555-0.555h4.97C12.098,9.02,12.347,9.269,12.347,9.575z M8.102,4.746c0-0.306,0.249-0.555,0.555-0.555h3.125
	c0.306,0,0.555,0.249,0.555,0.555s-0.249,0.555-0.555,0.555H8.657C8.351,5.301,8.102,5.052,8.102,4.746z"/>
</svg>
