<?xml version="1.0" encoding="utf-8"?>
<!-- Generator: Adobe Illustrator 21.0.0, SVG Export Plug-In . SVG Version: 6.00 Build 0)  -->
<svg version="1.1" id="Layer_1" xmlns="http://www.w3.org/2000/svg" xmlns:xlink="http://www.w3.org/1999/xlink" x="0px" y="0px"
	 viewBox="0 0 16 16" style="enable-background:new 0 0 16 16;" xml:space="preserve">
<path d="M13.515,10.223c0.034-0.247-0.057-0.497-0.246-0.664l-0.365-0.315c-0.533-0.455-1.036-0.885-1.314-1.422
	c-0.346-0.665-0.393-1.577-0.393-2.381V5.2C11.196,3.436,9.761,2,7.997,2C6.235,2,4.801,3.436,4.801,5.2v0.24
	c0,0.808-0.046,1.722-0.389,2.381C4.133,8.359,3.629,8.789,3.096,9.244L2.732,9.559c-0.188,0.166-0.276,0.413-0.244,0.657
	c0.088,1.541,2.337,2.412,4.762,2.561v0.472C7.25,13.664,7.586,14,8,14s0.75-0.336,0.75-0.75v-0.472
	C11.172,12.629,13.42,11.76,13.515,10.223z M8.001,11.303c-2.151,0-3.466-0.585-3.877-0.965c0.577-0.493,1.217-1.053,1.619-1.826
	C6.234,7.567,6.301,6.428,6.301,5.44V5.2c0-0.938,0.761-1.701,1.696-1.701c0.937,0,1.699,0.763,1.699,1.701v0.24
	c0,0.985,0.066,2.122,0.561,3.072c0.401,0.773,1.043,1.334,1.62,1.827C11.465,10.719,10.15,11.303,8.001,11.303z"/>
</svg>
