<?xml version="1.0" encoding="utf-8"?>
<!-- Generator: Adobe Illustrator 22.1.0, SVG Export Plug-In . SVG Version: 6.00 Build 0)  -->
<svg version="1.1" id="Layer_1" xmlns="http://www.w3.org/2000/svg" xmlns:xlink="http://www.w3.org/1999/xlink" x="0px" y="0px"
	 viewBox="0 0 16 16" style="enable-background:new 0 0 16 16;" xml:space="preserve">
<style type="text/css">
	.st0{fill:none;stroke:#000000;stroke-linecap:round;stroke-linejoin:round;stroke-miterlimit:10;}
	.st1{fill:#1D1D1B;stroke:#1D1D1B;stroke-width:0.25;stroke-miterlimit:10;}
</style>
<polyline class="st0" points="8,5.9 8,8.8 10.5,8.8 "/>
<g>
	<g>
		<path class="st1" d="M12.1,4.1c-2.4-1.9-6-1.6-7.9,0.8c0,0-0.6,0.6-0.9,1.5L3,5.6C2.9,5.4,2.7,5.3,2.5,5.3
			C2.3,5.4,2.2,5.6,2.3,5.8L3,7.7l0,0c0,0,0,0,0,0.1l0,0l0,0l0,0l0,0l0,0l0,0c0,0,0,0,0.1,0l0,0c0,0,0,0,0.1,0l0,0c0,0,0,0,0.1,0
			l0,0l0,0l0,0l0,0L5.2,7c0.2-0.1,0.3-0.3,0.2-0.5C5.2,6.3,5,6.3,4.8,6.4L3.9,6.8C4.3,6,4.8,5.4,4.8,5.4C6.5,3.3,9.5,3,11.6,4.7
			s2.4,4.7,0.7,6.7c-1.7,2.1-4.7,2.4-6.7,0.7C5.4,12,5.1,12,5,12.2s-0.1,0.4,0.1,0.5c2.4,1.9,5.9,1.6,7.8-0.8S14.4,6,12.1,4.1z"/>
	</g>
</g>
</svg>
