<?xml version="1.0" encoding="utf-8"?>
<!-- Generator: Adobe Illustrator 22.1.0, SVG Export Plug-In . SVG Version: 6.00 Build 0)  -->
<svg version="1.1" id="Layer_1" xmlns="http://www.w3.org/2000/svg" xmlns:xlink="http://www.w3.org/1999/xlink" x="0px" y="0px"
	 viewBox="0 0 16 16" style="enable-background:new 0 0 16 16;" xml:space="preserve">
<g>
	<path d="M7,8c0-0.2-0.2-0.4-0.4-0.4C6.3,7.6,6.1,7.8,6.1,8v3.3c0,0.6,0.2,1.1,0.6,1.5s0.9,0.6,1.5,0.6c1.2,0,2.1-0.9,2.1-2.1V3.8
		c0-0.8-0.3-1.5-0.9-2.1s-1.2-0.8-2-0.8c-1.6,0-2.9,1.3-2.9,2.9v7.5c0,1,0.4,2,1.1,2.7s1.7,1.1,2.7,1.1s2-0.4,2.7-1.1
		s1.1-1.7,1.1-2.7V8c0-0.2-0.2-0.4-0.4-0.4S11.3,7.8,11.3,8v3.3c0,0.8-0.3,1.5-0.8,2s-1.3,0.8-2,0.8s-1.5-0.3-2-0.8s-0.8-1.3-0.8-2
		V3.8c0-0.6,0.2-1.1,0.6-1.4c0-0.4,0.6-0.6,1.1-0.6C8,1.8,8.5,2,8.8,2.4s0.6,0.9,0.6,1.4v7.5c0,0.7-0.5,1.2-1.2,1.2
		c-0.3,0-0.6-0.1-0.9-0.4C7.1,12,7,11.7,7,11.3V8L7,8z"/>
</g>
</svg>
