<?xml version="1.0" encoding="utf-8"?>
<!-- Generator: Adobe Illustrator 22.1.0, SVG Export Plug-In . SVG Version: 6.00 Build 0)  -->
<svg version="1.1" id="Layer_1" xmlns="http://www.w3.org/2000/svg" xmlns:xlink="http://www.w3.org/1999/xlink" x="0px" y="0px"
	 viewBox="0 0 16 16" style="enable-background:new 0 0 16 16;" xml:space="preserve">
<path d="M14,3.4c0-0.1,0-0.2-0.1-0.3c-0.1-0.1-0.2-0.2-0.4-0.2H2.4L2.2,3C2.1,3,2,3,2,3.2h0l0,0.1c0,0.1,0.1,0.3,0.2,0.3l0,0
	l4.2,5.2v4.7l0.1,0.2c0,0.1,0.1,0.1,0.2,0.2l0,0l0.2,0.1c0.1,0,0.1,0,0.2,0l0.1,0l2.3-1.2l0,0c0.1-0.1,0.2-0.2,0.2-0.4V8.8l4.2-5.2
	l0,0C14,3.5,14,3.5,14,3.4z M8.8,8.3L8.7,8.4l0,0.1V12l-1.4,0.7V8.5l0-0.2c0,0-0.1-0.1-0.1-0.1L3.4,3.8h9L8.8,8.3L8.8,8.3z"/>
</svg>
