<?xml version="1.0" encoding="utf-8"?>
<!-- Generator: Adobe Illustrator 21.0.0, SVG Export Plug-In . SVG Version: 6.00 Build 0)  -->
<svg version="1.1" id="Layer_1" xmlns="http://www.w3.org/2000/svg" xmlns:xlink="http://www.w3.org/1999/xlink" x="0px" y="0px"
	 viewBox="0 0 16 16" style="enable-background:new 0 0 16 16;" xml:space="preserve">
<path d="M5,6H1V1h4V6z M2,5h2V2H2V5z M5,15H1V7h4V15z M2,14h2V8H2V14z M10,1v4H6V1H10z M9,4V2H7v2H9z M10,15H6v-4h4V15z M7,14h2v-2
	H7V14z M10,10H6V6h4V10z M7,9h2V7H7V9z M15,11h-4V7h4V11z M12,10h2V8h-2V10z M15,15h-4v-3h4V15z M12,14h2v-1h-2V14z M15,6h-4V1h4V6z
	 M12,5h2V2h-2V5z"/>
</svg>
