<?xml version="1.0" encoding="utf-8"?>
<!-- Generator: Adobe Illustrator 21.0.0, SVG Export Plug-In . SVG Version: 6.00 Build 0)  -->
<svg version="1.1" id="Layer_1" xmlns="http://www.w3.org/2000/svg" xmlns:xlink="http://www.w3.org/1999/xlink" x="0px" y="0px"
	 viewBox="0 0 16 16" style="enable-background:new 0 0 16 16;" xml:space="preserve">
<path d="M9.061,8l4.066-4.066c0.293-0.293,0.293-0.768,0-1.061s-0.768-0.293-1.061,0L8,6.94L3.934,2.874
	c-0.293-0.293-0.768-0.293-1.061,0s-0.293,0.768,0,1.061L6.94,8l-4.066,4.066c-0.293,0.293-0.293,0.768,0,1.061
	c0.146,0.146,0.338,0.22,0.53,0.22s0.384-0.073,0.53-0.22L8,9.061l4.066,4.066c0.146,0.146,0.338,0.22,0.53,0.22
	s0.384-0.073,0.53-0.22c0.293-0.293,0.293-0.768,0-1.061L9.061,8z"/>
</svg>
