<?xml version="1.0" encoding="utf-8"?>
<!-- Generator: Adobe Illustrator 22.1.0, SVG Export Plug-In . SVG Version: 6.00 Build 0)  -->
<svg version="1.1" id="Layer_1" xmlns="http://www.w3.org/2000/svg" xmlns:xlink="http://www.w3.org/1999/xlink" x="0px" y="0px"
	 viewBox="0 0 16 16" style="enable-background:new 0 0 16 16;" xml:space="preserve">
<path d="M11.76001,3.63H4.23999c-0.76001,0-1.38,0.62-1.38,1.38v5.97998c0,0.76001,0.62,1.38,1.38,1.38h7.52002
	c0.76001,0,1.38-0.62,1.38-1.38V5.01001C13.14001,4.25,12.52002,3.63,11.76001,3.63z M12.14001,10.98999
	c0,0.21002-0.17004,0.38-0.38,0.38H4.23999c-0.20996,0-0.38-0.16998-0.38-0.38V6.37h8.28003V10.98999z M12.14001,5.37H3.85999
	V5.01001c0-0.21002,0.17004-0.38,0.38-0.38h7.52002c0.20996,0,0.38,0.16998,0.38,0.38V5.37z M11.46002,9.78003
	c0,0.27997-0.23004,0.5-0.5,0.5h-2.75c-0.28003,0-0.5-0.22003-0.5-0.5c0-0.27002,0.21997-0.5,0.5-0.5h2.75
	C11.22998,9.28003,11.46002,9.51001,11.46002,9.78003z M7.15997,9.02002c0,0.13995-0.04999,0.26001-0.14996,0.35999l-1.31,1.31
	c-0.10004,0.09998-0.23004,0.15002-0.35999,0.15002c-0.13,0-0.25-0.05005-0.35004-0.15002c-0.20001-0.19-0.20001-0.51001,0-0.70001
	l0.96002-0.96997L4.92999,8c-0.20001-0.20001-0.20001-0.51001,0-0.71002c0.19-0.19,0.51001-0.19,0.70001,0l1.38,1.38
	C7.10999,8.76001,7.15997,8.89001,7.15997,9.02002z"/>
</svg>
