<?xml version="1.0" encoding="utf-8"?>
<!-- Generator: Adobe Illustrator 22.1.0, SVG Export Plug-In . SVG Version: 6.00 Build 0)  -->
<svg version="1.1" id="Layer_1" xmlns="http://www.w3.org/2000/svg" xmlns:xlink="http://www.w3.org/1999/xlink" x="0px" y="0px"
	 viewBox="0 0 16 16" style="enable-background:new 0 0 16 16;" xml:space="preserve">
<path d="M7.9,5.7c0,0-2.3-2.3-2.4-2.3c-0.1-0.1-0.4-0.1-0.5,0C5,3.4,2.6,5.7,2.6,5.7c-0.2,0.2-0.2,0.6,0,0.8c0.2,0.2,0.6,0.2,0.8,0
	l1.1-1.1v5.4c0,0.4,0.2,0.6,0.6,0.6c0.4,0,0.6-0.2,0.6-0.6V5.4l1.2,1.1c0.2,0.2,0.6,0.2,0.8,0C8.1,6.3,8.1,5.9,7.9,5.7z M8.2,11.1
	c0,0,2.3,2.3,2.4,2.3c0.1,0.1,0.4,0.1,0.5,0c0.1,0,2.4-2.3,2.4-2.3c0.2-0.2,0.2-0.6,0-0.8c-0.2-0.2-0.6-0.2-0.8,0l-1.1,1.1V6
	c0-0.4-0.2-0.6-0.6-0.6S10.3,5.7,10.3,6v5.4l-1.1-1.1c-0.2-0.2-0.6-0.2-0.8,0C8.1,10.5,8,11,8.2,11.1z"/>
</svg>
