<?xml version="1.0" encoding="utf-8"?>
<!-- Generator: Adobe Illustrator 21.0.0, SVG Export Plug-In . SVG Version: 6.00 Build 0)  -->
<svg version="1.1" id="Layer_1" xmlns="http://www.w3.org/2000/svg" xmlns:xlink="http://www.w3.org/1999/xlink" x="0px" y="0px"
	 viewBox="0 0 16 16" style="enable-background:new 0 0 16 16;" xml:space="preserve">
<path d="M10.7,6.5h1.8C12.8,6.5,13,6.7,13,7s-0.2,0.5-0.5,0.5h-1.8c-0.3,0-0.5-0.2-0.5-0.5S10.4,6.5,10.7,6.5z M9.2,5H11
	c0.3,0,0.5,0.2,0.5,0.5S11.3,6,11,6H9.2C8.9,6,8.7,5.8,8.7,5.5S8.9,5,9.2,5z M11.5,12h-7C4.224,12,4,11.776,4,11.5v-7
	C4,4.224,4.224,4,4.5,4h1.381c0.133,0,0.26,0.053,0.354,0.146l5.619,5.619C11.947,9.859,12,9.986,12,10.119V11.5
	C12,11.776,11.776,12,11.5,12z M5,11h6v-0.674L5.674,5H5V11z"/>
</svg>
