<?xml version="1.0" encoding="utf-8"?>
<!-- Generator: Adobe Illustrator 22.1.0, SVG Export Plug-In . SVG Version: 6.00 Build 0)  -->
<svg version="1.1" id="Layer_1" xmlns="http://www.w3.org/2000/svg" xmlns:xlink="http://www.w3.org/1999/xlink" x="0px" y="0px"
	 viewBox="0 0 16 16" style="enable-background:new 0 0 16 16;" xml:space="preserve">
<style type="text/css">
	.st0{fill:#020202;}
</style>
<g>
	<path class="st0" d="M13.6,7.2H3c-0.2,0-0.4,0.1-0.5,0.2C2.3,7.6,2.3,7.8,2.3,8c0,0.2,0.1,0.4,0.2,0.5C2.6,8.6,2.8,8.7,3,8.7h10.6
		c0.2,0,0.4-0.1,0.5-0.2c0.1-0.1,0.2-0.3,0.2-0.5c0-0.2-0.1-0.4-0.2-0.5C13.9,7.3,13.8,7.2,13.6,7.2z"/>
	<path class="st0" d="M3,5.1h10.6c0.2,0,0.4-0.1,0.5-0.2c0.1-0.1,0.2-0.3,0.2-0.5c0-0.2-0.1-0.4-0.2-0.5c-0.2-0.1-0.3-0.1-0.5-0.1H3
		C2.6,3.8,2.3,4,2.3,4.4c0,0.2,0.1,0.3,0.2,0.5C2.6,5,2.8,5.1,3,5.1z"/>
	<path class="st0" d="M13.6,10.8H3c-0.2,0-0.4,0.1-0.5,0.2c-0.1,0.1-0.2,0.3-0.2,0.5c0,0.2,0.1,0.4,0.2,0.5c0.1,0.1,0.3,0.2,0.5,0.2
		h10.6c0.2,0,0.4-0.1,0.5-0.2c0.1-0.1,0.2-0.3,0.2-0.5c0-0.2-0.1-0.4-0.2-0.5C13.9,10.9,13.8,10.8,13.6,10.8z"/>
</g>
</svg>
