<?xml version="1.0" encoding="utf-8"?>
<!-- Generator: Adobe Illustrator 22.1.0, SVG Export Plug-In . SVG Version: 6.00 Build 0)  -->
<svg version="1.1" id="Layer_1" xmlns="http://www.w3.org/2000/svg" xmlns:xlink="http://www.w3.org/1999/xlink" x="0px" y="0px"
	 viewBox="0 0 16 16" style="enable-background:new 0 0 16 16;" xml:space="preserve">
<g>
	<path d="M14,7.3c0-0.3-0.3-0.6-0.6-0.7l0,0l0,0l-0.8-0.2c-0.1-0.2-0.1-0.5-0.3-0.7l0.5-0.6C12.9,5,13,4.8,13,4.7
		c0-0.2-0.1-0.4-0.3-0.6l0,0L12,3.3C11.8,3.1,11.6,3,11.4,3c-0.2,0-0.4,0.1-0.5,0.2l0,0l-0.6,0.5c-0.2-0.1-0.5-0.2-0.7-0.3L9.5,2.6
		l0,0l0,0C9.3,2.2,8.9,2,8.6,2H7.5C7.1,2,6.8,2.2,6.7,2.6l0,0L6.5,3.4C6.3,3.5,6,3.5,5.8,3.7L5.2,3.3l0,0C5.1,3.2,4.9,3.1,4.7,3.1
		c-0.2,0-0.4,0.1-0.6,0.3l0,0L3.4,4.1C3.3,4.3,3.2,4.5,3.2,4.7c0,0.2,0.1,0.3,0.2,0.4l0,0l0.5,0.7C3.6,6.1,3.6,6.3,3.5,6.6L2.7,6.7
		l0,0C2.3,6.7,2,7.1,2,7.5v1.1c0,0.4,0.3,0.7,0.7,0.8l0,0l0.8,0.2c0.1,0.2,0.1,0.5,0.3,0.7l-0.5,0.6c-0.1,0.2-0.2,0.3-0.2,0.5
		c0,0.2,0.1,0.4,0.3,0.6l0,0l0.7,0.7C4.2,12.9,4.4,13,4.6,13c0.2,0,0.4-0.1,0.5-0.2l0,0l0.7-0.5c0.2,0.1,0.5,0.2,0.7,0.3l0.2,0.8
		l0,0l0,0C6.8,13.8,7.1,14,7.5,14h1.1c0.4,0,0.7-0.3,0.8-0.6l0,0l0.2-0.8c0.2-0.1,0.5-0.1,0.7-0.3l0.6,0.5l0,0
		c0.1,0.1,0.2,0.2,0.5,0.2c0.2,0,0.4-0.1,0.6-0.3l0,0l0.7-0.7c0.2-0.2,0.3-0.4,0.3-0.6c0-0.2-0.1-0.3-0.2-0.5l-0.5-0.6
		c0.1-0.2,0.2-0.4,0.3-0.7l0.8-0.2l0,0l0,0C13.7,9.3,14,9,14,8.5V7.5L14,7.3z M12.2,8.7L12.2,8.7c-0.1,0-0.2,0-0.2,0.1
		c-0.1,0.1-0.1,0.1-0.1,0.2l0,0c-0.1,0.3-0.2,0.7-0.4,1l0,0c0,0.1-0.1,0.1-0.1,0.2c0,0.1,0,0.2,0.1,0.2l0,0l0.6,0.9v0L11.4,12
		c0,0,0,0,0,0l-0.9-0.6l0,0c-0.1-0.1-0.1-0.1-0.2-0.1c-0.1,0-0.1,0-0.2,0.1l0,0c-0.3,0.2-0.6,0.3-1,0.4l0,0c-0.1,0-0.2,0.1-0.2,0.1
		l-0.1,0.2l0,0l-0.2,1.1h-1l-0.2-1.1l0,0c0-0.1,0-0.2-0.1-0.2c-0.1-0.1-0.1-0.1-0.2-0.1l0,0c-0.3-0.1-0.7-0.2-0.9-0.4l0,0h0
		c-0.1,0-0.1,0-0.2,0l-0.1,0c0,0-0.1,0.1-0.1,0.1l-0.9,0.6c0,0,0,0,0,0l-0.7-0.7v0l0.6-0.8l0,0c0.1-0.1,0.1-0.1,0.1-0.2
		c0-0.1,0-0.1-0.1-0.2C4.5,9.7,4.3,9.4,4.2,9l0,0c0-0.1-0.1-0.2-0.1-0.2L3.9,8.7l0,0L2.9,8.5v-1l1.1-0.2l0,0c0.1,0,0.2,0,0.2-0.1
		C4.2,7.2,4.2,7.1,4.2,7l0,0c0.1-0.3,0.2-0.7,0.4-1c0,0,0.1-0.1,0.1-0.2c0-0.1,0-0.2-0.1-0.2l0,0L4,4.7v0l0.7-0.7c0,0,0,0,0,0
		l0.8,0.6l0,0c0.1,0.1,0.1,0.1,0.2,0.1c0.1,0,0.1,0,0.2-0.1l0,0C6.3,4.5,6.7,4.3,7,4.2l0,0c0.1,0,0.2-0.1,0.2-0.1l0.1-0.2l0,0
		l0.2-1.1h1l0.2,1.1l0,0c0,0.1,0,0.2,0.1,0.2C8.9,4.2,8.9,4.2,9,4.2l0,0c0.4,0.1,0.7,0.2,1,0.4l0,0c0.1,0,0.1,0.1,0.2,0.1
		c0.1,0,0.2,0,0.2-0.1l0,0L11.3,4c0,0,0,0,0,0L12,4.6v0l-0.6,0.9l0,0c-0.1,0.1-0.1,0.1-0.1,0.2c0,0.1,0,0.1,0.1,0.2l0,0
		c0.2,0.3,0.3,0.6,0.4,1l0,0c0,0.1,0.1,0.2,0.1,0.2l0.2,0.1l0,0l1.1,0.2v1L12.2,8.7z"/>
	<path d="M8.3,6c-1.1,0-2,0.9-2,2c0,1.1,0.9,2,2,2c1.1,0,2-0.9,2-2C10.3,6.9,9.4,6,8.3,6z M8.3,9.1C7.7,9.1,7.2,8.6,7.2,8
		c0-0.6,0.5-1.1,1.1-1.1c0.6,0,1.1,0.5,1.1,1.1C9.4,8.6,8.9,9.1,8.3,9.1z"/>
</g>
</svg>
