<?xml version="1.0" encoding="utf-8"?>
<!-- Generator: Adobe Illustrator 22.1.0, SVG Export Plug-In . SVG Version: 6.00 Build 0)  -->
<svg version="1.1" id="Layer_1" xmlns="http://www.w3.org/2000/svg" xmlns:xlink="http://www.w3.org/1999/xlink" x="0px" y="0px"
	 viewBox="0 0 16 16" style="enable-background:new 0 0 16 16;" xml:space="preserve">
<path d="M8,1.5C4.4,1.5,1.5,4.4,1.5,8s2.9,6.5,6.5,6.5s6.5-2.9,6.5-6.5S11.6,1.5,8,1.5z M8,2.3c3.2,0,5.7,2.5,5.7,5.7
	c0,1.1-0.3,2.3-1,3.2c-0.4-1.6-1.6-2.9-3.2-3.5c0.6-0.5,0.9-1.1,0.9-2c0-1.4-1.1-2.4-2.4-2.4S5.6,4.3,5.6,5.7c0,0.8,0.3,1.5,0.9,2
	c-1.6,0.6-2.8,1.9-3.2,3.5c-0.6-0.9-1-2-1-3.2C2.3,4.8,4.8,2.3,8,2.3z M8,7.3c-0.9,0-1.6-0.7-1.6-1.6c0-0.9,0.7-1.6,1.6-1.6
	s1.6,0.7,1.6,1.6S8.9,7.3,8,7.3z M8,13.7c-1.5,0-3-0.7-4.1-1.7C4,9.8,5.8,8.2,8,8.2s3.9,1.7,4.1,3.8C11,13,9.5,13.7,8,13.7z"/>
</svg>
