<?xml version="1.0" encoding="utf-8"?>
<!-- Generator: Adobe Illustrator 22.1.0, SVG Export Plug-In . SVG Version: 6.00 Build 0)  -->
<svg version="1.1" id="Layer_1" xmlns="http://www.w3.org/2000/svg" xmlns:xlink="http://www.w3.org/1999/xlink" x="0px" y="0px"
	 viewBox="0 0 16 16" style="enable-background:new 0 0 16 16;" xml:space="preserve">
<g>
	<path d="M13.1,6.1c0,0-0.1-0.2-0.3-0.2H9.6V3.5c0-0.1,0-0.2-0.1-0.2C9.4,3.2,9.3,3.1,9.2,3.1h-6C3.1,3.1,3,3.2,3,3.2
		C2.9,3.3,2.9,3.4,2.9,3.5v10.3c0,0.1,0,0.2,0.1,0.2c0.1,0.1,0.1,0.1,0.2,0.1h6h3.6c0.1,0,0.2,0,0.2-0.1c0.1-0.1,0.1-0.1,0.1-0.2
		L13.1,6.1L13.1,6.1z M12.5,13.6h-3V6.5h3V13.6z M8.9,6.2v7.4H3.5l0-9.8h5.4V6.2z"/>
	<path d="M10.3,7.5h1.4c0.2,0,0.2-0.1,0.2-0.2c0-0.1-0.1-0.2-0.2-0.2h-1.4c-0.2,0-0.2,0.1-0.2,0.2C10.1,7.4,10.2,7.5,10.3,7.5z"/>
	<path d="M10.3,8.6h1.4c0.2,0,0.2-0.2,0.2-0.2c0-0.2-0.1-0.2-0.2-0.2h-1.4c-0.2,0-0.2,0.1-0.2,0.2C10.1,8.5,10.2,8.6,10.3,8.6z"/>
	<path d="M10.3,9.7h1.4c0.2,0,0.2-0.1,0.2-0.2c0-0.2-0.1-0.2-0.2-0.2h-1.4c-0.2,0-0.2,0.1-0.2,0.2C10.1,9.6,10.2,9.7,10.3,9.7z"/>
	<path d="M10.3,10.8h1.4c0.2,0,0.2-0.1,0.2-0.2c0-0.2-0.1-0.2-0.2-0.2h-1.4c-0.2,0-0.2,0.1-0.2,0.2C10.1,10.7,10.2,10.8,10.3,10.8z"
		/>
	<path d="M10.3,11.9h1.4c0.2,0,0.2-0.1,0.2-0.2c0-0.2-0.1-0.2-0.2-0.2h-1.4c-0.2,0-0.2,0.1-0.2,0.2C10.1,11.8,10.2,11.9,10.3,11.9z"
		/>
	<path d="M10.3,13h1.4c0.2,0,0.2-0.1,0.2-0.2c0-0.2-0.1-0.2-0.2-0.2h-1.4c-0.2,0-0.2,0.1-0.2,0.2C10.1,12.9,10.2,13,10.3,13z"/>
	<path d="M4.4,5.4c0.2,0,0.2-0.1,0.2-0.2V4.7c0-0.2-0.1-0.2-0.2-0.2c-0.2,0-0.2,0.2-0.2,0.2v0.5C4.2,5.3,4.3,5.4,4.4,5.4z"/>
	<path d="M5.6,5.4c0.2,0,0.2-0.1,0.2-0.2V4.7c0-0.2-0.1-0.2-0.2-0.2c-0.2,0-0.2,0.1-0.2,0.2v0.5C5.4,5.3,5.5,5.4,5.6,5.4z"/>
	<path d="M6.8,5.4c0.2,0,0.2-0.1,0.2-0.2V4.7c0-0.2-0.1-0.2-0.2-0.2c-0.2,0-0.2,0.2-0.2,0.2v0.5C6.6,5.3,6.7,5.4,6.8,5.4z"/>
	<path d="M8,5.4c0.2,0,0.2-0.1,0.2-0.2V4.7c0-0.2-0.1-0.2-0.2-0.2c-0.2,0-0.2,0.2-0.2,0.2v0.5C7.8,5.3,7.8,5.4,8,5.4z"/>
	<path d="M4.4,6.9c0.2,0,0.2-0.1,0.2-0.2V6.3C4.7,6.1,4.6,6,4.4,6C4.3,6,4.2,6.1,4.2,6.3v0.5C4.2,6.8,4.3,6.9,4.4,6.9z"/>
	<path d="M5.6,6.9c0.2,0,0.2-0.1,0.2-0.2V6.3C5.8,6.1,5.8,6,5.6,6C5.5,6,5.4,6.1,5.4,6.3v0.5C5.4,6.8,5.5,6.9,5.6,6.9z"/>
	<path d="M6.8,6.9c0.2,0,0.2-0.1,0.2-0.2V6.3C7.1,6.1,7,6,6.8,6C6.7,6,6.6,6.1,6.6,6.3v0.5C6.6,6.8,6.7,6.9,6.8,6.9z"/>
	<path d="M8,6.9c0.2,0,0.2-0.1,0.2-0.2V6.3C8.2,6.1,8.2,6,8,6C7.8,6,7.8,6.1,7.8,6.3v0.5C7.8,6.8,7.8,6.9,8,6.9z"/>
	<path d="M4.4,8.4c0.2,0,0.2-0.1,0.2-0.2V7.7c0-0.2-0.1-0.2-0.2-0.2c-0.2,0-0.2,0.1-0.2,0.2v0.5C4.2,8.3,4.3,8.4,4.4,8.4z"/>
	<path d="M5.6,8.4c0.2,0,0.2-0.1,0.2-0.2V7.7c0-0.2-0.1-0.2-0.2-0.2c-0.2,0-0.2,0.1-0.2,0.2v0.5C5.4,8.3,5.5,8.4,5.6,8.4z"/>
	<path d="M6.8,8.4c0.2,0,0.2-0.1,0.2-0.2V7.7c0-0.2-0.1-0.2-0.2-0.2c-0.2,0-0.2,0.1-0.2,0.2v0.5C6.6,8.3,6.7,8.4,6.8,8.4z"/>
	<path d="M8,8.4c0.2,0,0.2-0.1,0.2-0.2V7.7c0-0.2-0.1-0.2-0.2-0.2c-0.2,0-0.2,0.1-0.2,0.2v0.5C7.8,8.3,7.8,8.4,8,8.4z"/>
	<path d="M4.4,10c0.2,0,0.2-0.1,0.2-0.2V9.2C4.7,9,4.6,9,4.4,9C4.3,9,4.2,9.1,4.2,9.2v0.5C4.2,9.8,4.3,10,4.4,10z"/>
	<path d="M5.6,10c0.2,0,0.2-0.1,0.2-0.2V9.2C5.8,9,5.8,9,5.6,9C5.5,9,5.4,9,5.4,9.2v0.5C5.4,9.8,5.5,10,5.6,10z"/>
	<path d="M6.8,10C7,10,7.1,9.9,7.1,9.7V9.2C7.1,9,7,9,6.8,9C6.7,9,6.6,9.1,6.6,9.2v0.5C6.6,9.8,6.7,10,6.8,10z"/>
	<path d="M8,10c0.2,0,0.2-0.1,0.2-0.2V9.2C8.2,9,8.2,9,8,9C7.8,9,7.8,9.1,7.8,9.2v0.5C7.8,9.8,7.8,10,8,10z"/>
	<path d="M4.4,11.4c0.2,0,0.2-0.1,0.2-0.2v-0.5c0-0.2-0.1-0.2-0.2-0.2c-0.2,0-0.2,0.1-0.2,0.2v0.5C4.2,11.3,4.3,11.4,4.4,11.4z"/>
	<path d="M5.6,11.4c0.2,0,0.2-0.1,0.2-0.2v-0.5c0-0.2-0.1-0.2-0.2-0.2c-0.2,0-0.2,0.1-0.2,0.2v0.5C5.4,11.3,5.5,11.4,5.6,11.4z"/>
	<path d="M6.8,11.4c0.2,0,0.2-0.1,0.2-0.2v-0.5c0-0.2-0.1-0.2-0.2-0.2c-0.2,0-0.2,0.1-0.2,0.2v0.5C6.6,11.3,6.7,11.4,6.8,11.4z"/>
	<path d="M8,11.4c0.2,0,0.2-0.1,0.2-0.2v-0.5c0-0.2-0.1-0.2-0.2-0.2c-0.2,0-0.2,0.1-0.2,0.2v0.5C7.8,11.3,7.8,11.4,8,11.4z"/>
	<path d="M4.4,12.9c0.2,0,0.2-0.1,0.2-0.2v-0.5C4.7,12,4.6,12,4.4,12c-0.2,0-0.2,0.1-0.2,0.2v0.5C4.2,12.8,4.3,12.9,4.4,12.9z"/>
	<path d="M5.6,12.9c0.2,0,0.2-0.1,0.2-0.2v-0.5C5.8,12,5.8,12,5.6,12c-0.2,0-0.2,0.1-0.2,0.2v0.5C5.4,12.8,5.5,12.9,5.6,12.9z"/>
	<path d="M6.8,12.9c0.2,0,0.2-0.1,0.2-0.2v-0.5C7.1,12,7,12,6.8,12c-0.2,0-0.2,0.1-0.2,0.2v0.5C6.6,12.8,6.7,12.9,6.8,12.9z"/>
	<path d="M8,12.9c0.2,0,0.2-0.1,0.2-0.2v-0.5C8.2,12,8.2,12,8,12c-0.2,0-0.2,0.1-0.2,0.2v0.5C7.8,12.8,7.8,12.9,8,12.9z"/>
</g>
</svg>
