<?xml version="1.0" encoding="utf-8"?>
<!-- Generated by IcoMoon.io -->
<!DOCTYPE svg PUBLIC "-//W3C//DTD SVG 1.1//EN" "http://www.w3.org/Graphics/SVG/1.1/DTD/svg11.dtd">
<svg version="1.1" xmlns="http://www.w3.org/2000/svg" xmlns:xlink="http://www.w3.org/1999/xlink" width="16" height="16" viewBox="0 0 16 16">
<path d="M9.9 7.6c0.7-0.6 1.1-1.4 1.1-2.4 0-1.7-1.3-3-3-3s-3 1.3-3 3c0 1 0.4 1.8 1.1 2.4-2.4 0.8-4.1 3-4.1 5.6 0 0.3 0.2 0.5 0.5 0.5s0.5-0.2 0.5-0.5c0-2.8 2.2-5 5-5s5 2.2 5 5c0 0.3 0.2 0.5 0.5 0.5s0.5-0.2 0.5-0.5c0-2.6-1.7-4.8-4.1-5.6zM6 5.2c0-1.1 0.9-2 2-2s2 0.9 2 2c0 1.1-0.9 2-2 2 0 0 0 0 0 0s0 0 0 0c-1.1 0-2-0.8-2-2z"></path>
</svg>
