<?xml version="1.0" encoding="utf-8"?>
<!-- Generated by IcoMoon.io -->
<!DOCTYPE svg PUBLIC "-//W3C//DTD SVG 1.1//EN" "http://www.w3.org/Graphics/SVG/1.1/DTD/svg11.dtd">
<svg version="1.1" xmlns="http://www.w3.org/2000/svg" xmlns:xlink="http://www.w3.org/1999/xlink" width="16" height="16" viewBox="0 0 16 16">
<path d="M13.5 7c-0.4 0-0.7 0.2-0.8 0.5h-6.8c-0.1-0.3-0.3-0.6-0.7-0.8 0.3-1 1.2-2.2 3.3-2.2h0.6c0.2 0.3 0.5 0.5 0.9 0.5 0.6 0 1-0.4 1-1s-0.4-1-1-1c-0.4 0-0.7 0.2-0.8 0.5h-0.7c-1.3 0-2.4 0.4-3.2 1.2-0.5 0.6-0.9 1.2-1 1.8-0.5 0.1-1 0.5-1.2 1h-1.1c-0.3 0-0.5 0.2-0.5 0.5s0.2 0.5 0.5 0.5h1.1c0.2 0.5 0.6 0.9 1.2 1 0.2 0.6 0.5 1.3 1.1 1.8 0.8 0.8 1.9 1.2 3.2 1.2h2.2c0.2 0.3 0.5 0.5 0.8 0.5 0.6 0 1-0.4 1-1s-0.4-1-1-1c-0.4 0-0.7 0.2-0.9 0.5h-2.2c-2.1 0-2.9-1.2-3.3-2.2 0.3-0.2 0.5-0.5 0.7-0.8h6.7c0.2 0.3 0.5 0.5 0.9 0.5 0.6 0 1-0.4 1-1s-0.4-1-1-1z"></path>
</svg>
