<?xml version="1.0" encoding="utf-8"?>
<!-- Generator: Adobe Illustrator 23.0.1, SVG Export Plug-In . SVG Version: 6.00 Build 0)  -->
<svg version="1.1" id="Layer_1" xmlns="http://www.w3.org/2000/svg" xmlns:xlink="http://www.w3.org/1999/xlink" x="0px" y="0px"
	 viewBox="0 0 16 16" style="enable-background:new 0 0 16 16;" xml:space="preserve">
<path d="M11,5c1.654,0,3,1.346,3,3s-1.346,3-3,3H5c-1.654,0-3-1.346-3-3s1.346-3,3-3H11 M11,4H5C2.791,4,1,5.791,1,8s1.791,4,4,4h6
	c2.209,0,4-1.791,4-4S13.209,4,11,4L11,4z M11,6.997c0.551,0,1,0.449,1,1s-0.449,1-1,1s-1-0.449-1-1S10.449,6.997,11,6.997
	 M11,5.997c-1.105,0-2,0.895-2,2s0.895,2,2,2s2-0.895,2-2S12.105,5.997,11,5.997L11,5.997z"/>
</svg>
