<?xml version="1.0" encoding="utf-8"?>
<!-- Generator: Adobe Illustrator 21.1.0, SVG Export Plug-In . SVG Version: 6.00 Build 0)  -->
<svg version="1.1" id="Layer_1" xmlns="http://www.w3.org/2000/svg" xmlns:xlink="http://www.w3.org/1999/xlink" x="0px" y="0px"
	 viewBox="0 0 16 16" style="enable-background:new 0 0 16 16;" xml:space="preserve">
<path d="M10.854,8.994H5.163c-0.355,0-0.645,0.289-0.645,0.645v2.499c0,0.606,0.494,1.1,1.1,1.1h4.78c0.606,0,1.1-0.493,1.1-1.1
	V9.639C11.498,9.283,11.209,8.994,10.854,8.994z M10.498,12.138c0,0.055-0.045,0.1-0.1,0.1h-4.78c-0.055,0-0.1-0.045-0.1-0.1V9.994
	h4.98V12.138z M14.462,8.994h-0.96v-1.67c0.477-0.309,0.795-0.844,0.795-1.453V3.025c0-0.394-0.32-0.713-0.714-0.713h-2.724V2.194
	c0-0.664-0.541-1.205-1.205-1.205H6.362c-0.664,0-1.205,0.541-1.205,1.205v0.118H2.434c-0.394,0-0.714,0.32-0.714,0.713v2.853
	c0,0.608,0.318,1.142,0.795,1.449v1.667H1.538c-0.276,0-0.5,0.224-0.5,0.5v2.388c0,1.008,0.662,1.829,1.477,1.832v0.034
	c0,0.715,0.637,1.297,1.42,1.297h8.156c0.777,0,1.41-0.577,1.41-1.287v-0.046c0.807-0.014,1.46-0.828,1.46-1.829V9.494
	C14.962,9.218,14.738,8.994,14.462,8.994z M6.158,2.194c0-0.111,0.094-0.205,0.205-0.205h3.292c0.111,0,0.205,0.094,0.205,0.205
	v0.118H6.158V2.194z M2.72,3.312h10.577v2.559c0,0.404-0.329,0.733-0.733,0.733h-2.388c-0.022-0.256-0.23-0.459-0.492-0.459H6.333
	c-0.262,0-0.47,0.203-0.492,0.459H3.446c-0.4,0-0.727-0.326-0.727-0.726V3.312z M2.038,11.882V9.994h0.477v2.718
	C2.289,12.708,2.038,12.356,2.038,11.882z M12.092,14.044H3.936c-0.224,0-0.42-0.139-0.42-0.297V7.604h2.317v0.04
	c0,0.276,0.224,0.5,0.5,0.5h3.351c0.276,0,0.5-0.223,0.5-0.5v-0.04h2.318v6.153C12.502,13.91,12.311,14.044,12.092,14.044z
	 M13.962,11.882c0,0.455-0.242,0.803-0.46,0.824V9.994h0.46V11.882z"/>
</svg>
