<?xml version="1.0" encoding="utf-8"?>
<!-- Generator: Adobe Illustrator 21.0.0, SVG Export Plug-In . SVG Version: 6.00 Build 0)  -->
<svg version="1.1" id="Layer_1" xmlns="http://www.w3.org/2000/svg" xmlns:xlink="http://www.w3.org/1999/xlink" x="0px" y="0px"
	 viewBox="0 0 16 16" style="enable-background:new 0 0 16 16;" xml:space="preserve">
<path d="M8,13c-2.8,0-5-2.2-5-5s2.2-5,5-5s5,2.2,5,5S10.8,13,8,13z M8,4C5.8,4,4,5.8,4,8s1.8,4,4,4s4-1.8,4-4S10.2,4,8,4z M8,10.9
	c-0.3,0-0.6-0.3-0.6-0.6V7.6c0-0.3,0.3-0.6,0.6-0.6s0.6,0.3,0.6,0.6v2.8C8.6,10.7,8.3,10.9,8,10.9z M8,5.1c-0.3,0-0.6,0.3-0.6,0.6
	S7.7,6.3,8,6.3c0.3,0,0.6-0.3,0.6-0.6S8.3,5.1,8,5.1z"/>
</svg>
