<?xml version="1.0" encoding="utf-8"?>
<!-- Generator: Adobe Illustrator 21.0.0, SVG Export Plug-In . SVG Version: 6.00 Build 0)  -->
<svg version="1.1" id="Layer_1" xmlns="http://www.w3.org/2000/svg" xmlns:xlink="http://www.w3.org/1999/xlink" x="0px" y="0px"
	 viewBox="0 0 16 16" style="enable-background:new 0 0 16 16;" xml:space="preserve">
<path d="M11.219,3.942C11.219,3.942,11.219,3.942,11.219,3.942C11.061,2.296,9.687,1,8,1S4.939,2.296,4.781,3.942c0,0,0,0,0,0
	C3.111,5.007,2,6.872,2,9c0,3.314,2.686,6,6,6s6-2.686,6-6C14,6.872,12.889,5.007,11.219,3.942z M8,2.5
	c0.551,0,1.037,0.261,1.358,0.66C8.921,3.059,8.468,3,8,3S7.079,3.059,6.642,3.16C6.963,2.761,7.449,2.5,8,2.5z M8,13.5
	c-2.485,0-4.5-2.015-4.5-4.5S5.515,4.5,8,4.5s4.5,2.015,4.5,4.5S10.485,13.5,8,13.5z M9,7.5v3c0,0.552-0.448,1-1,1s-1-0.448-1-1v-3
	c0-0.552,0.448-1,1-1S9,6.948,9,7.5z"/>
</svg>
