<?xml version="1.0" encoding="utf-8"?>
<!-- Generator: Adobe Illustrator 22.1.0, SVG Export Plug-In . SVG Version: 6.00 Build 0)  -->
<svg version="1.1" id="Layer_1" xmlns="http://www.w3.org/2000/svg" xmlns:xlink="http://www.w3.org/1999/xlink" x="0px" y="0px"
	 viewBox="0 0 20 16" style="enable-background:new 0 0 20 16;" xml:space="preserve">
<style type="text/css">
	.st0{stroke:#000000;stroke-width:0.5;stroke-miterlimit:10;}
</style>
<g>
	<g>
		<g>
			<path class="st0" d="M11.3,11.1c0,0.8,0.6,1.4,1.4,1.4s1.4-0.6,1.4-1.4s-0.6-1.4-1.4-1.4C11.9,9.7,11.3,10.3,11.3,11.1z
				 M11.7,11.1c0-0.5,0.4-0.9,0.9-0.9s0.9,0.4,0.9,0.9c0,0.5-0.4,0.9-0.9,0.9C12.1,12,11.7,11.6,11.7,11.1z"/>
		</g>
	</g>
	<g>
		<g>
			<path class="st0" d="M14.3,11.1c0,0.8,0.6,1.4,1.4,1.4s1.4-0.6,1.4-1.4s-0.6-1.4-1.4-1.4C14.9,9.7,14.3,10.3,14.3,11.1z
				 M14.7,11.1c0-0.5,0.4-0.9,0.9-0.9s0.9,0.4,0.9,0.9c0,0.5-0.4,0.9-0.9,0.9C15.1,12,14.7,11.6,14.7,11.1z"/>
		</g>
	</g>
	<g>
		<g>
			<path class="st0" d="M3.6,11.1c0,0.8,0.6,1.4,1.4,1.4s1.4-0.6,1.4-1.4S5.7,9.7,4.9,9.7S3.6,10.3,3.6,11.1z M4,11.1
				c0-0.5,0.4-0.9,0.9-0.9c0.5,0,0.9,0.4,0.9,0.9c0,0.5-0.4,0.9-0.9,0.9C4.4,12,4,11.6,4,11.1z"/>
		</g>
	</g>
	<g>
		<g>
			<path class="st0" d="M2.2,8.4l2-3.2c0-0.1,0.1-0.1,0.2-0.1H7c0.1,0,0.2,0.1,0.2,0.2v5.7c0,0.1-0.1,0.2-0.2,0.2H6.1v-0.5h0.7V5.6
				H4.6l-1.9,3v2.2h1.1v0.5H2.4c-0.1,0-0.2-0.1-0.2-0.2V8.6C2.2,8.5,2.2,8.5,2.2,8.4z"/>
		</g>
	</g>
	<g>
		<g>
			<path d="M5.8,8.1V6.5H4V6.1h2c0.1,0,0.2,0.1,0.2,0.2v2c0,0.1-0.1,0.2-0.2,0.2H2.7V8.1L5.8,8.1L5.8,8.1z"/>
		</g>
	</g>
	<g>
		<g>
			<path class="st0" d="M7,3.6h11.6c0.1,0,0.2,0.1,0.2,0.2v7.3c0,0.1-0.1,0.2-0.2,0.2h-2.1v-0.5h1.8V4H7.2v6.8h4.3v0.5H7
				c-0.1,0-0.2-0.1-0.2-0.2V3.8C6.7,3.7,6.8,3.6,7,3.6z"/>
		</g>
	</g>
</g>
</svg>
