<?xml version="1.0" encoding="utf-8"?>
<!-- Generated by IcoMoon.io -->
<!DOCTYPE svg PUBLIC "-//W3C//DTD SVG 1.1//EN" "http://www.w3.org/Graphics/SVG/1.1/DTD/svg11.dtd">
<svg version="1.1" xmlns="http://www.w3.org/2000/svg" xmlns:xlink="http://www.w3.org/1999/xlink" width="16" height="16" viewBox="0 0 16 16">
<path d="M3.5 8.5c-0.3 0-0.5-0.2-0.5-0.5v-3c0-0.3 0.2-0.5 0.5-0.5h3c0.3 0 0.5 0.2 0.5 0.5s-0.2 0.5-0.5 0.5h-2.5v2.5c0 0.3-0.2 0.5-0.5 0.5zM13 11v-3c0-0.3-0.2-0.5-0.5-0.5s-0.5 0.2-0.5 0.5v2.5h-2.5c-0.3 0-0.5 0.2-0.5 0.5s0.2 0.5 0.5 0.5h3c0.3 0 0.5-0.2 0.5-0.5zM14.5 13.5h-13c-0.3 0-0.5-0.2-0.5-0.5v-10c0-0.3 0.2-0.5 0.5-0.5h13c0.3 0 0.5 0.2 0.5 0.5v10c0 0.3-0.2 0.5-0.5 0.5zM2 12.5h12v-9h-12v9z"></path>
</svg>
