<?xml version="1.0" encoding="utf-8"?>
<!-- Generator: Adobe Illustrator 22.1.0, SVG Export Plug-In . SVG Version: 6.00 Build 0)  -->
<svg version="1.1" id="Layer_1" xmlns="http://www.w3.org/2000/svg" xmlns:xlink="http://www.w3.org/1999/xlink" x="0px" y="0px"
	 viewBox="0 0 16 16" style="enable-background:new 0 0 16 16;" xml:space="preserve">
<g>
	<path d="M13.5,4H11c-0.2,0-0.3-0.1-0.4-0.3l-0.5-1.5C10,2.1,9.9,2,9.7,2H6.3C6.1,2,6,2.1,5.9,2.3L5.5,3.7C5.4,3.9,5.3,4,5.1,4H2.5
		C2.2,4,2,4.2,2.1,4.5l1.8,9.2C4,13.9,4.1,14,4.3,14h7.4c0.2,0,0.3-0.1,0.4-0.3l1.8-9.2C14,4.2,13.8,4,13.5,4z M6.8,3h2.6l0.3,1H6.4
		L6.8,3z M11.4,12.7c-0.2,0.2-0.3,0.3-0.5,0.3H5.1c-0.2,0-0.3-0.1-0.4-0.3L3.3,5.5C3.2,5.2,3.4,5,3.7,5h8.7c0.2,0,0.4,0.2,0.4,0.5
		L11.4,12.7z"/>
	<path d="M6.5,7.2C6.2,7.2,6,7.4,6,7.7v2.5c0,0.3,0.2,0.5,0.5,0.5S7,10.5,7,10.2V7.7C7,7.4,6.8,7.2,6.5,7.2z"/>
	<path d="M9.5,7.2C9.2,7.2,9,7.4,9,7.7v2.5c0,0.3,0.2,0.5,0.5,0.5s0.5-0.2,0.5-0.5V7.7C10,7.4,9.8,7.2,9.5,7.2z"/>
</g>
</svg>
