<?xml version="1.0" encoding="utf-8"?>
<!-- Generator: Adobe Illustrator 22.1.0, SVG Export Plug-In . SVG Version: 6.00 Build 0)  -->
<svg version="1.1" id="Layer_1" xmlns="http://www.w3.org/2000/svg" xmlns:xlink="http://www.w3.org/1999/xlink" x="0px" y="0px"
	 viewBox="0 0 16 16" style="enable-background:new 0 0 16 16;" xml:space="preserve">
<g transform="translate(0,-952.36218)">
	<path d="M12.9,955.4c0.8,0,1.6,0.7,1.6,1.6v4.5c0,0.8-0.6,1.6-1.6,1.6h-1.7v2.2c0,0.2-0.1,0.5-0.3,0.6c-0.2,0.1-0.5,0-0.6-0.1
		l-3-2.6H3.1c-0.8,0-1.6-0.7-1.6-1.6V957c0-0.8,0.7-1.6,1.6-1.6L12.9,955.4L12.9,955.4z M12.9,956.3H3.1c-0.3,0-0.6,0.2-0.6,0.6v4.6
		c0,0.3,0.2,0.6,0.6,0.6l4.6,0.1c0.1,0,0.3,0.1,0.4,0.2l2.4,2.3l-0.2-2c0-0.3,0.2-0.6,0.5-0.6H13c0.3,0,0.6-0.2,0.6-0.6V957
		C13.5,956.5,13.3,956.3,12.9,956.3L12.9,956.3z"/>
</g>
<circle cx="4.7" cy="6.9" r="0.5"/>
<circle cx="8" cy="7" r="0.5"/>
<circle cx="11.4" cy="7" r="0.5"/>
</svg>
