<?xml version="1.0" encoding="utf-8"?>
<!-- Generator: Adobe Illustrator 22.1.0, SVG Export Plug-In . SVG Version: 6.00 Build 0)  -->
<svg version="1.1" id="Layer_1" xmlns="http://www.w3.org/2000/svg" xmlns:xlink="http://www.w3.org/1999/xlink" x="0px" y="0px"
	 viewBox="0 0 16 16" style="enable-background:new 0 0 16 16;" xml:space="preserve">
<path d="M4.2,6.5H2.6C2.3,6.5,2.1,6.3,2.1,6s0.2-0.5,0.5-0.5h1.6c0.3,0,0.5,0.2,0.5,0.5S4.5,6.5,4.2,6.5z"/>
<path d="M3.7,8c0-0.3-0.2-0.5-0.5-0.5H1.6C1.3,7.5,1.1,7.7,1.1,8s0.2,0.5,0.5,0.5h1.6C3.5,8.5,3.7,8.3,3.7,8z"/>
<path d="M4.7,10.1c0-0.3-0.2-0.5-0.5-0.5H2.6c-0.3,0-0.5,0.2-0.5,0.5s0.2,0.5,0.5,0.5h1.6C4.5,10.6,4.7,10.4,4.7,10.1z"/>
<path d="M14.9,8c0-2.8-2.2-5-5-5C9.6,3,9.4,3.2,9.4,3.5v4C9.4,7.8,9.6,8,9.9,8s0.5-0.2,0.5-0.5V4c2,0.3,3.5,2,3.5,4c0,2.2-1.8,4-4,4
	s-4-1.8-4-4c0-1.1,0.4-2.1,1.2-2.8c0.2-0.2,0.2-0.5,0-0.7s-0.5-0.2-0.7,0C5.4,5.4,4.9,6.7,4.9,8c0,2.8,2.2,5,5,5S14.9,10.8,14.9,8z"
	/>
</svg>
