<?xml version="1.0" encoding="utf-8"?>
<!-- Generator: Adobe Illustrator 22.1.0, SVG Export Plug-In . SVG Version: 6.00 Build 0)  -->
<svg version="1.1" id="Layer_1" xmlns="http://www.w3.org/2000/svg" xmlns:xlink="http://www.w3.org/1999/xlink" x="0px" y="0px"
	 viewBox="0 0 16 16" style="enable-background:new 0 0 16 16;" xml:space="preserve">
<g>
	<path d="M14.4,6.9h-0.5c0,0,0,0,0,0v-2c0.3,0,0.5-0.2,0.5-0.5V3.1c0-0.7-0.6-1.3-1.3-1.3h-2.4H5.4H3c-0.7,0-1.3,0.6-1.3,1.3v1.3
		c0,0.3,0.2,0.5,0.5,0.5v2c0,0,0,0,0,0H1.6C1,6.9,0.5,7.4,0.5,8v3.9c0,0.9,0.7,1.6,1.6,1.6h0c0,0,0,0,0,0c0,0.8,0.6,1.5,1.4,1.7h8.9
		c0.8-0.2,1.4-0.9,1.4-1.7c0,0,0,0,0,0h0c0.9,0,1.6-0.7,1.6-1.6V8C15.5,7.4,15,6.9,14.4,6.9z M11.4,12.2H4.6v-0.6h6.9V12.2z
		 M4.6,13.2h6.9v1.1H4.6V13.2z M3.8,10.6C3.8,10.6,3.8,10.6,3.8,10.6l0,3.5c-0.2-0.2-0.6-0.4-0.6-0.7v-0.2v-6V4.9H4v1.8h0h2.3h0V4.9
		c0,0,0,0,0,0h3.1c0,0,0,0,0,0v1.8h0H12h0V4.9h0.8v2.3v6v0.2c0,0.3-0.4,0.6-0.6,0.7v-3.5c0,0,0,0,0,0H3.8z M2.7,3
		c0-0.1,0.1-0.2,0.2-0.2h2.8h4.6h2.8c0.1,0,0.2,0.1,0.2,0.2v0.9h-1.8h-1.4H5.9H4.5H2.7V3z M11,6.4h-0.4V4.9H11V6.4z M5.4,4.9v1.5H5
		V4.9H5.4z M13.9,12.4L13.9,12.4l-0.1-4.6h0.6l0,0v4.2C14.5,12.3,14.1,12.4,13.9,12.4z M1.5,7.9L1.5,7.9l0.6,0v4.6H2.1
		c-0.2,0-0.6-0.1-0.6-0.3V7.9z"/>
	<path d="M5.2,7.8c0.7,0,1.2-0.5,1.2-1.2H4C4,7.2,4.6,7.8,5.2,7.8z"/>
	<path d="M10.8,7.8c0.7,0,1.2-0.5,1.2-1.2H9.6C9.6,7.2,10.1,7.8,10.8,7.8z"/>
	<path d="M10.4,2.1C10,1.3,9.1,0.7,8,0.7S6,1.2,5.5,2.1L10.4,2.1z"/>
</g>
</svg>
