<svg width="25" height="25" viewBox="0 0 25 25" fill="none" xmlns="http://www.w3.org/2000/svg">
<mask id="path-1-outside-1" maskUnits="userSpaceOnUse" x="0" y="4" width="25" height="16" fill="black">
<rect fill="white" y="4" width="25" height="16"/>
<path fill-rule="evenodd" clip-rule="evenodd" d="M3.44133 14.7656H21.996C22.2656 14.7656 22.4843 14.5469 22.4843 14.2773V5.48828C22.4843 5.21875 22.2656 5 21.996 5H3.44133C3.1718 5 2.95305 5.21875 2.95305 5.48828V14.2773C2.95305 14.5469 3.1718 14.7656 3.44133 14.7656ZM21.5077 13.7891H3.92961V5.97656H21.5077V13.7891ZM6.37081 12.3241C6.37081 12.5936 6.58956 12.8124 6.85909 12.8124C7.12863 12.8124 7.34738 12.5936 7.34738 12.3241V7.44126C7.34738 7.17173 7.12863 6.95298 6.85909 6.95298C6.58956 6.95298 6.37081 7.17173 6.37081 7.44126V12.3241ZM10.7659 12.8124C10.4964 12.8124 10.2776 12.5936 10.2776 12.3241V7.44126C10.2776 7.17173 10.4964 6.95298 10.7659 6.95298C11.0354 6.95298 11.2542 7.17173 11.2542 7.44126V12.3241C11.2542 12.5936 11.0354 12.8124 10.7659 12.8124ZM14.1836 12.3241C14.1836 12.5936 14.4023 12.8124 14.6719 12.8124C14.9414 12.8124 15.1601 12.5936 15.1601 12.3241V7.44126C15.1601 7.17173 14.9414 6.95298 14.6719 6.95298C14.4023 6.95298 14.1836 7.17173 14.1836 7.44126V12.3241ZM18.5782 12.8124C18.3087 12.8124 18.0899 12.5936 18.0899 12.3241V7.44126C18.0899 7.17173 18.3087 6.95298 18.5782 6.95298C18.8477 6.95298 19.0665 7.17173 19.0665 7.44126V12.3241C19.0665 12.5936 18.8477 12.8124 18.5782 12.8124ZM1.48828 16.7186H3.21508C3.04848 17.006 2.95305 17.3396 2.95305 17.6952C2.95305 18.7723 3.82903 19.6483 4.90617 19.6483C5.48898 19.6483 6.01288 19.3918 6.37102 18.9859C6.72915 19.3918 7.25306 19.6483 7.83586 19.6483C8.913 19.6483 9.78898 18.7723 9.78898 17.6952C9.78898 17.3396 9.69355 17.006 9.52695 16.7186H15.9105C15.7439 17.006 15.6484 17.3396 15.6484 17.6952C15.6484 18.7723 16.5244 19.6483 17.6016 19.6483C18.1844 19.6483 18.7083 19.3918 19.0664 18.9859C19.4245 19.3918 19.9484 19.6483 20.5312 19.6483C21.6084 19.6483 22.4844 18.7723 22.4844 17.6952C22.4844 17.3396 22.3889 17.006 22.2223 16.7186H23.9492C24.2188 16.7186 24.4375 16.4998 24.4375 16.2303C24.4375 15.9608 24.2188 15.742 23.9492 15.742H20.5312H17.6016H7.83586H4.90617H1.48828C1.21875 15.742 1 15.9608 1 16.2303C1 16.4998 1.21875 16.7186 1.48828 16.7186ZM5.88274 17.6952C5.88274 17.1561 5.44426 16.7186 4.90617 16.7186C4.36809 16.7186 3.92961 17.1561 3.92961 17.6952C3.92961 18.2342 4.36809 18.6717 4.90617 18.6717C5.44426 18.6717 5.88274 18.2342 5.88274 17.6952ZM6.8593 17.6952L6.8593 17.6971C6.86035 18.2353 7.29842 18.6717 7.83586 18.6717C8.37394 18.6717 8.81242 18.2342 8.81242 17.6952C8.81242 17.1561 8.37394 16.7186 7.83586 16.7186C7.29777 16.7186 6.8593 17.1561 6.8593 17.6952ZM17.6016 16.7186C17.0635 16.7186 16.625 17.1561 16.625 17.6952C16.625 18.2342 17.0635 18.6717 17.6016 18.6717C18.1396 18.6717 18.5781 18.2342 18.5781 17.6952C18.5781 17.1561 18.1396 16.7186 17.6016 16.7186ZM19.5547 17.6952C19.5547 17.1561 19.9932 16.7186 20.5312 16.7186C21.0693 16.7186 21.5078 17.1561 21.5078 17.6952C21.5078 18.2342 21.0693 18.6717 20.5312 18.6717C19.9932 18.6717 19.5547 18.2342 19.5547 17.6952Z"/>
</mask>
<path fill-rule="evenodd" clip-rule="evenodd" d="M3.44133 14.7656H21.996C22.2656 14.7656 22.4843 14.5469 22.4843 14.2773V5.48828C22.4843 5.21875 22.2656 5 21.996 5H3.44133C3.1718 5 2.95305 5.21875 2.95305 5.48828V14.2773C2.95305 14.5469 3.1718 14.7656 3.44133 14.7656ZM21.5077 13.7891H3.92961V5.97656H21.5077V13.7891ZM6.37081 12.3241C6.37081 12.5936 6.58956 12.8124 6.85909 12.8124C7.12863 12.8124 7.34738 12.5936 7.34738 12.3241V7.44126C7.34738 7.17173 7.12863 6.95298 6.85909 6.95298C6.58956 6.95298 6.37081 7.17173 6.37081 7.44126V12.3241ZM10.7659 12.8124C10.4964 12.8124 10.2776 12.5936 10.2776 12.3241V7.44126C10.2776 7.17173 10.4964 6.95298 10.7659 6.95298C11.0354 6.95298 11.2542 7.17173 11.2542 7.44126V12.3241C11.2542 12.5936 11.0354 12.8124 10.7659 12.8124ZM14.1836 12.3241C14.1836 12.5936 14.4023 12.8124 14.6719 12.8124C14.9414 12.8124 15.1601 12.5936 15.1601 12.3241V7.44126C15.1601 7.17173 14.9414 6.95298 14.6719 6.95298C14.4023 6.95298 14.1836 7.17173 14.1836 7.44126V12.3241ZM18.5782 12.8124C18.3087 12.8124 18.0899 12.5936 18.0899 12.3241V7.44126C18.0899 7.17173 18.3087 6.95298 18.5782 6.95298C18.8477 6.95298 19.0665 7.17173 19.0665 7.44126V12.3241C19.0665 12.5936 18.8477 12.8124 18.5782 12.8124ZM1.48828 16.7186H3.21508C3.04848 17.006 2.95305 17.3396 2.95305 17.6952C2.95305 18.7723 3.82903 19.6483 4.90617 19.6483C5.48898 19.6483 6.01288 19.3918 6.37102 18.9859C6.72915 19.3918 7.25306 19.6483 7.83586 19.6483C8.913 19.6483 9.78898 18.7723 9.78898 17.6952C9.78898 17.3396 9.69355 17.006 9.52695 16.7186H15.9105C15.7439 17.006 15.6484 17.3396 15.6484 17.6952C15.6484 18.7723 16.5244 19.6483 17.6016 19.6483C18.1844 19.6483 18.7083 19.3918 19.0664 18.9859C19.4245 19.3918 19.9484 19.6483 20.5312 19.6483C21.6084 19.6483 22.4844 18.7723 22.4844 17.6952C22.4844 17.3396 22.3889 17.006 22.2223 16.7186H23.9492C24.2188 16.7186 24.4375 16.4998 24.4375 16.2303C24.4375 15.9608 24.2188 15.742 23.9492 15.742H20.5312H17.6016H7.83586H4.90617H1.48828C1.21875 15.742 1 15.9608 1 16.2303C1 16.4998 1.21875 16.7186 1.48828 16.7186ZM5.88274 17.6952C5.88274 17.1561 5.44426 16.7186 4.90617 16.7186C4.36809 16.7186 3.92961 17.1561 3.92961 17.6952C3.92961 18.2342 4.36809 18.6717 4.90617 18.6717C5.44426 18.6717 5.88274 18.2342 5.88274 17.6952ZM6.8593 17.6952L6.8593 17.6971C6.86035 18.2353 7.29842 18.6717 7.83586 18.6717C8.37394 18.6717 8.81242 18.2342 8.81242 17.6952C8.81242 17.1561 8.37394 16.7186 7.83586 16.7186C7.29777 16.7186 6.8593 17.1561 6.8593 17.6952ZM17.6016 16.7186C17.0635 16.7186 16.625 17.1561 16.625 17.6952C16.625 18.2342 17.0635 18.6717 17.6016 18.6717C18.1396 18.6717 18.5781 18.2342 18.5781 17.6952C18.5781 17.1561 18.1396 16.7186 17.6016 16.7186ZM19.5547 17.6952C19.5547 17.1561 19.9932 16.7186 20.5312 16.7186C21.0693 16.7186 21.5078 17.1561 21.5078 17.6952C21.5078 18.2342 21.0693 18.6717 20.5312 18.6717C19.9932 18.6717 19.5547 18.2342 19.5547 17.6952Z" fill="black"/>
<path d="M3.92961 13.7891H3.77961V13.9391H3.92961V13.7891ZM21.5077 13.7891V13.9391H21.6577V13.7891H21.5077ZM3.92961 5.97656V5.82656H3.77961V5.97656H3.92961ZM21.5077 5.97656H21.6577V5.82656H21.5077V5.97656ZM3.21508 16.7186L3.34485 16.7938L3.47539 16.5686H3.21508V16.7186ZM6.37102 18.9859L6.48351 18.8866L6.37102 18.7591L6.25853 18.8866L6.37102 18.9859ZM9.52695 16.7186V16.5686H9.26663L9.39717 16.7938L9.52695 16.7186ZM15.9105 16.7186L16.0402 16.7938L16.1708 16.5686H15.9105V16.7186ZM19.0664 18.9859L19.1789 18.8866L19.0664 18.7591L18.9539 18.8866L19.0664 18.9859ZM22.2223 16.7186V16.5686H21.962L22.0926 16.7938L22.2223 16.7186ZM6.8593 17.6971L6.7093 17.697L6.7093 17.6974L6.8593 17.6971ZM6.8593 17.6952L7.0093 17.6952L7.0093 17.6952L6.8593 17.6952ZM21.996 14.6156H3.44133V14.9156H21.996V14.6156ZM22.3343 14.2773C22.3343 14.464 22.1827 14.6156 21.996 14.6156V14.9156C22.3484 14.9156 22.6343 14.6297 22.6343 14.2773H22.3343ZM22.3343 5.48828V14.2773H22.6343V5.48828H22.3343ZM21.996 5.15C22.1827 5.15 22.3343 5.30159 22.3343 5.48828H22.6343C22.6343 5.13591 22.3484 4.85 21.996 4.85V5.15ZM3.44133 5.15H21.996V4.85H3.44133V5.15ZM3.10305 5.48828C3.10305 5.30159 3.25464 5.15 3.44133 5.15V4.85C3.08896 4.85 2.80305 5.13591 2.80305 5.48828H3.10305ZM3.10305 14.2773V5.48828H2.80305V14.2773H3.10305ZM3.44133 14.6156C3.25464 14.6156 3.10305 14.464 3.10305 14.2773H2.80305C2.80305 14.6297 3.08896 14.9156 3.44133 14.9156V14.6156ZM3.92961 13.9391H21.5077V13.6391H3.92961V13.9391ZM3.77961 5.97656V13.7891H4.07961V5.97656H3.77961ZM21.5077 5.82656H3.92961V6.12656H21.5077V5.82656ZM21.6577 13.7891V5.97656H21.3577V13.7891H21.6577ZM6.85909 12.6624C6.6724 12.6624 6.52081 12.5108 6.52081 12.3241H6.22081C6.22081 12.6765 6.50672 12.9624 6.85909 12.9624V12.6624ZM7.19738 12.3241C7.19738 12.5108 7.04579 12.6624 6.85909 12.6624V12.9624C7.21147 12.9624 7.49738 12.6765 7.49738 12.3241H7.19738ZM7.19738 7.44126V12.3241H7.49738V7.44126H7.19738ZM6.85909 7.10298C7.04579 7.10298 7.19738 7.25458 7.19738 7.44126H7.49738C7.49738 7.08889 7.21147 6.80298 6.85909 6.80298V7.10298ZM6.52081 7.44126C6.52081 7.25458 6.6724 7.10298 6.85909 7.10298V6.80298C6.50672 6.80298 6.22081 7.08889 6.22081 7.44126H6.52081ZM6.52081 12.3241V7.44126H6.22081V12.3241H6.52081ZM10.1276 12.3241C10.1276 12.6765 10.4135 12.9624 10.7659 12.9624V12.6624C10.5792 12.6624 10.4276 12.5108 10.4276 12.3241H10.1276ZM10.1276 7.44126V12.3241H10.4276V7.44126H10.1276ZM10.7659 6.80298C10.4135 6.80298 10.1276 7.08889 10.1276 7.44126H10.4276C10.4276 7.25458 10.5792 7.10298 10.7659 7.10298V6.80298ZM11.4042 7.44126C11.4042 7.08889 11.1183 6.80298 10.7659 6.80298V7.10298C10.9526 7.10298 11.1042 7.25458 11.1042 7.44126H11.4042ZM11.4042 12.3241V7.44126H11.1042V12.3241H11.4042ZM10.7659 12.9624C11.1183 12.9624 11.4042 12.6765 11.4042 12.3241H11.1042C11.1042 12.5108 10.9526 12.6624 10.7659 12.6624V12.9624ZM14.6719 12.6624C14.4852 12.6624 14.3336 12.5108 14.3336 12.3241H14.0336C14.0336 12.6764 14.3195 12.9624 14.6719 12.9624V12.6624ZM15.0101 12.3241C15.0101 12.5108 14.8586 12.6624 14.6719 12.6624V12.9624C15.0242 12.9624 15.3101 12.6764 15.3101 12.3241H15.0101ZM15.0101 7.44126V12.3241H15.3101V7.44126H15.0101ZM14.6719 7.10298C14.8586 7.10298 15.0101 7.25457 15.0101 7.44126H15.3101C15.3101 7.08889 15.0242 6.80298 14.6719 6.80298V7.10298ZM14.3336 7.44126C14.3336 7.25457 14.4852 7.10298 14.6719 7.10298V6.80298C14.3195 6.80298 14.0336 7.08889 14.0336 7.44126H14.3336ZM14.3336 12.3241V7.44126H14.0336V12.3241H14.3336ZM17.9399 12.3241C17.9399 12.6764 18.2258 12.9624 18.5782 12.9624V12.6624C18.3915 12.6624 18.2399 12.5108 18.2399 12.3241H17.9399ZM17.9399 7.44126V12.3241H18.2399V7.44126H17.9399ZM18.5782 6.80298C18.2258 6.80298 17.9399 7.08889 17.9399 7.44126H18.2399C18.2399 7.25457 18.3915 7.10298 18.5782 7.10298V6.80298ZM19.2165 7.44126C19.2165 7.08889 18.9306 6.80298 18.5782 6.80298V7.10298C18.7649 7.10298 18.9165 7.25457 18.9165 7.44126H19.2165ZM19.2165 12.3241V7.44126H18.9165V12.3241H19.2165ZM18.5782 12.9624C18.9306 12.9624 19.2165 12.6764 19.2165 12.3241H18.9165C18.9165 12.5108 18.7649 12.6624 18.5782 12.6624V12.9624ZM3.21508 16.5686H1.48828V16.8686H3.21508V16.5686ZM3.10305 17.6952C3.10305 17.3668 3.19112 17.0591 3.34485 16.7938L3.0853 16.6434C2.90584 16.953 2.80305 17.3125 2.80305 17.6952H3.10305ZM4.90617 19.4983C3.91187 19.4983 3.10305 18.6895 3.10305 17.6952H2.80305C2.80305 18.8552 3.74618 19.7983 4.90617 19.7983V19.4983ZM6.25853 18.8866C5.92757 19.2618 5.44401 19.4983 4.90617 19.4983V19.7983C5.53394 19.7983 6.09819 19.5219 6.48351 19.0851L6.25853 18.8866ZM7.83586 19.4983C7.29802 19.4983 6.81446 19.2618 6.48351 18.8866L6.25853 19.0851C6.64384 19.5219 7.20809 19.7983 7.83586 19.7983V19.4983ZM9.63898 17.6952C9.63898 18.6895 8.83016 19.4983 7.83586 19.4983V19.7983C8.99584 19.7983 9.93898 18.8552 9.93898 17.6952H9.63898ZM9.39717 16.7938C9.55091 17.0591 9.63898 17.3668 9.63898 17.6952H9.93898C9.93898 17.3125 9.83618 16.953 9.65672 16.6434L9.39717 16.7938ZM15.9105 16.5686H9.52695V16.8686H15.9105V16.5686ZM15.7984 17.6952C15.7984 17.3668 15.8865 17.0591 16.0402 16.7938L15.7807 16.6434C15.6012 16.953 15.4984 17.3125 15.4984 17.6952H15.7984ZM17.6016 19.4983C16.6073 19.4983 15.7984 18.6895 15.7984 17.6952H15.4984C15.4984 18.8552 16.4416 19.7983 17.6016 19.7983V19.4983ZM18.9539 18.8866C18.623 19.2618 18.1394 19.4983 17.6016 19.4983V19.7983C18.2293 19.7983 18.7936 19.5219 19.1789 19.0851L18.9539 18.8866ZM20.5312 19.4983C19.9934 19.4983 19.5098 19.2618 19.1789 18.8866L18.9539 19.0851C19.3392 19.5219 19.9035 19.7983 20.5312 19.7983V19.4983ZM22.3344 17.6952C22.3344 18.6895 21.5255 19.4983 20.5312 19.4983V19.7983C21.6912 19.7983 22.6344 18.8552 22.6344 17.6952H22.3344ZM22.0926 16.7938C22.2463 17.0591 22.3344 17.3668 22.3344 17.6952H22.6344C22.6344 17.3125 22.5316 16.953 22.3521 16.6434L22.0926 16.7938ZM23.9492 16.5686H22.2223V16.8686H23.9492V16.5686ZM24.2875 16.2303C24.2875 16.417 24.1359 16.5686 23.9492 16.5686V16.8686C24.3016 16.8686 24.5875 16.5827 24.5875 16.2303H24.2875ZM23.9492 15.892C24.1359 15.892 24.2875 16.0436 24.2875 16.2303H24.5875C24.5875 15.8779 24.3016 15.592 23.9492 15.592V15.892ZM20.5312 15.892H23.9492V15.592H20.5312V15.892ZM17.6016 15.892H20.5312V15.592H17.6016V15.892ZM7.83586 15.892H17.6016V15.592H7.83586V15.892ZM4.90617 15.892H7.83586V15.592H4.90617V15.892ZM1.48828 15.892H4.90617V15.592H1.48828V15.892ZM1.15 16.2303C1.15 16.0436 1.30159 15.892 1.48828 15.892V15.592C1.13591 15.592 0.85 15.8779 0.85 16.2303H1.15ZM1.48828 16.5686C1.30159 16.5686 1.15 16.417 1.15 16.2303H0.85C0.85 16.5827 1.13591 16.8686 1.48828 16.8686V16.5686ZM4.90617 16.8686C5.36152 16.8686 5.73274 17.239 5.73274 17.6952H6.03274C6.03274 17.0732 5.527 16.5686 4.90617 16.5686V16.8686ZM4.07961 17.6952C4.07961 17.239 4.45083 16.8686 4.90617 16.8686V16.5686C4.28534 16.5686 3.77961 17.0732 3.77961 17.6952H4.07961ZM4.90617 18.5217C4.45083 18.5217 4.07961 18.1513 4.07961 17.6952H3.77961C3.77961 18.3172 4.28534 18.8217 4.90617 18.8217V18.5217ZM5.73274 17.6952C5.73274 18.1513 5.36152 18.5217 4.90617 18.5217V18.8217C5.527 18.8217 6.03274 18.3172 6.03274 17.6952H5.73274ZM7.0093 17.6972L7.0093 17.6952L6.7093 17.6951L6.7093 17.697L7.0093 17.6972ZM7.83586 18.5217C7.38107 18.5217 7.01019 18.1522 7.0093 17.6968L6.7093 17.6974C6.71051 18.3184 7.21577 18.8217 7.83586 18.8217V18.5217ZM8.66242 17.6952C8.66242 18.1513 8.2912 18.5217 7.83586 18.5217V18.8217C8.45669 18.8217 8.96242 18.3172 8.96242 17.6952H8.66242ZM7.83586 16.8686C8.2912 16.8686 8.66242 17.239 8.66242 17.6952H8.96242C8.96242 17.0732 8.45669 16.5686 7.83586 16.5686V16.8686ZM7.0093 17.6952C7.0093 17.239 7.38052 16.8686 7.83586 16.8686V16.5686C7.21503 16.5686 6.7093 17.0732 6.7093 17.6952L7.0093 17.6952ZM16.775 17.6952C16.775 17.239 17.1462 16.8686 17.6016 16.8686V16.5686C16.9807 16.5686 16.475 17.0732 16.475 17.6952H16.775ZM17.6016 18.5217C17.1462 18.5217 16.775 18.1513 16.775 17.6952H16.475C16.475 18.3172 16.9807 18.8217 17.6016 18.8217V18.5217ZM18.4281 17.6952C18.4281 18.1513 18.0569 18.5217 17.6016 18.5217V18.8217C18.2224 18.8217 18.7281 18.3172 18.7281 17.6952H18.4281ZM17.6016 16.8686C18.0569 16.8686 18.4281 17.239 18.4281 17.6952H18.7281C18.7281 17.0732 18.2224 16.5686 17.6016 16.5686V16.8686ZM20.5312 16.5686C19.9104 16.5686 19.4047 17.0732 19.4047 17.6952H19.7047C19.7047 17.239 20.0759 16.8686 20.5312 16.8686V16.5686ZM21.6578 17.6952C21.6578 17.0732 21.1521 16.5686 20.5312 16.5686V16.8686C20.9866 16.8686 21.3578 17.239 21.3578 17.6952H21.6578ZM20.5312 18.8217C21.1521 18.8217 21.6578 18.3172 21.6578 17.6952H21.3578C21.3578 18.1513 20.9866 18.5217 20.5312 18.5217V18.8217ZM19.4047 17.6952C19.4047 18.3172 19.9104 18.8217 20.5312 18.8217V18.5217C20.0759 18.5217 19.7047 18.1513 19.7047 17.6952H19.4047Z" fill="black" mask="url(#path-1-outside-1)"/>
</svg>
