<?xml version="1.0" encoding="utf-8"?>
<!-- Generator: Adobe Illustrator 22.1.0, SVG Export Plug-In . SVG Version: 6.00 Build 0)  -->
<svg version="1.1" id="Layer_1" xmlns="http://www.w3.org/2000/svg" xmlns:xlink="http://www.w3.org/1999/xlink" x="0px" y="0px"
	 viewBox="0 0 16 16" style="enable-background:new 0 0 16 16;" xml:space="preserve">
<style type="text/css">
	.st0{fill:#020202;}
</style>
<g>
	<g>
		<g>
			<path class="st0" d="M14.2,13.4H1.8c-0.2,0-0.3,0.2-0.3,0.3s0.2,0.3,0.3,0.3h12.3c0.2,0,0.3-0.2,0.3-0.3
				C14.5,13.5,14.4,13.4,14.2,13.4z"/>
		</g>
	</g>
	<g>
		<g>
			<path class="st0" d="M13.5,4h-2.2c-0.2,0-0.3,0.2-0.3,0.3v2.1H9.5V2.9c0-0.2-0.2-0.3-0.3-0.3H7c-0.2,0-0.3,0.2-0.3,0.3v5.8H5.1
				V6.1c0-0.2-0.2-0.3-0.3-0.3H2.7c-0.2,0-0.3,0.2-0.3,0.3V12c0,0.2,0.2,0.3,0.3,0.3h2.2H7h2.2h2.2h2.2c0.2,0,0.3-0.2,0.3-0.3V4.4
				C13.7,4.2,13.6,4,13.5,4z M4.5,11.7H3V6.4h1.6V11.7z M6.7,11.7H5.1V9.3h1.6V11.7z M8.9,6.7v4.9H7.3V3.2h1.6V6.7z M10.9,11.7H9.5
				V7.1H11L10.9,11.7L10.9,11.7z M13.1,11.7h-1.6V6.7V4.6h1.6V11.7L13.1,11.7z"/>
		</g>
	</g>
</g>
</svg>
