<?xml version="1.0" encoding="utf-8"?>
<!-- Generator: Adobe Illustrator 21.0.0, SVG Export Plug-In . SVG Version: 6.00 Build 0)  -->
<svg version="1.1" id="Layer_1" xmlns="http://www.w3.org/2000/svg" xmlns:xlink="http://www.w3.org/1999/xlink" x="0px" y="0px"
	 viewBox="0 0 16 16" style="enable-background:new 0 0 16 16;" xml:space="preserve">
<path d="M5,10H1V1h4V10z M2,9h2V2H2V9z"/>
<path d="M10,10H6V6h4V10z M7,9h2V7H7V9z"/>
<path d="M15,1v4H6V1H15z M14,4V2H7v2H14z"/>
<path d="M10,15H1v-4h9V15z M2,14h7v-2H2V14z"/>
<path d="M15,15h-4V6h4V15z M12,14h2V7h-2V14z"/>
</svg>
