<?xml version="1.0" encoding="utf-8"?>
<!-- Generator: Adobe Illustrator 22.1.0, SVG Export Plug-In . SVG Version: 6.00 Build 0)  -->
<svg version="1.1" id="Layer_1" xmlns="http://www.w3.org/2000/svg" xmlns:xlink="http://www.w3.org/1999/xlink" x="0px" y="0px"
	 viewBox="0 0 16 16" style="enable-background:new 0 0 16 16;" xml:space="preserve">
<path d="M8.4,14c-3.4,0-6-2.6-6-6s2.6-6,6-6s6,2.6,6,6S11.8,14,8.4,14z M8.4,3.2C5.8,3.2,3.6,5.4,3.6,8s2.2,4.8,4.8,4.8
	s4.8-2.2,4.8-4.8S11,3.2,8.4,3.2z M8.4,11.5c-0.4,0-0.7-0.4-0.7-0.7V7.5c0-0.4,0.4-0.7,0.7-0.7c0.4,0,0.7,0.4,0.7,0.7v3.4
	C9.1,11.2,8.8,11.5,8.4,11.5z M8.4,4.5C8,4.5,7.7,4.9,7.7,5.2S8,6,8.4,6c0.4,0,0.7-0.4,0.7-0.7S8.8,4.5,8.4,4.5z"/>
</svg>
