<?xml version="1.0" encoding="utf-8"?>
<!-- Generator: Adobe Illustrator 21.0.0, SVG Export Plug-In . SVG Version: 6.00 Build 0)  -->
<svg version="1.1" id="Layer_1" xmlns="http://www.w3.org/2000/svg" xmlns:xlink="http://www.w3.org/1999/xlink" x="0px" y="0px"
	 viewBox="0 0 16 16" style="enable-background:new 0 0 16 16;" xml:space="preserve">
<path d="M11.7,4L12,4.3L7.5,8.8H7.2V8.5L11.7,4 M11.7,3c-0.3,0-0.5,0.1-0.7,0.3L6.5,7.8C6.3,8,6.2,8.2,6.2,8.5v0.3c0,0.6,0.4,1,1,1
	h0.3c0.3,0,0.5-0.1,0.7-0.3L12.7,5c0.4-0.4,0.4-1,0-1.4l-0.3-0.3C12.2,3.1,12,3,11.7,3L11.7,3z"/>
<path d="M9,4H3.5C3.2,4,3,3.8,3,3.5v0C3,3.2,3.2,3,3.5,3H9c0.3,0,0.5,0.2,0.5,0.5v0C9.5,3.8,9.3,4,9,4z"/>
<path d="M6,7H3.5C3.2,7,3,6.8,3,6.5v0C3,6.2,3.2,6,3.5,6H6c0.3,0,0.5,0.2,0.5,0.5v0C6.5,6.8,6.3,7,6,7z"/>
<path d="M4.5,10h-1C3.2,10,3,9.8,3,9.5v0C3,9.2,3.2,9,3.5,9h1C4.8,9,5,9.2,5,9.5v0C5,9.8,4.8,10,4.5,10z"/>
<path d="M12.5,13h-9C3.2,13,3,12.8,3,12.5v0C3,12.2,3.2,12,3.5,12h9c0.3,0,0.5,0.2,0.5,0.5v0C13,12.8,12.8,13,12.5,13z"/>
</svg>
