<?xml version="1.0" encoding="utf-8"?>
<!-- Generated by IcoMoon.io -->
<!DOCTYPE svg PUBLIC "-//W3C//DTD SVG 1.1//EN" "http://www.w3.org/Graphics/SVG/1.1/DTD/svg11.dtd">
<svg version="1.1" xmlns="http://www.w3.org/2000/svg" xmlns:xlink="http://www.w3.org/1999/xlink" width="16" height="16" viewBox="0 0 16 16">
<path d="M8 1c-3.9 0-7 3.1-7 7s3.1 7 7 7 7-3.1 7-7c0-3.9-3.1-7-7-7zM13.9 8.4l-0.5-1.5c0-0.1-0.1-0.2-0.2-0.2l-2-0.5-0.4-0.8 1-1.4c0 0 0 0 0-0.1l0.2-0.4c1.2 1.1 2 2.7 2 4.4 0 0.3-0.1 0.5-0.1 0.5zM8.8 2.8l-0.4 2-0.2-0.1c-0.1 0-0.1-0.1-0.2-0.1s-0.1 0-0.2 0.1l-1 1c-0.1 0.1-0.1 0.2-0.1 0.3l0.5 1.6c0 0.1 0.1 0.2 0.2 0.2l1.5 0.2 0.8 0.6-0.6 1.1c0 0 0 0 0 0.1l-0.5 1.8-0.9 1.1-0.4-2.1c0-0.1 0-0.1-0.1-0.2l-1-0.7v-0.6l0.7-1.2c0-0.1 0-0.2 0-0.3s-0.1-0.1-0.2-0.1l-2.7 0.2-1.7-1.6c0.1-0.3 0.2-0.6 0.4-0.8 0.2-0.4 0.5-0.7 0.7-1.1 1.1-1.4 2.7-2.2 4.6-2.2 0.1 0 0.2 0 0.3 0 0.1 0.2 0.5 0.8 0.5 0.8zM8 14c-3.3 0-6-2.7-6-6 0-0.3 0-0.7 0.1-1l1.3 1.3c0.1 0.1 0.3 0.2 0.6 0.2 0 0 0 0 0.1 0l1.7-0.2-0.3 0.4c-0.1 0.1-0.1 0.3-0.1 0.4v0.6c0 0.3 0.1 0.5 0.3 0.6l0.8 0.6 0.3 1.9c0.1 0.3 0.3 0.5 0.6 0.6 0.1 0 0.1 0 0.2 0 0.2 0 0.5-0.1 0.6-0.3l0.9-1.1c0.1-0.1 0.1-0.2 0.2-0.3l0.5-1.7 0.6-1c0.2-0.3 0.1-0.8-0.2-1l-0.8-0.6c-0.1-0.1-0.2-0.2-0.4-0.2l-1.1-0.2-0.3-0.9 0.4-0.5c0.1 0 0.2 0.1 0.3 0.1s0.2 0 0.2 0c0.4-0.1 0.6-0.4 0.6-0.7l0.4-2c0-0.2 0-0.4-0.1-0.5 0-0.2 0-0.3-0.1-0.4 0.7 0.2 1.4 0.5 2.1 0.9 0 0.1-0.1 0.1-0.1 0.2l-0.1 0.4-1 1.4c-0.2 0.2-0.2 0.5 0 0.8l0.4 0.8c0.1 0.2 0.3 0.4 0.5 0.4l1.7 0.4 0.4 1.2c0.1 0.3 0.4 0.5 0.7 0.5-0.6 2.8-3 4.9-5.9 4.9z"></path>
</svg>
