<?xml version="1.0" encoding="utf-8"?>
<!-- Generated by IcoMoon.io -->
<!DOCTYPE svg PUBLIC "-//W3C//DTD SVG 1.1//EN" "http://www.w3.org/Graphics/SVG/1.1/DTD/svg11.dtd">
<svg version="1.1" xmlns="http://www.w3.org/2000/svg" xmlns:xlink="http://www.w3.org/1999/xlink" width="16" height="16" viewBox="0 0 16 16">
<path d="M12.2 2.8h-1.5v-1c0-0.3-0.2-0.5-0.5-0.5h-3c-0.2-0.1-0.4 0.2-0.4 0.5v1h-3c-0.3 0-0.6 0.2-0.6 0.4v6c0 0.3 0.2 0.5 0.5 0.5h1v4.5c0 0.3 0.2 0.5 0.5 0.5h7c0.3 0 0.5-0.2 0.5-0.5v-11c0.1-0.2-0.2-0.4-0.5-0.4zM11.8 4.8h-6v-1h6v1zM7.8 2.2h2v0.5h-2v-0.5zM4.8 3.8v1h-0.6v-1h0.6zM4.2 8.8v-3h0.5v3h-0.5zM9.8 9.2h-2c0 0 0 0 0 0v-0.4h2v0.4zM7.8 13.8v-3.5c0 0 0 0 0 0h2v3.5h-2zM10.8 13.8v-5.6c0-0.3-0.2-0.5-0.5-0.5h-3c-0.3 0.1-0.5 0.3-0.5 0.5v5.5h-1v-7.9h6v8h-1z"></path>
</svg>
