<?xml version="1.0" encoding="utf-8"?>
<!-- Generated by IcoMoon.io -->
<!DOCTYPE svg PUBLIC "-//W3C//DTD SVG 1.1//EN" "http://www.w3.org/Graphics/SVG/1.1/DTD/svg11.dtd">
<svg version="1.1" xmlns="http://www.w3.org/2000/svg" xmlns:xlink="http://www.w3.org/1999/xlink" width="16" height="16" viewBox="0 0 16 16">
<path d="M8 15c-2.8 0-5.1-2.3-5.1-5.1 0-1.9 1-3.6 2.7-4.5l-0.8-2.8c0-0.2 0-0.3 0.1-0.4s0.2-0.2 0.3-0.2h5.5c0.2 0 0.3 0.1 0.4 0.2s0.1 0.3 0.1 0.4l-0.9 2.7c1.7 0.9 2.7 2.6 2.7 4.5 0.1 2.9-2.2 5.2-5 5.2zM5.9 3l0.7 2.5c0.1 0.2 0 0.5-0.3 0.6-1.4 0.7-2.4 2.1-2.4 3.8 0 2.3 1.8 4.1 4.1 4.1s4.1-1.8 4.1-4.1c0-1.7-1-3.2-2.5-3.8-0.2-0.1-0.4-0.4-0.3-0.6l0.8-2.5h-4.2zM6.9 10.4c0.1 0.1 0.3 0.3 0.5 0.4s0.5 0.2 0.7 0.2c0.1 0 0.2 0 0.2 0 0.1 0 0.1 0 0.2-0.1 0.1 0 0.1-0.1 0.2-0.1 0-0.1 0.1-0.1 0.1-0.2s-0.1-0.3-0.2-0.4c-0.2-0.2-0.4-0.2-0.7-0.3l-0.2-0.1c-0.4-0.1-0.7-0.3-0.9-0.5-0.3-0.2-0.4-0.5-0.4-0.8 0-0.4 0.1-0.7 0.4-0.9 0.2-0.2 0.6-0.4 1-0.4v-0.7h0.7v0.6c0.3 0 0.6 0.1 0.8 0.2s0.3 0.2 0.5 0.3l-0.8 0.8c0 0-0.1-0.1-0.2-0.1s-0.1-0.1-0.2-0.1c0-0.1-0.1-0.1-0.2-0.2-0.1 0-0.2 0-0.3 0s-0.1 0-0.2 0-0.2 0-0.2 0.1c-0.1 0-0.1 0.1-0.2 0.1 0 0.1-0.1 0.1-0.1 0.2 0 0.2 0.1 0.3 0.2 0.3 0.2 0.2 0.4 0.2 0.7 0.3 0.2 0 0.4 0.1 0.5 0.2 0.2 0.1 0.4 0.2 0.5 0.3s0.3 0.2 0.3 0.4c0.1 0.2 0.1 0.4 0.1 0.6s0 0.4-0.1 0.5c-0.1 0.2-0.2 0.3-0.3 0.4s-0.3 0.2-0.4 0.3c-0.2 0.1-0.3 0.1-0.5 0.2v0.7h-0.6v-0.7c-0.3 0-0.6-0.1-0.9-0.3-0.3-0.1-0.5-0.3-0.6-0.5l0.6-0.7z"></path>
</svg>
