<?xml version="1.0" encoding="utf-8"?>
<!-- Generator: Adobe Illustrator 21.0.0, SVG Export Plug-In . SVG Version: 6.00 Build 0)  -->
<svg version="1.1" id="Layer_1" xmlns="http://www.w3.org/2000/svg" xmlns:xlink="http://www.w3.org/1999/xlink" x="0px" y="0px"
	 viewBox="0 0 16 16" style="enable-background:new 0 0 16 16;" xml:space="preserve">
<path d="M14.8,8.2c0.1-0.1,0.1-0.3,0-0.5C13.3,5.4,10.8,4,8,4C7.072,4,6.182,4.167,5.345,4.461L2.692,1.808
	c-0.244-0.244-0.64-0.244-0.884,0s-0.244,0.64,0,0.884l2.307,2.307C2.951,5.649,1.951,6.599,1.2,7.8c-0.1,0.1-0.1,0.3,0,0.5
	C2.7,10.6,5.2,12,8,12c0.928,0,1.818-0.167,2.655-0.461l2.653,2.653c0.122,0.122,0.282,0.183,0.442,0.183s0.32-0.061,0.442-0.183
	c0.243-0.244,0.243-0.641,0-0.885l-2.307-2.307C13.049,10.351,14.05,9.401,14.8,8.2z M8,11c-2.3,0-4.4-1.1-5.7-3
	c0.669-0.978,1.552-1.739,2.564-2.252l0.984,0.984C5.632,7.103,5.5,7.532,5.5,8c0,1.4,1.1,2.5,2.5,2.5
	c0.468,0,0.897-0.132,1.268-0.348l0.59,0.59C9.262,10.906,8.64,11,8,11z M9.397,8.513l-1.91-1.91C7.649,6.54,7.821,6.5,8,6.5
	c0.8,0,1.5,0.7,1.5,1.5C9.5,8.179,9.461,8.351,9.397,8.513z M8.513,9.397C8.351,9.461,8.179,9.5,8,9.5C7.2,9.5,6.5,8.8,6.5,8
	c0-0.179,0.04-0.351,0.103-0.513L8.513,9.397z M11.137,10.252l-0.984-0.984C10.368,8.897,10.5,8.468,10.5,8c0-1.4-1.1-2.5-2.5-2.5
	c-0.468,0-0.897,0.132-1.268,0.348l-0.59-0.59C6.738,5.094,7.36,5,8,5c2.3,0,4.4,1.1,5.7,3C13.031,8.978,12.148,9.739,11.137,10.252
	z"/>
</svg>
