<?xml version="1.0" encoding="utf-8"?>
<!-- Generator: Adobe Illustrator 22.1.0, SVG Export Plug-In . SVG Version: 6.00 Build 0)  -->
<svg version="1.1" id="Layer_1" xmlns="http://www.w3.org/2000/svg" xmlns:xlink="http://www.w3.org/1999/xlink" x="0px" y="0px"
	 viewBox="0 0 16 16" style="enable-background:new 0 0 16 16;" xml:space="preserve">
<style type="text/css">
	.st0{fill:#050505;}
</style>
<path class="st0" d="M14,8c0-1.6-0.6-3.1-1.7-4.3l-0.2,0.2l0.2-0.2C11.1,2.6,9.6,2,8,2C6.4,2,4.9,2.6,3.7,3.7C2.6,4.9,2,6.4,2,8
	c0,1.6,0.6,3.1,1.7,4.3C4.9,13.4,6.4,14,8,14c1,0,1.9-0.3,2.8-0.7l0,0l0,0c0.2-0.1,0.3-0.2,0.3-0.3c0-0.1,0-0.2,0-0.3v-0.1l0,0
	c-0.1-0.2-0.2-0.3-0.3-0.3c-0.1,0-0.2,0-0.3,0h-0.1l0,0c-0.7,0.4-1.5,0.6-2.3,0.6c-1.3,0-2.6-0.6-3.4-1.4C3.7,10.6,3.1,9.3,3.1,8
	c0-1.3,0.6-2.6,1.4-3.4C5.4,3.7,6.7,3.1,8,3.1c1.3,0,2.6,0.6,3.4,1.4c0.9,0.9,1.4,2.1,1.4,3.4c0,0.6-0.2,1.4-0.3,1.7
	c0,0.1-0.1,0.2-0.2,0.3c-0.1,0.1-0.3,0.2-0.5,0.2c-0.2,0-0.4-0.1-0.5-0.2c-0.1-0.1-0.2-0.3-0.2-0.5V5.8c0-0.2-0.1-0.3-0.2-0.4
	c-0.1-0.1-0.2-0.2-0.4-0.2c-0.2,0-0.3,0.1-0.4,0.2c-0.1,0.1-0.1,0.2-0.1,0.3C9.5,5.1,8.8,4.8,8,4.8c-1.7,0-3.1,1.4-3.1,3.1
	C4.9,9.6,6.3,11,8,11c0.9,0,1.7-0.4,2.2-1c0.3,0.6,0.9,1,1.7,1c0.7,0,1.4-0.5,1.7-1.1l0,0c0,0,0,0,0,0c0,0,0,0,0,0l0,0
	c0.1-0.2,0.2-0.5,0.3-0.8C14,8.8,14,8.4,14,8z M8,6c0.5,0,1,0.2,1.4,0.6C9.8,7,10,7.5,10,8c0,0.5-0.2,1-0.6,1.4C9,9.8,8.5,10,8,10
	c-0.5,0-1-0.2-1.4-0.6C6.2,9,6,8.5,6,8c0-0.5,0.2-1,0.6-1.4C7,6.2,7.5,6,8,6z"/>
</svg>
