<?xml version="1.0" encoding="utf-8"?>
<!-- Generator: Adobe Illustrator 23.0.1, SVG Export Plug-In . SVG Version: 6.00 Build 0)  -->
<svg version="1.1" id="Layer_1" xmlns="http://www.w3.org/2000/svg" xmlns:xlink="http://www.w3.org/1999/xlink" x="0px" y="0px"
	 viewBox="0 0 16 16" style="enable-background:new 0 0 16 16;" xml:space="preserve">
<style type="text/css">
	.st0{fill:#010101;}
</style>
<path class="st0" d="M8,2.845H7.268l1.058-1.058c0.18-0.18,0.18-0.472,0-0.653s-0.472-0.18-0.653,0L5.828,2.98
	c-0.18,0.18-0.18,0.472,0,0.653l1.846,1.846C7.764,5.569,7.882,5.614,8,5.614s0.236-0.045,0.326-0.135c0.18-0.18,0.18-0.472,0-0.653
	L7.268,3.768H8c2.799,0,5.077,2.278,5.077,5.077c0,0.255,0.206,0.462,0.462,0.462C13.794,9.306,14,9.1,14,8.845
	C14,5.536,11.308,2.845,8,2.845z"/>
<path class="st0" d="M8.326,10.52c-0.18-0.18-0.472-0.18-0.653,0s-0.18,0.472,0,0.653l1.058,1.058H8
	c-2.799,0-5.077-2.278-5.077-5.077c0-0.255-0.207-0.462-0.462-0.462S2,6.899,2,7.154c0,3.308,2.692,6,6,6h0.732l-1.058,1.058
	c-0.18,0.18-0.18,0.472,0,0.653C7.764,14.955,7.882,15,8,15s0.236-0.045,0.326-0.135l1.846-1.846c0.18-0.18,0.18-0.472,0-0.653
	L8.326,10.52z"/>
</svg>
