<?xml version="1.0" encoding="utf-8"?>
<!-- Generator: Adobe Illustrator 22.1.0, SVG Export Plug-In . SVG Version: 6.00 Build 0)  -->
<svg version="1.1" id="Layer_1" xmlns="http://www.w3.org/2000/svg" xmlns:xlink="http://www.w3.org/1999/xlink" x="0px" y="0px"
	 viewBox="0 0 16 16" style="enable-background:new 0 0 16 16;" xml:space="preserve">
<g>
	<path d="M9.7,3.7h-6c-0.6,0-1.1,0.5-1.1,1.2v8.5c0,0.6,0.5,1.2,1.2,1.2h6c0.6,0,1.2-0.5,1.2-1.2V4.8l0,0C10.9,4.2,10.4,3.7,9.7,3.7
		z M3.6,4.8l0-0.1l0.1,0h6l0.1,0l0,0.1v8.6H10l0,0l-0.1,0H3.8l-0.1,0l0-0.1V4.8z"/>
	<path d="M13.3,2.5c-0.1-0.5-0.6-1-1.3-1H6.2C5.5,1.5,5,2,5,2.7c0,0.3,0.2,0.5,0.5,0.5C5.8,3.1,6,2.9,6,2.7v0l0,0l0-0.1L6,2.5
		l0.1-0.1h6l0.1,0l0,0.1v8.5l0,0.1l-0.1,0c-0.3,0-0.5,0.2-0.5,0.5c0,0.3,0.2,0.5,0.5,0.5c0.6,0,1.2-0.5,1.2-1.2L13.3,2.5L13.3,2.5z"
		/>
</g>
</svg>
