<?xml version="1.0" encoding="utf-8"?>
<!-- Generator: Adobe Illustrator 21.0.0, SVG Export Plug-In . SVG Version: 6.00 Build 0)  -->
<svg version="1.1" id="Layer_1" xmlns="http://www.w3.org/2000/svg" xmlns:xlink="http://www.w3.org/1999/xlink" x="0px" y="0px"
	 viewBox="0 0 16 16" style="enable-background:new 0 0 16 16;" xml:space="preserve">
<path d="M9,3.5C9,4.328,8.328,5,7.5,5S6,4.328,6,3.5S6.672,2,7.5,2S9,2.672,9,3.5z M7.5,6.5C6.672,6.5,6,7.172,6,8
	s0.672,1.5,1.5,1.5S9,8.828,9,8S8.328,6.5,7.5,6.5z M7.5,11C6.672,11,6,11.672,6,12.5S6.672,14,7.5,14S9,13.328,9,12.5
	S8.328,11,7.5,11z"/>
</svg>
