<?xml version="1.0" encoding="utf-8"?>
<!-- Generated by IcoMoon.io -->
<!DOCTYPE svg PUBLIC "-//W3C//DTD SVG 1.1//EN" "http://www.w3.org/Graphics/SVG/1.1/DTD/svg11.dtd">
<svg version="1.1" xmlns="http://www.w3.org/2000/svg" xmlns:xlink="http://www.w3.org/1999/xlink" width="16" height="16" viewBox="0 0 16 16">
<path d="M12.5 14h-9c-0.3 0-0.5-0.2-0.5-0.5v-11c0-0.3 0.2-0.5 0.5-0.5h6c0.1 0 0.3 0.1 0.4 0.1l3 3c0 0.1 0.1 0.3 0.1 0.4v8c0 0.3-0.2 0.5-0.5 0.5zM4 13h8v-7.3l-2.7-2.7h-5.3v10zM10 9h-4c-0.3 0-0.5-0.2-0.5-0.5s0.2-0.5 0.5-0.5h4c0.3 0 0.5 0.2 0.5 0.5s-0.2 0.5-0.5 0.5zM9 6.5c0-0.3-0.2-0.5-0.5-0.5h-2.5c-0.3 0-0.5 0.2-0.5 0.5s0.2 0.5 0.5 0.5h2.5c0.3 0 0.5-0.2 0.5-0.5zM10.5 10.5c0-0.3-0.2-0.5-0.5-0.5h-4c-0.3 0-0.5 0.2-0.5 0.5s0.2 0.5 0.5 0.5h4c0.3 0 0.5-0.2 0.5-0.5z"></path>
</svg>
