<?xml version="1.0" encoding="utf-8"?>
<!-- Generator: Adobe Illustrator 21.0.0, SVG Export Plug-In . SVG Version: 6.00 Build 0)  -->
<svg version="1.1" id="Layer_1" xmlns="http://www.w3.org/2000/svg" xmlns:xlink="http://www.w3.org/1999/xlink" x="0px" y="0px"
	 viewBox="0 0 16 16" style="enable-background:new 0 0 16 16;" xml:space="preserve">
<path d="M8,8.25C6.759,8.25,5.75,7.241,5.75,6S6.759,3.75,8,3.75c1.24,0,2.25,1.009,2.25,2.25S9.24,8.25,8,8.25z M8,5.25
	C7.586,5.25,7.25,5.586,7.25,6S7.586,6.75,8,6.75S8.75,6.414,8.75,6S8.414,5.25,8,5.25z M8,15.25c-0.236,0-0.459-0.111-0.601-0.301
	C6.923,14.313,2.75,8.658,2.75,6c0-2.895,2.355-5.25,5.25-5.25c2.895,0,5.25,2.355,5.25,5.25c0,2.658-4.174,8.313-4.649,8.949
	C8.459,15.139,8.236,15.25,8,15.25z M8,2.25C5.932,2.25,4.25,3.932,4.25,6c0,1.445,2.101,4.895,3.75,7.225
	c1.648-2.331,3.75-5.78,3.75-7.225C11.75,3.932,10.067,2.25,8,2.25z"/>
</svg>
