<?xml version="1.0" encoding="utf-8"?>
<!-- Generator: Adobe Illustrator 22.1.0, SVG Export Plug-In . SVG Version: 6.00 Build 0)  -->
<svg version="1.1" id="Layer_1" xmlns="http://www.w3.org/2000/svg" xmlns:xlink="http://www.w3.org/1999/xlink" x="0px" y="0px"
	 viewBox="0 0 16 16" style="enable-background:new 0 0 16 16;" xml:space="preserve">
<g>
	<path d="M5.7,7.3C5.9,7.3,6,7.2,6,7.1C6,7.1,6,7,6,6.9V6.3l0,0l0.1-0.1c0.3-0.2,0.6-0.4,0.8-0.6c0.2-0.1,0.3-0.2,0.4-0.3
		c0.1,0,0.2,0,0.2-0.1l0-0.2V4.2l0-0.2c0,0-0.1-0.1-0.1-0.1L7.4,3.8V2.9c0-0.1,0.1-0.2,0.1-0.3c0.1-0.1,0.2-0.1,0.3-0.1H8h0l0,0
		l0.1,0c0.2,0,0.4,0.2,0.4,0.4v0.9h0l0,0C8.4,3.9,8.4,4.1,8.4,4.2V5c0,0.2,0.1,0.3,0.2,0.4c0,0,0.1,0.1,0.2,0.1
		c0.3,0.1,0.7,0.4,1,0.7l0,0l0.1,0.1v0.6c0,0.1,0,0.2,0.1,0.3c0.1,0.1,0.2,0.1,0.3,0.1c0.1,0,0.2,0,0.3-0.1c0.1-0.1,0.1-0.2,0.1-0.3
		V6.3c0-0.2-0.1-0.5-0.3-0.7l0,0l0,0C9.8,5.2,9.4,5,9.1,4.8V4.3C9.2,4.2,9.3,4,9.3,3.8l0-1c0-0.6-0.5-1.2-1.2-1.2H7.8
		c-0.6,0-1.2,0.5-1.2,1.2v1c0,0.2,0.1,0.4,0.2,0.5v0.6C6.5,5,6.1,5.2,5.6,5.6l0,0l0,0C5.4,5.8,5.3,6,5.3,6.3v0.7
		c0,0.1,0,0.2,0.1,0.3C5.5,7.3,5.6,7.3,5.7,7.3z"/>
	<path d="M14.2,11.4L14.2,11.4L14.2,11.4c-0.5-0.4-1-0.7-1.2-0.8V10c0.1-0.1,0.2-0.3,0.2-0.5l0-1c0-0.6-0.5-1.2-1.2-1.2h-0.2
		c-0.6,0-1.2,0.5-1.2,1.2v1c0,0.2,0.1,0.4,0.2,0.5v0.7c-0.3,0.1-0.8,0.4-1.2,0.9l0,0c-0.2,0.1-0.3,0.4-0.3,0.7v0.7
		c0,0.1,0,0.2,0.1,0.3c0.1,0.1,0.2,0.1,0.3,0.1c0.1,0,0.2,0,0.3-0.1c0.1-0.1,0.1-0.2,0.1-0.3v-0.7l0,0l0.1-0.1
		c0.3-0.2,0.6-0.4,0.8-0.6c0.2-0.1,0.4-0.2,0.5-0.3c0.1-0.1,0.2-0.2,0.2-0.4V10l0-0.2c0,0-0.1-0.1-0.1-0.1l-0.1-0.1V8.7
		c0-0.1,0.1-0.2,0.1-0.3c0.1-0.1,0.2-0.1,0.3-0.1h0.2c0.1,0,0.2,0.1,0.3,0.1c0.1,0.1,0.1,0.2,0.1,0.3v0.9c-0.1,0-0.2,0.1-0.2,0.1
		l0,0.2v0.9c0,0.2,0.1,0.3,0.2,0.4c0,0,0.1,0.1,0.2,0.1c0.3,0.1,0.7,0.4,1,0.7l0,0l0.1,0.1v0.6c-0.1,0-0.1,0.1-0.1,0.2
		c0,0.1,0.1,0.1,0.1,0.2l0.2,0c0.1,0,0.2,0,0.3-0.1c0.1-0.1,0.1-0.2,0.1-0.3v-0.7C14.5,11.8,14.4,11.6,14.2,11.4z"/>
	<path d="M6.5,11.5L6.5,11.5L6.5,11.5c-0.5-0.4-1-0.7-1.2-0.8v-0.6C5.4,10,5.5,9.8,5.5,9.6l0-1c0-0.6-0.5-1.2-1.2-1.2H4
		C3.4,7.5,2.8,8,2.8,8.6v1c0,0.2,0.1,0.4,0.2,0.5v0.6c-0.3,0.1-0.8,0.4-1.2,0.9l0,0c-0.2,0.1-0.3,0.4-0.3,0.7v0.7
		c0,0.1,0,0.2,0.1,0.3c0.1,0.1,0.2,0.1,0.3,0.1c0.1,0,0.2,0,0.3-0.1c0.1-0.1,0.1-0.2,0.1-0.3v-0.7l0,0l0.1-0.1
		c0.3-0.2,0.6-0.4,0.8-0.6c0.2-0.1,0.4-0.2,0.5-0.3c0.1-0.1,0.2-0.2,0.2-0.4V10l0-0.2c0,0-0.1-0.1-0.1-0.1L3.6,9.6V8.7
		c0-0.1,0.1-0.2,0.1-0.3C3.9,8.3,4,8.3,4.1,8.3h0.2c0.1,0,0.2,0.1,0.3,0.1c0.1,0.1,0.1,0.2,0.1,0.3v0.9c-0.1,0-0.2,0.1-0.2,0.1
		l0,0.2v0.9c0,0.2,0.1,0.3,0.2,0.4c0,0,0.1,0.1,0.2,0.1c0.3,0.1,0.7,0.4,1,0.7l0,0l0.1,0.1v0.7c0,0.1,0,0.2,0.1,0.3
		c0.1,0.1,0.2,0.1,0.3,0.1c0.1,0,0.2,0,0.3-0.1c0.1-0.1,0.1-0.2,0.1-0.3v-0.7v0l0,0C6.7,11.8,6.6,11.6,6.5,11.5z"/>
	<path d="M9.4,10.2L9.4,10.2l0.3,0c0.1,0,0.1-0.1,0.1-0.2h0l0-0.1c0-0.2-0.1-0.3-0.2-0.4l0,0L8.3,8.7V7.1c0-0.1,0-0.2-0.1-0.3
		C8.1,6.7,8,6.7,7.9,6.7c-0.1,0-0.2,0-0.3,0.1c0,0.1,0,0.2,0,0.3v1.6L6.2,9.5l0,0C6.1,9.6,6,9.7,6,9.8L6.1,10l0,0
		c0,0.1,0.1,0.1,0.1,0.1l0.2,0h0.1h0l1.4-0.8L9.4,10.2L9.4,10.2z"/>
</g>
</svg>
