<?xml version="1.0" encoding="utf-8"?>
<!-- Generator: Adobe Illustrator 22.1.0, SVG Export Plug-In . SVG Version: 6.00 Build 0)  -->
<svg version="1.1" id="Layer_1" xmlns="http://www.w3.org/2000/svg" xmlns:xlink="http://www.w3.org/1999/xlink" x="0px" y="0px"
	 viewBox="0 0 16 16" style="enable-background:new 0 0 16 16;" xml:space="preserve">
<g>
	<path d="M2,8c0,0.3,0.2,0.4,0.4,0.5l4.3,1.3l0.2,2.9C6.9,12.8,7,13,7.1,13h0.1c0.1,0,0.2,0,0.3-0.1l1.5-1.6l2.1,1.5
		c0.1,0.1,0.2,0.1,0.3,0.1c0.3,0,0.5-0.2,0.6-0.4l1.8-9c0-0.1,0-0.2-0.1-0.3C13.5,3,13.4,3,13.3,3.1L2.4,7.4C2.2,7.6,2,7.8,2,8z
		 M7.4,12l-0.1-1.9l1.1,0.8L7.4,12z M11.3,12.2L7.4,9.6l5.5-5.3L11.3,12.2z M12.3,4.1L6.9,9.2L2.6,7.9L12.3,4.1z"/>
	<path d="M2,8H1.9c0,0.3,0.2,0.5,0.5,0.6l0,0l4.2,1.3l0.2,2.8l0.1,0H6.8l0.1,0.2c0,0.1,0.1,0.1,0.2,0.1h0.1c0.1,0,0.2,0,0.3-0.1l0,0
		L9,11.4l2.1,1.4l0.1-0.1L11,12.8l0.2,0.1c0.1,0,0.1,0,0.2,0c0.3,0,0.6-0.2,0.7-0.5l0,0l1.8-9l0,0c0-0.1,0-0.2-0.1-0.3l0,0
		c-0.2-0.1-0.3-0.2-0.4-0.2c-0.1,0-0.2,0-0.2,0.1l0.1,0.1l0-0.1L2.3,7.3l0,0C2.1,7.5,1.9,7.7,1.9,8H2h0.1c0-0.2,0.1-0.3,0.3-0.5
		L2.4,7.4l0,0.1l10.9-4.4l0,0l0,0c0,0,0.1,0,0.2,0.1l0.1-0.1l-0.1,0.1c0.1,0.1,0.1,0.1,0.1,0.2h0.1l-0.1,0l-1.8,9l0.1,0l-0.1,0
		c-0.1,0.2-0.3,0.4-0.5,0.4c-0.1,0-0.1,0-0.2,0l-0.1,0l0,0L9,11.2l-0.1,0l-1.5,1.6l0.1,0.1l-0.1-0.1c-0.1,0.1-0.1,0.1-0.2,0.1H7.1v0
		l0,0l0,0v0l0,0l0,0L7,12.7l0,0L6.8,9.8L6.8,9.7L2.5,8.4l0,0.1l0-0.1C2.3,8.4,2.1,8.2,2.1,8H2z M7.4,12l0.1,0l-0.1-1.7l0.8,0.6
		L7.4,12L7.4,12l0.1,0L7.4,12L7.4,12l1.1-1l0-0.2l-1.1-0.8l-0.2,0.1L7.3,12L7.4,12L7.4,12z M11.3,12.2L11.3,12.2L7.6,9.6l5.1-5
		l-1.5,7.6L11.3,12.2L11.3,12.2L11.3,12.2l0.1,0L13,4.3l-0.2-0.1L7.3,9.5l0,0.2L11.3,12.2l0.1,0L11.3,12.2z M12.3,4.1L12.3,4.1
		l-5.4,5L3,7.9L12.3,4.1L12.3,4.1L12.3,4.1L12.3,4.1L12.3,4.1L2.6,7.8l0,0.2l4.3,1.3l0.1,0L12.3,4.1L12.3,4.1L12.3,4.1z"/>
</g>
</svg>
