<?xml version="1.0" encoding="utf-8"?>
<!-- Generator: Adobe Illustrator 22.1.0, SVG Export Plug-In . SVG Version: 6.00 Build 0)  -->
<svg version="1.1" id="Layer_1" xmlns="http://www.w3.org/2000/svg" xmlns:xlink="http://www.w3.org/1999/xlink" x="0px" y="0px"
	 viewBox="0 0 16 16" style="enable-background:new 0 0 16 16;" xml:space="preserve">
<g>
	<path d="M13.2,4.1c-0.2-0.2-0.3-0.3-0.6-0.3h-0.9V3.1c0-0.3-0.1-0.5-0.3-0.8C11.2,2.2,10.9,2,10.6,2h-0.4C9.9,2,9.7,2.1,9.4,2.4
		C9.3,2.6,9.2,2.9,9.2,3.1v0.6H6.7V3.1c0-0.3-0.1-0.5-0.3-0.8C6.2,2.2,5.9,2.1,5.7,2.1H5.2C5,2.1,4.7,2.2,4.5,2.5
		C4.3,2.6,4.1,2.9,4.1,3.1v0.6H3.3C3,3.7,2.8,3.8,2.7,4C2.6,4.2,2.5,4.4,2.5,4.7v8.4c0,0.3,0.1,0.4,0.3,0.6S3.1,14,3.4,14h9.3
		c0.3,0,0.4-0.1,0.6-0.3c0.2-0.2,0.3-0.3,0.3-0.6V4.7C13.4,4.4,13.3,4.2,13.2,4.1z M4.8,3.1C4.8,3,4.8,3,4.9,3c0,0,0.1-0.1,0.2-0.1
		h0.6c0.1,0,0.1,0,0.2,0.1C6,3,6.2,3,6.2,3.1v1.7c0,0.1,0,0.1-0.1,0.2C6,5,5.9,5,5.8,5H5.2C5.1,5,5.1,5,4.9,5c0,0-0.1-0.1-0.1-0.2
		C4.8,4.8,4.8,3.1,4.8,3.1z M9.8,3.1C9.8,3,9.8,3,9.9,3c0,0,0.1-0.1,0.2-0.1h0.6c0.1,0,0.1,0,0.2,0.1c0,0,0.1,0.1,0.1,0.2v1.7
		c0,0.1,0,0.1-0.1,0.2C11,5,10.9,5,10.8,5h-0.6C10,5,10,5,9.9,5c0,0-0.1-0.1-0.1-0.2C9.8,4.8,9.8,3.1,9.8,3.1z M12.6,13.1H3.4V6.3
		h9.3L12.6,13.1L12.6,13.1z"/>
</g>
</svg>
