<?xml version="1.0" encoding="utf-8"?>
<!-- Generator: Adobe Illustrator 23.0.1, SVG Export Plug-In . SVG Version: 6.00 Build 0)  -->
<svg version="1.1" id="Layer_1" xmlns="http://www.w3.org/2000/svg" xmlns:xlink="http://www.w3.org/1999/xlink" x="0px" y="0px"
	 viewBox="0 0 16 16" style="enable-background:new 0 0 16 16;" xml:space="preserve">
<path d="M12,6c0-2.206-1.794-4-4-4C5.794,2,4,3.794,4,6c0,2.038,1.537,3.706,3.51,3.95C7.508,9.968,7.5,9.982,7.5,10v3.5
	C7.5,13.776,7.724,14,8,14s0.5-0.224,0.5-0.5V10c0-0.018-0.008-0.032-0.01-0.05C10.463,9.706,12,8.038,12,6z M8,9.031
	c-1.672,0-3.031-1.36-3.031-3.031S6.328,2.969,8,2.969S11.031,4.328,11.031,6S9.672,9.031,8,9.031z"/>
</svg>
