<?xml version="1.0" encoding="utf-8"?>
<!-- Generator: Adobe Illustrator 21.0.0, SVG Export Plug-In . SVG Version: 6.00 Build 0)  -->
<svg version="1.1" id="Layer_1" xmlns="http://www.w3.org/2000/svg" xmlns:xlink="http://www.w3.org/1999/xlink" x="0px" y="0px"
	 viewBox="0 0 16 16" style="enable-background:new 0 0 16 16;" xml:space="preserve">
<path d="M11.347,2.61V2.1c0-0.442-0.358-0.8-0.8-0.8s-0.8,0.358-0.8,0.8v0.5H6.253V2.1c0-0.442-0.358-0.8-0.8-0.8
	s-0.8,0.358-0.8,0.8v0.5H4.65c-1.5,0-2.7,1.2-2.7,2.7V12c0,1.5,1.2,2.7,2.7,2.7h6.7c1.5,0,2.7-1.2,2.7-2.7V5.3
	C13.952,3.833,12.8,2.661,11.347,2.61z M12.75,11.9c0,0.6-0.5,1.2-1.2,1.2h-6.9c-0.6,0-1.2-0.5-1.2-1.2V7.8h9.3V11.9z M12.75,6.4
	h-9.3V5.3c0-0.7,0.5-1.2,1.2-1.2h0.003v0.493c0,0.442,0.358,0.8,0.8,0.8s0.8-0.358,0.8-0.8V4.1h3.494v0.493
	c0,0.442,0.358,0.8,0.8,0.8s0.8-0.358,0.8-0.8V4.1h0.203c0.6,0,1.2,0.5,1.2,1.2V6.4z"/>
</svg>
