<?xml version="1.0" encoding="utf-8"?>
<!-- Generator: Adobe Illustrator 22.1.0, SVG Export Plug-In . SVG Version: 6.00 Build 0)  -->
<svg version="1.1" id="Layer_1" xmlns="http://www.w3.org/2000/svg" xmlns:xlink="http://www.w3.org/1999/xlink" x="0px" y="0px"
	 viewBox="0 0 16 16" style="enable-background:new 0 0 16 16;" xml:space="preserve">
<style type="text/css">
	.st0{fill:none;stroke:#000000;stroke-linecap:round;stroke-linejoin:round;stroke-miterlimit:10;}
	.st1{fill:none;stroke:#000000;stroke-miterlimit:10;}
</style>
<g>
	<g>
		<path d="M28.4,3.9c-3.3,0-5.9,2.7-5.9,5.9s2.7,5.9,5.9,5.9s5.9-2.6,5.9-5.9S31.7,3.9,28.4,3.9z M28.4,14.5c-2.6,0-4.7-2.1-4.7-4.7
			s2.1-4.7,4.7-4.7s4.7,2.1,4.7,4.7S31,14.5,28.4,14.5z"/>
	</g>
	<g>
		<path d="M30.9,11.4c0.2,0.2,0.2,0.6,0,0.9c-0.1,0.1-0.3,0.2-0.4,0.2c-0.2,0-0.3-0.1-0.4-0.2l-1.7-1.6l-1.7,1.6
			c-0.1,0.1-0.3,0.2-0.4,0.2c-0.2,0-0.3-0.1-0.4-0.2c-0.2-0.2-0.2-0.6,0-0.9l1.7-1.6l-1.7-1.7c-0.2-0.2-0.2-0.6,0-0.8
			c0.2-0.2,0.6-0.2,0.8,0L28.4,9L30,7.3c0.2-0.2,0.6-0.2,0.9,0c0.2,0.2,0.2,0.6,0,0.8l-1.6,1.7L30.9,11.4z"/>
	</g>
</g>
<g>
	<path class="st0" d="M8.6,12.3H3.8C3.4,12.3,3,12,3,11.5V2.8C3,2.3,3.4,2,3.8,2h7.4c0.4,0,0.7,0.3,0.7,0.8v5.5"/>
	<circle class="st1" cx="11.4" cy="11.2" r="2.9"/>
	<line class="st0" x1="11.4" y1="10" x2="11.4" y2="12.3"/>
	<line class="st0" x1="10.2" y1="11.2" x2="12.6" y2="11.2"/>
	<line class="st0" x1="5.1" y1="4.4" x2="9.9" y2="4.4"/>
	<line class="st0" x1="5.1" y1="6.7" x2="8.6" y2="6.7"/>
	<line class="st0" x1="5.1" y1="8.8" x2="7.3" y2="8.8"/>
</g>
</svg>
