<?xml version="1.0" encoding="utf-8"?>
<!-- Generator: Adobe Illustrator 22.1.0, SVG Export Plug-In . SVG Version: 6.00 Build 0)  -->
<svg version="1.1" id="Layer_1" xmlns="http://www.w3.org/2000/svg" xmlns:xlink="http://www.w3.org/1999/xlink" x="0px" y="0px"
	 viewBox="0 0 16 16" style="enable-background:new 0 0 16 16;" xml:space="preserve">
<path d="M11.4,5.9h2.1c0.4,0,0.6,0.2,0.6,0.6c0,0.4-0.2,0.6-0.6,0.6h-2.1c-0.4,0-0.6-0.2-0.6-0.6C10.8,6.1,11,5.9,11.4,5.9z
	 M9.6,4.1h2.1c0.4,0,0.6,0.2,0.6,0.6s-0.2,0.6-0.6,0.6H9.6C9.2,5.3,9,5,9,4.7S9.2,4.1,9.6,4.1z M12.3,12.4H4c-0.3,0-0.6-0.3-0.6-0.6
	V3.5c0-0.3,0.3-0.6,0.6-0.6h1.6C5.8,2.9,6,3,6.1,3.1l6.7,6.7c0.1,0.1,0.2,0.3,0.2,0.4v1.6C12.9,12.2,12.7,12.4,12.3,12.4z M4.6,11.2
	h7.2v-0.8L5.4,4.1H4.6V11.2z"/>
</svg>
