<?xml version="1.0" encoding="utf-8"?>
<!-- Generator: Adobe Illustrator 22.1.0, SVG Export Plug-In . SVG Version: 6.00 Build 0)  -->
<svg version="1.1" id="Layer_1" xmlns="http://www.w3.org/2000/svg" xmlns:xlink="http://www.w3.org/1999/xlink" x="0px" y="0px"
	 viewBox="0 0 20 16" style="enable-background:new 0 0 20 16;" xml:space="preserve">
<g>
	<path d="M18.7,2.3H6.9c-0.3,0-0.6,0.3-0.6,0.6v1.4H3.7L3.4,4.4l-0.1,0l-2.6,4l0,0l0,0.2l0,0v3.1c0,0.3,0.3,0.6,0.6,0.6h1.2
		c0.3,0.8,1,1.4,1.9,1.4c0.9,0,1.6-0.6,1.9-1.4h0.6h6.3c0.3,0.8,1,1.4,1.9,1.4c0.9,0,1.6-0.6,1.9-1.4h1.7c0.3,0,0.6-0.3,0.6-0.6V2.8
		C19.3,2.5,19,2.3,18.7,2.3z M4.4,12.6c-0.4,0-0.8-0.4-0.8-0.8c0-0.4,0.4-0.8,0.8-0.8c0.4,0,0.8,0.4,0.8,0.8
		C5.2,12.2,4.8,12.6,4.4,12.6z M6.3,11.2L6.3,11.2c-0.3-0.8-1-1.4-1.9-1.4c-0.9,0-1.6,0.6-1.9,1.4H1.9V8.9L2,8.7l2-3.1l0.2-0.2h2.2
		V11.2z M15.8,12c-0.1,0.3-0.4,0.6-0.8,0.6c-0.4,0-0.8-0.4-0.8-0.8c0-0.4,0.4-0.8,0.8-0.8c0.4,0,0.7,0.3,0.8,0.6V12z M18.1,11.2H17
		c-0.3-0.8-1-1.4-1.9-1.4c-0.9,0-1.6,0.6-1.9,1.4H7.5V4.8V3.4h10.6V11.2z"/>
	<rect x="1.9" y="8.3" width="5" height="0.6"/>
</g>
</svg>
