<?xml version="1.0" encoding="utf-8"?>
<!-- Generator: Adobe Illustrator 22.1.0, SVG Export Plug-In . SVG Version: 6.00 Build 0)  -->
<svg version="1.1" id="Layer_1" xmlns="http://www.w3.org/2000/svg" xmlns:xlink="http://www.w3.org/1999/xlink" x="0px" y="0px"
	 viewBox="0 0 16 16" style="enable-background:new 0 0 16 16;" xml:space="preserve">
<g>
	<g>
		<path d="M4.5,7h7.1c0.1,0,0.3,0,0.4-0.1c0-0.1,0-0.3,0-0.4s0-0.3-0.1-0.4L8.4,2.6C8.3,2.5,8.1,2.5,8,2.5s-0.3,0-0.4,0.1L4.1,6.2
			C4,6.3,4,6.4,4,6.5c0,0.1,0,0.3,0.1,0.4S4.3,7,4.5,7z"/>
		<path d="M11.5,9h-7C4.4,9,4.2,9,4.1,9.1C4,9.3,4,9.4,4,9.5s0,0.3,0.1,0.4l3.5,3.5c0.1,0.1,0.2,0.1,0.4,0.1c0.1,0,0.3,0,0.4-0.1
			l3.5-3.5C12,9.8,12,9.7,12,9.5c0-0.1,0-0.3-0.1-0.4C11.8,9.1,11.7,9,11.5,9z"/>
	</g>
</g>
</svg>
