<?xml version="1.0" encoding="utf-8"?>
<!-- Generated by IcoMoon.io -->
<!DOCTYPE svg PUBLIC "-//W3C//DTD SVG 1.1//EN" "http://www.w3.org/Graphics/SVG/1.1/DTD/svg11.dtd">
<svg version="1.1" xmlns="http://www.w3.org/2000/svg" xmlns:xlink="http://www.w3.org/1999/xlink" width="16" height="16" viewBox="0 0 16 16">
<path d="M14 11.3v-6.6h-12v6.7h12zM13.1 9.2v1.2h-1.2c0.1-0.3 0.3-0.5 0.5-0.7s0.4-0.4 0.7-0.5zM13.1 5.6v1.2c-0.3-0.1-0.5-0.3-0.7-0.5s-0.3-0.5-0.5-0.7h1.2zM3.8 6.6c-0.3 0.3-0.5 0.4-0.8 0.5l-0.1-1.5h1.5c-0.1 0.4-0.3 0.7-0.6 1zM2.9 10.4v-1.2c0.3 0.1 0.5 0.3 0.8 0.5 0.2 0.2 0.3 0.3 0.5 0.6l-1.3 0.1zM5.2 10.4c-0.2-0.5-0.4-0.9-0.7-1.3-0.5-0.4-1-0.7-1.6-0.8v-0.1c0.6-0.2 1.1-0.5 1.6-0.9 0.5-0.5 0.7-1 0.9-1.7h5.6c0.1 0.5 0.3 1 0.7 1.4s0.9 0.6 1.3 0.8v0.4c-0.5 0.1-1 0.5-1.4 0.9s-0.6 0.9-0.8 1.3h-5.6zM9.3 6.7c-0.7-0.7-1.9-0.7-2.7 0s-0.7 1.9 0 2.7c0.7 0.7 1.9 0.7 2.7 0 0.8-0.8 0.8-2 0-2.7zM7.3 8.7c-0.4-0.4-0.4-0.9 0-1.3s0.9-0.4 1.3 0c0.4 0.4 0.4 0.9 0 1.3-0.3 0.4-0.9 0.4-1.3 0z"></path>
</svg>
