<?xml version="1.0" encoding="utf-8"?>
<!-- Generator: Adobe Illustrator 21.0.0, SVG Export Plug-In . SVG Version: 6.00 Build 0)  -->
<svg version="1.1" id="Layer_1" xmlns="http://www.w3.org/2000/svg" xmlns:xlink="http://www.w3.org/1999/xlink" x="0px" y="0px"
	 viewBox="0 0 16 16" style="enable-background:new 0 0 16 16;" xml:space="preserve">
<path d="M8,15.3c-4.1,0-7.3-3.2-7.3-7.3c0-4.1,3.2-7.3,7.3-7.3c4.1,0,7.3,3.2,7.3,7.3C15.3,12.1,12.1,15.3,8,15.3z M4.8,12.8
	c1,0.7,2.1,1,3.2,1c1.2,0,2.3-0.3,3.2-1c-0.7-1.1-1.9-1.7-3.2-1.7C6.7,11.1,5.6,11.7,4.8,12.8z M8,9.5c1.8,0,3.3,0.8,4.4,2.2
	c0.9-1.1,1.4-2.4,1.4-3.7c0-3.2-2.6-5.8-5.8-5.8C4.9,2.2,2.3,4.9,2.3,8c0,1.4,0.5,2.7,1.3,3.7C4.7,10.3,6.2,9.5,8,9.5z M8,9.2
	C6.4,9.2,5.2,8,5.2,6.4S6.4,3.6,8,3.6s2.8,1.2,2.8,2.8S9.6,9.2,8,9.2z M8,5C7.3,5,6.7,5.7,6.7,6.3C6.7,7,7.4,7.6,8,7.6
	c0.6,0,1.3-0.6,1.3-1.3C9.3,5.6,8.7,5,8,5z"/>
</svg>
