<?xml version="1.0" encoding="utf-8"?>
<!-- Generator: Adobe Illustrator 22.1.0, SVG Export Plug-In . SVG Version: 6.00 Build 0)  -->
<svg version="1.1" id="Layer_1" xmlns="http://www.w3.org/2000/svg" xmlns:xlink="http://www.w3.org/1999/xlink" x="0px" y="0px"
	 viewBox="0 0 16 16" style="enable-background:new 0 0 16 16;" xml:space="preserve">
<path d="M15,8c0-2.8-2.2-5-5-5C9.7,3,9.5,3.2,9.5,3.5v4C9.5,7.8,9.7,8,10,8s0.5-0.2,0.5-0.5V4c2,0.3,3.5,2,3.5,4c0,2.2-1.8,4-4,4
	s-4-1.8-4-4c0-1.1,0.4-2.1,1.2-2.8c0.2-0.2,0.2-0.5,0-0.7s-0.5-0.2-0.7,0C5.5,5.4,5,6.7,5,8c0,2.8,2.2,5,5,5S15,10.8,15,8z"/>
<path d="M4,6.5H2.4C2.1,6.5,1.9,6.3,1.9,6s0.2-0.5,0.5-0.5H4c0.3,0,0.5,0.2,0.5,0.5S4.3,6.5,4,6.5z"/>
<path d="M3.5,8c0-0.3-0.2-0.5-0.5-0.5H1.4C1.1,7.5,0.9,7.7,0.9,8s0.2,0.5,0.5,0.5H3C3.3,8.5,3.5,8.3,3.5,8z"/>
<path d="M4.5,10.1c0-0.3-0.2-0.5-0.5-0.5H2.4c-0.3,0-0.5,0.2-0.5,0.5s0.2,0.5,0.5,0.5H4C4.3,10.6,4.5,10.4,4.5,10.1z"/>
</svg>
