<?xml version="1.0" encoding="utf-8"?>
<!-- Generated by IcoMoon.io -->
<!DOCTYPE svg PUBLIC "-//W3C//DTD SVG 1.1//EN" "http://www.w3.org/Graphics/SVG/1.1/DTD/svg11.dtd">
<svg version="1.1" xmlns="http://www.w3.org/2000/svg" xmlns:xlink="http://www.w3.org/1999/xlink" width="16" height="16" viewBox="0 0 16 16">
<path d="M9 7v-5h-7v12h12v-7h-5zM3 3h5v4h-1v-2.5h-3v2.5h-1v-4zM8 11h-1v-1h1v1zM9 10h1.5v1h-1.5v-1zM6 7h-1v-1.5h1v1.5zM6 8v1h-1v-1h1zM6 10v1h-1v-1h1zM7 9v-1h1v1h-1zM3 8h1v1h-1v-1zM3 10h1v1h-1v-1zM3 13v-1h1v1h-1zM5 13v-1h1v1h-1zM7 13v-1h1v1h-1zM13 13h-4v-1h2.5v-3h-2.5v-1h4v5z"></path>
</svg>
