<?xml version="1.0" encoding="utf-8"?>
<!-- Generator: Adobe Illustrator 22.1.0, SVG Export Plug-In . SVG Version: 6.00 Build 0)  -->
<svg version="1.1" id="Layer_1" xmlns="http://www.w3.org/2000/svg" xmlns:xlink="http://www.w3.org/1999/xlink" x="0px" y="0px"
	 viewBox="0 0 16 16" style="enable-background:new 0 0 16 16;" xml:space="preserve">
<path d="M13.5,3C12.7,3,12,3.7,12,4.5c0,0.4,0.1,0.7,0.3,0.9L10.8,8c-0.1,0-0.2,0-0.3,0c-0.4,0-0.7,0.1-0.9,0.3L7,6.8
	c0-0.1,0-0.2,0-0.3C7,5.7,6.3,5,5.5,5S4,5.7,4,6.5c0,0.4,0.2,0.8,0.4,1L2.7,11c-0.1,0-0.1,0-0.2,0C1.7,11,1,11.7,1,12.5
	S1.7,14,2.5,14S4,13.3,4,12.5c0-0.4-0.2-0.8-0.4-1L5.3,8c0.1,0,0.1,0,0.2,0c0.4,0,0.7-0.1,0.9-0.3L9,9.2c0,0.1,0,0.2,0,0.3
	c0,0.8,0.7,1.5,1.5,1.5S12,10.3,12,9.5c0-0.4-0.1-0.7-0.3-0.9L13.2,6c0.1,0,0.2,0,0.3,0C14.3,6,15,5.3,15,4.5S14.3,3,13.5,3z"/>
</svg>
