<?xml version="1.0" encoding="utf-8"?>
<!-- Generator: Adobe Illustrator 22.1.0, SVG Export Plug-In . SVG Version: 6.00 Build 0)  -->
<svg version="1.1" id="Layer_1" xmlns="http://www.w3.org/2000/svg" xmlns:xlink="http://www.w3.org/1999/xlink" x="0px" y="0px"
	 viewBox="0 0 16 16" style="enable-background:new 0 0 16 16;" xml:space="preserve">
<path d="M12.6,12.2H3.4c-0.7,0-1.4-0.6-1.4-1.4V5.2c0-0.7,0.6-1.4,1.4-1.4H5l0.6-0.6c0.2-0.2,0.6-0.4,0.9-0.4h3c0.4,0,0.7,0.2,1,0.4
	L11,3.9h1.7c0.7,0,1.4,0.6,1.4,1.4v5.5C14,11.5,13.4,12.2,12.6,12.2z M3.4,4.8C3.1,4.8,2.9,5,2.9,5.2v5.5c0,0.3,0.2,0.5,0.5,0.5h9.2
	c0.3,0,0.5-0.2,0.5-0.5V5.2c0-0.3-0.2-0.5-0.5-0.5h-2L9.8,4C9.7,4,9.6,3.9,9.5,3.9h-3C6.4,3.9,6.3,4,6.2,4L5.4,4.8H3.4z M8,10.3
	c-1.3,0-2.3-1-2.3-2.3s1-2.3,2.3-2.3s2.3,1,2.3,2.3S9.3,10.3,8,10.3z M8,6.6C7.3,6.6,6.6,7.3,6.6,8S7.3,9.4,8,9.4S9.4,8.8,9.4,8
	S8.7,6.6,8,6.6z"/>
</svg>
