<?xml version="1.0" encoding="utf-8"?>
<!-- Generator: Adobe Illustrator 22.1.0, SVG Export Plug-In . SVG Version: 6.00 Build 0)  -->
<svg version="1.1" id="Layer_1" xmlns="http://www.w3.org/2000/svg" xmlns:xlink="http://www.w3.org/1999/xlink" x="0px" y="0px"
	 viewBox="0 0 16 16" style="enable-background:new 0 0 16 16;" xml:space="preserve">
<g id="thermomter" transform="translate(-98.2 -2)">
	<path d="M110.1,4.2c0,0.2-0.2,0.4-0.4,0.4h-0.4c-0.2,0-0.4-0.2-0.4-0.4c0-0.2,0.2-0.4,0.4-0.4h0.4C109.9,3.8,110.1,4,110.1,4.2z"/>
	<path d="M110.9,5.8c0,0.2-0.1,0.4-0.4,0.4h-1.2c-0.2,0-0.4-0.2-0.4-0.4c0-0.2,0.2-0.4,0.4-0.4h1.2C110.7,5.4,110.9,5.6,110.9,5.8z"
		/>
	<path d="M110.1,7.3c0,0.2-0.2,0.4-0.4,0.4h-0.4c-0.2,0-0.4-0.2-0.4-0.4c0-0.2,0.2-0.4,0.4-0.4h0.4C109.9,7,110.1,7.1,110.1,7.3z"/>
	<path d="M110.9,8.9c0,0.2-0.2,0.4-0.4,0.4h-1.2c-0.2,0-0.4-0.2-0.4-0.4c0-0.2,0.2-0.4,0.4-0.4h1.2C110.7,8.5,110.9,8.7,110.9,8.9z"
		/>
	<path d="M108.2,9.6V5c0-1.1-0.9-2-2-2c-0.6,0-1.1,0.2-1.4,0.6c-0.4,0.4-0.6,0.9-0.6,1.4v4.6c-1.9,1.1-2.5,3.6-1.4,5.4
		c0.7,1.2,2,2,3.4,2c1.1,0,2.1-0.4,2.8-1.2c0.7-0.7,1.2-1.7,1.2-2.8C110.1,11.6,109.4,10.3,108.2,9.6z M106.2,16.2L106.2,16.2
		c-1.8,0-3.2-1.4-3.2-3.2c0-1.2,0.7-2.3,1.7-2.8c0.1-0.1,0.2-0.2,0.2-0.4V5c0-0.7,0.6-1.2,1.2-1.2s1.2,0.6,1.2,1.2v4.8
		c0,0.1,0.1,0.3,0.2,0.3c1.6,0.8,2.2,2.7,1.4,4.3C108.4,15.6,107.4,16.2,106.2,16.2z"/>
	<path d="M106.5,15.4c-1.3,0.2-2.6-0.7-2.8-2c-0.2-1.3,0.7-2.6,2-2.8V5.1c0-0.2,0.2-0.4,0.4-0.4c0.2,0,0.4,0.2,0.4,0.4v5.5
		c1,0.2,1.8,1,2,2C108.8,14,107.9,15.2,106.5,15.4z"/>
</g>
</svg>
