<?xml version="1.0" encoding="utf-8"?>
<!-- Generator: Adobe Illustrator 22.1.0, SVG Export Plug-In . SVG Version: 6.00 Build 0)  -->
<svg version="1.1" id="Layer_1" xmlns="http://www.w3.org/2000/svg" xmlns:xlink="http://www.w3.org/1999/xlink" x="0px" y="0px"
	 viewBox="0 0 16 16" style="enable-background:new 0 0 16 16;" xml:space="preserve">
<path d="M13.9,6.9c-0.4,0-0.8,0.2-0.9,0.5H5.7C5.6,7.1,5.4,6.8,5,6.6c0.3-1.1,1.3-2.4,3.6-2.4h0.6c0.2,0.3,0.5,0.5,1,0.5
	c0.6,0,1.1-0.4,1.1-1.1c0-0.6-0.4-1.1-1.1-1.1c-0.4,0-0.8,0.2-0.9,0.5H8.5C7.1,3.2,6,3.6,5.1,4.4C4.6,5.1,4.1,5.7,4,6.4
	C3.5,6.5,2.9,6.9,2.7,7.5H1.5C1.2,7.5,1,7.7,1,8s0.2,0.5,0.5,0.5h1.2c0.2,0.5,0.6,1,1.3,1.1c0.2,0.6,0.5,1.4,1.2,1.9
	c0.9,0.9,2,1.3,3.4,1.3H11c0.2,0.3,0.5,0.5,0.9,0.5c0.6,0,1.1-0.4,1.1-1.1c0-0.6-0.4-1.1-1.1-1.1c-0.4,0-0.8,0.2-1,0.5H8.5
	c-2.3,0-3.1-1.3-3.6-2.4c0.3-0.2,0.5-0.5,0.8-0.9H13c0.2,0.3,0.5,0.5,1,0.5C14.6,9.1,15,8.6,15,8C15,7.4,14.6,6.9,13.9,6.9z
	 M10.3,3.3c0.2,0,0.4,0.2,0.4,0.4c0,0.2-0.2,0.4-0.4,0.4c-0.2,0-0.4-0.2-0.4-0.4C9.8,3.5,10,3.3,10.3,3.3z M11.9,11.9
	c0.2,0,0.4,0.2,0.4,0.4c0,0.2-0.2,0.4-0.4,0.4c-0.2,0-0.4-0.2-0.4-0.4C11.4,12.1,11.6,11.9,11.9,11.9z M4.1,8.8
	C3.7,8.8,3.4,8.4,3.4,8s0.3-0.8,0.8-0.8S4.9,7.6,4.9,8S4.5,8.8,4.1,8.8z M14,8.4c-0.2,0-0.4-0.2-0.4-0.4c0-0.2,0.2-0.4,0.4-0.4
	c0.2,0,0.4,0.2,0.4,0.4C14.5,8.2,14.3,8.4,14,8.4z"/>
</svg>
