<?xml version="1.0" encoding="utf-8"?>
<!-- Generator: Adobe Illustrator 22.1.0, SVG Export Plug-In . SVG Version: 6.00 Build 0)  -->
<svg version="1.1" id="Layer_1" xmlns="http://www.w3.org/2000/svg" xmlns:xlink="http://www.w3.org/1999/xlink" x="0px" y="0px"
	 viewBox="0 0 16 16" style="enable-background:new 0 0 16 16;" xml:space="preserve">
<g>
	<g>
		<path d="M14.6,10.7c0.2-0.2,0.4-0.5,0.4-0.8c0-0.1,0-0.4-0.1-0.5l0,0l0,0l0,0l0,0c-0.2-0.4-0.6-0.6-1.1-0.6
			c-0.2,0-0.3,0.1-0.6,0.2h-0.1c-0.4,0.1-1.2,0.6-2,0.9l0,0c-0.1,0-0.2,0.1-0.2,0.1v0.2c0,0.1,0.1,0.2,0.1,0.2h0.2l0,0l0,0
			c0.9-0.4,2.1-0.9,2.1-0.9l0,0h0.2c0.2,0,0.4,0.1,0.4,0.2l0,0l0,0V10c0,0.1-0.1,0.3-0.2,0.5c-0.6,0.5-1.4,1.2-2.3,1.7
			c-0.9,0.6-1.9,1.2-2.2,1.2c-0.9,0-3.7-0.6-4.5-0.8V9.5c0.3,0,0.6-0.1,0.8-0.1C6.3,9.3,7,9.6,8.1,10l0,0l0,0c0.5,0.1,1,0.3,1.6,0.6
			l0,0l0,0c0,0,0.1,0.1,0.1,0.2V11c0,0.1-0.1,0.1-0.1,0.2c0,0-0.1,0.1-0.2,0.1c-0.2-0.1-0.8-0.1-1.5-0.2C7.3,11,6.7,11,6.7,11
			c-0.2,0-0.4,0.1-0.4,0.1l0,0v0.1c0,0.2,0.1,0.4,0.1,0.4l0,0l0,0c0,0,2.4,0.4,2.8,0.4c0.1,0,0.1,0,0.1,0c0.6,0,0.8-0.5,0.9-0.8
			c0-0.1,0-0.2,0-0.4c0-0.3-0.2-0.7-0.6-0.9l0,0l0,0C9.1,9.6,8.6,9.5,8.1,9.2l0,0l0,0C7,8.8,6.3,8.5,5.3,8.5c-0.2,0-0.5,0-0.8,0
			c0-0.4-0.1-0.4-0.1-0.4H4.2v0.1c0-0.2-0.1-0.4-0.4-0.4H1.4C1.1,7.9,1,8.1,1,8.3v5.2c0,0.2,0.1,0.4,0.3,0.4h2.5
			c0.2,0,0.4-0.1,0.4-0.4v-0.1h0.5c0.2,0,0.3-0.1,0.3-0.2c0.9,0.2,3.5,0.7,4.5,0.7c0.7,0,1.6-0.5,3.1-1.5l0,0l0,0l0,0l0,0
			C13.7,11.6,14.6,10.7,14.6,10.7L14.6,10.7z M3.6,8.6v4.6H3.3H2.9H1.7V8.6H3.6z M4.6,12.7V13v0.1H3.9V8.9h0.6v0.4v3.5H4.6z"/>
		<path d="M10.7,11.1L10.7,11.1L10.7,11.1z"/>
	</g>
	<g>
		<path d="M14.2,2.1H4.7v2.3l0,0v0.2v0.6v0.2l0,0v1.9h2h0.6h4.4h0.6h1.9L14.2,2.1z M13.6,4.2C13.4,4.1,13.2,4.1,13,4
			c-0.3-0.2-0.7-0.7-0.7-1.4h1.3V4.2z M6.6,2.6c0,0.8-0.5,1.3-0.9,1.5C5.5,4.2,5.4,4.2,5.3,4.2V2.6H6.6z M5.3,6.9V5.7
			C5.5,5.8,5.7,5.8,5.9,6c0.2,0.2,0.6,0.5,0.7,0.9H5.3z M7.2,6.9C7.1,6.1,6.5,5.6,6,5.4C5.8,5.1,5.5,5.1,5.3,5V4.9
			c0.2,0,0.5-0.1,0.7-0.2c0.6-0.4,1.2-0.9,1.3-2h4.4c0,1.1,0.7,1.8,1.3,2c0.2,0.1,0.5,0.2,0.7,0.2V5c-0.2,0-0.5,0.1-0.7,0.2
			c-0.5,0.2-1.1,0.8-1.2,1.5H7.2V6.9z M12.3,6.9c0.2-1,1.3-1.3,1.4-1.3v1.3H12.3z"/>
		<path d="M9.5,3.6c-0.6,0-1.1,0.5-1.1,1s0.5,1.1,1.1,1.1c0.6,0,1-0.5,1-1.1C10.6,4.1,10.1,3.6,9.5,3.6z M9.5,5.1
			c-0.2,0-0.5-0.2-0.5-0.5c0-0.2,0.2-0.5,0.5-0.6c0.2,0,0.5,0.2,0.5,0.6C10,4.9,9.8,5.1,9.5,5.1z"/>
	</g>
</g>
</svg>
