<?xml version="1.0" encoding="utf-8"?>
<!-- Generator: Adobe Illustrator 22.1.0, SVG Export Plug-In . SVG Version: 6.00 Build 0)  -->
<svg version="1.1" id="Layer_1" xmlns="http://www.w3.org/2000/svg" xmlns:xlink="http://www.w3.org/1999/xlink" x="0px" y="0px"
	 viewBox="0 0 16 16" style="enable-background:new 0 0 16 16;" xml:space="preserve">
<g>
	<path d="M8,2C4.6,2,2,4.6,2,8s2.6,6,6,6c3.4,0,6-2.6,6-6S11.4,2,8,2z M8,12.8c-2.6,0-4.8-2.2-4.8-4.8S5.4,3.2,8,3.2
		c2.7,0,4.8,2.2,4.8,4.8S10.6,12.8,8,12.8z"/>
	<path d="M11.2,7.5H8.5V4.3C8.5,4,8.3,3.8,8,3.8S7.5,4,7.5,4.3h0V8c0,0.1,0.1,0.3,0.1,0.4C7.7,8.4,7.9,8.5,8,8.5h3.2
		c0.3,0,0.5-0.2,0.5-0.5S11.5,7.5,11.2,7.5z"/>
</g>
</svg>
