<?xml version="1.0" encoding="utf-8"?>
<!-- Generator: Adobe Illustrator 22.1.0, SVG Export Plug-In . SVG Version: 6.00 Build 0)  -->
<svg version="1.1" id="Layer_1" xmlns="http://www.w3.org/2000/svg" xmlns:xlink="http://www.w3.org/1999/xlink" x="0px" y="0px"
	 viewBox="0 0 16 16" style="enable-background:new 0 0 16 16;" xml:space="preserve">
<path d="M13.3,9.6l-0.4-0.3c-0.5-0.5-1-0.9-1.3-1.4c-0.3-0.7-0.4-1.6-0.4-2.4V5.2C11.2,3.4,9.8,2,8,2C6.3,2,4.9,3.3,4.8,5h0l0,0
	c0,0.4,0.3,0.8,0.8,0.8S6.3,5.4,6.3,5l0,0C6.4,4.3,7,3.6,7.7,3.5c1.1-0.2,2,0.6,2,1.7v0.2c0,1,0.1,2.1,0.6,3.1
	c0.3,0.6,0.7,1,1.1,1.4c0.3,0.2,0.2,0.7-0.1,0.8C10.6,11,9.5,11.3,8,11.3c-1.5,0-2.6-0.3-3.3-0.6c-0.3-0.1-0.4-0.6-0.1-0.8
	C5,9.5,5.5,9.1,5.7,8.5C6,8,6.1,7.5,6.2,7h0c0-0.4-0.3-0.8-0.8-0.8C5,6.2,4.7,6.6,4.7,7h0C4.6,7.3,4.5,7.6,4.4,7.8
	c-0.3,0.5-0.8,1-1.3,1.4L2.7,9.6C2.5,9.7,2.5,10,2.5,10.2c0.1,1.5,2.3,2.4,4.8,2.6v0.5C7.2,13.7,7.6,14,8,14s0.8-0.3,0.8-0.8v-0.5
	c2.4-0.1,4.7-1,4.8-2.6C13.5,10,13.5,9.7,13.3,9.6z"/>
</svg>
