<?xml version="1.0" standalone="no"?>
<!DOCTYPE svg PUBLIC "-//W3C//DTD SVG 1.1//EN" "http://www.w3.org/Graphics/SVG/1.1/DTD/svg11.dtd" >
<svg xmlns="http://www.w3.org/2000/svg">
<metadata>
<json>
<![CDATA[
{
	"fontFamily": "sendicon",
	"majorVersion": 2,
	"minorVersion": 0,
	"fontURL": "https://www.sendit.asia",
	"copyright": "2017",
	"designer": "Sittipong HAUS",
	"designerURL": "https://www.sittipong.com",
	"description": "Sendicon V2\nFont generated by IcoMoon.",
	"version": "Version 2.0",
	"fontId": "sendicon",
	"psName": "sendicon",
	"subFamily": "Regular",
	"fullName": "sendicon"
}
]]>
</json>
</metadata>
<defs>
<font id="sendicon" horiz-adv-x="1024">
<font-face units-per-em="1024" ascent="960" descent="-64" />
<missing-glyph horiz-adv-x="1024" />
<glyph unicode="&#x20;" horiz-adv-x="512" d="" />
<glyph unicode="&#xe901;" glyph-name="icon-add" data-tags="icon-add" d="M844.8 492.8h-281.6v294.4c0 25.6-25.6 44.8-51.2 44.8s-51.2-19.2-44.8-44.8v-294.4h-294.4c-25.6 0-44.8-19.2-44.8-44.8s19.2-51.2 44.8-51.2h294.4v-288c0-25.6 19.2-44.8 44.8-44.8s51.2 19.2 51.2 51.2v281.6h288c25.6 0 44.8 25.6 44.8 51.2s-19.2 51.2-51.2 44.8z" />
<glyph unicode="&#xe902;" glyph-name="icon-alarm2" data-tags="icon-alarm" d="M864.96 305.728c2.176 15.808-3.648 31.808-15.744 42.496l-23.36 20.16c-34.112 29.12-66.304 56.64-84.096 91.008-22.144 42.56-25.152 100.928-25.152 152.384v15.424c-0.064 112.896-91.904 204.8-204.8 204.8-112.768 0-204.544-91.904-204.544-204.8v-15.36c0-51.712-2.944-110.208-24.896-152.384-17.856-34.432-50.112-61.952-84.224-91.072l-23.296-20.16c-12.032-10.624-17.664-26.432-15.616-42.048 5.632-98.624 149.568-154.368 304.768-163.904v-30.208c0-26.56 21.504-48.064 48-48.064s48 21.504 48 48v30.208c155.008 9.536 298.88 65.152 304.96 163.52zM512.064 236.608c-137.664 0-221.824 37.44-248.128 61.76 36.928 31.552 77.888 67.392 103.616 116.864 31.424 60.48 35.712 133.376 35.712 196.608v15.36c0 60.032 48.704 108.864 108.544 108.864 59.968 0 108.736-48.832 108.736-108.864v-15.36c0-63.040 4.224-135.808 35.904-196.608 25.664-49.472 66.752-85.376 103.68-116.928-26.368-24.32-110.528-61.696-248.064-61.696z" />
<glyph unicode="&#xe903;" glyph-name="icon-arrow-left" data-tags="icon-arrow-left" d="M76.8 480l345.6 345.6c19.2 19.2 51.2 19.2 70.4 0s19.2-51.2 0-70.4l-262.4-256h684.8c25.6 0 44.8-25.6 44.8-51.2s-19.2-51.2-51.2-51.2h-678.4l262.4-262.4c19.2-19.2 19.2-51.2 0-70.4-6.4-6.4-19.2-12.8-32-12.8s-32 12.8-38.4 19.2l-345.6 345.6c-19.2 19.2-19.2 44.8 0 64z" />
<glyph unicode="&#xe904;" glyph-name="icon-arrow-right" data-tags="icon-arrow-right" d="M947.2 480l-345.6 345.6c-19.2 19.2-51.2 19.2-70.4 0s-19.2-51.2 0-70.4l262.4-262.4h-678.4c-32 6.4-51.2-19.2-51.2-44.8s19.2-51.2 51.2-51.2h684.8l-262.4-262.4c-19.2-19.2-19.2-51.2 0-70.4 6.4-6.4 19.2-12.8 32-12.8s25.6 6.4 32 12.8l345.6 345.6c19.2 25.6 19.2 51.2 0 70.4z" />
<glyph unicode="&#xe905;" glyph-name="icon-attachment" data-tags="icon-attachment" d="M960 448c0-57.6-19.2-102.4-51.2-134.4-38.4-38.4-96-57.6-166.4-57.6h-537.6c-12.8 0-51.2 0-83.2 25.6-25.6 19.2-57.6 57.6-57.6 115.2s25.6 96 51.2 108.8c25.6 19.2 57.6 25.6 89.6 25.6h544c12.8 0 51.2 0 76.8-25.6 12.8-12.8 25.6-38.4 25.6-64 0-19.2-6.4-38.4-19.2-51.2v0c-19.2-19.2-44.8-25.6-83.2-25.6h-537.6c-12.8 0-25.6 12.8-25.6 25.6s12.8 25.6 25.6 25.6h537.6c25.6 0 38.4 6.4 38.4 12.8 0 0 0 0 0 0s6.4 6.4 6.4 12.8c0 12.8 0 19.2-6.4 25.6s-25.6 6.4-38.4 6.4h-544c-6.4 0-32 0-51.2-19.2-25.6-6.4-32-25.6-32-57.6 0-25.6 12.8-51.2 32-64 12.8-12.8 38.4-19.2 51.2-19.2h537.6c70.4 0 160 25.6 160 134.4s-89.6 134.4-160 134.4h-467.2c-12.8 0-25.6 12.8-25.6 25.6s12.8 25.6 25.6 25.6h467.2c134.4 6.4 217.6-64 217.6-185.6z" />
<glyph unicode="&#xe906;" glyph-name="icon-bag" data-tags="icon-bag" d="M780.8 780.8h-96v64c0 19.2-12.8 32-32 32h-192c-12.8 6.4-25.6-12.8-25.6-32v-64h-192c-19.2 0-38.4-12.8-38.4-25.6v-384c0-19.2 12.8-32 32-32h64v-288c0-19.2 12.8-32 32-32h448c19.2 0 32 12.8 32 32v704c6.4 12.8-12.8 25.6-32 25.6zM755.2 652.8h-384v64h384v-64zM499.2 819.2h128v-32h-128v32zM307.2 716.8v-64h-38.4v64h38.4zM268.8 396.8v192h32v-192h-32zM627.2 371.2h-128c0 0 0 0 0 0v25.6h128v-25.6zM499.2 76.8v224c0 0 0 0 0 0h128v-224h-128zM691.2 76.8v358.4c0 19.2-12.8 32-32 32h-192c-19.2-6.4-32-19.2-32-32v-352h-64v505.6h384v-512h-64z" />
<glyph unicode="&#xe907;" glyph-name="icon-barcode" data-tags="icon-barcode" d="M192 832h-128c-19.2 0-32-12.8-32-32v-128c0-19.2 12.8-32 32-32s32 12.8 32 32v96h96c19.2 0 32 12.8 32 32s-12.8 32-32 32zM960 256c-19.2 0-32-12.8-32-32v-96h-96c-19.2 0-32-12.8-32-32s12.8-32 32-32h128c19.2 0 32 12.8 32 32v128c0 19.2-12.8 32-32 32zM960 832h-128c-19.2 0-32-12.8-32-32s12.8-32 32-32h89.6v-89.6c6.4-25.6 19.2-38.4 38.4-38.4s32 12.8 32 32v128c0 19.2-12.8 32-32 32zM192 128h-96v89.6c0 25.6-12.8 38.4-32 38.4s-32-12.8-32-32v-128c0-19.2 12.8-32 32-32h128c19.2 0 32 12.8 32 32s-12.8 32-32 32zM224 640h57.6v-396.8h-57.6v396.8zM332.8 640h57.6v-396.8h-57.6v396.8zM435.2 640h57.6v-396.8h-57.6v396.8zM544 640h57.6v-396.8h-57.6v396.8zM652.8 640h57.6v-396.8h-57.6v396.8zM755.2 640h57.6v-396.8h-57.6v396.8z" />
<glyph unicode="&#xe908;" glyph-name="icon-calendar" data-tags="icon-calendar" d="M844.8 697.6c-12.8 12.8-19.2 19.2-38.4 19.2h-57.6v44.8c0 19.2-6.4 32-19.2 51.2-12.8 6.4-32 19.2-51.2 19.2h-25.6c-19.2 0-32-6.4-51.2-25.6-6.4-12.8-12.8-32-12.8-44.8v-38.4h-160v38.4c0 19.2-6.4 32-19.2 51.2-12.8 6.4-32 12.8-44.8 12.8h-32c-12.8 0-32-6.4-44.8-25.6-12.8-6.4-25.6-25.6-25.6-38.4v-38.4h-51.2c-19.2 0-32-6.4-38.4-19.2s-12.8-25.6-12.8-44.8v-537.6c0-19.2 6.4-25.6 19.2-38.4s19.2-19.2 38.4-19.2h595.2c19.2 0 25.6 6.4 38.4 19.2s19.2 19.2 19.2 38.4v537.6c-12.8 19.2-19.2 32-25.6 38.4zM307.2 761.6c0 6.4 0 6.4 6.4 6.4 0 0 6.4 6.4 12.8 6.4h38.4c6.4 0 6.4 0 12.8-6.4 6.4 0 19.2 0 19.2-6.4v-108.8c0-6.4 0-6.4-6.4-12.8-6.4 0-12.8 0-19.2 0h-38.4c-6.4 0-6.4 0-19.2 0 0 0-6.4 6.4-6.4 12.8 0 0 0 108.8 0 108.8zM627.2 761.6c0 6.4 0 6.4 6.4 6.4 0 0 6.4 6.4 12.8 6.4h38.4c6.4 0 6.4 0 12.8-6.4 0 0 6.4-6.4 6.4-12.8v-108.8c0-6.4 0-6.4-6.4-12.8 6.4 6.4 0 6.4-6.4 6.4h-38.4c-12.8 0-12.8 0-19.2 0 0 0-6.4 6.4-6.4 12.8 0 0 0 108.8 0 108.8zM806.4 121.6h-588.8v435.2h595.2l-6.4-435.2z" />
<glyph unicode="&#xe909;" glyph-name="icon-camera" data-tags="icon-camera" d="M806.4 179.2h-588.8c-44.8 0-89.6 38.4-89.6 89.6v358.4c0 44.8 38.4 89.6 89.6 89.6h102.4l38.4 38.4c12.8 12.8 38.4 25.6 57.6 25.6h192c25.6 0 44.8-12.8 64-25.6l32-44.8h108.8c44.8 0 89.6-38.4 89.6-89.6v-352c-6.4-44.8-44.8-89.6-96-89.6zM217.6 652.8c-19.2 0-32-12.8-32-25.6v-352c0-19.2 12.8-32 32-32h588.8c19.2 0 32 12.8 32 32v352c0 19.2-12.8 32-32 32h-128l-51.2 44.8c-6.4 0-12.8 6.4-19.2 6.4h-192c-6.4 0-12.8-6.4-19.2-6.4l-51.2-51.2h-128zM512 300.8c-83.2 0-147.2 64-147.2 147.2s64 147.2 147.2 147.2 147.2-64 147.2-147.2-64-147.2-147.2-147.2zM512 537.6c-44.8 0-89.6-44.8-89.6-89.6s44.8-89.6 89.6-89.6 89.6 38.4 89.6 89.6-44.8 89.6-89.6 89.6z" />
<glyph unicode="&#xe90a;" glyph-name="icon-cash" data-tags="icon-cash" d="M966.4 716.8h-902.4c-6.4 0-19.2-12.8-19.2-19.2v-492.8c0-12.8 6.4-19.2 19.2-19.2h902.4c12.8 0 19.2 6.4 19.2 19.2v492.8c0 6.4-6.4 19.2-19.2 19.2zM89.6 672h102.4c-12.8-51.2-51.2-89.6-102.4-102.4v102.4zM89.6 224v102.4c51.2-6.4 96-51.2 102.4-102.4h-102.4zM947.2 224h-102.4c6.4 51.2 51.2 96 102.4 102.4v-102.4zM947.2 364.8c-76.8-6.4-134.4-70.4-140.8-140.8h-576c-6.4 76.8-70.4 134.4-140.8 140.8v166.4c76.8 6.4 134.4 70.4 140.8 140.8h576c6.4-76.8 70.4-134.4 140.8-140.8v-166.4zM947.2 569.6c-51.2 6.4-96 51.2-102.4 102.4h102.4v-102.4zM768 537.6c-19.2 0-38.4 19.2-38.4 38.4 0 12.8-6.4 19.2-19.2 19.2h-384c-12.8 0-19.2-6.4-19.2-19.2 0-25.6-19.2-38.4-38.4-38.4-12.8 0-19.2-12.8-19.2-19.2v-140.8c0-12.8 6.4-19.2 19.2-19.2 19.2 0 38.4-19.2 38.4-38.4 0-12.8 6.4-19.2 19.2-19.2h384c12.8 0 19.2 6.4 19.2 19.2 0 25.6 19.2 38.4 38.4 38.4 12.8 0 19.2 6.4 19.2 19.2v140.8c-6.4 6.4-12.8 19.2-19.2 19.2zM748.8 396.8c-25.6-6.4-44.8-32-51.2-57.6h-358.4c-6.4 25.6-25.6 51.2-51.2 57.6v102.4c25.6 6.4 44.8 32 51.2 57.6h352c6.4-25.6 25.6-51.2 51.2-57.6l6.4-102.4z" />
<glyph unicode="&#xe90b;" glyph-name="icon-checkbox-checked" data-tags="icon-checkbox-checked" d="M512 832c-211.2 0-384-172.8-384-384s172.8-384 384-384 384 172.8 384 384-172.8 384-384 384zM512 140.8c-172.8 0-307.2 134.4-307.2 307.2s134.4 307.2 307.2 307.2c172.8 0 307.2-134.4 307.2-307.2s-134.4-307.2-307.2-307.2zM652.8 588.8l-211.2-217.6-70.4 76.8c-19.2 19.2-44.8 19.2-57.6 0-12.8-12.8-12.8-38.4 0-51.2v0l102.4-102.4c6.4-6.4 19.2-12.8 25.6-12.8 12.8 0 19.2 6.4 25.6 12.8l236.8 243.2c12.8 12.8 12.8 38.4 0 51.2s-32 19.2-51.2 0z" />
<glyph unicode="&#xe90c;" glyph-name="icon-checkbox-uncheck" data-tags="icon-checkbox-uncheck" d="M512 64c-211.2 0-384 172.8-384 384s172.8 384 384 384 384-172.8 384-384-172.8-384-384-384zM512 755.2c-172.8 0-307.2-134.4-307.2-307.2s134.4-307.2 307.2-307.2 307.2 134.4 307.2 307.2-134.4 307.2-307.2 307.2z" />
<glyph unicode="&#xe90e;" glyph-name="icon-checkout" data-tags="icon-checkout" d="M748.8 262.4c-51.2 0-96-44.8-96-96s44.8-96 96-96 96 44.8 96 96c0 51.2-44.8 96-96 96zM748.8 128c-19.2 0-38.4 19.2-38.4 38.4s19.2 38.4 38.4 38.4 38.4-19.2 38.4-38.4c0-25.6-19.2-38.4-38.4-38.4zM902.4 646.4c-6.4 6.4-12.8 12.8-25.6 12.8h-582.4l-25.6 108.8c0 12.8-12.8 25.6-25.6 25.6h-102.4c-12.8 0-25.6-12.8-25.6-32s12.8-32 25.6-32h76.8l96-403.2c6.4-12.8 12.8-25.6 32-25.6h467.2c12.8 0 25.6 6.4 32 25.6l70.4 294.4c0 6.4-6.4 19.2-12.8 25.6zM787.2 364.8h-422.4l-51.2 230.4h531.2l-57.6-230.4zM396.8 262.4c-51.2 0-96-44.8-96-96s44.8-96 96-96 96 44.8 96 96-44.8 96-96 96zM396.8 128c-19.2 0-38.4 19.2-38.4 38.4s19.2 38.4 38.4 38.4 38.4-19.2 38.4-38.4-19.2-38.4-38.4-38.4z" />
<glyph unicode="&#xe90f;" glyph-name="icon-clock-active" data-tags="icon-clock-active" d="M268.8 544h-102.4c-19.2 0-32 12.8-32 32s12.8 32 32 32h102.4c19.2 0 32-12.8 32-32s-12.8-32-32-32zM236.8 448c0 19.2-12.8 32-32 32h-102.4c-19.2 0-32-12.8-32-32s12.8-32 32-32h102.4c19.2 0 32 12.8 32 32zM300.8 313.6c0 19.2-12.8 32-32 32h-102.4c-19.2 0-32-12.8-32-32s12.8-32 32-32h102.4c19.2 0 32 12.8 32 32zM953.6 448c0 179.2-140.8 320-320 320-19.2 0-32-12.8-32-32v-256c0-19.2 12.8-32 32-32s32 12.8 32 32v224c128-19.2 224-128 224-256 0-140.8-115.2-256-256-256s-256 115.2-256 256c0 70.4 25.6 134.4 76.8 179.2 12.8 12.8 12.8 32 0 44.8s-32 12.8-44.8 0c-64-57.6-96-140.8-96-224 0-179.2 140.8-320 320-320s320 140.8 320 320z" />
<glyph unicode="&#xe910;" glyph-name="icon-clock-history" data-tags="icon-clock-history" d="M774.4 697.6c-153.6 121.6-384 102.4-505.6-51.2 0 0-38.4-38.4-57.6-96l-19.2 51.2c-6.4 12.8-19.2 19.2-32 19.2-12.8-6.4-19.2-19.2-12.8-32l44.8-121.6c0 0 0 0 0-6.4v0 0 0 0 0 0c0 0 0 0 6.4 0v0c0 0 0 0 6.4 0v0c0 0 0 0 6.4 0v0 0 0 0l121.6 51.2c12.8 6.4 19.2 19.2 12.8 32-12.8 12.8-25.6 12.8-38.4 6.4l-57.6-25.6c25.6 51.2 57.6 89.6 57.6 89.6 108.8 134.4 300.8 153.6 435.2 44.8s153.6-300.8 44.8-428.8c-108.8-134.4-300.8-153.6-428.8-44.8-12.8 6.4-32 6.4-38.4-6.4s-6.4-25.6 6.4-32c153.6-121.6 377.6-102.4 499.2 51.2s96 377.6-51.2 499.2z" />
<glyph unicode="&#xe911;" glyph-name="icon-clock-schedule" data-tags="icon-clock-schedule" d="M537.6 70.4c-217.6 0-384 166.4-384 384s166.4 384 384 384 384-166.4 384-384-166.4-384-384-384zM537.6 761.6c-166.4 0-307.2-140.8-307.2-307.2s140.8-307.2 307.2-307.2 307.2 140.8 307.2 307.2-134.4 307.2-307.2 307.2z" />
<glyph unicode="&#xe912;" glyph-name="icon-close" data-tags="icon-close" d="M576 428.8l243.2 243.2c19.2 19.2 19.2 44.8 0 64s-44.8 19.2-64 0l-243.2-243.2-243.2 243.2c-19.2 19.2-44.8 19.2-64 0s-19.2-44.8 0-64l243.2-243.2-243.2-243.2c-19.2-19.2-19.2-44.8 0-64 12.8-12.8 19.2-12.8 32-12.8s25.6 6.4 32 12.8l243.2 243.2 243.2-243.2c12.8-12.8 19.2-12.8 32-12.8s25.6 6.4 32 12.8c19.2 19.2 19.2 44.8 0 64l-243.2 243.2z" />
<glyph unicode="&#xe913;" glyph-name="icon-courier" data-tags="icon-courier" d="M172.8 480h147.2c19.2 0 32-12.8 32-32s-12.8-32-32-32h-147.2c-19.2 0-32 12.8-32 32s12.8 32 32 32zM217.6 320c0-19.2 12.8-32 32-32h51.2c19.2 0 32 12.8 32 32s-12.8 32-32 32h-51.2c-19.2 0-32-12.8-32-32zM96 576c0-19.2 12.8-32 32-32h211.2c19.2 0 32 12.8 32 32s-12.8 32-32 32h-211.2c-19.2 0-32-12.8-32-32zM780.8 192h-345.6c-25.6 0-44.8 12.8-57.6 25.6-12.8 19.2-19.2 38.4-19.2 64l57.6 345.6c6.4 38.4 44.8 76.8 89.6 76.8h345.6c25.6 0 44.8-12.8 57.6-25.6 12.8-19.2 19.2-38.4 19.2-64l-57.6-345.6c-6.4-44.8-44.8-76.8-89.6-76.8zM505.6 640c-12.8 0-25.6-12.8-25.6-25.6l-57.6-345.6c0-6.4 0-6.4 0-12.8 6.4 0 12.8 0 12.8 0h345.6c12.8 0 25.6 12.8 32 25.6l57.6 345.6c0 6.4 0 6.4 0 12.8-12.8 0-19.2 0-19.2 0h-345.6zM646.976 315.648c-71.488 0-123.456 44.16-123.456 114.112 0 83.456 71.104 156.736 159.36 156.736 38.912 0 65.472-12.736 86.4-32.192 6.016-5.632 11.968-13.44 11.968-24.32 0-16.448-12.672-29.952-29.568-29.952-8.256 0-14.976 2.24-20.224 8.256-13.888 14.976-28.032 25.088-55.744 25.088-47.872 0-92.416-45.632-92.416-101.376 0-37.76 26.56-63.232 64-63.232 21.696 0 31.808 5.632 49.408 16.832 5.184 3.392 12.352 6.72 19.456 6.72 14.976 0 26.176-12.352 26.176-27.328 0-9.344-4.48-16.512-10.112-21.312-19.776-16.768-51.968-28.032-85.248-28.032z" />
<glyph unicode="&#xe914;" glyph-name="icon-crossed" data-tags="icon-crossed" d="M576 441.6l243.2 243.2c19.2 19.2 19.2 44.8 0 64s-44.8 19.2-64 0l-243.2-243.2-243.2 243.2c-19.2 19.2-44.8 19.2-64 0s-19.2-44.8 0-64l243.2-243.2-243.2-243.2c-19.2-19.2-19.2-44.8 0-64 12.8-12.8 19.2-12.8 32-12.8s25.6 6.4 32 12.8l243.2 243.2 243.2-243.2c12.8-12.8 19.2-12.8 32-12.8s25.6 6.4 32 12.8c19.2 19.2 19.2 44.8 0 64l-243.2 243.2z" />
<glyph unicode="&#xe915;" glyph-name="icon-dashboard-2" data-tags="icon-dashboard-2" d="M320 320h-256v576h256v-576zM128 384h128v448h-128v-448zM640 320h-256v256h256v-256zM448 384h128v128h-128v-128zM960 896v-256h-576v256h576zM896 704v128h-448v-128h448zM640 0h-576v256h576v-256zM128 64h448v128h-448v-128zM960 0h-256v576h256v-576zM768 64h128v448h-128v-448z" />
<glyph unicode="&#xe916;" glyph-name="icon-dashboard-3" data-tags="icon-dashboard-3" d="M320 576h-256v320h256v-320zM128 640h128v192h-128v-192zM320 0h-256v512h256v-512zM128 64h128v384h-128v-384zM640 320h-256v256h256v-256zM448 384h128v128h-128v-128zM640 896v-256h-256v256h256zM576 704v128h-128v-128h128zM640 0h-256v256h256v-256zM448 64h128v128h-128v-128zM960 0h-256v384h256v-384zM768 64h128v256h-128v-256zM960 448h-256v448h256v-448zM768 512h128v320h-128v-320z" />
<glyph unicode="&#xe917;" glyph-name="icon-dashboard-4" data-tags="icon-dashboard-4" d="M320 576h-256v320h256v-320zM128 640h128v192h-128v-192zM320 0h-256v512h256v-512zM128 64h128v384h-128v-384zM640 896v-256h-256v256h256zM576 704v128h-128v-128h128zM640 0h-256v256h256v-256zM448 64h128v128h-128v-128zM640 320h-256v256h256v-256zM448 384h128v128h-128v-128zM960 256h-256v256h256v-256zM768 320h128v128h-128v-128zM960 0h-256v192h256v-192zM768 64h128v64h-128v-64zM960 576h-256v320h256v-320zM768 640h128v192h-128v-192z" />
<glyph unicode="&#xe918;" glyph-name="icon-dashboard-full" data-tags="icon-dashboard-full" d="M320 640h-192v192h192v-192zM608 832h-192v-192h192v192zM896 832h-192v-192h192v192zM320 256h-192v-192h192v192zM608 256h-192v-192h192v192zM896 256h-192v-192h192v192zM320 544h-192v-192h192v192zM608 544h-192v-192h192v192zM896 544h-192v-192h192v192z" />
<glyph unicode="&#xe919;" glyph-name="icon-dashboard" data-tags="icon-dashboard" d="M576 576h-512v320h512v-320zM128 640h384v192h-384v-192zM960 384h-320v512h320v-512zM704 448h192v384h-192v-384zM960 0h-512v320h512v-320zM512 64h384v192h-384v-192zM384 0h-320v512h320v-512zM128 64h192v384h-192v-384z" />
<glyph unicode="&#xe91a;" glyph-name="icon-data-entry" data-tags="icon-data-entry" d="M748.8 704l19.2-19.2-288-288h-19.2v19.2l288 288zM748.8 768c-19.2 0-32-6.4-44.8-19.2l-288-288c-12.8-12.8-19.2-25.6-19.2-44.8v-19.2c0-38.4 25.6-64 64-64h19.2c19.2 0 32 6.4 44.8 19.2l288 288c25.6 25.6 25.6 64 0 89.6l-19.2 19.2c-12.8 12.8-25.6 19.2-44.8 19.2v0zM576 704h-352c-19.2 0-32 12.8-32 32v0c0 19.2 12.8 32 32 32h352c19.2 0 32-12.8 32-32v0c0-19.2-12.8-32-32-32zM384 512h-160c-19.2 0-32 12.8-32 32v0c0 19.2 12.8 32 32 32h160c19.2 0 32-12.8 32-32v0c0-19.2-12.8-32-32-32zM288 320h-64c-19.2 0-32 12.8-32 32v0c0 19.2 12.8 32 32 32h64c19.2 0 32-12.8 32-32v0c0-19.2-12.8-32-32-32zM800 128h-576c-19.2 0-32 12.8-32 32v0c0 19.2 12.8 32 32 32h576c19.2 0 32-12.8 32-32v0c0-19.2-12.8-32-32-32z" />
<glyph unicode="&#xe91b;" glyph-name="icon-delivering" data-tags="icon-delivering" d="M172.8 480h147.2c19.2 0 32-12.8 32-32s-12.8-32-32-32h-147.2c-19.2 0-32 12.8-32 32s12.8 32 32 32zM217.6 320c0-19.2 12.8-32 32-32h51.2c19.2 0 32 12.8 32 32s-12.8 32-32 32h-51.2c-19.2 0-32-12.8-32-32zM96 576c0-19.2 12.8-32 32-32h211.2c19.2 0 32 12.8 32 32s-12.8 32-32 32h-211.2c-19.2 0-32-12.8-32-32zM780.8 192h-345.6c-25.6 0-44.8 12.8-57.6 25.6-12.8 19.2-19.2 38.4-19.2 64l57.6 345.6c6.4 38.4 44.8 76.8 89.6 76.8h345.6c25.6 0 44.8-12.8 57.6-25.6 12.8-19.2 19.2-38.4 19.2-64l-57.6-345.6c-6.4-44.8-44.8-76.8-89.6-76.8zM505.6 640c-12.8 0-25.6-12.8-25.6-25.6l-57.6-345.6c0-6.4 0-6.4 0-12.8 6.4 0 12.8 0 12.8 0h345.6c12.8 0 25.6 12.8 32 25.6l57.6 345.6c0 6.4 0 6.4 0 12.8-12.8 0-19.2 0-19.2 0h-345.6z" />
<glyph unicode="&#xe91c;" glyph-name="icon-department" data-tags="icon-department" d="M576 512v320h-448v-768h768v448h-320zM192 768h320v-256h-64v160h-192v-160h-64v256zM512 256h-64v64h64v-64zM576 320h96v-64h-96v64zM384 512h-64v96h64v-96zM384 448v-64h-64v64h64zM384 320v-64h-64v64h64zM448 384v64h64v-64h-64zM192 448h64v-64h-64v64zM192 320h64v-64h-64v64zM192 128v64h64v-64h-64zM320 128v64h64v-64h-64zM448 128v64h64v-64h-64zM832 128h-256v64h160v192h-160v64h256v-320z" />
<glyph unicode="&#xe91d;" glyph-name="icon-document" data-tags="icon-document" d="M800 64h-576c-19.2 0-32 12.8-32 32v704c0 19.2 12.8 32 32 32h384c6.4 0 19.2-6.4 25.6-6.4l192-192c0-6.4 6.4-19.2 6.4-25.6v-512c0-19.2-12.8-32-32-32zM256 128h512v467.2l-172.8 172.8h-339.2v-640zM640 384h-256c-19.2 0-32 12.8-32 32s12.8 32 32 32h256c19.2 0 32-12.8 32-32s-12.8-32-32-32zM576 544c0 19.2-12.8 32-32 32h-160c-19.2 0-32-12.8-32-32s12.8-32 32-32h160c19.2 0 32 12.8 32 32zM672 288c0 19.2-12.8 32-32 32h-256c-19.2 0-32-12.8-32-32s12.8-32 32-32h256c19.2 0 32 12.8 32 32z" />
<glyph unicode="&#xe91e;" glyph-name="icon-dollar" data-tags="icon-dollar" d="M537.6 512c89.6-25.6 198.4-64 198.4-198.4 0-89.6-76.8-153.6-179.2-172.8v-76.8h-89.6v76.8c-70.4 6.4-121.6 25.6-185.6 57.6l51.2 102.4c57.6-25.6 115.2-51.2 172.8-51.2 51.2 0 102.4 25.6 102.4 64 0 57.6-64 70.4-134.4 96-83.2 25.6-172.8 57.6-172.8 172.8 0 102.4 70.4 166.4 172.8 172.8v76.8h89.6v-83.2c38.4-6.4 96-19.2 153.6-51.2l-44.8-102.4c-51.2 19.2-128 44.8-160 44.8-51.2 0-89.6-6.4-89.6-51.2s51.2-57.6 115.2-76.8z" />
<glyph unicode="&#xe91f;" glyph-name="icon-driver" data-tags="icon-driver" d="M960 352c0 12.8 0 25.6 0 38.4-6.4 76.8-19.2 153.6-51.2 224v0c-32 76.8-76.8 140.8-140.8 192-38.4 32-96 57.6-166.4 64-32 6.4-57.6 6.4-89.6 6.4-44.8 0-96-6.4-134.4-19.2-83.2-19.2-147.2-51.2-198.4-102.4-64-64-96-140.8-108.8-230.4-6.4-19.2-6.4-38.4-6.4-51.2 0-147.2 89.6-262.4 102.4-281.6v0l12.8-6.4 659.2-166.4h12.8l12.8 6.4c51.2 51.2 83.2 153.6 96 268.8v0 0 0 0c0 19.2 0 38.4 0 57.6zM902.4 352c0-6.4 0-19.2 0-25.6-44.8 0-128 6.4-224 19.2-70.4 6.4-128 12.8-172.8 25.6-38.4 6.4-64 12.8-76.8 12.8-6.4 0-12.8 6.4-12.8 6.4v0 0c-12.8 12.8-25.6 38.4-32 57.6 6.4 0 12.8 0 19.2 0s19.2 0 25.6 0c44.8 12.8 76.8 51.2 76.8 102.4 0 6.4 0 19.2 0 25.6s-6.4 12.8-6.4 12.8c32 0 57.6 0 89.6 0 115.2 0 224 12.8 268.8 12.8l6.4-6.4c25.6-57.6 38.4-128 44.8-204.8v0c-6.4-12.8-6.4-25.6-6.4-38.4zM832 76.8l-633.6 160c-6.4 12.8-25.6 44.8-51.2 89.6-19.2 51.2-25.6 102.4-25.6 147.2 0 12.8 0 25.6 0 38.4 12.8 83.2 44.8 147.2 96 198.4 44.8 51.2 102.4 76.8 172.8 96 38.4 12.8 76.8 12.8 121.6 12.8 25.6 0 57.6 0 83.2-6.4 64-12.8 115.2-32 140.8-51.2 38.4-32 64-64 89.6-108.8-32 0-70.4-6.4-121.6-6.4-38.4-6.4-83.2-6.4-121.6-6.4-64 0-121.6 6.4-166.4 12.8v0 0 0c-6.4 0-12.8 0-19.2 0s-19.2 0-25.6 0c-38.4-12.8-70.4-57.6-70.4-102.4 0-6.4 0-12.8 0-25.6v0 0c6.4-12.8 32-115.2 70.4-166.4 19.2-19.2 64-38.4 300.8-64 89.6-6.4 179.2-19.2 224-19.2-6.4-83.2-32-153.6-64-198.4zM448 563.2v-12.8c0-19.2-12.8-44.8-38.4-44.8h-12.8c-19.2-6.4-38.4 6.4-44.8 32v12.8c0 19.2 12.8 44.8 38.4 44.8h12.8c19.2 0 38.4-12.8 44.8-32v0z" />
<glyph unicode="&#xe920;" glyph-name="icon-edit" data-tags="icon-edit" d="M800 128h-576c-19.2 0-32 12.8-32 32v576c0 19.2 12.8 32 32 32h320c19.2 0 32-12.8 32-32s-12.8-32-32-32h-288v-512h512v288c0 19.2 12.8 32 32 32s32-12.8 32-32v-320c0-19.2-12.8-32-32-32zM736 691.2l19.2-19.2-288-288h-19.2v19.2l288 288zM736 755.2c-19.2 0-32-6.4-44.8-19.2l-288-288c-12.8-12.8-19.2-25.6-19.2-44.8v-19.2c0-38.4 25.6-64 64-64h19.2c19.2 0 32 6.4 44.8 19.2l288 288c25.6 25.6 25.6 64 0 89.6l-19.2 19.2c-12.8 12.8-25.6 19.2-44.8 19.2v0z" />
<glyph unicode="&#xe921;" glyph-name="icon-email" data-tags="icon-email" d="M889.6 640c0 0 0 0 0 0 0 6.4 0 6.4-6.4 12.8 0 0-6.4 0-6.4 6.4-38.4 19.2-83.2 12.8-128 12.8-128 0-256 0-390.4 0-51.2 0-102.4 0-153.6 0-12.8 0-25.6 0-38.4 0-38.4-6.4-38.4-44.8-38.4-83.2 0-57.6 0-121.6 0-179.2s-6.4-115.2 0-166.4c0-6.4 0-6.4 6.4-12.8 12.8-12.8 76.8-6.4 96-6.4 128 0 256 0 384 0 76.8 0 160-6.4 243.2 0 32 0 38.4 32 44.8 57.6 0 38.4 0 83.2 0 121.6s0 76.8 0 121.6c-6.4 38.4 0 76.8-12.8 115.2zM832 339.2l-140.8 153.6 140.8 89.6v-243.2zM755.2 608l-243.2-153.6-243.2 153.6c0 0 486.4 0 486.4 0zM332.8 492.8l-140.8-153.6v243.2c0 0 140.8-89.6 140.8-89.6zM230.4 288l153.6 166.4 108.8-70.4c6.4 0 12.8 0 19.2 0s12.8 0 19.2 6.4l108.8 70.4 153.6-166.4h-563.2v-6.4z" />
<glyph unicode="&#xe922;" glyph-name="icon-expand" data-tags="icon-expand" d="M224 416c-19.2 0-32 12.8-32 32v192c0 19.2 12.8 32 32 32h192c19.2 0 32-12.8 32-32s-12.8-32-32-32h-160v-160c0-19.2-12.8-32-32-32zM832 256v192c0 19.2-12.8 32-32 32s-32-12.8-32-32v-160h-160c-19.2 0-32-12.8-32-32s12.8-32 32-32h192c19.2 0 32 12.8 32 32zM928 96h-832c-19.2 0-32 12.8-32 32v640c0 19.2 12.8 32 32 32h832c19.2 0 32-12.8 32-32v-640c0-19.2-12.8-32-32-32zM128 160h768v576h-768v-576z" />
<glyph unicode="&#xe923;" glyph-name="icon-fullscreen" data-tags="icon-fullscreen" d="M588.8 486.4c-6.4 0-19.2 0-25.6 6.4-19.2 12.8-19.2 32 0 44.8l217.6 217.6c12.8 12.8 25.6 12.8 44.8 0 12.8-12.8 12.8-25.6 0-44.8l-217.6-217.6c-6.4-6.4-19.2-6.4-19.2-6.4zM800 524.8c-19.2 0-25.6 12.8-25.6 25.6v160h-160c-19.2 0-25.6 12.8-25.6 25.6s6.4 32 25.6 32h185.6c19.2 0 32-12.8 32-32v-185.6c0-19.2-6.4-25.6-32-25.6zM224 128c-6.4 0-19.2 0-25.6 6.4-12.8 12.8-12.8 25.6 0 44.8l217.6 217.6c12.8 12.8 25.6 12.8 44.8 0 12.8-12.8 12.8-25.6 0-44.8l-217.6-217.6c0-6.4-12.8-6.4-19.2-6.4zM409.6 128h-185.6c-19.2 0-32 12.8-32 32v185.6c0 19.2 12.8 25.6 25.6 25.6s25.6-12.8 25.6-25.6v-153.6h153.6c19.2 0 25.6-12.8 25.6-25.6 12.8-19.2 6.4-38.4-12.8-38.4z" />
<glyph unicode="&#xe924;" glyph-name="icon-getting-location" data-tags="icon-getting-location" d="M569.6 448c0-28.277-22.923-51.2-51.2-51.2s-51.2 22.923-51.2 51.2c0 28.277 22.923 51.2 51.2 51.2s51.2-22.923 51.2-51.2zM620.8 448c0-60.089-48.711-108.8-108.8-108.8s-108.8 48.711-108.8 108.8c0 60.089 48.711 108.8 108.8 108.8s108.8-48.711 108.8-108.8zM870.4 473.6h-89.6c-12.8 134.4-115.2 230.4-243.2 243.2v89.6c0 12.8-6.4 25.6-25.6 25.6s-25.6-12.8-25.6-25.6v-89.6c-134.4-12.8-230.4-108.8-243.2-243.2h-89.6c-12.8 0-25.6-6.4-25.6-25.6s12.8-25.6 25.6-25.6h89.6c12.8-134.4 115.2-230.4 243.2-243.2v-89.6c0-12.8 6.4-25.6 25.6-25.6s25.6 12.8 25.6 25.6v89.6c134.4 12.8 230.4 115.2 243.2 243.2h89.6c12.8 0 25.6 6.4 25.6 25.6s-12.8 25.6-25.6 25.6zM512 230.4c-121.6 0-217.6 96-217.6 217.6s96 217.6 217.6 217.6c121.6 0 217.6-96 217.6-217.6s-96-217.6-217.6-217.6zM550.4 448c0-21.208-17.192-38.4-38.4-38.4s-38.4 17.192-38.4 38.4c0 21.208 17.192 38.4 38.4 38.4s38.4-17.192 38.4-38.4z" />
<glyph unicode="&#xe925;" glyph-name="icon-group" data-tags="icon-group" d="M364.8 492.8c12.8 0 19.2 6.4 19.2 12.8 0 0 0 6.4 0 12.8v38.4l6.4 6.4c19.2 12.8 38.4 25.6 51.2 38.4 12.8 6.4 19.2 12.8 25.6 19.2 6.4 0 12.8 0 12.8 6.4v76.8c0 0-6.4 6.4-6.4 6.4v64c0 6.4 6.4 12.8 6.4 19.2 6.4 6.4 12.8 6.4 19.2 6.4h19.2c12.8 0 25.6-12.8 25.6-25.6v-57.6c-6.4-6.4-6.4-19.2-6.4-25.6v-51.2c0-12.8 6.4-19.2 12.8-25.6 0 0 6.4-6.4 12.8-6.4 19.2-6.4 44.8-25.6 64-44.8v0l6.4-6.4v-38.4c0-6.4 0-12.8 6.4-19.2s12.8-6.4 19.2-6.4c6.4 0 12.8 0 19.2 6.4s6.4 12.8 6.4 19.2v38.4c0 12.8-6.4 32-19.2 44.8v0 0c-38.4 25.6-64 38.4-83.2 51.2v32c6.4 6.4 12.8 19.2 12.8 32v64c0 38.4-32 76.8-76.8 76.8h-19.2c-38.4 0-76.8-32-76.8-76.8v-64c0-12.8 6.4-25.6 12.8-32v-38.4c-19.2-6.4-44.8-19.2-76.8-44.8v0 0c-12.8-12.8-19.2-25.6-19.2-44.8v-44.8c0-6.4 0-12.8 6.4-19.2 6.4 0 12.8 0 19.2 0zM908.8 230.4v0 0c-32 25.6-64 44.8-76.8 51.2v38.4c6.4 6.4 12.8 19.2 12.8 32v64c0 38.4-32 76.8-76.8 76.8h-12.8c-38.4 0-76.8-32-76.8-76.8v-64c0-12.8 6.4-25.6 12.8-32v-44.8c-19.2-6.4-51.2-25.6-76.8-57.6v0c-12.8-6.4-19.2-25.6-19.2-44.8v-44.8c0-6.4 0-12.8 6.4-19.2s12.8-6.4 19.2-6.4c6.4 0 12.8 0 19.2 6.4s6.4 12.8 6.4 19.2v44.8l6.4 6.4c19.2 12.8 38.4 25.6 51.2 38.4 12.8 6.4 25.6 12.8 32 19.2s12.8 12.8 12.8 25.6v70.4c0 0-6.4 6.4-6.4 6.4l-6.4 6.4v57.6c0 6.4 6.4 12.8 6.4 19.2 6.4 6.4 12.8 6.4 19.2 6.4h12.8c6.4 0 12.8-6.4 19.2-6.4 6.4-6.4 6.4-12.8 6.4-19.2v-57.6c-6.4 0-12.8-6.4-12.8-6.4v-70.4c0-12.8 6.4-19.2 12.8-25.6 0 0 6.4-6.4 12.8-6.4 19.2-6.4 44.8-25.6 64-44.8v0l6.4-6.4v-38.4c-6.4 0-6.4-6.4-6.4-12.8s6.4-6.4 6.4-12.8h12.8c6.4 0 12.8 0 19.2 6.4s6.4 12.8 6.4 19.2v44.8c6.4 12.8 0 25.6-12.8 38.4zM416 224v0 0c-32 25.6-64 44.8-76.8 51.2v38.4c6.4 6.4 12.8 19.2 12.8 32v64c0 38.4-32 76.8-76.8 76.8h-19.2c-38.4-6.4-76.8-38.4-76.8-76.8v-64c0-12.8 6.4-25.6 12.8-32v-38.4c-19.2-6.4-51.2-25.6-76.8-57.6v0c-12.8-6.4-19.2-25.6-19.2-44.8v-44.8c0-6.4 0-12.8 6.4-19.2s12.8-6.4 19.2-6.4c6.4 0 12.8 0 19.2 6.4s6.4 12.8 6.4 19.2v44.8l6.4 6.4c19.2 12.8 38.4 25.6 51.2 38.4 12.8 6.4 25.6 12.8 32 19.2s12.8 12.8 12.8 25.6v70.4c0 0-6.4 6.4-6.4 6.4l-12.8 6.4v57.6c0 6.4 6.4 12.8 6.4 19.2 12.8 6.4 19.2 6.4 25.6 6.4h12.8c6.4 0 12.8-6.4 19.2-6.4 6.4-6.4 6.4-12.8 6.4-19.2v-57.6c-6.4 0-12.8-6.4-12.8-6.4v-70.4c0-12.8 6.4-19.2 12.8-25.6 0 0 6.4-6.4 12.8-6.4 19.2-6.4 44.8-25.6 64-44.8v0l6.4-6.4v-44.8c0-6.4 0-12.8 6.4-19.2s12.8-6.4 19.2-6.4c6.4 0 12.8 0 19.2 6.4s6.4 12.8 6.4 19.2v44.8c-6.4 19.2-12.8 32-19.2 38.4zM601.6 307.2v0h19.2c6.4 0 6.4 6.4 6.4 12.8v0 6.4c0 12.8-6.4 19.2-12.8 25.6v0l-83.2 51.2v102.4c0 6.4 0 12.8-6.4 19.2s-12.8 6.4-19.2 6.4c-6.4 0-12.8 0-19.2-6.4 0-6.4 0-12.8 0-19.2v-102.4l-89.6-51.2c-6.4-6.4-12.8-12.8-12.8-19.2l6.4-12.8c0-6.4 6.4-6.4 6.4-6.4h19.2l89.6 51.2 96-57.6z" />
<glyph unicode="&#xe926;" glyph-name="icon-home" data-tags="icon-home" d="M825.6 89.6h-640c-19.2 0-32 19.2-32 32v409.6c0 12.8 6.4 19.2 12.8 25.6l320 230.4c12.8 6.4 25.6 6.4 38.4 0l320-230.4c12.8-6.4 12.8-19.2 12.8-25.6v-409.6c0-12.8-19.2-32-32-32zM262.4 172.8h480c19.2 0 32 19.2 32 32v288c0 12.8-6.4 19.2-12.8 25.6l-243.2 160c-12.8 6.4-25.6 6.4-38.4 0l-236.8-166.4c-6.4-6.4-12.8-12.8-12.8-19.2v-281.6c0-19.2 12.8-38.4 32-38.4z" />
<glyph unicode="&#xe927;" glyph-name="icon-info" data-tags="icon-info" d="M537.6 64c-217.6 0-384 166.4-384 384s166.4 384 384 384 384-166.4 384-384-166.4-384-384-384zM537.6 755.2c-166.4 0-307.2-140.8-307.2-307.2s140.8-307.2 307.2-307.2 307.2 140.8 307.2 307.2-140.8 307.2-307.2 307.2zM537.6 224c-25.6 0-44.8 25.6-44.8 44.8v211.2c0 25.6 25.6 44.8 44.8 44.8 25.6 0 44.8-25.6 44.8-44.8v-217.6c0-19.2-19.2-38.4-44.8-38.4zM537.6 672c-25.6 0-44.8-25.6-44.8-44.8s19.2-51.2 44.8-51.2c25.6 0 44.8 25.6 44.8 44.8s-19.2 51.2-44.8 51.2z" />
<glyph unicode="&#xe928;" glyph-name="icon-less-circle" data-tags="icon-less-circle" d="M512 64c-211.2 0-384 172.8-384 384s172.8 384 384 384 384-172.8 384-384c0-211.2-172.8-384-384-384zM512 748.8c-166.4 0-300.8-134.4-300.8-300.8s134.4-300.8 300.8-300.8 300.8 134.4 300.8 300.8c0 166.4-134.4 300.8-300.8 300.8zM569.6 243.2c12.8 0 19.2 6.4 32 12.8 19.2 19.2 19.2 44.8 0 57.6l-140.8 134.4 134.4 134.4c19.2 19.2 19.2 44.8 0 57.6-12.8 19.2-38.4 19.2-57.6 0l-166.4-160c-19.2-19.2-19.2-44.8 0-57.6l166.4-166.4c6.4-12.8 19.2-12.8 32-12.8z" />
<glyph unicode="&#xe929;" glyph-name="icon-less" data-tags="icon-less" d="M640 128c19.2 0 32 6.4 44.8 19.2 25.6 25.6 25.6 64 0 89.6l-211.2 211.2 211.2 211.2c25.6 25.6 25.6 64 0 89.6s-64 25.6-89.6 0l-256-256c-25.6-25.6-25.6-64 0-89.6l256-256c12.8-12.8 25.6-19.2 44.8-19.2z" />
<glyph unicode="&#xe92a;" glyph-name="icon-list" data-tags="icon-list" d="M128 556.8h409.6c25.6 0 38.4-12.8 38.4-38.4v0c0-25.6-12.8-38.4-38.4-38.4h-409.6c-25.6 0-38.4 12.8-38.4 38.4v0c0 19.2 25.6 38.4 38.4 38.4zM128 742.4h409.6c25.6 0 38.4-12.8 38.4-38.4v0c0-25.6-12.8-38.4-38.4-38.4h-409.6c-19.2 0-38.4 12.8-38.4 38.4v0c0 25.6 25.6 38.4 38.4 38.4zM128 371.2h249.6c25.6 0 38.4-12.8 38.4-38.4v0c0-25.6-12.8-38.4-38.4-38.4h-249.6c-25.6 0-38.4 12.8-38.4 38.4v0c0 19.2 25.6 38.4 38.4 38.4zM928 460.8v0c12.8-12.8 12.8-44.8 0-64v0l-230.4-230.4c-12.8-12.8-38.4-12.8-51.2 0l-121.6 134.4c-12.8 12.8-12.8 44.8 0 64v0 0c12.8 12.8 44.8 12.8 64 0v0l96-96 192 198.4c12.8 12.8 38.4 12.8 51.2-6.4 0 6.4 0 6.4 0 0z" />
<glyph unicode="&#xe92b;" glyph-name="icon-loading" data-tags="icon-loading" d="M512 64c-211.2 0-384 172.8-384 384s172.8 384 384 384c25.6 0 51.2-19.2 51.2-51.2s-25.6-44.8-51.2-44.8c-160 0-288-128-288-288s128-288 288-288 288 128 288 288c0 25.6 19.2 51.2 51.2 51.2s44.8-25.6 44.8-51.2c0-211.2-172.8-384-384-384z" />
<glyph unicode="&#xe92c;" glyph-name="icon-location" data-tags="icon-location" d="M883.2 787.2c0 12.8-6.4 19.2-12.8 19.2l-12.8 6.4c0 0-6.4 0-12.8 0h-6.4l-710.4-352h-6.4c-6.4-12.8-6.4-19.2-6.4-19.2v-6.4c0-6.4 6.4-19.2 6.4-19.2 6.4-12.8 12.8-12.8 19.2-12.8v0l326.4-6.4v-320c0-6.4 6.4-19.2 6.4-19.2 6.4-6.4 12.8-6.4 19.2-6.4 0 0 6.4 0 12.8 0l12.8 6.4v6.4l345.6 704c0 0 0 0 0 0 12.8 6.4 19.2 12.8 19.2 19.2zM518.4 448c-6.4 6.4-12.8 6.4-19.2 6.4v0l-224 6.4 505.6 256-249.6-505.6v217.6c0 6.4-6.4 12.8-12.8 19.2zM844.8 800v0 0 0z" />
<glyph unicode="&#xe92d;" glyph-name="icon-lock" data-tags="icon-lock" d="M512 832c-217.6 0-384-166.4-384-384s166.4-384 384-384c217.6 0 384 166.4 384 384s-166.4 384-384 384zM512 140.8c-166.4 0-307.2 140.8-307.2 307.2s140.8 307.2 307.2 307.2c172.8 0 307.2-140.8 307.2-307.2s-140.8-307.2-307.2-307.2zM716.8 480h-172.8v204.8c0 19.2-12.8 32-32 32s-32-12.8-32-32v0-236.8c0-6.4 6.4-19.2 6.4-25.6 6.4 0 19.2-6.4 25.6-6.4h204.8c19.2 0 32 12.8 32 32s-12.8 32-32 32z" />
<glyph unicode="&#xe92e;" glyph-name="icon-menu-active" data-tags="icon-menu-active" d="M960 448c0 179.2-140.8 320-320 320-19.2 0-32-12.8-32-32v-256c0-19.2 12.8-32 32-32s32 12.8 32 32v224c128-19.2 224-128 224-256 0-140.8-115.2-256-256-256s-256 115.2-256 256c0 70.4 25.6 134.4 76.8 179.2 12.8 12.8 12.8 32 0 44.8s-32 12.8-44.8 0c-64-57.6-96-140.8-96-224 0-179.2 140.8-320 320-320s320 140.8 320 320zM256 544h-102.4c-19.2 0-32 12.8-32 32s12.8 32 32 32h102.4c19.2 0 32-12.8 32-32s-12.8-32-32-32zM224 448c0 19.2-12.8 32-32 32h-102.4c-19.2 0-32-12.8-32-32s12.8-32 32-32h102.4c19.2 0 32 12.8 32 32zM288 313.6c0 19.2-12.8 32-32 32h-102.4c-19.2 0-32-12.8-32-32s12.8-32 32-32h102.4c19.2 0 32 12.8 32 32z" />
<glyph unicode="&#xe92f;" glyph-name="icon-message" data-tags="icon-message" d="M825.6 765.58c51.2 0 102.4-44.8 102.4-102.4v-288c0-51.2-38.4-102.4-102.4-102.4h-108.8v-140.8c0-12.8-6.4-32-19.2-38.4s-32 0-38.4 6.4l-192 166.4h-268.8c-51.2 0-102.4 44.8-102.4 102.4v294.4c0 51.2 44.8 102.4 102.4 102.4h627.2zM825.6 707.98h-627.2c-19.2 0-38.4-12.8-38.4-38.4v-294.4c0-19.2 12.8-38.4 38.4-38.4l294.4-6.4c6.4 0 19.2-6.4 25.6-12.8l153.6-147.2-12.8 128c0 19.2 12.8 38.4 32 38.4h140.8c19.2 0 38.4 12.8 38.4 38.4v288c-6.4 32-19.2 44.8-44.8 44.8v0zM332.8 518.4c0-17.673-14.327-32-32-32s-32 14.327-32 32c0 17.673 14.327 32 32 32s32-14.327 32-32zM544 512c0-17.673-14.327-32-32-32s-32 14.327-32 32c0 17.673 14.327 32 32 32s32-14.327 32-32zM761.6 512c0-17.673-14.327-32-32-32s-32 14.327-32 32c0 17.673 14.327 32 32 32s32-14.327 32-32z" />
<glyph unicode="&#xe930;" glyph-name="icon-money" data-tags="icon-money" d="M902.4 844.8v0 0 0c-6.4 6.4-12.8 12.8-25.6 12.8h-390.4l-12.8-6.4c-6.4-6.4-12.8-12.8-12.8-19.2v-38.4l-134.4-32c-6.4 0-12.8-6.4-12.8-12.8l-6.4-12.8 83.2-288-70.4-64c-6.4 6.4-12.8 12.8-32 12.8h-153.6c-25.6 0-57.6-12.8-57.6-51.2v-249.6c0-25.6 19.2-57.6 57.6-57.6h153.6c25.6 0 44.8 12.8 51.2 32l12.8-12.8c12.8-12.8 38.4-19.2 64-19.2h473.6l19.2 6.4c6.4 6.4 12.8 12.8 6.4 19.2l-12.8 780.8zM851.2 83.2h-83.2c0 6.4 0 12.8 0 19.2s0 12.8 0 19.2c32 0 57.6 32 57.6 64 0 6.4 0 12.8-6.4 25.6 25.6 6.4 38.4 32 38.4 51.2 0 12.8-6.4 25.6-12.8 32v396.8l-12.8 12.8c-6.4 6.4-12.8 12.8-19.2 12.8-19.2 0-38.4 19.2-38.4 38.4 0 12.8-12.8 19.2-25.6 19.2h-140.8l-12.8-6.4c-6.4-6.4-12.8-12.8-12.8-19.2 0-19.2-12.8-38.4-38.4-38.4v0l-12.8-6.4v-320h-19.2v428.8h339.2c0 0 0-729.6 0-729.6zM556.8 108.8c0-6.4 0-12.8 6.4-19.2s12.8-6.4 19.2-6.4h-179.2c-12.8 0-25.6 6.4-25.6 12.8v0l-38.4 32v211.2l57.6 57.6 12.8-38.4c0-12.8 12.8-19.2 25.6-19.2h313.6l12.8-6.4 6.4-12.8-6.4-12.8-12.8-6.4h-172.8l-12.8-6.4c-6.4-6.4-12.8-12.8-12.8-19.2s0-12.8 6.4-19.2c12.8 0 12.8 0 19.2 0h204.8l12.8-6.4 6.4-12.8-6.4-12.8-12.8-6.4h-204.8l-12.8-6.4c-6.4-6.4-12.8-12.8-6.4-19.2 0-6.4 0-12.8 6.4-19.2s12.8-6.4 19.2-6.4h179.2l12.8-6.4 6.4-12.8-6.4-12.8-12.8-6.4h-185.6l-12.8-6.4c0 0-6.4-6.4-6.4-12.8zM684.8 486.4c19.2 0 38.4-19.2 38.4-38.4v0 0-6.4c0-6.4-6.4-12.8-12.8-19.2s-19.2-6.4-25.6-6.4-38.4 19.2-38.4 38.4c0 12.8 19.2 32 38.4 32zM768 448c0 51.2-38.4 76.8-76.8 76.8-51.2 0-83.2-32-83.2-76.8 0-25.6 12.8-51.2 32-64h-64v288c25.6 6.4 44.8 32 51.2 57.6h108.8c12.8-32 38.4-44.8 64-57.6v-320c-12.8 19.2-32 32-57.6 32h-6.4c12.8 12.8 32 38.4 32 64zM467.2 697.6v-320h-19.2l-12.8 57.6v6.4l-83.2 275.2 115.2 38.4v-57.6zM121.6 352v0l12.8 12.8h160l12.8-12.8v-256l-12.8-12.8h-160l-12.8 12.8v256z" />
<glyph unicode="&#xe931;" glyph-name="icon-moneybag" data-tags="icon-moneybag" d="M864 211.2c-6.4 70.4-19.2 128-51.2 185.6-19.2 51.2-44.8 96-83.2 140.8v0c0 0 0 0 0 0s0 0 0 0v0c-38.4 51.2-76.8 76.8-102.4 96l76.8 140.8 6.4 12.8c0 12.8-6.4 19.2-12.8 25.6-19.2 19.2-51.2 32-76.8 32s-44.8-6.4-64-19.2v0c-19.2 6.4-32 0-38.4 0s-6.4 0-6.4 0c-38.4 19.2-64 25.6-96 25.6-44.8 0-76.8-19.2-108.8-51.2-6.4-6.4-12.8-12.8-12.8-19.2s0-12.8 6.4-19.2v0l83.2-128c-19.2-19.2-57.6-44.8-96-96v0c0 0 0 0 0 0s0 0 0 0v0c-38.4-44.8-64-89.6-89.6-140.8v0 0c-25.6-64-38.4-128-38.4-192 0-44.8 19.2-89.6 51.2-121.6s70.4-51.2 121.6-51.2h364.8c44.8 0 89.6 19.2 121.6 51.2 25.6 38.4 44.8 76.8 44.8 128v0 0zM332.8 492.8c25.6 25.6 44.8 51.2 70.4 64 12.8 19.2 25.6 25.6 32 32h140.8c6.4-6.4 19.2-12.8 32-25.6 19.2-19.2 44.8-38.4 64-70.4 70.4-89.6 108.8-185.6 108.8-281.6 0-51.2-44.8-96-96-96h-364.8c-51.2 0-96 44.8-96 96 6.4 96 38.4 192 108.8 281.6zM492.8 761.6c6.4-6.4 19.2-6.4 25.6-6.4 19.2 0 38.4 6.4 57.6 12.8s32 12.8 44.8 12.8c6.4 0 6.4 0 12.8 0l-70.4-121.6h-115.2l-76.8 108.8c12.8 12.8 25.6 12.8 44.8 12.8s44.8-6.4 76.8-19.2z" />
<glyph unicode="&#xe932;" glyph-name="icon-more-circle" data-tags="icon-more-circle" d="M512 832c211.2 0 384-172.8 384-384s-172.8-384-384-384-384 172.8-384 384c0 211.2 172.8 384 384 384zM512 147.2c166.4 0 300.8 134.4 300.8 300.8s-134.4 300.8-300.8 300.8-300.8-134.4-300.8-300.8c0-166.4 134.4-300.8 300.8-300.8zM454.4 652.8c-6.4 0-19.2 0-25.6-12.8-19.2-19.2-19.2-44.8 0-57.6l134.4-134.4-134.4-134.4c-19.2-19.2-19.2-44.8 0-57.6 19.2-19.2 44.8-19.2 57.6 0l166.4 166.4c19.2 19.2 19.2 44.8 0 57.6l-166.4 160c-6.4 12.8-19.2 12.8-32 12.8z" />
<glyph unicode="&#xe933;" glyph-name="icon-more-icon" data-tags="icon-more-icon" d="M569.6 691.2c0-44.8-38.4-76.8-76.8-76.8s-83.2 32-83.2 76.8 38.4 76.8 83.2 76.8 76.8-38.4 76.8-76.8zM492.8 524.8c-44.8 0-83.2-32-83.2-76.8s38.4-76.8 83.2-76.8 76.8 32 76.8 76.8-38.4 76.8-76.8 76.8zM492.8 288c-44.8 0-76.8-38.4-76.8-76.8s32-83.2 76.8-83.2 76.8 38.4 76.8 76.8-38.4 83.2-76.8 83.2z" />
<glyph unicode="&#xe934;" glyph-name="icon-more" data-tags="icon-more" d="M416 768c-19.2 0-32-6.4-44.8-19.2-25.6-25.6-25.6-64 0-89.6l211.2-211.2-211.2-211.2c-25.6-25.6-25.6-64 0-89.6s64-25.6 89.6 0l256 256c25.6 25.6 25.6 64 0 89.6l-256 256c-12.8 12.8-25.6 19.2-44.8 19.2z" />
<glyph unicode="&#xe935;" glyph-name="icon-office" data-tags="icon-office" d="M838.4 569.6c0 0-6.4 12.8-19.2 12.8h-204.8v153.6c0 6.4 0 12.8-6.4 12.8-6.4 6.4-12.8 12.8-19.2 12.8h-384c-6.4 0-12.8-6.4-12.8-6.4-6.4-6.4-6.4-12.8-6.4-19.2v-659.2c0-6.4 0-12.8 6.4-12.8 6.4-6.4 6.4-6.4 12.8-6.4h614.4c6.4 0 12.8 0 12.8 6.4 6.4 6.4 6.4 6.4 6.4 12.8v492.8zM800 89.6h-192v454.4h192v-454.4zM569.6 563.2v-473.6h-345.6v627.2h345.6v-153.6zM659.2 480h89.6c12.8 0 12.8 6.4 12.8 12.8s-6.4 12.8-12.8 12.8h-89.6c-12.8 0-12.8-6.4-12.8-12.8s6.4-12.8 12.8-12.8zM659.2 409.6h89.6c12.8 0 12.8 12.8 12.8 12.8 0 12.8-6.4 12.8-12.8 12.8h-89.6c-12.8 0-12.8-6.4-12.8-12.8s6.4-12.8 12.8-12.8zM659.2 339.2h89.6c12.8 0 12.8 6.4 12.8 12.8 0 12.8-6.4 12.8-12.8 12.8h-89.6c-12.8 0-12.8-6.4-12.8-12.8s6.4-12.8 12.8-12.8zM659.2 268.8h89.6c12.8 0 12.8 6.4 12.8 12.8 0 12.8-6.4 12.8-12.8 12.8h-89.6c-12.8 0-12.8-6.4-12.8-12.8s6.4-12.8 12.8-12.8zM659.2 198.4h89.6c12.8 0 12.8 6.4 12.8 12.8 0 12.8-6.4 12.8-12.8 12.8h-89.6c-12.8 0-12.8-6.4-12.8-12.8s6.4-12.8 12.8-12.8zM659.2 128h89.6c12.8 0 12.8 6.4 12.8 12.8 0 12.8-6.4 12.8-12.8 12.8h-89.6c-12.8 0-12.8-6.4-12.8-12.8s6.4-12.8 12.8-12.8zM281.6 614.4c12.8 0 12.8 6.4 12.8 12.8v32c0 12.8-6.4 12.8-12.8 12.8-12.8 0-12.8-12.8-12.8-12.8v-32c0-6.4 6.4-12.8 12.8-12.8zM358.4 614.4c12.8 0 12.8 6.4 12.8 12.8v32c0 12.8-6.4 12.8-12.8 12.8-12.8 0-12.8-6.4-12.8-12.8v-32c0-6.4 6.4-12.8 12.8-12.8zM435.2 614.4c12.8 0 12.8 6.4 12.8 12.8v32c0 12.8-6.4 12.8-12.8 12.8-12.8 0-12.8-12.8-12.8-12.8v-32c0-6.4 6.4-12.8 12.8-12.8zM512 614.4c12.8 0 12.8 6.4 12.8 12.8v32c0 12.8-6.4 12.8-12.8 12.8-12.8 0-12.8-12.8-12.8-12.8v-32c0-6.4 0-12.8 12.8-12.8zM281.6 518.4c12.8 0 12.8 6.4 12.8 12.8v25.6c6.4 12.8 0 19.2-12.8 19.2-6.4 0-12.8-6.4-12.8-19.2v-32c0 0 6.4-6.4 12.8-6.4zM358.4 518.4c12.8 0 12.8 6.4 12.8 12.8v25.6c0 12.8 0 19.2-12.8 19.2-6.4 0-12.8-6.4-12.8-19.2v-32c0 0 6.4-6.4 12.8-6.4zM435.2 518.4c12.8 0 12.8 6.4 12.8 12.8v25.6c6.4 12.8 0 19.2-12.8 19.2-6.4 0-12.8-6.4-12.8-19.2v-32c0 0 6.4-6.4 12.8-6.4zM512 518.4c12.8 0 12.8 6.4 12.8 12.8v25.6c0 12.8 0 19.2-12.8 19.2s-12.8-6.4-12.8-19.2v-32c0 0 0-6.4 12.8-6.4zM281.6 422.4c12.8 0 12.8 6.4 12.8 12.8v32c0 12.8-6.4 12.8-12.8 12.8-12.8 0-12.8-6.4-12.8-12.8v-32c0-6.4 6.4-12.8 12.8-12.8zM358.4 422.4c12.8 0 12.8 6.4 12.8 12.8v32c0 12.8-6.4 12.8-12.8 12.8-12.8 0-12.8-6.4-12.8-12.8v-32c0-6.4 6.4-12.8 12.8-12.8zM435.2 422.4c12.8 0 12.8 6.4 12.8 12.8v32c0 12.8-6.4 12.8-12.8 12.8-12.8 0-12.8-6.4-12.8-12.8v-32c0-6.4 6.4-12.8 12.8-12.8zM512 422.4c12.8 0 12.8 6.4 12.8 12.8v32c0 12.8-6.4 12.8-12.8 12.8-12.8 0-12.8-6.4-12.8-12.8v-32c0-6.4 0-12.8 12.8-12.8zM281.6 320c12.8 0 12.8 6.4 12.8 12.8v38.4c6.4 12.8 0 12.8-12.8 12.8-6.4 0-12.8-6.4-12.8-12.8v-32c0-6.4 6.4-19.2 12.8-19.2zM358.4 320c12.8 0 12.8 6.4 12.8 12.8v38.4c0 12.8 0 12.8-12.8 12.8-6.4 0-12.8 0-12.8-12.8v-32c0-6.4 6.4-19.2 12.8-19.2zM435.2 320c12.8 0 19.2 6.4 19.2 19.2v32c0 12.8-6.4 12.8-19.2 12.8-6.4 0-12.8-6.4-12.8-12.8v-32c0-6.4 6.4-19.2 12.8-19.2zM512 320c12.8 0 12.8 6.4 12.8 12.8v38.4c0 12.8 0 12.8-12.8 12.8s-12.8-6.4-12.8-12.8v-32c0-6.4 0-19.2 12.8-19.2zM281.6 230.4c12.8 0 12.8 6.4 12.8 12.8v32c0 12.8-6.4 12.8-12.8 12.8-12.8 0-12.8-6.4-12.8-12.8v-32c0-6.4 6.4-12.8 12.8-12.8zM358.4 230.4c12.8 0 12.8 6.4 12.8 12.8v32c0 12.8-6.4 12.8-12.8 12.8-12.8 0-12.8-6.4-12.8-12.8v-32c0-6.4 6.4-12.8 12.8-12.8zM435.2 230.4c12.8 0 12.8 6.4 12.8 12.8v32c0 12.8-6.4 12.8-12.8 12.8-12.8 0-12.8-6.4-12.8-12.8v-32c0-6.4 6.4-12.8 12.8-12.8zM512 230.4c12.8 0 12.8 6.4 12.8 12.8v32c0 12.8-6.4 12.8-12.8 12.8-12.8 0-12.8-6.4-12.8-12.8v-32c0-6.4 0-12.8 12.8-12.8zM281.6 134.4c12.8 0 12.8 6.4 12.8 12.8v32c6.4 12.8 0 12.8-12.8 12.8s-12.8-6.4-12.8-12.8v-32c0-6.4 6.4-12.8 12.8-12.8zM358.4 134.4c12.8 0 12.8 6.4 12.8 12.8v32c0 12.8 0 12.8-12.8 12.8s-12.8-6.4-12.8-12.8v-32c0-6.4 6.4-12.8 12.8-12.8zM435.2 134.4c12.8 0 12.8 6.4 12.8 12.8v32c6.4 12.8 0 12.8-12.8 12.8s-12.8-6.4-12.8-12.8v-32c0-6.4 6.4-12.8 12.8-12.8zM512 134.4c12.8 0 12.8 6.4 12.8 12.8v32c0 12.8 0 12.8-12.8 12.8s-12.8-6.4-12.8-12.8v-32c0-6.4 0-12.8 12.8-12.8z" />
<glyph unicode="&#xe936;" glyph-name="icon-parcel" data-tags="icon-parcel" d="M512 896l-403.2-204.8v-473.6l384-204.8 422.4 198.4v480l-403.2 204.8zM806.4 672l-313.6-128-268.8 128 288 147.2 294.4-147.2zM172.8 627.2l288-140.8v-390.4l-288 160v371.2zM524.8 102.4v390.4l326.4 134.4v-371.2l-326.4-153.6z" />
<glyph unicode="&#xe937;" glyph-name="icon-people-circle" data-tags="icon-people-circle" d="M512 864c-230.4 0-416-185.6-416-416s185.6-416 416-416 416 185.6 416 416-185.6 416-416 416zM512 812.8c204.8 0 364.8-160 364.8-364.8 0-70.4-19.2-147.2-64-204.8-25.6 102.4-102.4 185.6-204.8 224 38.4 32 57.6 70.4 57.6 128 0 89.6-70.4 153.6-153.6 153.6s-153.6-64-153.6-153.6c0-51.2 19.2-96 57.6-128-102.4-38.4-179.2-121.6-204.8-224-38.4 57.6-64 128-64 204.8 0 204.8 160 364.8 364.8 364.8zM512 492.8c-57.6 0-102.4 44.8-102.4 102.4s44.8 102.4 102.4 102.4 102.4-44.8 102.4-102.4-44.8-102.4-102.4-102.4zM512 83.2c-96 0-192 44.8-262.4 108.8 6.4 140.8 121.6 243.2 262.4 243.2s249.6-108.8 262.4-243.2c-70.4-64-166.4-108.8-262.4-108.8z" />
<glyph unicode="&#xe938;" glyph-name="icon-people" data-tags="icon-people" d="M633.6 473.6c44.8 38.4 70.4 89.6 70.4 153.6 0 108.8-83.2 192-192 192s-192-83.2-192-192c0-64 25.6-115.2 70.4-153.6-153.6-51.2-262.4-192-262.4-358.4 0-19.2 12.8-32 32-32s32 12.8 32 32c0 179.2 140.8 320 320 320s320-140.8 320-320c0-19.2 12.8-32 32-32s32 12.8 32 32c0 166.4-108.8 307.2-262.4 358.4zM384 627.2c0 70.4 57.6 128 128 128s128-57.6 128-128-57.6-128-128-128v0 0c-70.4 0-128 51.2-128 128z" />
<glyph unicode="&#xe939;" glyph-name="icon-phone" data-tags="icon-phone" d="M128 768c-12.8-384 339.2-736 723.2-723.2 6.4 0 12.8 6.4 25.6 12.8l25.6 140.8c0 6.4-6.4 25.6-12.8 25.6l-185.6 51.2c-32 12.8-70.4-25.6-89.6-38.4-6.4-6.4-12.8-6.4-25.6-6.4-108.8 38.4-230.4 160-268.8 268.8 0 6.4 0 12.8 6.4 25.6s38.4 51.2 32 89.6l-51.2 185.6c-12.8 6.4-19.2 12.8-25.6 12.8l-140.8-25.6c-6.4 0-12.8-12.8-12.8-19.2z" />
<glyph unicode="&#xe93a;" glyph-name="icon-pickup" data-tags="icon-pickup" d="M729.6 582.4h134.4c25.6 0 38.4-12.8 38.4-38.4s-12.8-38.4-38.4-38.4h-134.4c-25.6 0-38.4 12.8-38.4 38.4s12.8 38.4 38.4 38.4zM614.4 697.6h134.4c25.6 0 38.4-12.8 38.4-38.4s-12.8-38.4-38.4-38.4h-134.4c-25.6 0-38.4 19.2-38.4 38.4s12.8 38.4 38.4 38.4zM787.2 166.4h-531.2c-19.2 0-38.4 19.2-38.4 38.4v531.2c0 19.2 19.2 38.4 38.4 38.4h102.4c12.8 0 25.6-6.4 32-12.8l428.8-428.8c6.4-6.4 12.8-19.2 12.8-25.6v-102.4c-6.4-25.6-19.2-38.4-44.8-38.4zM294.4 243.2h460.8v51.2l-409.6 403.2h-51.2v-454.4z" />
<glyph unicode="&#xe93b;" glyph-name="icon-pin-map" data-tags="icon-pin-map" d="M601.6 633.6c0 51.2-38.4 89.6-89.6 89.6s-89.6-38.4-89.6-89.6 38.4-89.6 89.6-89.6c51.2 0 89.6 38.4 89.6 89.6zM512 595.2c-19.2 0-32 19.2-32 32s12.8 38.4 32 38.4c19.2 0 32-19.2 32-32s-12.8-38.4-32-38.4zM889.6 128l-89.6 192c-12.8 19.2-25.6 32-51.2 32h-96l70.4 121.6c25.6 44.8 44.8 89.6 44.8 134.4 0 147.2-121.6 262.4-262.4 262.4-147.2 0-262.4-121.6-262.4-262.4 6.4-44.8 12.8-96 44.8-134.4l70.4-121.6h-76.8c-25.6 0-38.4-6.4-51.2-32l-96-192c-6.4-6.4-6.4-19.2-6.4-19.2 0-19.2 6.4-25.6 19.2-38.4s19.2-19.2 38.4-19.2h659.2c19.2 0 25.6 6.4 38.4 19.2s19.2 19.2 19.2 38.4c-6.4 0-6.4 12.8-12.8 19.2zM339.2 505.6c-19.2 32-25.6 64-25.6 102.4 0 51.2 19.2 102.4 57.6 134.4 32 38.4 83.2 57.6 134.4 57.6s102.4-19.2 134.4-57.6c38.4-38.4 64-76.8 64-134.4-6.4-64-44.8-140.8-44.8-140.8v0l-147.2-243.2-172.8 281.6zM217.6 128l76.8 153.6h108.8l76.8-121.6c6.4-12.8 19.2-19.2 25.6-19.2s19.2 6.4 25.6 19.2l76.8 121.6h121.6l70.4-153.6h-582.4z" />
<glyph unicode="&#xe93c;" glyph-name="icon-pin" data-tags="icon-pin" d="M844.8 588.8c0 185.6-153.6 332.8-332.8 332.8-185.6 0-332.8-153.6-339.2-332.8 0-64 19.2-121.6 44.8-179.2v0l268.8-422.4c6.4-6.4 12.8-12.8 25.6-12.8 6.4 0 12.8 0 19.2 6.4 6.4 0 6.4 6.4 12.8 12.8v0l256 428.8c32 44.8 44.8 102.4 44.8 166.4zM748.8 454.4l-230.4-377.6-236.8 371.2c-25.6 44.8-38.4 89.6-38.4 140.8 0 70.4 32 140.8 76.8 185.6s121.6 83.2 192 83.2c70.4 0 140.8-32 185.6-76.8 51.2-51.2 76.8-115.2 76.8-192 6.4-51.2-6.4-96-25.6-134.4zM524.8 723.2c-64 0-108.8-51.2-108.8-108.8 0-64 51.2-108.8 108.8-108.8 64 0 108.8 51.2 108.8 108.8 0 64-44.8 108.8-108.8 108.8zM524.8 563.2c-25.6 0-51.2 25.6-51.2 51.2s25.6 51.2 51.2 51.2c25.6 0 51.2-19.2 51.2-51.2 0-25.6-25.6-51.2-51.2-51.2z" />
<glyph unicode="&#xe93d;" glyph-name="icon-pop-out" data-tags="icon-pop-out" d="M921.6 288v-192c0-25.6-19.2-51.2-51.2-51.2h-665.6c-32 0-51.2 19.2-51.2 51.2v665.6c0 32 19.2 51.2 51.2 51.2h192c25.6 0 51.2-19.2 51.2-51.2s-25.6-44.8-51.2-44.8h-147.2v-576h576v140.8c0 25.6 19.2 51.2 51.2 51.2s44.8-19.2 44.8-44.8zM915.2 780.8c-6.4 12.8-12.8 19.2-25.6 25.6-6.4 6.4-12.8 6.4-19.2 6.4h-256c-25.6 0-44.8-19.2-44.8-51.2s19.2-51.2 51.2-51.2h140.8l-230.4-224c-19.2-19.2-19.2-51.2 0-70.4 6.4-6.4 19.2-6.4 32-6.4s25.6 6.4 32 12.8l230.4 230.4v-140.8c0-25.6 19.2-51.2 51.2-51.2s44.8 19.2 44.8 44.8v256c0 6.4 0 12.8-6.4 19.2z" />
<glyph unicode="&#xe93e;" glyph-name="icon-poweroff" data-tags="icon-poweroff" d="M524.8 601.6c-25.6 0-51.2 19.2-51.2 51.2v140.8c0 25.6 19.2 51.2 51.2 51.2s51.2-19.2 51.2-51.2v-140.8c0-25.6-25.6-51.2-51.2-51.2zM627.2 774.4v-102.4c102.4-44.8 179.2-147.2 179.2-262.4 0-160-128-288-288-288s-288 128-288 288c0 121.6 70.4 224 179.2 262.4v102.4c-166.4-44.8-281.6-192-281.6-364.8 0-211.2 172.8-384 384-384s384 172.8 384 384c0 172.8-115.2 320-268.8 364.8z" />
<glyph unicode="&#xe93f;" glyph-name="icon-profile" data-tags="icon-profile" d="M512 864c-230.4 0-416-185.6-416-416s185.6-416 416-416 416 185.6 416 416-185.6 416-416 416zM512 812.8c204.8 0 364.8-160 364.8-364.8 0-70.4-19.2-147.2-64-204.8-25.6 102.4-102.4 185.6-204.8 224 38.4 32 57.6 70.4 57.6 128 0 89.6-70.4 153.6-153.6 153.6s-153.6-64-153.6-153.6c0-51.2 19.2-96 57.6-128-102.4-38.4-179.2-121.6-204.8-224-44.8 57.6-64 128-64 204.8 0 204.8 160 364.8 364.8 364.8zM512 492.8c-57.6 0-102.4 44.8-102.4 102.4s44.8 102.4 102.4 102.4 102.4-44.8 102.4-102.4-44.8-102.4-102.4-102.4zM512 83.2c-96 0-192 44.8-262.4 108.8 6.4 140.8 121.6 243.2 262.4 243.2s249.6-108.8 262.4-243.2c-70.4-64-166.4-108.8-262.4-108.8z" />
<glyph unicode="&#xe940;" glyph-name="icon-recieve-cod" data-tags="icon-recieve-cod" d="M934.4 275.2c12.8 12.8 25.6 32 25.6 51.2 0 6.4 0 25.6-6.4 32v0 0 0 0c-12.8 25.6-38.4 38.4-70.4 38.4-12.8 0-19.2-6.4-38.4-12.8h-6.4c-25.6-6.4-76.8-38.4-128-57.6v0c-6.4 0-12.8-6.4-12.8-6.4v-12.8c0-6.4 6.4-12.8 6.4-12.8h12.8c57.6 25.6 134.4 57.6 134.4 57.6v0h12.8c12.8 0 25.6-6.4 25.6-12.8v0 0-19.2c0-6.4-6.4-19.2-12.8-32-38.4-32-89.6-76.8-147.2-108.8-57.6-38.4-121.6-76.8-140.8-76.8-57.6 0-236.8 38.4-288 51.2v198.4c19.2 0 38.4 6.4 51.2 6.4 51.2 6.4 96-12.8 166.4-38.4v0 0c32-6.4 64-19.2 102.4-38.4v0 0c0 0 6.4-6.4 6.4-12.8v-12.8c0-6.4-6.4-6.4-6.4-12.8 0 0-6.4-6.4-12.8-6.4-12.8 6.4-51.2 6.4-96 12.8s-83.2 6.4-83.2 6.4c-12.8 0-25.6-6.4-25.6-6.4v0-6.4c0-12.8 6.4-25.6 6.4-25.6v0 0c0 0 153.6-25.6 179.2-25.6 6.4 0 6.4 0 6.4 0 38.4 0 51.2 32 57.6 51.2 0 6.4 0 12.8 0 25.6 0 19.2-12.8 44.8-38.4 57.6v0 0c-32 19.2-64 25.6-96 44.8v0 0c-70.4 25.6-115.2 44.8-179.2 44.8-12.8 0-32 0-51.2 0 0 25.6-6.4 25.6-6.4 25.6h-12.8v-6.4c0 12.8-6.4 25.6-25.6 25.6h-153.6c-19.2-6.4-25.6-19.2-25.6-32v-332.8c0-12.8 6.4-25.6 19.2-25.6h160c12.8 0 25.6 6.4 25.6 25.6v6.4h32c12.8 0 19.2 6.4 19.2 12.8 57.6-12.8 224-44.8 288-44.8 44.8 0 102.4 32 198.4 96v0 0 0 0c70.4 51.2 128 108.8 128 108.8v0zM230.4 409.6v-294.4h-121.6v294.4h121.6zM294.4 147.2v-25.6h-44.8v268.8h38.4v-249.6h6.4zM684.8 249.6v0 0zM908.8 825.6h-608v-332.8h608v332.8zM870.4 691.2c-12.8 6.4-25.6 6.4-38.4 12.8-19.2 12.8-44.8 44.8-44.8 89.6h83.2v-102.4zM422.4 793.6c0-51.2-32-83.2-57.6-96-12.8-6.4-19.2-6.4-25.6-6.4v102.4h83.2zM339.2 518.4v76.8c12.8-6.4 25.6-6.4 38.4-19.2s38.4-32 44.8-57.6h-83.2zM460.8 518.4c-6.4 51.2-44.8 83.2-76.8 96-12.8 19.2-32 19.2-44.8 25.6v6.4c12.8 0 32 6.4 44.8 12.8 38.4 25.6 76.8 57.6 83.2 128h281.6c0-70.4 44.8-115.2 83.2-128 12.8-6.4 32-12.8 44.8-12.8v-6.4c-12.8 0-32-6.4-44.8-12.8-32-12.8-70.4-51.2-76.8-96h-294.4v-12.8zM787.2 518.4c12.8 64 83.2 83.2 89.6 83.2v-83.2h-89.6zM608 729.6c-38.4 0-70.4-32-70.4-64s32-70.4 70.4-70.4c38.4 0 64 32 64 70.4 6.4 32-25.6 64-64 64zM608 633.6c-12.8 0-32 12.8-32 32 0 12.8 12.8 32 32 38.4 12.8 0 32-12.8 32-38.4 0-19.2-12.8-32-32-32z" />
<glyph unicode="&#xe941;" glyph-name="icon-return" data-tags="icon-return" d="M716.8 614.4h-531.2l83.2 83.2c12.8 12.8 12.8 32 0 44.8s-32 12.8-44.8 0l-147.2-147.2c-6.4-6.4-6.4-19.2 0-25.6l140.8-147.2c12.8-12.8 32-12.8 44.8 0s12.8 32 0 44.8v0 0l-76.8 83.2h518.4c108.8 0 192-83.2 192-192s-83.2-192-192-192-192 83.2-192 192c0 19.2-12.8 32-32 32s-32-19.2-32-32c0-140.8 115.2-256 256-256s256 115.2 256 256c0 134.4-108.8 243.2-243.2 256z" />
<glyph unicode="&#xe942;" glyph-name="icon-search" data-tags="icon-search" d="M851.2 179.2l-166.4 166.4c32 44.8 51.2 102.4 51.2 166.4 0 160-128 288-288 288s-288-128-288-288 128-288 288-288c64 0 121.6 19.2 166.4 51.2l166.4-166.4c6.4-6.4 19.2-12.8 32-12.8 25.6 0 51.2 19.2 51.2 51.2 0 12.8-6.4 25.6-12.8 32zM448 320c-108.8 0-192 83.2-192 192s83.2 192 192 192 192-83.2 192-192-83.2-192-192-192z" />
<glyph unicode="&#xe943;" glyph-name="icon-send" data-tags="icon-send" d="M128 448c0-19.2 12.8-25.6 25.6-32l275.2-83.2 12.8-185.6c0-6.4 6.4-19.2 12.8-19.2h6.4c6.4 0 12.8 0 19.2 6.4l96 102.4 134.4-96c6.4-6.4 12.8-6.4 19.2-6.4 19.2 0 32 12.8 38.4 25.6l115.2 576c0 6.4 0 12.8-6.4 19.2-12.8 12.8-19.2 12.8-25.6 6.4l-697.6-275.2c-12.8-12.8-25.6-25.6-25.6-38.4zM473.6 192l-6.4 121.6 70.4-51.2-64-70.4zM723.2 179.2l-249.6 166.4 352 339.2-102.4-505.6zM787.2 697.6l-345.6-326.4-275.2 83.2 620.8 243.2zM128 448h-6.4c0-19.2 12.8-32 32-38.4v0l268.8-83.2 12.8-179.2 6.4-12.8c0-6.4 6.4-6.4 12.8-6.4h6.4c6.4 0 12.8 0 19.2 6.4v0l96 96 134.4-89.6 6.4 6.4-12.8-6.4 12.8-6.4c6.4 0 6.4 0 12.8 0 19.2 0 38.4 12.8 44.8 32v0l115.2 576c0 6.4 0 12.8-6.4 19.2v0c-12.8 6.4-19.2 12.8-25.6 12.8s-12.8 0-12.8-6.4l6.4-6.4v6.4l-704-275.2c-12.8-12.8-25.6-25.6-25.6-44.8h12.8c0 12.8 6.4 19.2 19.2 32v0l697.6 281.6c0 0 6.4 0 12.8-6.4v0c6.4-6.4 6.4-6.4 6.4-12.8v0l-115.2-576c-6.4-12.8-19.2-25.6-32-25.6-6.4 0-6.4 0-12.8 0h-6.4l-128 102.4h-6.4l-96-102.4c-6.4-6.4-6.4-6.4-12.8-6.4h-6.4l-6.4 12.8-12.8 185.6v6.4l-275.2 83.2c-12.8 0-25.6 12.8-25.6 25.6h-6.4zM473.6 192h6.4l-6.4 108.8 51.2-38.4-51.2-70.4 70.4 64v12.8l-70.4 51.2-12.8-6.4 6.4-121.6h6.4zM723.2 179.2v0l-236.8 166.4 326.4 320-96-486.4h12.8l102.4 505.6-12.8 6.4-352-339.2v-12.8l256-160zM787.2 697.6v0l-345.6-320-249.6 76.8 595.2 243.2-620.8-236.8v-12.8l275.2-83.2h6.4l339.2 332.8z" />
<glyph unicode="&#xe944;" glyph-name="icon-settings" data-tags="icon-settings" d="M563.2 832l19.2-64 12.8-25.6 25.6-12.8c6.4 0 6.4 0 12.8-6.4l25.6-12.8 25.6 12.8 57.6 25.6 70.4-70.4-25.6-57.6-12.8-25.6 12.8-25.6c0-6.4 6.4-6.4 6.4-12.8l12.8-25.6 25.6-12.8 64-19.2v-102.4l-64-19.2-25.6-12.8-12.8-25.6c0-6.4-6.4-6.4-6.4-12.8l-12.8-25.6 12.8-25.6 25.6-57.6-70.4-70.4-57.6 25.6-25.6 12.8-25.6-12.8c-6.4 0-6.4-6.4-12.8-6.4l-25.6-12.8-12.8-25.6-19.2-64h-102.4l-19.2 64-12.8 25.6-25.6 12.8c-6.4 0-6.4 6.4-12.8 6.4l-25.6 12.8-25.6-12.8-57.6-25.6-70.4 70.4 25.6 57.6 12.8 25.6-12.8 25.6c0 6.4-6.4 6.4-6.4 12.8l-12.8 25.6-25.6 12.8-64 19.2v102.4l64 19.2 25.6 12.8 12.8 25.6c0 6.4 0 6.4 6.4 12.8l12.8 25.6-19.2 25.6-25.6 64 70.4 70.4 57.6-25.6 25.6-12.8 25.6 12.8c6.4 0 6.4 6.4 12.8 6.4l25.6 12.8 19.2 19.2 19.2 64h102.4zM608 896h-192l-12.8-38.4-25.6-64c-6.4 0-12.8-6.4-12.8-6.4l-64 32-38.4 12.8-134.4-134.4 51.2-102.4c0-6.4-6.4-12.8-6.4-12.8l-64-25.6-44.8-12.8v-192l38.4-12.8 64-25.6c0-6.4 6.4-12.8 6.4-12.8l-32-64-12.8-38.4 134.4-134.4 102.4 51.2c6.4 0 12.8-6.4 12.8-6.4l25.6-64 12.8-44.8h192l12.8 38.4 25.6 64c6.4 0 12.8 6.4 12.8 6.4l102.4-51.2 134.4 134.4-51.2 102.4c0 6.4 6.4 12.8 6.4 12.8l64 25.6 44.8 19.2v192l-38.4 12.8-64 25.6c0 6.4-6.4 12.8-6.4 12.8l32 64 12.8 38.4-134.4 134.4-102.4-51.2c-6.4 0-12.8 6.4-12.8 6.4l-25.6 64-12.8 44.8zM512 544c51.2 0 96-44.8 96-96s-44.8-96-96-96-96 44.8-96 96 44.8 96 96 96zM512 608c-89.6 0-160-70.4-160-160s70.4-160 160-160 160 70.4 160 160-70.4 160-160 160v0z" />
<glyph unicode="&#xe945;" glyph-name="icon-sorting" data-tags="icon-sorting" d="M889.6 518.4c-25.6 0-51.2-12.8-57.6-32h-467.2c-6.4 19.2-19.2 38.4-44.8 51.2 19.2 70.4 83.2 153.6 230.4 153.6h38.4c12.8-19.2 32-32 64-32 38.4 0 70.4 25.6 70.4 70.4 0 38.4-25.6 70.4-70.4 70.4-25.6 0-51.2-12.8-57.6-32h-51.2c-89.6-12.8-160-38.4-217.6-89.6-32-44.8-64-83.2-70.4-128-32-6.4-70.4-32-83.2-70.4h-76.8c-19.2 0-32-12.8-32-32s12.8-32 32-32h76.8c12.8-32 38.4-64 83.2-70.4 12.8-38.4 32-89.6 76.8-121.6 57.6-57.6 128-83.2 217.6-83.2h153.6c12.8-19.2 32-32 57.6-32 38.4 0 70.4 25.6 70.4 70.4 0 38.4-25.6 70.4-70.4 70.4-25.6 0-51.2-12.8-64-32h-153.6c-147.2 0-198.4 83.2-230.4 153.6 19.2 12.8 32 32 51.2 57.6h467.2c12.8-19.2 32-32 64-32 38.4-19.2 64 12.8 64 51.2s-25.6 70.4-70.4 70.4zM659.2 748.8c12.8 0 25.6-12.8 25.6-25.6s-12.8-25.6-25.6-25.6c-12.8 0-25.6 12.8-25.6 25.6-6.4 12.8 6.4 25.6 25.6 25.6zM761.6 198.4c12.8 0 25.6-12.8 25.6-25.6s-12.8-25.6-25.6-25.6c-12.8 0-25.6 12.8-25.6 25.6-6.4 12.8 6.4 25.6 25.6 25.6zM262.4 396.8c-25.6 0-44.8 25.6-44.8 51.2s19.2 51.2 51.2 51.2 44.8-25.6 44.8-51.2-25.6-51.2-51.2-51.2zM896 422.4c-12.8 0-25.6 12.8-25.6 25.6s12.8 25.6 25.6 25.6c12.8 0 25.6-12.8 25.6-25.6 6.4-12.8-6.4-25.6-25.6-25.6z" />
<glyph unicode="&#xe946;" glyph-name="icon-statistic" data-tags="icon-statistic" d="M864 768c-51.2 0-96-44.8-96-96 0-25.6 6.4-44.8 19.2-57.6l-96-166.4c-6.4 0-12.8 0-19.2 0-25.6 0-44.8-6.4-57.6-19.2l-166.4 96c0 6.4 0 12.8 0 19.2 0 51.2-44.8 96-96 96s-96-44.8-96-96c0-25.6 12.8-51.2 25.6-64l-108.8-224c-6.4 0-6.4 0-12.8 0-51.2 0-96-44.8-96-96s44.8-96 96-96 96 44.8 96 96c0 25.6-12.8 51.2-25.6 64l108.8 224c6.4 0 6.4 0 12.8 0 25.6 0 44.8 6.4 57.6 19.2l166.4-96c0-6.4 0-12.8 0-19.2 0-51.2 44.8-96 96-96s96 44.8 96 96c0 25.6-6.4 44.8-19.2 57.6l96 166.4c6.4 0 12.8 0 19.2 0 51.2 0 96 44.8 96 96s-44.8 96-96 96z" />
<glyph unicode="&#xe947;" glyph-name="icon-sync" data-tags="icon-sync" d="M99.008 369.92c1.344 0 2.688 0.128 3.968 0.256 17.536 2.24 29.952 18.24 27.776 35.776-1.664 14.016-2.624 28.16-2.752 42.048 0 211.776 172.224 384 384 384 116.352-0.128 232.448-62.336 307.648-161.6l-74.752 1.472c-17.088-0.576-32.256-13.696-32.64-31.36-0.32-17.664 13.696-32.256 31.36-32.64l153.152-3.008c0.192 0 0.448 0 0.64 0 8.384 0 16.448 3.264 22.464 9.152 6.144 6.016 9.536 14.272 9.536 22.848l-0.128 152.576c0 17.664-14.336 32-32 32s-32-14.336-32-32l0.064-73.792c-87.296 110.912-219.904 180.16-353.344 180.352-247.040 0-448-200.96-448-448.256 0.128-16.64 1.28-33.28 3.328-49.728 1.984-16.192 15.808-28.096 31.68-28.096zM949.056 543.232c-3.84 17.216-20.48 27.968-38.144 24.32-17.28-3.84-28.16-20.864-24.384-38.144 5.952-26.816 9.28-55.808 9.472-81.408 0-211.776-172.224-384-384-384-135.872 0.192-260.736 73.408-329.216 188.736l79.36-1.536c19.904 1.536 32.256 13.76 32.64 31.36 0.32 17.664-13.696 32.256-31.36 32.64l-153.088 3.008c-8.512-0.192-16.896-3.2-23.040-9.216s-9.6-14.272-9.6-22.784l0.064-152.576c0-17.664 14.336-32 32-32s32 14.336 32 32l-0.064 64.064c82.368-121.6 220.672-197.504 370.304-197.696 246.976 0 448 201.024 448 448.192-0.192 30.592-3.968 63.488-10.944 95.040z" />
<glyph unicode="&#xe948;" glyph-name="icon-timer" data-tags="icon-timer" d="M812.8 608l38.4 38.4c12.8 12.8 12.8 38.4 0 51.2s-38.4 12.8-51.2 0l-38.4-38.4c-57.6 51.2-128 83.2-211.2 89.6v0 83.2h76.8c25.6 0 38.4 12.8 38.4 38.4s-12.8 38.4-38.4 38.4h-230.4c-25.6 0-38.4-12.8-38.4-38.4s12.8-38.4 38.4-38.4h76.8v-76.8c-192-25.6-345.6-185.6-345.6-384 0-204.8 166.4-384 384-384s384 179.2 384 384c0 89.6-32 179.2-83.2 236.8zM512 64c-166.4 0-307.2 140.8-307.2 307.2s140.8 307.2 307.2 307.2 307.2-140.8 307.2-307.2-140.8-307.2-307.2-307.2zM550.4 524.8v-153.6c0-25.6-12.8-38.4-38.4-38.4s-38.4 12.8-38.4 38.4v153.6c0 25.6 12.8 38.4 38.4 38.4s38.4-12.8 38.4-38.4z" />
<glyph unicode="&#xe949;" glyph-name="icon-trash" data-tags="icon-trash" d="M864 704h-160c-12.8 0-19.2 6.4-25.6 19.2l-32 96c-6.4 6.4-12.8 12.8-25.6 12.8h-217.6c-12.8 0-19.2-6.4-25.6-19.2l-25.6-89.6c-6.4-12.8-12.8-19.2-25.6-19.2h-166.4c-19.2 0-32-12.8-25.6-32l115.2-588.8c6.4-12.8 12.8-19.2 25.6-19.2h473.6c12.8 0 19.2 6.4 25.6 19.2l115.2 588.8c6.4 19.2-6.4 32-25.6 32zM435.2 768h166.4l19.2-64h-211.2l25.6 64zM729.6 147.2c-12.8-12.8-19.2-19.2-32-19.2h-371.2c-12.8 0-19.2 6.4-25.6 19.2l-89.6 460.8c-6.4 19.2 6.4 32 25.6 32h556.8c12.8 0 25.6-12.8 25.6-32l-89.6-460.8zM416 499.2c-19.2 0-32-12.8-32-32v-160c0-19.2 12.8-32 32-32s32 12.8 32 32v160c0 19.2-12.8 32-32 32zM608 499.2c-19.2 0-32-12.8-32-32v-160c0-19.2 12.8-32 32-32s32 12.8 32 32v160c0 19.2-12.8 32-32 32z" />
<glyph unicode="&#xe94a;" glyph-name="icon-unview" data-tags="icon-unview" d="M947.2 435.2c6.4 6.4 6.4 19.2 0 32-96 147.2-256 236.8-435.2 236.8-59.392 0-116.352-10.688-169.92-29.504l-169.792 169.792c-15.616 15.616-40.96 15.616-56.576 0s-15.616-40.96 0-56.576l147.648-147.648c-74.496-41.6-138.496-102.4-186.56-179.264-6.4-6.4-6.4-19.2 0-32 96-147.2 256-236.8 435.2-236.8 59.392 0 116.352 10.688 169.92 29.504l169.792-169.792c7.808-7.808 18.048-11.712 28.288-11.712s20.48 3.904 28.288 11.712c15.552 15.616 15.552 41.024 0 56.64l-147.648 147.648c74.496 41.536 138.56 102.336 186.56 179.2zM512 256c-147.2 0-281.6 70.4-364.8 192 42.816 62.592 99.328 111.296 164.096 144.128l62.976-62.976c-13.824-23.744-22.272-51.2-22.272-81.152 0-89.6 70.4-160 160-160 29.952 0 57.408 8.448 81.152 22.272l37.76-37.76c-38.144-10.496-77.952-16.512-118.912-16.512zM601.408 415.168l-122.24 122.24c10.368 4.032 21.376 6.592 32.832 6.592 51.2 0 96-44.8 96-96 0-11.456-2.496-22.464-6.592-32.832zM544.832 358.592c-10.368-4.096-21.376-6.592-32.832-6.592-51.2 0-96 44.8-96 96 0 11.456 2.56 22.464 6.592 32.832l122.24-122.24zM712.768 303.872l-62.976 62.976c13.76 23.744 22.208 51.2 22.208 81.152 0 89.6-70.4 160-160 160-29.952 0-57.408-8.448-81.152-22.272l-37.76 37.76c38.144 10.496 77.952 16.512 118.912 16.512 147.2 0 281.6-70.4 364.8-192-42.816-62.592-99.328-111.296-164.032-144.128z" />
<glyph unicode="&#xe94b;" glyph-name="icon-upload" data-tags="icon-upload" d="M576 640v-320h-192v-64h256v384l102.4-102.4 44.8 44.8-179.2 179.2-179.2-172.8 44.8-44.8 102.4 96zM608 672v0 0 0zM832 448v-320h-640v320h320v-64h-256v-192h512v192h-64v64h128z" />
<glyph unicode="&#xe94c;" glyph-name="icon-view" data-tags="icon-view" d="M512 192c-179.2 0-339.2 89.6-435.2 236.8-6.4 12.8-6.4 25.6 0 32 96 153.6 256 243.2 435.2 243.2s339.2-89.6 435.2-236.8c6.4-12.8 6.4-25.6 0-32-96-153.6-256-243.2-435.2-243.2zM147.2 448c83.2-121.6 217.6-192 364.8-192s281.6 70.4 364.8 192c-83.2 121.6-217.6 192-364.8 192s-281.6-70.4-364.8-192zM512 288c-89.6 0-160 70.4-160 160s70.4 160 160 160c89.6 0 160-70.4 160-160s-70.4-160-160-160zM512 544c-51.2 0-96-44.8-96-96s44.8-96 96-96 96 44.8 96 96-44.8 96-96 96z" />
<glyph unicode="&#xe94d;" glyph-name="icon-warehouse" data-tags="icon-warehouse" d="M915.2 441.6l-403.2 339.2-403.2-339.2 38.4-51.2 44.8 38.4v-300.8h640v300.8l44.8-38.4 38.4 51.2zM384 192v64h256v-64h-256zM640 320h-256v64h256v-64zM768 480v-288h-64v256h-384v-256h-64v288l256 211.2 256-211.2z" />
<glyph unicode="&#xe94e;" glyph-name="icon-world-minimal" data-tags="icon-world-minimal" d="M857.6 160c64 76.8 102.4 179.2 102.4 288s-38.4 204.8-102.4 288v0c0 0 0 0 0 0-12.8 12.8-19.2 25.6-32 32-6.4 6.4-6.4 6.4-12.8 12.8s-12.8 12.8-25.6 19.2c-6.4 6.4-6.4 6.4-12.8 12.8s-12.8 12.8-25.6 19.2c0-6.4-6.4 0-12.8 0-6.4 6.4-12.8 6.4-25.6 12.8-6.4 0-12.8 6.4-19.2 6.4-6.4 6.4-19.2 6.4-25.6 12.8-6.4 0-12.8 6.4-19.2 6.4s-19.2 6.4-25.6 6.4c-6.4 0-12.8 6.4-19.2 6.4-6.4 6.4-12.8 6.4-25.6 6.4-6.4 0-12.8 0-12.8 0-19.2 6.4-32 6.4-51.2 6.4s-32 0-51.2 0c-6.4 0-12.8 0-12.8 0-12.8 0-19.2 0-32-6.4-6.4 0-12.8 0-19.2-6.4-6.4 0-19.2-6.4-25.6-6.4s-12.8-6.4-19.2-6.4c-6.4-6.4-19.2-12.8-25.6-12.8-6.4-6.4-12.8-6.4-19.2-12.8-6.4 0-12.8-6.4-19.2-12.8-6.4 0-12.8-6.4-19.2-6.4-6.4-6.4-12.8-12.8-25.6-19.2 0 0-6.4-6.4-12.8-6.4-6.4-6.4-12.8-19.2-19.2-25.6-6.4 0-12.8-6.4-12.8-6.4-12.8-12.8-19.2-25.6-32-32 0 0 0 0 0 0v0c-64-83.2-102.4-179.2-102.4-288s38.4-204.8 102.4-288v0c0 0 0 0 0 0 12.8-12.8 19.2-25.6 32-32 6.4-6.4 6.4-6.4 12.8-12.8s12.8-12.8 25.6-19.2c6.4-6.4 6.4-6.4 12.8-12.8s12.8-12.8 25.6-19.2c0 6.4 6.4 0 12.8 0 6.4-6.4 12.8-6.4 25.6-12.8 6.4 0 12.8-6.4 19.2-6.4 6.4-6.4 19.2-6.4 25.6-12.8 6.4 0 12.8-6.4 19.2-6.4s19.2-6.4 25.6-6.4c6.4 0 12.8-6.4 19.2-6.4 12.8 0 19.2-6.4 32-6.4 6.4 0 12.8 0 12.8 0 19.2 0 32 0 51.2 0s32 0 51.2 0c6.4 0 12.8 0 12.8 0 12.8 0 19.2 0 32 6.4 6.4 0 12.8 0 19.2 6.4 6.4 0 19.2 6.4 25.6 6.4s12.8 6.4 19.2 6.4c6.4 6.4 19.2 6.4 25.6 12.8 6.4 0 12.8 6.4 19.2 6.4 6.4 6.4 19.2 6.4 25.6 12.8 6.4 0 12.8 6.4 19.2 12.8s12.8 12.8 25.6 19.2c6.4 6.4 6.4 6.4 12.8 12.8s12.8 12.8 25.6 19.2c6.4 6.4 6.4 6.4 12.8 12.8-6.4 0 0 12.8 12.8 19.2 0 0 0 0 0 0v0zM742.4 140.8c-12.8-12.8-25.6-19.2-38.4-25.6 0 0-6.4-6.4-6.4-6.4-6.4-6.4-12.8-6.4-19.2-12.8 12.8 19.2 25.6 38.4 38.4 64 12.8-6.4 25.6-6.4 44.8-12.8-12.8 0-12.8 0-19.2-6.4zM320 115.2c-12.8 6.4-25.6 19.2-38.4 25.6 0 0-6.4 0-6.4 6.4 12.8 6.4 25.6 12.8 44.8 12.8 12.8-25.6 25.6-44.8 38.4-64-6.4 6.4-12.8 6.4-19.2 12.8-12.8 6.4-19.2 6.4-19.2 6.4zM281.6 755.2c12.8 6.4 25.6 19.2 38.4 25.6 0 0 6.4 6.4 6.4 6.4 6.4 6.4 12.8 6.4 19.2 12.8-12.8-19.2-25.6-38.4-38.4-64-6.4 0-19.2 6.4-32 12.8 0 0 0 0 6.4 6.4zM704 780.8c12.8-6.4 25.6-19.2 38.4-25.6 0 0 6.4-6.4 6.4-6.4-12.8-6.4-25.6-12.8-44.8-12.8-12.8 25.6-25.6 44.8-38.4 64 6.4-6.4 12.8-6.4 19.2-12.8 12.8-6.4 19.2-6.4 19.2-6.4zM544 192c32 0 70.4-6.4 102.4-12.8-25.6-57.6-64-96-102.4-108.8v121.6zM544 256v160h160c0-64-12.8-128-32-179.2-38.4 12.8-83.2 19.2-128 19.2zM544 480v160c44.8 0 89.6 6.4 128 12.8 19.2-51.2 32-108.8 32-179.2h-160zM544 704v121.6c38.4-12.8 70.4-51.2 102.4-108.8-32-6.4-70.4-12.8-102.4-12.8zM480 825.6v-121.6c-32 0-70.4 6.4-102.4 12.8 32 57.6 64 96 102.4 108.8zM480 640v-160h-160c0 64 12.8 128 32 179.2 38.4-12.8 83.2-19.2 128-19.2zM480 416v-160c-44.8 0-89.6-6.4-128-12.8-19.2 44.8-25.6 108.8-32 172.8h160zM480 192v-121.6c-38.4 12.8-70.4 51.2-102.4 108.8 32 6.4 70.4 12.8 102.4 12.8zM736 224c19.2 57.6 32 121.6 32 192h128c-6.4-83.2-38.4-160-96-217.6-19.2 6.4-44.8 19.2-64 25.6zM896 480h-128c0 70.4-12.8 134.4-32 192 25.6 6.4 44.8 19.2 70.4 25.6 44.8-57.6 83.2-134.4 89.6-217.6zM288 672c-19.2-57.6-25.6-121.6-32-192h-128c6.4 83.2 44.8 160 96 217.6 19.2-6.4 44.8-19.2 64-25.6zM128 416h128c0-70.4 12.8-134.4 32-192-25.6-6.4-44.8-19.2-70.4-25.6-44.8 57.6-83.2 134.4-89.6 217.6z" />
<glyph unicode="&#xe94f;" glyph-name="icon-world" data-tags="icon-world" d="M512 896c-249.6 0-448-198.4-448-448s198.4-448 448-448 448 198.4 448 448c0 249.6-198.4 448-448 448zM889.6 422.4l-32 96c0 6.4-6.4 12.8-12.8 12.8l-128 32-25.6 51.2 64 89.6c0 0 0 0 0 6.4l12.8 25.6c76.8-70.4 128-172.8 128-281.6 0-19.2-6.4-32-6.4-32zM563.2 780.8l-25.6-128-12.8 6.4c-6.4 0-6.4 6.4-12.8 6.4s-6.4 0-12.8-6.4l-64-64c-6.4-6.4-6.4-12.8-6.4-19.2l32-102.4c0-6.4 6.4-12.8 12.8-12.8l96-12.8 51.2-38.4-38.4-70.4c0 0 0 0 0-6.4l-32-115.2-57.6-70.4-25.6 134.4c0 6.4 0 6.4-6.4 12.8l-64 44.8v38.4l44.8 76.8c0 6.4 0 12.8 0 19.2s-6.4 6.4-12.8 6.4l-172.8-12.8-108.8 102.4c6.4 19.2 12.8 38.4 25.6 51.2 12.8 25.6 32 44.8 44.8 70.4 70.4 89.6 172.8 140.8 294.4 140.8 6.4 0 12.8 0 19.2 0 6.4-12.8 32-51.2 32-51.2zM512 64c-211.2 0-384 172.8-384 384 0 19.2 0 44.8 6.4 64l83.2-83.2c6.4-6.4 19.2-12.8 38.4-12.8 0 0 0 0 6.4 0l108.8 12.8-19.2-25.6c-6.4-6.4-6.4-19.2-6.4-25.6v-38.4c0-19.2 6.4-32 19.2-38.4l51.2-38.4 19.2-121.6c6.4-19.2 19.2-32 38.4-38.4 6.4 0 6.4 0 12.8 0 12.8 0 32 6.4 38.4 19.2l57.6 70.4c6.4 6.4 6.4 12.8 12.8 19.2l32 108.8 38.4 64c12.8 19.2 6.4 51.2-12.8 64l-51.2 38.4c-6.4 6.4-12.8 12.8-25.6 12.8l-70.4 12.8-19.2 57.6 25.6 32c6.4 0 12.8-6.4 19.2-6.4s12.8 0 12.8 0c25.6 6.4 38.4 25.6 38.4 44.8l25.6 128c0 12.8 0 25.6-6.4 32 0 12.8 0 19.2-6.4 25.6 44.8-12.8 89.6-32 134.4-57.6 0-6.4-6.4-6.4-6.4-12.8l-6.4-25.6-64-89.6c-12.8-12.8-12.8-32 0-51.2l25.6-51.2c6.4-12.8 19.2-25.6 32-25.6l108.8-25.6 25.6-76.8c6.4-19.2 25.6-32 44.8-32-38.4-179.2-192-313.6-377.6-313.6z" />
<glyph unicode="&#xe950;" glyph-name="icon-toast" data-tags="toast-975527" d="M504.832 847.36c95.232 0 187.392-21.504 252.928-58.88 53.248-30.208 83.968-68.096 83.968-102.912 0-18.944-8.704-38.4-26.112-57.856l-17.408-19.968v-538.624h-586.24v538.624l-17.408 19.968c-17.408 19.456-26.112 38.912-26.112 57.856 0 35.328 30.72 72.704 83.968 102.912 65.024 37.376 157.184 58.88 252.416 58.88zM504.832 917.504c-224.768 0-406.528-103.936-406.528-231.936 0-37.376 15.872-73.216 43.52-104.448v-512c0-38.4 31.232-70.144 70.144-70.144h585.728c38.4 0 70.144 31.232 70.144 70.144v512c27.648 31.232 43.52 67.072 43.52 104.448 0 128-182.272 231.936-406.528 231.936v0zM290.816 125.952c0-12.159-9.857-22.016-22.016-22.016s-22.016 9.857-22.016 22.016c0 12.159 9.857 22.016 22.016 22.016s22.016-9.857 22.016-22.016zM282.624 187.392c0-9.897-8.023-17.92-17.92-17.92s-17.92 8.023-17.92 17.92c0 9.897 8.023 17.92 17.92 17.92s17.92-8.023 17.92-17.92zM276.48 268.288c0-8.2-6.648-14.848-14.848-14.848s-14.848 6.648-14.848 14.848c0 8.2 6.648 14.848 14.848 14.848s14.848-6.648 14.848-14.848zM348.16 122.368c0-9.897-8.023-17.92-17.92-17.92s-17.92 8.023-17.92 17.92c0 9.897 8.023 17.92 17.92 17.92s17.92-8.023 17.92-17.92zM487.936 200.704c0-6.786-5.502-12.288-12.288-12.288s-12.288 5.502-12.288 12.288c0 6.786 5.502 12.288 12.288 12.288s12.288-5.502 12.288-12.288zM271.36 381.44c0-6.786-5.502-12.288-12.288-12.288s-12.288 5.502-12.288 12.288c0 6.786 5.502 12.288 12.288 12.288s12.288-5.502 12.288-12.288zM271.36 549.888c0-6.786-5.502-12.288-12.288-12.288s-12.288 5.502-12.288 12.288c0 6.786 5.502 12.288 12.288 12.288s12.288-5.502 12.288-12.288zM595.968 118.272c0-7.635-6.189-13.824-13.824-13.824s-13.824 6.189-13.824 13.824c0 7.635 6.189 13.824 13.824 13.824s13.824-6.189 13.824-13.824zM736.768 119.296c0-6.786-5.502-12.288-12.288-12.288s-12.288 5.502-12.288 12.288c0 6.786 5.502 12.288 12.288 12.288s12.288-5.502 12.288-12.288zM439.296 119.296c0-8.483-6.877-15.36-15.36-15.36s-15.36 6.877-15.36 15.36c0 8.483 6.877 15.36 15.36 15.36s15.36-6.877 15.36-15.36zM487.936 429.568c0-6.786-5.502-12.288-12.288-12.288s-12.288 5.502-12.288 12.288c0 6.786 5.502 12.288 12.288 12.288s12.288-5.502 12.288-12.288zM336.896 219.648c0-8.2-6.648-14.848-14.848-14.848s-14.848 6.648-14.848 14.848c0 8.2 6.648 14.848 14.848 14.848s14.848-6.648 14.848-14.848z" />
<glyph unicode="&#xe951;" glyph-name="icon-trade" data-tags="trade-1136347" d="M528.213 276.48c0 0 0 0 0 0-4.267 0-6.827 2.56-7.68 5.12l-27.307 67.413-34.133 13.653c-1.707 0.853-3.413 2.56-4.267 4.267l-17.067 34.987c-0.853 1.707-0.853 3.413-0.853 5.12l3.413 33.28-74.24-34.133c-2.56-0.853-5.973-0.853-7.68 0.853l-65.707 39.253c-2.56 1.707-4.267 4.267-4.267 6.827l-2.56 106.667c0 5.12 3.413 8.533 8.533 8.533 0 0 0 0 0 0 4.267 0 8.533-3.413 8.533-8.533l2.56-101.547 58.027-34.987 83.627 38.4c2.56 1.707 5.973 0.853 8.533-0.853s4.267-5.12 3.413-7.68l-5.12-46.080 14.507-29.867 34.987-13.653c2.56-0.853 4.267-2.56 5.12-5.12l22.187-55.467 25.6 40.96-4.267 75.947c0 1.707 0 3.413 0.853 4.267l16.213 30.72-46.080 11.947-36.693-5.12c-3.413 0-5.973 0.853-7.68 3.413l-33.28 42.667c-1.707 2.56-2.56 5.973-0.853 9.387l25.6 47.787c2.56 4.267 7.68 5.973 11.947 3.413l10.24-5.12-9.387 72.533-50.347 40.96c-3.413 2.56-4.267 8.533-0.853 11.947 2.56 3.413 8.533 4.267 11.947 0.853l53.76-43.52c1.707-1.707 2.56-3.413 3.413-5.973l8.533-90.453c0-3.413-0.853-5.973-3.413-7.68s-5.973-1.707-8.533-0.853l-16.213 8.533-20.48-34.133 27.307-34.987 33.28 4.267c0.853 0 2.56 0 3.413 0l58.027-15.36c2.56-0.853 4.267-2.56 5.973-5.12 0.853-2.56 0.853-5.12 0-7.68l-19.627-37.547 4.267-75.947c0-1.707 0-3.413-0.853-5.12l-35.84-58.027c-2.56-1.707-5.12-3.413-8.533-3.413zM756.053 400.213c-1.707 0-3.413 0.853-5.12 1.707l-35.84 24.747c-1.707 0.853-2.56 2.56-2.56 3.413l-27.307 63.147h-71.68c-3.413 0-5.973 1.707-7.68 5.12l-29.013 58.027c-1.707 3.413-0.853 6.827 1.707 10.24l46.933 46.933 13.653 45.227c1.707 4.267 5.973 6.827 10.24 5.973 4.267-1.707 6.827-5.973 5.973-10.24l-13.653-46.933c0-1.707-0.853-2.56-2.56-3.413l-44.373-44.373 23.893-47.787h72.533c3.413 0 6.827-1.707 7.68-5.12l28.16-65.707 33.28-23.040c4.267-2.56 5.12-7.68 1.707-11.947 0-5.12-3.413-5.973-5.973-5.973zM512 192c-140.8 0-256 115.2-256 256 0 5.12 3.413 8.533 8.533 8.533s8.533-3.413 8.533-8.533c0-131.413 107.52-238.933 238.933-238.933 5.12 0 8.533-3.413 8.533-8.533s-3.413-8.533-8.533-8.533zM759.467 439.467c-5.12 0-8.533 3.413-8.533 8.533 0 131.413-107.52 238.933-238.933 238.933-5.12 0-8.533 3.413-8.533 8.533s3.413 8.533 8.533 8.533c140.8 0 256-115.2 256-256 0-5.12-3.413-8.533-8.533-8.533zM512 192c-140.8 0-256 115.2-256 256 0 53.76 16.213 104.96 47.787 148.48 2.56 3.413 7.68 5.12 11.947 1.707 4.267-2.56 5.12-7.68 1.707-11.947-29.013-40.107-44.373-87.893-44.373-138.24 0-131.413 107.52-238.933 238.933-238.933 65.707 0 127.147 26.453 172.373 73.387 3.413 3.413 8.533 3.413 11.947 0s3.413-8.533 0-11.947c-47.787-50.347-113.493-78.507-184.32-78.507zM715.093 297.813c-1.707 0-3.413 0.853-5.12 1.707-4.267 2.56-5.12 7.68-1.707 11.947 28.16 40.107 42.667 87.040 42.667 136.533 0 131.413-107.52 238.933-238.933 238.933-65.707 0-127.147-26.453-173.227-74.24-3.413-3.413-8.533-3.413-11.947 0s-3.413 8.533 0 11.947c48.64 51.2 114.347 79.36 185.173 79.36 140.8 0 256-115.2 256-256 0-52.907-16.213-103.253-46.080-146.773-1.707-1.707-4.267-3.413-6.827-3.413zM388.267 610.133h-55.467c-5.12 0-8.533 3.413-8.533 8.533v55.467c0 5.12 3.413 8.533 8.533 8.533s8.533-3.413 8.533-8.533v-46.933h46.933c5.12 0 8.533-3.413 8.533-8.533s-3.413-8.533-8.533-8.533zM690.347 212.48c-5.12 0-8.533 3.413-8.533 8.533v46.933h-46.933c-5.12 0-8.533 3.413-8.533 8.533s3.413 8.533 8.533 8.533h55.467c5.12 0 8.533-3.413 8.533-8.533v-55.467c0-4.267-3.413-8.533-8.533-8.533z" />
<glyph unicode="&#xe952;" glyph-name="icon-transfer" data-tags="transfer-691474" d="M625.999 627.172c-4.924-0.23-9.752-2.028-13.999-5.199-11.324-8.461-13.664-24.274-5.201-35.594l46.001-61.59h-332.8c-14.139 0-25.6-11.462-25.6-25.596s11.461-25.596 25.6-25.596h384c14.139 0 25.6 11.462 25.6 25.596 0.005 8.088-4.134 12.356-7.601 17.997l-73.999 99.584c-5.292 7.077-13.791 10.79-22.001 10.399zM320 422.404c-14.139 0-25.6-11.461-25.6-25.596-0.005-8.088 4.134-12.356 7.601-17.997l73.999-99.584c5.292-7.076 13.791-10.79 22.001-10.399 4.924 0.23 9.752 2.028 13.999 5.199 11.324 8.461 13.664 24.274 5.201 35.594l-46.001 61.59h332.8c14.139 0 25.6 11.462 25.6 25.596s-11.461 25.596-25.6 25.596h-384z" />
<glyph unicode="&#xe953;" glyph-name="icon-u-turn" data-tags="u-turn" d="M512 960c-282.782 0-512-229.218-512-512s229.218-512 512-512c282.782 0 512 229.218 512 512s-229.218 512-512 512zM551.385 448h-39.385v39.385h39.385c65.142 0 118.154 53.012 118.154 118.154s-53.012 118.154-118.154 118.154c-65.142 0-118.154-53.012-118.154-118.154v-397.233l123.904 123.904 27.845-27.845-171.441-171.441-171.481 171.481 27.845 27.845 123.943-123.943v397.233c0 86.843 70.656 157.538 157.538 157.538s157.538-70.695 157.538-157.538-70.656-157.538-157.538-157.538z" />
<glyph unicode="&#xe954;" glyph-name="icon-ui" data-tags="ui-711396" d="M289.28 550.4h440.32v-10.24h-440.32v10.24zM350.72 514.56h312.32v-10.24h-312.32v10.24zM376.32 586.24h256v-10.24h-256v10.24zM248.32 314.88h138.24v-10.24h-138.24v10.24zM273.92 284.16h87.040v-10.24h-87.040v10.24zM97.28 760.32v-624.64h829.44v624.64zM916.48 750.080v-69.12h-808.96v69.12zM107.52 145.92v524.8h808.96v-524.8zM158.413 715.162c0-7.069-5.731-12.8-12.8-12.8s-12.8 5.731-12.8 12.8c0 7.069 5.731 12.8 12.8 12.8s12.8-5.731 12.8-12.8zM204.493 715.162c0-7.069-5.731-12.8-12.8-12.8s-12.8 5.731-12.8 12.8c0 7.069 5.731 12.8 12.8 12.8s12.8-5.731 12.8-12.8zM250.573 715.162c0-7.069-5.731-12.8-12.8-12.8s-12.8 5.731-12.8 12.8c0 7.069 5.731 12.8 12.8 12.8s12.8-5.731 12.8-12.8zM319.181 346.829c22.622 0 40.96 18.338 40.96 40.96s-18.338 40.96-40.96 40.96c-22.622 0-40.96-18.338-40.96-40.96v0c0-22.622 18.338-40.96 40.96-40.96v0zM319.181 418.509c16.966 0 30.72-13.754 30.72-30.72s-13.754-30.72-30.72-30.72c-16.966 0-30.72 13.754-30.72 30.72v0c0 16.966 13.754 30.72 30.72 30.72v0zM437.76 314.88h138.24v-10.24h-138.24v10.24zM463.36 284.16h87.040v-10.24h-87.040v10.24zM467.661 387.789c0-22.622 18.338-40.96 40.96-40.96s40.96 18.338 40.96 40.96c0 22.622-18.338 40.96-40.96 40.96v0c-22.622 0-40.96-18.338-40.96-40.96v0zM539.341 387.789c0-16.966-13.754-30.72-30.72-30.72s-30.72 13.754-30.72 30.72c0 16.966 13.754 30.72 30.72 30.72v0c16.966 0 30.72-13.754 30.72-30.72v0zM627.2 314.88h138.24v-10.24h-138.24v10.24zM652.8 284.16h87.040v-10.24h-87.040v10.24zM698.061 346.829c22.622 0 40.96 18.338 40.96 40.96s-18.338 40.96-40.96 40.96c-22.622 0-40.96-18.338-40.96-40.96v0c0-22.622 18.338-40.96 40.96-40.96v0zM698.061 418.509c16.966 0 30.72-13.754 30.72-30.72s-13.754-30.72-30.72-30.72c-16.966 0-30.72 13.754-30.72 30.72v0c0 16.966 13.754 30.72 30.72 30.72v0z" />
<glyph unicode="&#xe955;" glyph-name="icon-ux" data-tags="ux-760626" d="M542.118 478.118v135.529h90.353c16.634 0 30.118 13.484 30.118 30.118v150.588c0 16.634-13.484 30.118-30.118 30.118h-240.941c-16.634 0-30.118-13.484-30.118-30.118v-150.588c0-16.634 13.484-30.118 30.118-30.118h90.353v-135.529h-270.91c-49.984 0-90.502-40.451-90.502-90.389v-105.376h-90.353c-16.634 0-30.118-13.484-30.118-30.118v-150.588c0-16.634 13.484-30.118 30.118-30.118h240.941c16.634 0 30.118 13.484 30.118 30.118v150.588c0 16.634-13.484 30.118-30.118 30.118h-90.353v105.376c0 16.648 13.527 30.153 30.267 30.153h270.91v-135.529h-90.353c-16.634 0-30.118-13.484-30.118-30.118v-150.588c0-16.634 13.484-30.118 30.118-30.118h240.941c16.634 0 30.118 13.484 30.118 30.118v150.588c0 16.634-13.484 30.118-30.118 30.118h-90.353v135.529h270.91c16.729 0 30.267-13.512 30.267-30.153v-105.376h-90.353c-16.634 0-30.118-13.484-30.118-30.118v-150.588c0-16.634 13.484-30.118 30.118-30.118h240.941c16.634 0 30.118 13.484 30.118 30.118v150.588c0 16.634-13.484 30.118-30.118 30.118h-90.353v105.376c0 49.934-40.531 90.389-90.502 90.389h-270.91zM602.353 764.235v-90.353h-180.706v90.353h180.706zM60.235 222.118h180.706v-90.353h-180.706v90.353zM783.059 222.118h180.706v-90.353h-180.706v90.353zM421.647 222.118h180.706v-90.353h-180.706v90.353z" />
<glyph unicode="&#xe956;" glyph-name="icon-vehicle" data-tags="vehicle-1093685" d="M324.608 187.904c53.248 0 96.256 40.96 101.376 92.16h212.992c5.12-51.2 49.152-92.16 101.376-92.16s96.256 40.96 101.376 92.16h73.728v294.912c0 73.728-59.392 133.12-133.12 133.12h-378.88c-33.792 0-61.44-27.648-61.44-61.44v-3.072h-51.2c-61.44 0-117.76-33.792-146.432-89.088l-34.816-67.584c-2.048-4.096-3.072-9.216-3.072-14.336v-192.512h114.688c6.144-51.2 50.176-92.16 103.424-92.16zM324.608 249.344c-22.528 0-40.96 18.432-40.96 40.96s18.432 40.96 40.96 40.96 40.96-18.432 40.96-40.96-18.432-40.96-40.96-40.96zM740.352 249.344c-22.528 0-40.96 18.432-40.96 40.96s18.432 40.96 40.96 40.96 40.96-18.432 40.96-40.96-18.432-40.96-40.96-40.96zM404.48 646.656h378.88c39.936 0 71.68-31.744 71.68-71.68v-233.472h-25.6c-17.408 30.72-51.2 51.2-88.064 51.2s-70.656-20.48-88.064-51.2h-240.64c-3.072 5.12-6.144 9.216-9.216 13.312 0 2.048 1.024 4.096 1.024 7.168v284.672zM291.84 582.144h51.2v-78.848h-154.624l12.288 23.552c17.408 33.792 52.224 55.296 91.136 55.296zM168.96 441.856h174.080v-50.176c-6.144 1.024-12.288 2.048-18.432 2.048-37.888 0-70.656-20.48-88.064-51.2h-66.56v99.328z" />
<glyph unicode="&#xe957;" glyph-name="icon-wheat" data-tags="wheat-886737" d="M508.428 764.726c-19.051-20.242-29.767-46.437-29.767-73.823s10.716-53.581 29.767-72.633c19.051 19.051 29.767 45.247 29.767 72.633s-10.716 53.581-29.767 73.823v0zM495.33 451.572c0 27.386-10.716 53.581-29.767 72.633s-45.247 29.767-72.633 29.767c0-27.386 10.716-53.581 29.767-72.633s45.247-29.767 72.633-29.767v0zM495.33 275.349c0 27.386-10.716 53.581-29.767 72.633s-45.247 29.767-72.633 29.767c0-27.386 10.716-53.581 29.767-72.633s45.247-29.767 72.633-29.767v0zM521.526 276.54c27.386-1.191 53.581 9.526 72.633 29.767 19.051 19.051 29.767 45.247 29.767 72.633-27.386 0-53.581-10.716-72.633-29.767-19.051-20.242-29.767-46.437-29.767-72.633v0zM521.526 452.763c27.386-1.191 53.581 9.526 72.633 29.767 19.051 19.051 29.767 45.247 29.767 72.633-27.386 0-53.581-10.716-72.633-29.767-19.051-20.242-29.767-46.437-29.767-72.633v0zM508.428 111.033c-7.144 0-13.098 5.953-13.098 13.098v125.023c-34.53 0-66.679 13.098-91.684 38.102-27.386 27.386-41.674 66.679-36.912 104.781 1.191 5.953 5.953 10.716 11.907 11.907 4.763 0 9.526 1.191 13.098 1.191 34.53 0 66.679-13.098 91.684-38.102 4.763-4.763 8.335-8.335 11.907-13.098v72.633c-34.53 0-66.679 13.098-91.684 38.102-27.386 27.386-41.674 66.679-36.912 104.781 1.191 5.953 5.953 10.716 11.907 11.907 4.763 0 9.526 1.191 13.098 1.191 34.53 0 66.679-13.098 91.684-38.102 4.763-4.763 8.335-8.335 11.907-13.098v65.488c-27.386 25.005-42.865 59.535-42.865 96.447 0 39.293 17.86 76.205 47.628 101.209 4.763 3.572 11.907 3.572 16.67 0 30.958-25.005 47.628-61.916 47.628-101.209 0-36.912-15.479-71.442-42.865-96.447v-66.679c3.572 4.763 7.144 9.526 11.907 13.098 25.005 25.005 57.153 38.102 91.684 38.102 4.763 0 9.526 0 13.098-1.191 5.953-1.191 10.716-5.953 11.907-11.907 3.572-39.293-9.526-77.395-36.912-104.781-23.814-23.814-57.153-38.102-91.684-38.102v-72.633c3.572 4.763 7.144 9.526 11.907 13.098 25.005 25.005 57.153 38.102 91.684 38.102 4.763 0 9.526 0 13.098-1.191 5.953-1.191 10.716-5.953 11.907-11.907 3.572-39.293-9.526-77.395-36.912-104.781-23.814-23.814-57.153-38.102-91.684-38.102v-125.023c0-5.953-5.953-11.907-13.098-11.907v0z" />
<glyph unicode="&#xe958;" glyph-name="icon-rocket" data-tags="sendit-rocket" d="M512.205 356.659l111.616-108.954-111.616-158.106-111.616 158.106 111.616 108.954zM203.776 103.936l105.062 120.627v256.614l-105.062-120.627c0 0 0-256.614 0-256.614zM715.366 481.178v-256.614l104.858-120.627v256.614l-104.858 120.627zM323.584 617.984v-377.242l188.416 188.416 188.416-188.416v377.242l-188.416 188.416-188.416-188.416z" />
<glyph unicode="&#xe959;" glyph-name="icon-setting" data-tags="setting-1154726" d="M896 492.8c0 19.2-19.2 38.4-38.4 44.8v0 0l-51.2 12.8c-6.4 12.8-6.4 32-19.2 44.8l32 38.4c6.4 6.4 12.8 19.2 12.8 25.6 0 12.8-6.4 25.6-19.2 38.4v0l-44.8 51.2c-12.8 12.8-25.6 19.2-38.4 19.2s-25.6-6.4-32-12.8v0l-38.4-32c-12.8 6.4-32 12.8-44.8 19.2l-6.4 51.2c-12.8 25.6-38.4 38.4-57.6 38.4h-70.4c-25.6 0-44.8-12.8-51.2-38.4v0l-12.8-51.2c-12.8-6.4-32-6.4-44.8-19.2l-38.4 25.6c-6.4 6.4-19.2 12.8-32 12.8s-25.6-6.4-38.4-19.2v0l-44.8-44.8c-6.4-12.8-12.8-25.6-12.8-38.4s6.4-19.2 12.8-25.6v0l32-44.8c-19.2-19.2-19.2-32-25.6-51.2l-51.2-6.4c-25.6 0-44.8-25.6-44.8-51.2v-70.4c0-25.6 19.2-44.8 44.8-51.2v0l51.2-12.8c6.4-12.8 6.4-32 19.2-44.8l-32-38.4c-6.4-12.8-12.8-19.2-12.8-32s6.4-25.6 19.2-38.4v0l44.8-44.8c6.4-12.8 19.2-19.2 32-19.2s25.6 6.4 32 12.8v0l44.8 32c12.8-6.4 32-12.8 44.8-19.2l12.8-51.2c6.4-25.6 25.6-38.4 51.2-38.4h70.4c25.6 0 44.8 19.2 51.2 38.4v0l12.8 51.2c12.8 6.4 32 6.4 44.8 19.2l38.4-32c6.4-6.4 12.8-12.8 32-12.8 12.8 0 25.6 6.4 38.4 19.2v0l44.8 44.8c12.8 12.8 19.2 25.6 19.2 38.4s-6.4 19.2-12.8 32l-32 38.4c6.4 12.8 12.8 25.6 19.2 44.8l51.2 12.8c19.2 6.4 38.4 25.6 38.4 57.6v76.8zM780.8 403.2v0c-6.4 0-12.8 0-12.8-6.4-6.4-6.4-6.4-6.4-6.4-12.8v0c-6.4-19.2-12.8-44.8-25.6-64v0c0-6.4-6.4-6.4-6.4-12.8s0-12.8 6.4-12.8v0l38.4-57.6-44.8-44.8c0 0 0 0 0 0l-57.6 38.4c-6.4 6.4-6.4 6.4-12.8 6.4s-6.4 0-12.8-6.4v0c-19.2-12.8-38.4-19.2-64-25.6v0c-6.4 0-12.8-6.4-12.8-6.4l-6.4-12.8-12.8-70.4h-64l-12.8 70.4c0 6.4 0 12.8-6.4 12.8-6.4 6.4-6.4 6.4-12.8 6.4v0c-19.2 6.4-44.8 12.8-57.6 25.6v0 0c-6.4 0-6.4 0-12.8 0h-6.4c0 0-6.4-6.4-6.4-6.4l-57.6-38.4c0 0 0 0 0 0l-44.8 44.8 38.4 51.2c6.4 6.4 6.4 6.4 6.4 12.8s0 6.4-6.4 12.8c-19.2 32-32 51.2-38.4 76.8v0c0 6.4-6.4 12.8-6.4 12.8l-12.8 6.4-64 12.8v64l70.4 12.8c6.4 0 12.8 0 12.8 6.4 0 0 0 6.4 0 12.8v0c6.4 19.2 12.8 44.8 25.6 64 0 0 6.4 6.4 6.4 12.8s0 12.8-6.4 12.8v0l-38.4 57.6 44.8 44.8c0 0 0 0 0 0l51.2-38.4c6.4-6.4 6.4-6.4 12.8-6.4s6.4 0 12.8 6.4v0c25.6 6.4 51.2 19.2 70.4 25.6v0c6.4 0 12.8 6.4 12.8 6.4l6.4 12.8 12.8 70.4h64l12.8-70.4c0-6.4 0-12.8 6.4-12.8 6.4-6.4 6.4-6.4 12.8-6.4v0c25.6-6.4 44.8-12.8 64-25.6v0c6.4 0 6.4-6.4 12.8-6.4s12.8 0 12.8 6.4v0l57.6 38.4c0 0 0 0 0 0l44.8-38.4-38.4-57.6c-6.4-6.4-6.4-6.4-6.4-12.8s0-6.4 6.4-12.8v0c12.8-19.2 19.2-38.4 25.6-64v0c0-6.4 6.4-12.8 6.4-12.8l12.8-6.4 70.4-12.8v-64l-64-19.2zM531.2 576c-70.4 0-128-57.6-128-128s57.6-128 128-128c70.4 0 128 57.6 128 128s-57.6 128-128 128zM531.2 377.6c-38.4 0-70.4 32-70.4 70.4s32 70.4 70.4 70.4c38.4 0 70.4-32 70.4-70.4s-32-70.4-70.4-70.4z" />
<glyph unicode="&#xe95a;" glyph-name="icon-star" data-tags="star-580939" d="M512 898.56c-248.595 0-450.56-201.965-450.56-450.56s201.965-450.56 450.56-450.56c248.595 0 450.56 201.966 450.56 450.56s-201.965 450.56-450.56 450.56zM512 857.6c226.458 0 409.6-183.141 409.6-409.6s-183.142-409.6-409.6-409.6c-226.458 0-409.6 183.141-409.6 409.6s183.142 409.6 409.6 409.6zM509.44 693.76c-6.723-0.965-12.314-5.076-15.306-10.768l-0.054-0.112-66.88-124.48-144.64-28.8c-9.567-1.849-16.694-10.156-16.694-20.129 0-6.474 3.004-12.246 7.693-16l0.041-0.031 103.040-84.48-28.16-141.12c-0.277-1.262-0.435-2.712-0.435-4.199 0-11.312 9.17-20.482 20.482-20.482 3.431 0 6.665 0.844 9.505 2.334l-0.112-0.054 134.080 66.88 134.080-66.88c2.728-1.437 5.962-2.281 9.393-2.281 11.312 0 20.482 9.17 20.482 20.482 0 1.487-0.158 2.937-0.459 4.333l0.024-0.135-28.16 141.12 103.040 84.48c4.73 3.785 7.734 9.557 7.734 16.031 0 9.972-7.127 18.28-16.565 20.108l-0.129 0.021-144.64 28.8-66.88 124.48c-3.492 6.595-10.311 11.012-18.161 11.012-0.817 0-1.623-0.048-2.415-0.141l0.096 0.009zM512 630.4l53.76-99.84c2.803-5.318 7.73-9.196 13.623-10.534l0.137-0.026 111.040-22.080-79.040-64.64c-4.594-3.785-7.5-9.474-7.5-15.843 0-1.529 0.168-3.020 0.486-4.454l-0.025 0.136 22.4-112.32-105.6 52.8c-2.7 1.401-5.894 2.223-9.28 2.223s-6.581-0.822-9.394-2.277l0.114 0.054-105.6-52.8 22.4 112.32c0.293 1.298 0.46 2.788 0.46 4.317 0 6.368-2.906 12.058-7.465 15.814l-0.035 0.028-79.040 64.64 111.040 22.080c6.030 1.364 10.957 5.242 13.706 10.448l0.054 0.112 53.76 99.84z" />
<glyph unicode="&#xe95b;" glyph-name="icon-question" data-tags="icon-question" d="M450.56 365.568c0 26.624 4.608 50.176 13.824 70.144s24.064 37.888 45.056 53.248c7.68 5.632 14.848 10.752 21.504 15.872 7.168 5.12 13.312 10.24 18.944 15.872s10.24 11.264 13.824 17.408c3.584 6.144 5.12 12.8 5.12 20.48 0 15.36-6.144 26.624-18.432 34.304s-26.624 11.264-42.496 11.264c-11.264 0-22.016-1.536-32.256-4.608-9.728-3.072-18.944-6.656-27.136-11.264s-15.872-9.728-22.528-14.848c-6.656-5.12-12.288-10.24-16.896-14.336l-65.536 69.12c6.656 7.168 14.848 15.36 25.6 24.064 10.24 8.704 23.040 16.896 36.864 24.064 14.336 7.168 30.208 13.312 48.64 18.432s38.4 7.168 60.928 7.168c23.040 0 44.544-3.072 64.512-9.216s36.864-15.36 51.712-27.136c14.336-11.776 25.6-26.112 33.792-43.52 8.192-16.896 12.288-36.352 12.288-57.344 0-14.336-1.536-27.136-4.608-37.888s-7.168-20.48-12.8-29.696c-5.632-8.704-11.776-16.896-19.456-24.576-7.68-7.168-15.872-14.336-24.576-20.48-9.216-7.168-17.408-13.312-25.6-19.456s-14.848-12.288-19.968-18.432c-5.632-6.656-9.728-13.824-13.312-21.504-3.072-7.68-4.608-17.408-4.608-28.16v-9.728h-102.4v10.752zM445.44 309.76h117.76v-112.64h-117.76v112.64z" />
<glyph unicode="&#xe95c;" glyph-name="icon-multicase" data-tags="icon-multicase" d="M505.6 595.2c0 0-147.2 147.2-153.6 147.2-6.4 6.4-25.6 6.4-32 0 0 0-153.6-147.2-153.6-147.2-12.8-12.8-12.8-38.4 0-51.2s38.4-12.8 51.2 0l70.4 70.4v-345.6c0-25.6 12.8-38.4 38.4-38.4s38.4 12.8 38.4 38.4v345.6l76.8-70.4c12.8-12.8 38.4-12.8 51.2 0 25.6 12.8 25.6 38.4 12.8 51.2zM524.8 249.6c0 0 147.2-147.2 153.6-147.2 6.4-6.4 25.6-6.4 32 0 6.4 0 153.6 147.2 153.6 147.2 12.8 12.8 12.8 38.4 0 51.2s-38.4 12.8-51.2 0l-70.4-70.4v345.6c0 25.6-12.8 38.4-38.4 38.4s-44.8-19.2-44.8-38.4v-345.6l-70.4 70.4c-12.8 12.8-38.4 12.8-51.2 0-19.2-12.8-25.6-44.8-12.8-51.2z" />
<glyph unicode="&#xe95d;" glyph-name="icon-assign-door" data-tags="icon-assign-door-01" d="M819.2 857.6h-614.4c-17.92 0-32-14.080-32-32v-665.6c0-17.92 14.080-32 32-32h44.8v-57.6c0-17.92 14.080-32 32-32h147.2c17.92 0 32 14.080 32 32v57.6h51.2c17.92 0 32 14.080 32 32s-14.080 32-32 32h-275.2v358.4h582.4c17.92 0 32 14.080 32 32v243.2c0 17.92-14.080 32-32 32zM396.8 128v-25.6h-83.2v25.6h83.2zM787.2 614.4h-550.4v179.2h550.4v-179.2zM352 275.2c-56.448 0-102.4 45.952-102.4 102.464 0 56.448 45.952 102.4 102.4 102.4s102.4-45.952 102.4-102.4c0-56.512-45.952-102.464-102.4-102.464zM352 416c-21.184 0-38.4-17.216-38.4-38.4s17.216-38.4 38.4-38.4 38.4 17.216 38.4 38.4c0 21.184-17.216 38.4-38.4 38.4zM851.2 332.8c0-3.84-0.64-8.32-2.56-11.52-1.28-3.84-3.84-7.68-6.4-10.24l-3.84-4.48c-0.64 0-0.64 0-1.28-0.64l-97.28-103.68c-5.76-7.040-14.72-10.24-23.040-10.24-7.68 0-16 2.56-21.76 8.96-12.8 12.16-13.44 32-1.28 44.8l51.2 55.040h-207.36c-17.92 0-32 14.080-32 32s14.080 32 32 32h204.16l-47.36 48c-12.8 12.16-12.8 32.64 0 44.8 12.16 12.8 32.64 12.8 44.8 0l102.4-102.4c3.2-3.2 5.76-7.040 7.040-10.88 1.92-3.84 2.56-7.68 2.56-11.52zM842.24 311.040c2.56 2.56 5.12 6.4 6.4 10.24-1.92-5.76-5.12-10.88-10.24-14.72l3.84 4.48zM841.6 355.2l-4.48 4.48c5.76-3.84 9.6-8.96 11.52-15.36-1.28 3.84-3.84 7.68-7.040 10.88z" />
<glyph unicode="&#xe95e;" glyph-name="icon-route" data-tags="icon-route" d="M832 716.8c0-31.812-25.788-57.6-57.6-57.6s-57.6 25.788-57.6 57.6c0 31.812 25.788 57.6 57.6 57.6s57.6-25.788 57.6-57.6zM768 902.4c-108.8 0-198.4-89.6-198.4-198.4 0-25.6 6.4-51.2 19.2-76.8l134.4-236.8c-38.4-12.8-83.2-25.6-128-38.4-44.8-19.2-76.8-38.4-83.2-64-6.4-19.2 0-51.2 6.4-70.4 12.8-38.4-115.2-76.8-179.2-108.8 0 0 115.2 217.6 115.2 262.4 0 108.8-89.6 198.4-198.4 198.4s-198.4-89.6-198.4-198.4c0-25.6 6.4-51.2 19.2-76.8l147.2-275.2c0 0 19.2-19.2 32-19.2 19.2 0 243.2 108.8 275.2 121.6 25.6 12.8 44.8 32 51.2 57.6 12.8 38.4-38.4 83.2 32 102.4s160 51.2 160 51.2v0c6.4 0 12.8 6.4 19.2 12.8 0 0 166.4 300.8 166.4 352 6.4 115.2-83.2 204.8-192 204.8zM256 96l-108.8 192c-6.4 6.4-25.6 44.8-25.6 83.2 0 76.8 64 134.4 134.4 134.4s134.4-64 134.4-134.4c0-19.2-6.4-38.4-12.8-57.6v0l-6.4-12.8c0 0 0-6.4-6.4-12.8l-108.8-192zM889.6 646.4l-121.6-217.6-108.8 192c-6.4 6.4-12.8 25.6-12.8 25.6-6.4 19.2-12.8 38.4-12.8 57.6 0 76.8 64 134.4 134.4 134.4s134.4-64 134.4-134.4c0-32-12.8-57.6-12.8-57.6zM320 377.6c0-31.812-25.788-57.6-57.6-57.6s-57.6 25.788-57.6 57.6c0 31.812 25.788 57.6 57.6 57.6s57.6-25.788 57.6-57.6z" />
<glyph unicode="&#xe95f;" glyph-name="icon-line" data-tags="Line icon" d="M512 654.346c-113.22 0-183.547-57.962-183.547-151.861 0-10.67 8.651-19.321 19.321-19.321h328.453c10.67 0 19.321 8.651 19.321 19.321 0 93.706-70.328 151.861-183.547 151.861zM368.447 521.805c12.752 86.75 111.867 93.899 143.553 93.899s130.802-7.149 143.553-93.899h-287.106zM512 857.214c-50.686 0-91.774-41.088-91.774-91.774 0.106-50.642 41.131-91.667 91.774-91.774 50.686 0 91.774 41.088 91.774 91.774s-41.088 91.774-91.774 91.774zM512 712.308c-29.343 0-53.132 23.789-53.132 53.132s23.789 53.132 53.132 53.132 53.132-23.789 53.132-53.132-23.789-53.132-53.132-53.132zM183.547 209.968c-113.22 0-183.547-57.962-183.547-151.861 0-10.67 8.651-19.321 19.321-19.321h328.453c10.67 0 19.321 8.651 19.321 19.321 0 93.706-70.328 151.861-183.547 151.861zM39.994 77.428c12.752 86.75 111.674 93.899 143.553 93.899s130.802-7.149 143.553-93.899h-287.106zM183.547 412.836c-50.686 0-91.774-41.088-91.774-91.774 0.106-50.642 41.131-91.667 91.774-91.774 50.686 0 91.774 41.088 91.774 91.774s-41.088 91.774-91.774 91.774zM183.547 267.931c-29.343 0-53.132 23.789-53.132 53.132s23.789 53.132 53.132 53.132 53.132-23.789 53.132-53.132-23.789-53.132-53.132-53.132zM840.453 209.968c-113.22 0-183.547-57.962-183.547-151.861 0-10.67 8.651-19.321 19.321-19.321h328.453c10.67 0 19.321 8.651 19.321 19.321 0 93.706-70.328 151.861-183.547 151.861zM696.9 77.428c12.752 86.75 111.674 93.899 143.553 93.899s130.802-7.149 143.553-93.899h-287.106zM840.453 412.836c-50.686 0-91.774-41.088-91.774-91.774 0.106-50.642 41.131-91.667 91.774-91.774 50.686 0 91.774 41.088 91.774 91.774s-41.088 91.774-91.774 91.774zM840.453 267.931c-29.343 0-53.132 23.789-53.132 53.132s23.789 53.132 53.132 53.132 53.132-23.789 53.132-53.132-23.789-53.132-53.132-53.132zM611.888 243.393l-80.568 80.954v113.992c0 10.67-8.651 19.321-19.321 19.321s-19.321-8.651-19.321-19.321v-113.992l-80.568-80.568c-7.629-7.523-7.716-19.806-0.193-27.435s19.806-7.716 27.435-0.193l72.646 72.839 72.646-72.839c8.105-6.941 20.301-5.997 27.242 2.108 6.195 7.233 6.195 17.901 0 25.134z" />
<glyph unicode="&#xe960;" glyph-name="icon-routes" data-tags="Route icon" d="M810.666 960l-59.734-59.734 110.934-110.934h-179.2c-119.466 0-213.334-93.868-213.334-213.334v-213.334c-34.132 25.6-81.067 42.666-128 42.666h-179.2l110.934 110.934-59.734 59.734-213.332-213.332 213.334-213.334 59.734 59.734-110.934 110.934h179.2c72.533 0 128-55.467 128-128v-256h85.334v640c0 72.533 55.467 128 128 128h179.2l-110.934-110.934 59.734-59.734 213.332 213.334-213.334 213.334z" />
<glyph unicode="&#xe961;" glyph-name="icon-monitor" data-tags="icon-monitor" d="M832 819.2h-640c-64 0-115.2-51.2-115.2-115.2v-505.6c0-64 51.2-115.2 115.2-115.2h640c64 0 115.2 51.2 115.2 115.2v499.2c0 64-51.2 121.6-115.2 121.6zM864 198.4c0-19.2-12.8-32-32-32h-640c-19.2 0-32 12.8-32 32v384h697.6l6.4-384zM864 672h-704v25.6c0 19.2 12.8 32 32 32h640c19.2 0 32-12.8 32-32v-25.6zM806.4 300.8c0-25.6-19.2-44.8-44.8-44.8h-230.4c-25.6 0-44.8 19.2-44.8 44.8s19.2 44.8 44.8 44.8h230.4c25.6-6.4 44.8-25.6 44.8-44.8zM441.6 364.8c0-12.8-6.4-19.2-12.8-32l-108.8-108.8c-6.4-6.4-19.2-12.8-32-12.8s-19.2 6.4-32 12.8c-19.2 19.2-19.2 44.8 0 57.6l83.2 83.2-83.2 83.2c-19.2 19.2-19.2 44.8 0 57.6 19.2 19.2 44.8 19.2 57.6 0l115.2-115.2c6.4-6.4 12.8-19.2 12.8-25.6z" />
<glyph unicode="&#xe962;" glyph-name="icon-checkbox-cancel" data-tags="icon-checkbox-cancel" d="M480 825.6c-208 0-377.6-169.6-377.6-377.6s169.6-377.6 377.6-377.6 377.6 169.6 377.6 377.6-169.6 377.6-377.6 377.6zM480 147.2c-165.76 0-300.8 135.040-300.8 300.8s135.040 300.8 300.8 300.8 300.8-135.040 300.8-300.8-135.040-300.8-300.8-300.8zM640 342.4c14.72-14.72 14.72-39.68 0-54.4-7.68-7.68-17.28-10.88-26.88-10.88-10.24 0-19.84 3.2-27.52 10.88l-105.6 105.6-105.6-105.6c-7.68-7.68-17.28-10.88-26.88-10.88-10.24 0-19.84 3.2-27.52 10.88-14.72 14.72-14.72 39.68 0 54.4l105.6 105.6-105.6 105.6c-14.72 14.72-14.72 39.040 0 54.4 15.36 14.72 39.68 14.72 54.4 0l105.6-105.6 105.6 105.6c15.36 14.72 39.040 14.72 54.4 0 14.72-15.36 14.72-39.68 0-54.4l-105.6-105.6 105.6-105.6z" />
</font>
</defs>
</svg>
